<?xml version="1.0" encoding="iso-8859-1"?>
<!-- Generator: Adobe Illustrator 18.0.0, SVG Export Plug-In . SVG Version: 6.00 Build 0)  -->
<!DOCTYPE svg PUBLIC "-//W3C//DTD SVG 1.1//EN" "http://www.w3.org/Graphics/SVG/1.1/DTD/svg11.dtd">
<svg version="1.1" id="Capa_1" xmlns="http://www.w3.org/2000/svg" xmlns:xlink="http://www.w3.org/1999/xlink" x="0px" y="0px"
	 viewBox="0 0 65.149 65.149" style="enable-background:new 0 0 65.149 65.149;" xml:space="preserve">
<g>
	<path style="fill:#1D1D1B;" d="M57.045,12.927c-0.008-0.332-0.172-0.537-0.383-0.642c-0.007-0.022-0.007-0.043-0.017-0.065
		c-0.793-1.853-1.717-3.603-1.921-5.645c-0.166-1.666,0.319-3.247,0.293-4.876c0.021-0.002,0.043-0.003,0.064-0.004
		c0.861-0.066,0.857-1.262,0-1.336C44.56-0.554,33.59,0.447,23.104,1.422C20.251,1.688,6.935,0.926,8.277,6.819
		c0.019,0.085,0.06,0.16,0.084,0.243C7.562,25.494,8.493,44.094,8.633,62.538c0.004,0.548,0.444,0.946,0.974,0.974
		c14.445,0.784,29.201,1.941,43.675,1.446c0.478,0.372,1.337,0.197,1.529-0.504c0.069-0.152,0.091-0.317,0.071-0.484
		C55.834,47.063,57.446,29.858,57.045,12.927z M14.42,4.228c0.642-0.073,1.285-0.145,1.927-0.218
		c1.927-0.221,3.859-0.412,5.79-0.596c3.542-0.337,7.089-0.613,10.64-0.831c7-0.43,14.05-0.342,21.041-0.805
		c-0.48,0.716-0.768,1.576-0.906,2.498C40.71,5.841,28.665,5.382,16.415,4.862c-0.331-0.014-0.414,0.525-0.079,0.587
		c12.01,2.224,24.443,1.551,36.481-0.105c-0.02,0.861,0.091,1.747,0.29,2.611c-0.014-0.001-0.023-0.007-0.037-0.007
		c-9.776,0.069-19.56,0.195-29.332,0.496c-0.441,0.014-0.442,0.673,0,0.685C33.51,9.413,43.298,9.361,53.07,9.09
		c0.134-0.004,0.236-0.053,0.321-0.117c0.489,1.482,1.268,2.798,2.23,3.669c-0.018,0.036-0.025,0.083-0.038,0.123
		c-0.086-0.098-0.204-0.169-0.353-0.177c-7.132-0.35-14.294,0.307-21.44,0.053c-3.644-0.129-7.324-0.333-10.946-0.772
		c-1.742-0.211-3.498-0.489-5.199-0.917c-2.858-0.719-4.602-1.104-5.52-4.092C10.618,4.545,11.383,3.667,14.42,4.228z
		 M54.358,26.549c-1.387-0.145-2.898-0.018-4.287,0.08c-0.371,0.026-0.371,0.55,0,0.577c1.374,0.097,2.868,0.221,4.243,0.083
		c-0.059,0.978-0.12,1.955-0.172,2.934c-0.027-0.009-0.044-0.032-0.075-0.034c-2.415-0.15-4.903,0.241-7.333,0.22
		c-0.36-0.003-0.354,0.534,0,0.556c2.379,0.147,5.026,0.416,7.376-0.083c-0.062,1.189-0.125,2.378-0.178,3.568
		c-0.03-0.015-0.043-0.042-0.083-0.048c-0.684-0.115-1.357,0.068-2.039,0.171c-0.829,0.125-1.657,0.25-2.486,0.375
		c-0.327,0.049-0.253,0.605,0.078,0.58c0.781-0.059,1.563-0.117,2.344-0.176c0.694-0.052,1.456-0.005,2.103-0.272
		c0.023-0.009,0.036-0.034,0.057-0.048c-0.031,0.723-0.069,1.446-0.098,2.169c-2.708,0.204-5.431,0.564-8.116,0.938
		c-0.224,0.031-0.17,0.402,0.053,0.394c2.668-0.104,5.37-0.232,8.031-0.505c-0.051,1.32-0.107,2.64-0.151,3.961
		c-1.252-0.081-2.642,0.257-3.882,0.4c-0.32,0.037-0.337,0.53,0,0.513c1.236-0.063,2.639,0.026,3.861-0.238
		c-0.031,0.96-0.062,1.921-0.091,2.882c-0.371,0.008-0.745,0.042-1.109,0.052c-0.778,0.022-1.556,0.045-2.333,0.068
		c-0.326,0.009-0.326,0.497,0,0.506c0.778,0.023,1.556,0.045,2.333,0.068c0.358,0.01,0.724,0.044,1.087,0.053
		c-0.026,0.898-0.053,1.797-0.078,2.695c-0.513,0.084-1.006,0.281-1.541,0.314c-0.709,0.044-1.397-0.069-2.069-0.293
		c-0.333-0.111-0.453,0.39-0.142,0.515c1.023,0.414,2.604,0.713,3.73,0.248c-0.034,1.213-0.067,2.426-0.101,3.638
		c-0.034-0.046-0.08-0.083-0.145-0.095c-0.577-0.107-1.181-0.029-1.767-0.008c-0.658,0.023-1.318,0.03-1.974,0.082
		c-0.253,0.02-0.254,0.374,0,0.394c0.656,0.052,1.317,0.059,1.974,0.082c0.588,0.021,1.188,0.1,1.767-0.008
		c0.06-0.011,0.101-0.047,0.135-0.088c-0.035,1.278-0.07,2.556-0.108,3.832c-0.279,0.022-0.559,0.052-0.836,0.053
		c-0.748,0.002-1.488-0.069-2.224-0.204c-0.307-0.056-0.442,0.393-0.131,0.475c0.904,0.236,2.113,0.529,3.168,0.449
		c-0.024,0.79-0.045,1.582-0.07,2.371c-1.277-0.07-2.586,0.14-3.867,0.124c-1.602-0.02-3.17-0.212-4.751-0.467
		c-0.362-0.059-0.527,0.47-0.155,0.563c2.608,0.652,6.058,1.281,8.749,0.561c-0.018,0.539-0.032,1.081-0.051,1.62
		c-7.683-0.433-15.419-0.292-23.111-0.572c-4.188-0.153-8.375-0.354-12.56-0.574c-1.34-0.07-4.878,0.396-5.794-0.321
		c-1.583-1.239-1.027-3.346-1.054-5.134c-0.233-15.712,0.101-31.556-0.825-47.254c3.282,3.484,11.105,4.356,14.765,4.677
		c10.019,0.878,21.011,1.522,30.941-0.375c0.041-0.008,0.071-0.027,0.105-0.042c-0.312,2.755-0.554,5.526-0.769,8.302
		c-2.822-0.273-5.823,0.01-8.63,0.074c-0.421,0.01-0.421,0.644,0,0.654c2.788,0.063,5.767,0.343,8.571,0.08
		C54.545,23.954,54.44,25.249,54.358,26.549z"/>
	<path style="fill:#1D1D1B;" d="M47.153,41.956c-0.685-0.6-1.167-0.407-1.974-0.5c-3.114-0.357-7.082,0.856-10.329,0.851
		c-3.332-0.004-6.951-1.097-10.2-0.899c-0.818,0.05-1.477-0.069-2.055,0.551c-0.744,0.797-0.306,2.402-0.259,3.293
		c0.193,3.665,0.49,7.337,0.912,10.983c0.006,0.048,0.026,0.085,0.039,0.127c-0.07,0.007-0.14,0.011-0.21,0.018
		c-0.794,0.079-0.831,1.269,0,1.266c7.704-0.029,15.315,0.08,23.004,0.594c0.671,0.045,0.855-0.615,0.613-1.079
		c0.45-0.021,0.883-0.318,0.893-0.908c0.056-3.369,0.039-6.737,0.034-10.107C47.621,45.23,48.092,42.779,47.153,41.956z
		 M24.437,56.266c0.001-0.012,0.006-0.019,0.006-0.031c0.013-1.206-1.187-12.175-0.316-12.813c0.425-0.312,3.048,0.353,3.73,0.439
		c2.032,0.259,4.069,0.418,6.116,0.476c2.045,0.058,4.089,0.019,6.13-0.13c1.017-0.074,2.908-0.647,3.771-0.394
		c2.975,0.875,1.744,10.077,1.814,12.438c0.005,0.178,0.056,0.321,0.127,0.448C38.762,55.879,31.526,55.67,24.437,56.266z"/>
	<path style="fill:#1D1D1B;" d="M41.745,51.431c-4.617-0.206-9.364,0.117-14.002,0.089c-0.365-0.002-0.469,0.593-0.089,0.656
		c4.51,0.75,9.721,1.185,14.249,0.429C42.595,52.49,42.388,51.46,41.745,51.431z"/>
	<path style="fill:#1D1D1B;" d="M42.08,46.234c-4.531-0.15-9.131,0.384-13.674,0.413c-0.742,0.005-0.728,1.093,0,1.143
		c4.556,0.311,9.358,0.72,13.899,0.101C43.277,47.759,42.99,46.264,42.08,46.234z"/>
	<path style="fill:#1D1D1B;" d="M54.499,17.899c-1.431-0.334-3.53,0.043-4.87,0.608c-0.217,0.092-0.226,0.476,0.062,0.456
		c0.84-0.058,1.667-0.227,2.509-0.28c0.766-0.048,1.543,0.034,2.299-0.099C54.849,18.522,54.827,17.975,54.499,17.899z"/>
</g>
<g>
</g>
<g>
</g>
<g>
</g>
<g>
</g>
<g>
</g>
<g>
</g>
<g>
</g>
<g>
</g>
<g>
</g>
<g>
</g>
<g>
</g>
<g>
</g>
<g>
</g>
<g>
</g>
<g>
</g>
</svg>
