<?xml version="1.0" encoding="iso-8859-1"?>
<!-- Generator: Adobe Illustrator 18.0.0, SVG Export Plug-In . SVG Version: 6.00 Build 0)  -->
<!DOCTYPE svg PUBLIC "-//W3C//DTD SVG 1.1//EN" "http://www.w3.org/Graphics/SVG/1.1/DTD/svg11.dtd">
<svg version="1.1" id="Capa_1" xmlns="http://www.w3.org/2000/svg" xmlns:xlink="http://www.w3.org/1999/xlink" x="0px" y="0px"
	 viewBox="0 0 63.8 63.8" style="enable-background:new 0 0 63.8 63.8;" xml:space="preserve">
<g>
	<path style="fill:#1D1D1B;" d="M63.675,57.046c-0.4-0.605-1.098-0.864-1.663-1.292c-0.545-0.412-1.028-0.902-1.469-1.422
		c-0.102-0.12-0.224-0.178-0.35-0.212c0.111-0.427,0.117-0.878-0.053-1.324c0.163-0.27,0.169-0.617-0.147-0.914
		c-8.451-7.938-17.011-15.783-25.534-23.644c-0.001-0.353-0.02-0.714-0.08-1.092c0.304-0.287,0.403-0.75-0.015-1.104
		c-3.879-3.282-7.83-6.488-11.791-9.67c-2.081-1.672-4.224-3.733-6.548-5.324c7.964,0.567,14.736,6.597,20.762,11.36
		c-0.018,2.766,0.915,5.779,4.043,6.344c2.637,0.476,5.04-2.191,3.745-4.696c-0.075-0.145-0.173-0.239-0.278-0.31
		c-0.015-0.157-0.064-0.315-0.194-0.461C38.523,17.02,31.388,12.229,24.127,8.116C20.042,5.803,13.71,3.435,11.12,8.839
		C9.649,8.6,8.155,8.736,6.905,9.286c0.113-0.181,0.146-0.409,0-0.651C6.142,7.371,5.26,6.018,3.764,5.568
		c-1.165-0.35-2.579-0.155-3.296,0.927c-0.705,1.063-0.564,2.463,0.093,3.51c0.794,1.264,2.19,1.895,3.516,2.452
		c-0.133,0.455-0.221,0.945-0.24,1.486c-0.003,0.076,0.013,0.143,0.04,0.203c-0.227,3.017,2.247,6.107,4.115,8.562
		c4.249,5.586,9.139,10.541,14.92,14.528c0.223,0.154,0.463,0.084,0.63-0.072c0.131,0.087,0.304,0.122,0.511,0.062
		c0.569-0.165,1.172-0.354,1.789-0.569c3.61,3.784,9.099,6.253,13.536,8.977c5.147,3.159,10.127,6.643,15.354,9.66
		c0.059,0.034,0.12,0.05,0.18,0.055c0.968,0.678,2.045,1.159,3.26,0.806c0.444-0.129,0.852-0.38,1.195-0.696
		c0.424,0.602,0.891,1.174,1.429,1.679c0.594,0.558,1.264,1.197,2.108,1.251C63.566,58.432,64.037,57.593,63.675,57.046z
		 M37.689,33.342c-2.308,0.316-4.588,0.734-6.919,0.926c0.587-0.403,1.137-0.839,1.619-1.323c1.444-0.114,3.002-0.202,4.417-0.532
		C37.098,32.724,37.396,33.031,37.689,33.342z M36.387,31.958c-1.19,0.08-2.415,0.317-3.588,0.546
		c0.712-0.819,1.244-1.75,1.499-2.81C34.987,30.454,35.687,31.206,36.387,31.958z M42.968,24.419
		c0.02,0.022,0.042,0.027,0.063,0.046c-0.012,0.144,0,0.293,0.073,0.45c0.37,0.797-0.255,1.788-1.027,2.067
		c-0.91,0.33-1.903-0.23-2.531-0.855c-0.87-0.867-1.278-2.149-1.523-3.407c0.275-0.206,0.395-0.588,0.059-0.906
		c-0.081-0.077-0.168-0.156-0.249-0.233c-0.016-0.11-0.032-0.221-0.047-0.328c-0.048-0.347-0.365-0.408-0.621-0.296
		C31.33,15.562,23.012,9.299,14.934,9.751c-0.243,0.014-0.403,0.14-0.498,0.302c-0.413-0.228-0.833-0.438-1.259-0.623
		c-0.269-0.117-0.545-0.217-0.824-0.305C18.061,1.264,38.935,20.035,42.968,24.419z M4.553,11.342
		C3.206,10.64,1.304,9.601,1.729,7.791c0.252-1.073,1.389-1.11,2.197-0.63C4.745,7.648,5.251,8.53,5.739,9.316
		c0.132,0.212,0.322,0.298,0.515,0.308C5.559,10.044,4.975,10.616,4.553,11.342z M23.709,35.979
		c-0.136,0.05-0.227,0.134-0.299,0.228c-3.359-2.981-6.701-6.029-9.73-9.348c-3.293-3.608-9.949-9.858-7.826-15.317
		c0.028-0.072,0.024-0.141,0.007-0.205c1.6-2.285,4.584-1.505,7.563,0.18c-2.161,0.035-4.323,0.115-6.482,0.207
		c-0.162,0.007-0.164,0.255,0,0.253c2.339-0.023,4.681-0.054,7.019-0.148c0.962,0.578,1.916,1.234,2.813,1.903
		c-2.522-0.062-5.059,0.031-7.58,0.052c-0.184,0.001-0.184,0.284,0,0.286c2.687,0.022,5.393,0.131,8.079,0.04
		c0.995,0.762,1.907,1.517,2.665,2.159c-2.908-0.031-5.84,0.169-8.743,0.288c-0.189,0.008-0.191,0.298,0,0.295
		c3.047-0.044,6.133,0.008,9.172-0.219c0.413,0.352,0.769,0.66,1.049,0.894c0.415,0.348,0.835,0.689,1.252,1.035
		c-3.146-0.002-6.344,0.434-9.477,0.685c-0.181,0.015-0.185,0.296,0,0.286c3.244-0.183,6.584-0.177,9.8-0.647
		c0.019-0.003,0.025-0.017,0.039-0.025c0.777,0.642,1.553,1.286,2.331,1.926c-3.223,0.191-6.461,0.679-9.663,1.035
		c-0.203,0.022-0.209,0.342,0,0.323c3.362-0.301,6.792-0.465,10.135-0.968c0.6,0.493,1.195,0.99,1.795,1.483
		c-3.979,0.276-7.938,0.677-11.932,0.803c-0.205,0.006-0.206,0.322,0,0.319c4.12-0.061,8.308-0.168,12.396-0.738
		c0.691,0.567,1.374,1.144,2.067,1.708c-2.657,0.014-5.377,0.47-7.993,0.852c-0.135,0.02-0.104,0.256,0.032,0.239
		c2.772-0.341,5.587-0.405,8.349-0.776c0.773,0.628,1.54,1.264,2.317,1.886c-3.324-0.105-6.764,0.527-9.959,1.341
		c-0.158,0.04-0.091,0.281,0.067,0.244c3.299-0.759,6.544-0.951,9.89-1.134c-0.172,0.707-0.356,1.383-0.591,2.017
		c-3.122,0.638-6.226,1.336-9.366,1.895c-0.204,0.036-0.114,0.335,0.085,0.307c3.026-0.422,6.074-0.919,9.051-1.634
		c-0.309,0.706-0.693,1.368-1.215,1.981c-2.459,0.384-4.897,0.936-7.372,1.255c-0.153,0.02-0.164,0.256,0,0.248
		c2.163-0.101,4.465-0.269,6.632-0.756c-0.15,0.134-0.294,0.269-0.462,0.398C27.879,34.455,25.759,35.225,23.709,35.979z
		 M56.777,54.718c-0.991-0.107-1.852-0.585-2.687-1.099c-0.018-0.011-0.037-0.012-0.056-0.02c-4.14-3.222-8.593-6.082-12.959-8.974
		c-4.372-2.895-9.281-6.764-14.385-8.278c1.217-0.467,2.452-1.043,3.572-1.744c2.538-0.059,5.293-0.211,7.774-0.895
		c0.569,0.6,1.16,1.181,1.736,1.775c-2.033,0.185-4.065,0.496-6.083,0.736c-0.209,0.025-0.215,0.354,0,0.333
		c2.155-0.212,4.344-0.353,6.499-0.643c0.731,0.751,1.483,1.484,2.224,2.226c-1.662,0.149-3.321,0.398-4.973,0.6
		c-0.19,0.023-0.197,0.324,0,0.305c1.776-0.169,3.57-0.294,5.341-0.537c0.866,0.863,1.747,1.711,2.626,2.561
		c-1.766,0.066-3.539,0.315-5.252,0.712c-0.159,0.037-0.089,0.264,0.066,0.24c1.839-0.296,3.67-0.477,5.52-0.626
		c0.673,0.649,1.356,1.287,2.036,1.928c-1.611,0.017-3.224,0.129-4.831,0.223c-0.236,0.014-0.24,0.376,0,0.37
		c1.745-0.042,3.499-0.063,5.239-0.207c0.648,0.607,1.301,1.206,1.955,1.805c-1.481-0.03-2.968,0.03-4.446,0.086
		c-0.183,0.007-0.185,0.283,0,0.286c1.601,0.022,3.213,0.058,4.813-0.033c0.578,0.527,1.168,1.036,1.751,1.556
		c-1.268,0.1-2.535,0.139-3.814,0.071c-0.243-0.013-0.238,0.356,0,0.375c1.423,0.114,2.842,0.108,4.254-0.055
		c0.704,0.624,1.414,1.239,2.124,1.854c-1.126,0.117-2.25,0.252-3.374,0.384c-0.23,0.027-0.235,0.39,0,0.366
		c1.256-0.129,2.514-0.252,3.768-0.406c0.822,0.709,1.655,1.4,2.488,2.092c-0.999-0.015-2.017-0.01-3.006,0.114
		c-0.2,0.025-0.209,0.303,0,0.319c1.073,0.079,2.175,0.022,3.248-0.053c0.059-0.004,0.103-0.03,0.133-0.064
		c0.195,0.161,0.386,0.33,0.582,0.489c0,0.077-0.002,0.153,0.023,0.241C59.018,54.287,57.701,54.818,56.777,54.718z"/>
</g>
<g>
</g>
<g>
</g>
<g>
</g>
<g>
</g>
<g>
</g>
<g>
</g>
<g>
</g>
<g>
</g>
<g>
</g>
<g>
</g>
<g>
</g>
<g>
</g>
<g>
</g>
<g>
</g>
<g>
</g>
</svg>
