<?xml version="1.0" encoding="iso-8859-1"?>
<!-- Generator: Adobe Illustrator 18.0.0, SVG Export Plug-In . SVG Version: 6.00 Build 0)  -->
<!DOCTYPE svg PUBLIC "-//W3C//DTD SVG 1.1//EN" "http://www.w3.org/Graphics/SVG/1.1/DTD/svg11.dtd">
<svg version="1.1" id="Capa_1" xmlns="http://www.w3.org/2000/svg" xmlns:xlink="http://www.w3.org/1999/xlink" x="0px" y="0px"
	 viewBox="0 0 64.675 64.675" style="enable-background:new 0 0 64.675 64.675;" xml:space="preserve">
<g>
	<path style="fill:#1D1D1B;" d="M60.675,42.477c-3.376-0.318-6.779-0.467-10.187-0.528c0.102-0.015,0.202-0.022,0.305-0.043
		c3.398-0.696,5.806-4.318,5.485-7.693c-0.402-4.215-4.233-7.377-8.12-8.363c-1.111-0.282-1.535,1.193-0.644,1.7
		c-2.758,1.215-4.12,6.15-3.739,8.698c0.402,2.69,2.362,5.172,4.975,5.673c-3.948-0.036-7.899,0.038-11.82,0.115
		c-0.127,0.002-0.127,0.195,0,0.197c7.919,0.082,15.832,0.598,23.745,0.663C60.948,42.896,60.938,42.501,60.675,42.477z
		 M45.745,36.772c-0.747-2.356,0.374-7.871,3.294-8.522c3.914,2.022,7.765,6.486,3.64,10.501
		C50.185,41.178,46.745,39.929,45.745,36.772z"/>
	<path style="fill:#1D1D1B;" d="M19.837,15.845c-1.963-3.502-4.36,0.161-6.591,0.806c-0.063,0.018-0.096,0.06-0.138,0.095
		c-0.043-0.082-0.089-0.163-0.137-0.242c0.104-0.121,0.153-0.291,0.063-0.45c-1.7-2.998-6.255-1.964-5.905,1.704
		c0.185,1.946,1.258,3.022-0.59,4.64c-0.549,0.481-1.035,0.909-1.348,1.587c-0.582,1.262-0.258,2.955,1.329,3.203
		c1.771,0.277,2.578-1.834,4.093-2.127c2.035-0.394,2.004,3.196,3.641,4.033c1.587,0.811,3.392-0.341,4.006-1.868
		c0.73-1.816-0.248-3.637-1.299-5.13C19.047,20.655,21.317,18.485,19.837,15.845z"/>
	<path style="fill:#1D1D1B;" d="M23.469,35.382c0.378-1.927-0.764-4.181-2.972-4.259c-2.451-0.086-3.828,2.589-3.082,4.662
		c-1.778-0.29-4.094-0.584-4.853,0.798c-0.368,0.67-0.082,1.279-0.037,1.958c0.07,1.049,0.184,1.655-0.305,2.717
		c-0.39,0.848-0.552,0.46-0.859,1.372c-0.48,1.426,0.016,3.003,1.269,3.839c1.84,1.228,3.208,0.194,4.639-0.932
		c0.61-0.48,2.307-1.418,3.121-1.139c0.351,0.121,0.941,1.054,1.211,1.308c0.463,0.437,0.995,0.908,1.639,1.05
		c1.544,0.34,2.574-0.791,3.135-2.081C27.676,41.68,27.594,35.368,23.469,35.382z"/>
	<path style="fill:#1D1D1B;" d="M59.908,20.514c-4.283-4.28-11.064-5.372-16.116-1.916c-0.075,0.051-0.123,0.115-0.174,0.177
		c-5.092-1.676-7.775-7.021-11.486-10.927c-0.001-0.099-0.067-0.197-0.197-0.206c-1.002-1.029-2.077-1.956-3.3-2.668
		c-4.651-2.709-10.507-3.146-15.609-1.57C-0.438,7.565-1.771,22.804,1.503,34.498C4.961,46.849,13.83,60.363,27.641,61.989
		c13.792,1.624,32.104-7.208,36.02-21.204c0.152-0.542,0.282-1.097,0.402-1.658c0.093-0.059,0.106-0.172,0.055-0.271
		C65.411,32.527,64.624,25.227,59.908,20.514z M50.986,53.874c-1.261,0.743-2.614,1.447-4.009,2.115
		c-2.485-0.299-4.994-0.486-7.51-0.602c0.297-0.898,0.308-1.912,0.103-2.882c4.379,0.094,8.763,0.247,13.139,0.251
		C52.153,53.145,51.583,53.522,50.986,53.874z M53.153,52.437c-4.529-0.378-9.122-0.396-13.68-0.305
		c-0.068-0.248-0.136-0.497-0.233-0.734c1.065-0.44,1.942-1.308,2.426-2.333c5.083,0.001,10.18,0.142,15.253-0.022
		C55.803,50.28,54.549,51.419,53.153,52.437z M62.74,34.459c-2.018,0.066-4.028,0.215-6.058,0.141c-0.27-0.01-0.267,0.402,0,0.417
		c1.974,0.114,4.032,0.197,6.027-0.012c-0.075,1.28-0.245,2.528-0.508,3.739c-2.177,0.073-4.381,0.339-6.529,0.53
		c-0.201,0.018-0.208,0.325,0,0.319c2.106-0.059,4.273-0.054,6.396-0.221c-0.875,3.544-2.565,6.745-4.958,9.46
		c-0.009-0.087-0.065-0.171-0.181-0.179c-5.003-0.321-10.083-0.156-15.11,0.045c0.438-1.196,0.339-2.552-0.603-3.678
		c-1.783-2.132-5.096-1.343-6.471,0.748c-0.16-0.196-0.331-0.376-0.508-0.532c-1.279-1.484-3.205-2.308-5.079-0.918
		c-1.508,1.119-1.433,3.251-0.244,4.312c-1.206,0.442-2.155,1.298-2.369,2.838c-0.162,1.17,0.258,2.475,1.135,3.272
		c0.618,0.561,1.133,0.662,1.695,0.631c0.016,0.011,0.03,0.024,0.055,0.025c0.907,0.029,1.812,0.084,2.717,0.13
		c0.058,0.065,0.118,0.134,0.188,0.221c0.155,0.192,0.182,0.502,0.344,0.695c0.336,0.399,0.636,0.76,1.091,1.032
		c1.023,0.611,2.415,0.687,3.514,0.252c0.937-0.372,1.564-1.004,1.952-1.761c2.28,0.165,4.56,0.322,6.842,0.459
		c-1.739,0.79-3.556,1.499-5.415,2.083c-5.886-0.627-11.832-0.996-17.734-1.304c-0.147-0.008-0.141,0.209,0,0.225
		c5.41,0.599,10.866,1.154,16.311,1.501c-5.137,1.413-10.512,1.796-15.366,0.215c-7.359-2.396-12.816-8.581-16.454-15.174
		C0.797,31.964-3.085,9.229,14.71,4.874c5.334-1.305,10.124-0.15,14.142,2.711c-3.567,0.011-7.166,0.291-10.685,0.676
		c-0.196,0.022-0.205,0.327,0,0.314C21.98,8.344,25.789,8.268,29.6,8.141c1.278,1.002,2.476,2.174,3.578,3.505
		c0.686,0.829,1.35,1.653,2.019,2.455c-3.329-0.057-6.688,0.174-10.017,0.224c-0.187,0.003-0.187,0.286,0,0.291
		c3.414,0.078,6.927,0.204,10.331-0.135c0.803,0.947,1.621,1.847,2.504,2.648c-1.947,0.087-3.895,0.158-5.842,0.253
		c-0.157,0.008-0.15,0.221,0,0.239c2.075,0.253,4.275,0.21,6.378-0.029c1.691,1.41,3.637,2.444,6.161,2.76
		c0.421,0.053,0.643-0.354,0.608-0.719c5.286-2.773,10.216-0.777,13.476,3.106c-7.423-0.584-14.926-0.74-22.366-0.7
		c-0.142,0.001-0.142,0.215,0,0.22c7.57,0.264,15.14,0.654,22.709,0.9c1.655,2.117,2.834,4.729,3.339,7.419
		c-2.002-0.197-4.078,0.008-6.051,0.268c-0.254,0.033-0.264,0.434,0,0.408c2.049-0.206,4.083-0.135,6.128-0.205
		c0.11,0.697,0.18,1.398,0.196,2.095C62.762,33.588,62.755,34.025,62.74,34.459z"/>
	<path style="fill:#1D1D1B;" d="M58.93,45.83c-4.735-0.108-9.521,0.28-14.252,0.493c-0.204,0.009-0.206,0.322,0,0.319
		c4.733-0.077,9.534,0.016,14.252-0.381C59.203,46.238,59.212,45.836,58.93,45.83z"/>
	<path style="fill:#1D1D1B;" d="M60.931,26.379c-2.714-0.208-5.531-0.031-8.25,0.07c-0.163,0.006-0.163,0.247,0,0.253
		c2.719,0.101,5.536,0.278,8.25,0.07C61.184,26.753,61.185,26.399,60.931,26.379z"/>
	<path style="fill:#1D1D1B;" d="M56.184,20.603c-2.717-0.34-5.523-0.36-8.252-0.139c-0.157,0.013-0.162,0.249,0,0.248
		c2.767-0.012,5.492,0.113,8.252,0.294C56.447,21.023,56.434,20.634,56.184,20.603z"/>
	<path style="fill:#1D1D1B;" d="M32.431,11.143c-3.634-0.247-7.359-0.053-11,0.016c-0.214,0.004-0.215,0.329,0,0.333
		c3.641,0.069,7.366,0.264,11,0.016C32.666,11.493,32.667,11.159,32.431,11.143z"/>
</g>
<g>
</g>
<g>
</g>
<g>
</g>
<g>
</g>
<g>
</g>
<g>
</g>
<g>
</g>
<g>
</g>
<g>
</g>
<g>
</g>
<g>
</g>
<g>
</g>
<g>
</g>
<g>
</g>
<g>
</g>
</svg>
