<?xml version="1.0" encoding="iso-8859-1"?>
<!-- Generator: Adobe Illustrator 18.0.0, SVG Export Plug-In . SVG Version: 6.00 Build 0)  -->
<!DOCTYPE svg PUBLIC "-//W3C//DTD SVG 1.1//EN" "http://www.w3.org/Graphics/SVG/1.1/DTD/svg11.dtd">
<svg version="1.1" id="Capa_1" xmlns="http://www.w3.org/2000/svg" xmlns:xlink="http://www.w3.org/1999/xlink" x="0px" y="0px"
	 viewBox="0 0 53.483 53.483" style="enable-background:new 0 0 53.483 53.483;" xml:space="preserve">
<g>
	<path style="fill:#1D1D1B;" d="M53.191,21.103c0.167-1.574,0.206-3.174,0.048-4.675c-0.099-0.945-1.053-1.214-1.633-0.805
		c-0.124-0.082-0.267-0.144-0.444-0.159c-9.84-0.833-19.66-1.744-29.519-2.363c-1.919-0.121-4.05-0.678-5.596,0.687
		c-1.167,1.03-1.402,3.924-1.751,5.232c-0.433,1.624-0.865,3.248-1.288,4.874c-1.339-4-2.563-8.402-4.688-11.829
		c-2.06-3.32-4.326-1.405-7.623-2.183c-0.508-0.12-0.877,0.497-0.589,0.857c-0.094,0.119-0.14,0.282-0.082,0.49
		c2.998,10.773,7.247,21.188,10.986,31.716c0.215,0.605,1.026,0.941,1.517,0.4c2.249-2.479,4.314-5.094,6.02-7.98
		c1.656-2.803,3.016-8.652,6.246-10.031c1.474-0.63,4.057-0.264,5.719-0.339c2.544-0.115,5.091-0.182,7.637-0.194
		c4.459-0.022,8.912,0.141,13.362,0.412c0.379,0.023,0.631-0.145,0.784-0.381c0.166-0.104,0.3-0.268,0.358-0.507
		c0.203-0.839,0.349-1.723,0.465-2.617c0.049-0.008,0.099-0.012,0.147-0.019C53.622,21.629,53.498,21.137,53.191,21.103z
		 M43.177,21.511c2.456,0.323,5.174,0.562,7.753,0.422c-0.007,0.421-0.022,0.843-0.024,1.262c-4.885-0.284-9.772-0.416-14.666-0.328
		c-3.854,0.069-9.604-0.634-13.192,0.906c-1.546,0.664-2.208,1.904-2.783,3.306c-1.019-0.058-2.058,0.021-3.076,0.046
		c-0.389,0.01-0.39,0.595,0,0.605c0.923,0.023,1.864,0.089,2.792,0.059c-0.11,0.279-0.221,0.56-0.34,0.843
		c-0.211,0.502-0.446,0.989-0.674,1.481c-0.915-0.056-1.887,0.054-2.778,0.076c-0.308,0.007-0.308,0.471,0,0.478
		c0.796,0.019,1.657,0.114,2.483,0.095c-0.43,0.894-0.88,1.774-1.358,2.637c-0.793,0.1-1.559,0.073-2.399-0.204
		c-0.294-0.097-0.503,0.375-0.214,0.508c0.669,0.306,1.423,0.479,2.171,0.479c-0.479,0.827-0.973,1.644-1.499,2.442
		c-0.026-0.084-0.099-0.155-0.204-0.16c-0.903-0.044-1.88,0.383-2.737,0.631c-0.328,0.095-0.19,0.578,0.14,0.508
		c0.834-0.177,1.835-0.271,2.598-0.684c-0.923,1.378-1.912,2.715-2.976,4.009c-3.656-9.85-6.832-19.905-10.883-29.599
		c2.692,0.948,4.78,0.01,6.419,4.07c1.536,3.803,3.083,7.6,4.638,11.395c0.285,0.695,1.262,0.791,1.514,0
		c0.952-2.984,1.756-10.395,4.9-11.883c2.034-0.963,8.288,0.53,10.484,0.685c7.287,0.515,14.58,1.003,21.847,1.727
		c-0.023,0.327-0.027,0.657-0.045,0.985c-2.274-0.113-4.639,0.113-6.881,0.162c-0.375,0.008-0.376,0.575,0,0.584
		c2.226,0.048,4.578,0.271,6.839,0.164c-0.025,0.585-0.064,1.167-0.08,1.753c-2.581-0.082-5.24,0.058-7.771,0.119
		C42.897,21.096,42.916,21.477,43.177,21.511z"/>
</g>
<g>
</g>
<g>
</g>
<g>
</g>
<g>
</g>
<g>
</g>
<g>
</g>
<g>
</g>
<g>
</g>
<g>
</g>
<g>
</g>
<g>
</g>
<g>
</g>
<g>
</g>
<g>
</g>
<g>
</g>
</svg>
