<?xml version="1.0" encoding="iso-8859-1"?>
<!-- Generator: Adobe Illustrator 18.0.0, SVG Export Plug-In . SVG Version: 6.00 Build 0)  -->
<!DOCTYPE svg PUBLIC "-//W3C//DTD SVG 1.1//EN" "http://www.w3.org/Graphics/SVG/1.1/DTD/svg11.dtd">
<svg version="1.1" id="Capa_1" xmlns="http://www.w3.org/2000/svg" xmlns:xlink="http://www.w3.org/1999/xlink" x="0px" y="0px"
	 viewBox="0 0 68.418 68.418" style="enable-background:new 0 0 68.418 68.418;" xml:space="preserve">
<g>
	<path style="fill:#1D1D1B;" d="M68.213,52.822c0.165-0.105,0.273-0.32,0.156-0.518c-5.731-9.643-15.039-16.392-22.732-24.346
		c-7.873-8.14-13.512-18.829-22.641-25.69c-0.268-0.201-0.565-0.088-0.744,0.132c-0.01-0.007-0.014-0.02-0.025-0.026
		c-0.653-0.362-1.502-0.294-2.221-0.517c-0.243-0.075-0.498-0.162-0.755-0.254c-0.136-0.148-0.271-0.298-0.407-0.445
		c-0.202-0.218-0.504-0.169-0.703-0.006c-0.084-0.039-0.172-0.077-0.251-0.117c-0.203-0.103-0.483,0.101-0.39,0.32
		c-0.008,0.004-0.017,0.002-0.024,0.007c-2.993,1.785-5.514,4.524-8.184,6.758c-2.98,2.494-6.038,4.879-9.073,7.304
		c-0.274,0.219-0.263,0.54-0.118,0.8c-0.001,0.103,0.02,0.209,0.096,0.311C13.274,34.055,28.611,50.5,44.39,65.607
		c0.778,0.745,1.942-0.414,1.183-1.183c-0.058-0.059-0.115-0.118-0.173-0.177c0.889-0.084,1.784-0.168,2.685-0.251
		c-0.576,0.331-1.149,0.663-1.755,0.968c-0.311,0.156-0.348,0.511-0.226,0.788c-0.61-0.063-0.796,0.828-0.188,1.066
		c3.626,1.423,7.052,0.135,10.009-2.182c3.262-2.556,6.297-5.697,9.15-8.852c0.123-0.011,0.246-0.021,0.368-0.032
		c0.272-0.025,0.287-0.397,0.065-0.451c0.61-0.678,1.207-1.353,1.801-2.024c0.294-0.001,0.592,0.007,0.884,0.003
		C68.483,53.273,68.487,52.851,68.213,52.822z M65.401,49.949c-1.371-0.052-2.743-0.095-4.116-0.12
		c0.307-0.291,0.433-0.784,0.059-1.189c-0.406-0.438-0.806-0.882-1.21-1.322c1.053,0.08,2.106,0.169,3.161,0.267
		C64.005,48.364,64.711,49.147,65.401,49.949z M61.309,50.447c-0.413,0.713-0.84,1.407-1.285,2.08
		c-0.899-0.031-1.802-0.055-2.705-0.069c0.306-0.417,0.624-0.819,1.02-1.181c0.372-0.34,0.81-0.583,1.229-0.846
		C60.148,50.436,60.729,50.445,61.309,50.447z M59.425,43.534c1.113,1.125,2.216,2.259,3.294,3.421
		c-1.074-0.124-2.153-0.24-3.237-0.349c-0.918-1-1.817-2.019-2.73-3.024C57.645,43.58,58.535,43.557,59.425,43.534z M56.933,46.365
		c-0.837-0.072-1.676-0.137-2.517-0.197c0.474-0.337,0.964-0.697,1.273-1.144C56.104,45.472,56.519,45.918,56.933,46.365z
		 M55.781,39.939c1.074,1.043,2.145,2.088,3.202,3.149c-0.931-0.048-1.859-0.103-2.794-0.129c-0.914-1.008-1.814-2.029-2.723-3.04
		c0.744,0.022,1.489,0.043,2.232,0.054C55.735,39.972,55.756,39.953,55.781,39.939z M53.742,42.924
		c-0.918-0.011-1.835-0.023-2.754-0.022c0.426-0.237,0.852-0.475,1.278-0.712c0.169-0.095,0.352-0.188,0.525-0.292
		C53.107,42.242,53.425,42.583,53.742,42.924z M55.42,39.583c-0.823-0.088-1.647-0.171-2.473-0.245
		c-0.567-0.632-1.128-1.269-1.694-1.902c0.676,0.031,1.351,0.063,2.028,0.087C53.994,38.209,54.709,38.895,55.42,39.583z
		 M52.744,37.007c-0.688-0.088-1.38-0.163-2.074-0.224c-0.792-0.887-1.579-1.779-2.37-2.668c0.543,0.058,1.084,0.113,1.628,0.172
		C50.867,35.194,51.804,36.104,52.744,37.007z M45.699,30.248c0.046,0.001,0.072-0.024,0.104-0.04
		c1.16,1.174,2.33,2.335,3.509,3.483c-0.535-0.084-1.068-0.17-1.605-0.244c-0.956-1.076-1.909-2.155-2.863-3.232
		C45.129,30.223,45.415,30.24,45.699,30.248z M47.934,36.596c-0.911-0.041-1.825-0.063-2.738-0.073
		c0.568-0.159,1.031-0.606,1.235-1.213c0.038-0.113,0.048-0.219,0.036-0.316C46.954,35.529,47.445,36.061,47.934,36.596z
		 M44.603,28.992c0.249,0.257,0.503,0.507,0.753,0.763c-0.326-0.027-0.653-0.044-0.98-0.069c-0.908-1.025-1.815-2.051-2.722-3.077
		c0.253,0.005,0.507,0.019,0.759,0.022C43.13,27.428,43.855,28.219,44.603,28.992z M44.727,33.088
		c-0.379-0.04-0.76-0.076-1.14-0.112c0.196-0.169,0.385-0.345,0.544-0.54C44.328,32.654,44.528,32.871,44.727,33.088z
		 M41.976,26.143c-0.261-0.017-0.521-0.038-0.782-0.055c-0.849-0.961-1.702-1.918-2.552-2.878c0.274,0.001,0.547-0.001,0.82-0.003
		C40.285,24.197,41.12,25.177,41.976,26.143z M41.446,29.479c-0.972-0.062-1.945-0.118-2.918-0.17
		c0.292-0.199,0.585-0.398,0.877-0.596c0.284-0.193,0.572-0.362,0.795-0.606C40.612,28.567,41.03,29.022,41.446,29.479z
		 M39.12,22.788c-0.297-0.014-0.594-0.03-0.891-0.043c-0.577-0.652-1.157-1.3-1.733-1.951c0.355,0.028,0.71,0.051,1.064,0.076
		C38.078,21.511,38.595,22.153,39.12,22.788z M38.209,25.879c-0.39-0.027-0.781-0.054-1.171-0.082
		c0.116-0.103,0.24-0.199,0.353-0.305c0.111-0.104,0.158-0.216,0.179-0.329C37.781,25.404,37.995,25.641,38.209,25.879z
		 M37.069,20.264c-0.397-0.056-0.793-0.111-1.19-0.166c-0.664-0.749-1.332-1.495-1.996-2.244c0.447,0.036,0.893,0.064,1.339,0.091
		C35.835,18.719,36.45,19.493,37.069,20.264z M35.316,22.612c-0.858-0.04-1.717-0.084-2.575-0.134
		c0.029-0.017,0.058-0.025,0.086-0.047c0.415-0.337,0.803-0.637,1.127-1.064c0.051-0.066,0.071-0.137,0.08-0.207
		C34.458,21.647,34.888,22.129,35.316,22.612z M34.765,17.371c-0.504-0.082-1.01-0.158-1.518-0.23
		c-0.675-0.761-1.355-1.518-2.031-2.277c0.541,0.034,1.081,0.066,1.621,0.088C33.482,15.757,34.124,16.563,34.765,17.371z
		 M32.411,14.421c-0.595-0.073-1.188-0.145-1.782-0.217c-0.646-0.725-1.296-1.447-1.943-2.172c0.661,0.086,1.324,0.187,1.984,0.261
		C31.253,13,31.836,13.707,32.411,14.421z M26.572,16.396c-1.962-0.179-3.922-0.342-5.86-0.539c0.971-0.534,1.884-1.172,2.778-1.829
		c1.382,0.204,2.766,0.385,4.151,0.532c-0.572,0.232-1.068,0.82-1.201,1.35C26.387,16.123,26.456,16.286,26.572,16.396z M21.537,9.5
		c0.414-0.234,0.873-0.453,1.113-0.878c0.018-0.031,0.02-0.066,0.025-0.1c0.278,0.054,0.556,0.108,0.834,0.16
		c0.609,0.75,1.214,1.502,1.827,2.248c-1.629-0.268-3.258-0.545-4.887-0.817C20.812,9.909,21.175,9.705,21.537,9.5z M19.744,9.705
		c-0.104,0.07-0.149,0.165-0.157,0.262c-1.376-0.231-2.752-0.467-4.128-0.707c0.857-0.443,1.834-0.988,2.697-1.645
		c1.217,0.249,2.435,0.498,3.654,0.741c-0.241,0.116-0.467,0.272-0.694,0.425C20.659,9.088,20.202,9.396,19.744,9.705z
		 M26.119,11.88c0.547,0.663,1.103,1.319,1.657,1.977c-1.154-0.139-2.307-0.284-3.459-0.429
		C24.95,12.962,25.612,12.474,26.119,11.88z M27.444,16.187c0.201-0.554,0.695-0.431,1.14-0.576
		c0.194-0.063,0.302-0.211,0.349-0.374c0.43,0.51,0.866,1.016,1.3,1.523c-1.001-0.11-2.004-0.209-3.008-0.302
		C27.316,16.399,27.397,16.316,27.444,16.187z M22.227,3.333c0.035-0.018,0.05-0.052,0.078-0.076
		c2.869,2.647,5.445,5.521,7.91,8.481c-0.701-0.117-1.403-0.232-2.104-0.348c-0.676-0.756-1.361-1.503-2.039-2.257
		c0.433,0.071,0.865,0.151,1.298,0.215c0.322,0.048,0.473-0.427,0.138-0.502c-0.689-0.153-1.383-0.287-2.076-0.423
		c-1.481-1.647-2.957-3.299-4.453-4.931C21.414,3.549,21.848,3.524,22.227,3.333z M45.051,63.887
		C29.902,48.494,15.777,32.447,1.558,16.209c2.944-1.998,5.785-4.168,8.54-6.417c2.774-2.265,5.968-4.604,8.067-7.534
		c0.052,0.049,0.1,0.099,0.163,0.147c0.115,0.088,0.245,0.16,0.37,0.237c1.383,1.788,2.796,3.554,4.219,5.314
		c-1.431-0.251-2.864-0.49-4.296-0.726c0.708-0.611,1.302-1.307,1.608-2.107C20.332,4.86,20,4.67,19.787,4.782
		c-0.848,0.445-1.569,1.259-2.294,1.882c-0.126,0.109-0.259,0.205-0.387,0.311c-0.446-0.075-0.892-0.147-1.336-0.225
		c-0.238-0.042-0.342,0.319-0.101,0.366c0.336,0.065,0.673,0.136,1.009,0.203c-0.621,0.492-1.255,0.962-1.937,1.38
		c-0.168,0.103-0.219,0.26-0.194,0.405C14.032,9.013,13.515,8.931,13,8.839c-0.152-0.027-0.22,0.198-0.065,0.235
		c3.889,0.94,7.86,1.748,11.842,2.392c-0.579,0.477-1.117,1.033-1.67,1.496c-0.111,0.093-0.228,0.179-0.341,0.27
		c-3.349-0.438-6.692-0.927-10.03-1.563c-0.217-0.041-0.312,0.287-0.092,0.334c3.091,0.671,6.236,1.294,9.4,1.801
		c-0.627,0.486-1.259,0.966-1.88,1.461c-0.343,0.274,0.044,0.761,0.41,0.653c-0.055,0.09-0.015,0.247,0.127,0.265
		c3.378,0.438,6.799,0.988,10.216,1.379c0.178,0.207,0.354,0.415,0.531,0.622c-0.591,0.302-1.146,0.741-1.703,1.08
		c-4.833-0.638-9.67-1.256-14.495-1.944c-0.145-0.021-0.213,0.193-0.062,0.226c4.341,0.937,8.816,1.754,13.304,2.374
		c-0.683,0.333-1.377,0.642-2.1,0.896c-0.599,0.21-0.36,1.141,0.266,0.963c1.151-0.327,2.282-0.738,3.352-1.277
		c0.191-0.096,0.394-0.197,0.6-0.304c0.957,0.118,1.913,0.226,2.868,0.323c0.013,0.015,0.026,0.029,0.039,0.044
		c-0.099-0.009-0.2,0.006-0.292,0.069c-0.438,0.3-0.759,0.684-1.112,1.079c-0.237,0.265-0.154,0.563,0.047,0.725
		c-0.569-0.035-1.138-0.069-1.707-0.113c-1.535-0.118-3.067-0.26-4.598-0.425c-1.098-0.119-4.183-1.07-5.127-0.544
		c0.072-0.04,0.009-0.142-0.064-0.109c-0.063,0.029-0.126,0.058-0.19,0.086c-0.056,0.025-0.041,0.119,0.017,0.131
		c4.972,1.018,10.179,1.551,15.316,1.702c0.381,0.43,0.76,0.861,1.14,1.292c-0.147-0.006-0.301,0.033-0.442,0.148
		c-0.409,0.335-0.799,0.698-1.182,1.07c-3.631-0.269-7.26-0.555-10.896-0.869c-0.161-0.014-0.201,0.259-0.039,0.285
		c3.397,0.547,6.859,0.932,10.327,1.19c-0.665,0.685-1.308,1.396-1.953,2.082c-0.193,0.205,0.065,0.588,0.315,0.409
		c1.083-0.775,2.219-1.539,3.269-2.384c0.814,0.05,1.626,0.101,2.439,0.135c0.188,0.21,0.376,0.42,0.563,0.63
		c-0.258,0.149-0.482,0.355-0.719,0.552c-0.368,0.306-0.735,0.611-1.103,0.917c-0.209,0.174-0.207,0.422-0.102,0.627
		c-4.327-0.218-8.661-0.37-12.98-0.543c-0.173-0.007-0.17,0.255,0,0.267c5.842,0.41,11.708,0.867,17.567,1.127
		c0.385,0.422,0.769,0.845,1.152,1.269c-0.569,0.376-1.043,0.963-1.506,1.44c-3.902-0.299-7.825-0.403-11.711-0.377
		c-0.19,0.001-0.19,0.291,0,0.295c3.738,0.096,7.437,0.35,11.132,0.675c-0.629,0.633-1.254,1.271-1.876,1.912
		c-0.426,0.44,0.2,1.02,0.656,0.656c0.882-0.702,1.763-1.402,2.632-2.12c0.115-0.095,0.236-0.189,0.359-0.283
		c0.844,0.079,1.688,0.153,2.532,0.239c0.19,0.208,0.38,0.415,0.57,0.624c-0.377-0.124-0.843-0.009-0.973,0.478
		c-0.092,0.344-0.334,0.49-0.675,0.542c-0.548,0.084-0.506,0.899-0.041,1.066c-2.202-0.002-4.401,0.064-6.566,0.159
		c-0.171,0.007-0.173,0.268,0,0.267c3.648-0.021,7.268,0.183,10.893,0.37c0.551,0.601,1.101,1.204,1.653,1.805
		c-0.239-0.018-0.478-0.033-0.716-0.05c0.038-0.565-0.883-0.891-1.167-0.183c-0.014,0.035-0.035,0.067-0.051,0.102
		c-5.037-0.327-10.1-0.493-15.119-0.729c-0.191-0.009-0.188,0.281,0,0.295c4.884,0.372,9.802,0.816,14.715,1.111
		c-0.62,0.801-1.585,1.331-2.567,1.522c-0.571,0.111-0.313,0.928,0.235,0.854c1.527-0.206,2.75-1.076,3.605-2.304
		c0.57,0.031,1.139,0.059,1.708,0.085c0.371,0.404,0.741,0.81,1.112,1.214c-0.096,0.068-0.192,0.138-0.29,0.204
		c-0.482,0.33-0.965,0.66-1.447,0.99c-0.264,0.18-0.26,0.48-0.122,0.679c-2.405,0.011-4.809,0.043-7.193,0.068
		c-0.136,0.001-0.136,0.206,0,0.211c3.769,0.149,7.583,0.321,11.386,0.375c0.189,0.203,0.378,0.407,0.567,0.611
		c-0.698,0.345-1.278,1.014-1.844,1.519c-0.137,0.123-0.274,0.245-0.412,0.368c-4.834-0.282-9.69-0.324-14.444,0.068
		c-0.081,0.007-0.082,0.123,0,0.127c4.542,0.222,9.063,0.366,13.584,0.573c-0.366,0.327-0.732,0.654-1.097,0.98
		c-0.489,0.437,0.214,1.093,0.706,0.706c0.681-0.536,1.361-1.072,2.042-1.608c1.336,0.067,2.673,0.141,4.01,0.226
		c-0.387,0.109-0.768,0.287-1.132,0.43c-0.593,0.232-0.374,1.155,0.269,0.976c0.527-0.146,1.176-0.223,1.628-0.539
		c0.05-0.035,0.091-0.076,0.125-0.123c0.335,0.362,0.671,0.722,1.006,1.084c-0.408,0.187-0.792,0.499-1.14,0.835
		c-4.169-0.033-8.342,0-12.503,0.005c-0.221,0-0.22,0.337,0,0.342c3.967,0.089,7.944,0.204,11.92,0.264
		c-0.047,0.053-0.1,0.11-0.145,0.161c-0.484,0.556-0.949,1.193-1.257,1.88c-3.571-0.018-7.108,0.168-10.332,0.897
		c-0.128,0.029-0.072,0.216,0.054,0.194c3.251-0.572,6.655-0.646,10.08-0.577c-0.099,0.434,0.493,0.606,0.737,0.272
		c0.063-0.086,0.124-0.171,0.185-0.257c0.909,0.025,1.818,0.058,2.726,0.094c-0.632,0.924-1.295,1.811-1.989,2.664
		c-2.822,0.103-5.645,0.158-8.481,0.221c-0.107,0.002-0.104,0.156,0,0.164c2.668,0.198,5.36,0.231,8.049,0.154
		c-0.614,0.728-1.246,1.435-1.911,2.108c-2.55,0.168-5.099,0.377-7.636,0.55c-0.194,0.013-0.197,0.314,0,0.305
		c2.351-0.11,4.715-0.19,7.078-0.301c-0.755,0.73-1.539,1.43-2.364,2.091c-1.886,0.181-3.783,0.273-5.72,0.22
		c-0.163-0.005-0.162,0.246,0,0.253c1.694,0.077,3.409,0.083,5.12-0.004c-0.791,0.605-1.603,1.191-2.461,1.735
		C47.909,63.444,46.469,63.674,45.051,63.887z M47.112,65.946c1.547-0.65,3.043-1.434,4.472-2.327
		c1.405-0.172,2.802-0.372,4.161-0.661c0.217-0.046,0.169-0.395-0.052-0.387c-0.939,0.035-1.884,0.109-2.832,0.207
		c0.7-0.487,1.371-1.012,2.029-1.555c1.31-0.169,2.608-0.407,3.883-0.734C55.225,63.876,51.294,66.594,47.112,65.946z
		 M59.067,60.204c-0.034-0.054-0.088-0.096-0.168-0.082c-1.117,0.192-2.225,0.37-3.331,0.527c0.676-0.592,1.32-1.218,1.939-1.867
		c1.072-0.066,2.141-0.151,3.209-0.246C60.176,59.099,59.628,59.66,59.067,60.204z M61.11,58.127
		c-1.03,0.022-2.06,0.052-3.091,0.103c0.595-0.657,1.148-1.349,1.68-2.057c1.15-0.06,2.297-0.136,3.441-0.226
		C62.481,56.661,61.805,57.394,61.11,58.127z M63.64,55.406c-1.184,0.087-2.367,0.163-3.55,0.221
		c0.568-0.797,1.094-1.624,1.577-2.478c1.343,0.053,2.679,0.099,4,0.121C65.014,53.934,64.339,54.651,63.64,55.406z M66.173,52.762
		c-1.372-0.044-2.779-0.104-4.207-0.162c0.278-0.522,0.545-1.052,0.784-1.597c0.089-0.202,0.086-0.397,0.033-0.569
		c1.004-0.004,2.008-0.005,3.01-0.024c0.425,0.501,0.86,0.991,1.275,1.503C66.775,52.178,66.476,52.464,66.173,52.762z"/>
</g>
<g>
</g>
<g>
</g>
<g>
</g>
<g>
</g>
<g>
</g>
<g>
</g>
<g>
</g>
<g>
</g>
<g>
</g>
<g>
</g>
<g>
</g>
<g>
</g>
<g>
</g>
<g>
</g>
<g>
</g>
</svg>
