<?xml version="1.0" encoding="iso-8859-1"?>
<!-- Generator: Adobe Illustrator 18.0.0, SVG Export Plug-In . SVG Version: 6.00 Build 0)  -->
<!DOCTYPE svg PUBLIC "-//W3C//DTD SVG 1.1//EN" "http://www.w3.org/Graphics/SVG/1.1/DTD/svg11.dtd">
<svg version="1.1" id="Capa_1" xmlns="http://www.w3.org/2000/svg" xmlns:xlink="http://www.w3.org/1999/xlink" x="0px" y="0px"
	 viewBox="0 0 61.313 61.313" style="enable-background:new 0 0 61.313 61.313;" xml:space="preserve">
<g>
	<path style="fill:#1D1D1B;" d="M59.875,48.221c-3.024-0.297-6.085-0.545-9.157-0.732c0.003-0.014,0.012-0.022,0.014-0.036
		c0.149-1.067,0.209-2.407-0.111-3.552c2.839-0.066,5.673-0.175,8.497-0.313c-0.103,1.081-0.289,2.17-0.567,3.265
		c-0.271,1.07,1.289,1.482,1.641,0.452c6.283-18.38-15.113-35.986-32.111-35.736C9.842,11.837-4.531,30.04,1.327,47.815
		c0.104,0.315,0.348,0.446,0.593,0.446c0.044,0.143,0.152,0.267,0.356,0.313c9.459,2.147,18.856,0.8,28.415,0.22
		c9.748-0.592,19.443,0.446,29.184,0.383C60.501,49.173,60.476,48.28,59.875,48.221z M49.41,47.417
		c-2.972-0.162-5.953-0.267-8.924-0.28c0.423-0.921,0.781-2.132,0.672-3.184c2.608,0.034,5.221,0.024,7.831-0.022
		c0.124,0.399,0.264,0.796,0.34,1.211c0.13,0.704,0.128,1.418,0.061,2.129C49.386,47.325,49.402,47.369,49.41,47.417z
		 M50.042,42.653c-0.463-0.625-1.382-0.258-1.247,0.525c0.001,0.006,0.003,0.011,0.004,0.017c-2.597,0.015-5.194,0.034-7.791,0.062
		c-0.07-0.191-0.158-0.373-0.277-0.539c-0.253-0.351-0.894-0.37-1.002,0.131c-0.03,0.139-0.041,0.28-0.05,0.422
		c-2.168,0.026-4.336,0.059-6.502,0.104c-0.218,0.005-0.216,0.327,0,0.337c2.161,0.108,4.33,0.179,6.503,0.22
		c0.017,0.323,0.044,0.648,0.028,0.969c-0.037,0.776-0.221,1.511-0.511,2.228c-2.213,0.009-4.419,0.066-6.608,0.182
		c-0.532,0.028-1.062,0.068-1.594,0.099l0,0c0.058-0.35,0.101-0.707,0.174-1.054c0.084-0.401,0.049-0.695-0.032-1.099
		c-0.128-0.637-1.16-0.637-1.288,0c-0.08,0.398-0.12,0.706-0.032,1.099c0.078,0.345,0.117,0.705,0.174,1.054
		c0.004,0.023,0.017,0.04,0.024,0.062c-2.912,0.182-5.818,0.388-8.72,0.559c0.166-1.273,0.411-2.833-0.03-3.977
		c-0.215-0.558-0.924-0.559-1.139,0c-0.449,1.166-0.187,2.763-0.021,4.046c-1.875,0.1-3.75,0.182-5.625,0.205
		c0.087-1.389,0.282-2.869-0.025-4.231c-0.11-0.489-0.88-0.49-0.99,0c-0.308,1.368-0.11,2.854-0.023,4.248
		c-2.11,0.004-4.22-0.063-6.334-0.237c-0.257-0.883-0.433-1.778-0.464-2.702c-0.029-0.858,0.148-1.712-0.037-2.555
		c-0.109-0.497-0.872-0.601-1.105-0.145c-0.761,1.491-0.311,3.628,0.244,5.275c-1.061-0.111-2.123-0.244-3.186-0.416
		C2.559,47.52,2.566,47.5,2.561,47.475C-0.776,30.633,9.897,13.726,28.08,13.539c3.389-0.035,6.84,0.636,10.158,1.841
		c-3.152-0.47-6.455-0.433-9.57-0.238c-0.194,0.012-0.198,0.31,0,0.305c3.876-0.1,7.597,0.349,11.431,0.673
		c1.838,0.795,3.626,1.738,5.315,2.845c-4.551-0.344-9.191-0.313-13.742-0.328c-0.167-0.001-0.165,0.248,0,0.258
		c4.774,0.283,9.647,0.636,14.436,0.53c1.864,1.285,3.606,2.745,5.17,4.354c-3.169-0.296-6.479-0.119-9.604,0.009
		c-0.177,0.007-0.179,0.277,0,0.277c3.378-0.007,6.784,0.308,10.16,0.309c1.251,1.352,2.389,2.793,3.363,4.319
		c-3.965-0.322-8.047-0.225-12.022-0.196c-0.084,0.001-0.126,0.063-0.126,0.127c-8.077-10.086-32.954-5.974-28.537,8.405
		c0.15,0.489,1.013,0.429,0.939-0.127c-1.151-8.674,7.383-12.387,14.746-12.143c8.054,0.267,12.05,4.823,13.836,12.109
		c-0.026-0.001-0.046-0.012-0.075-0.01c-9.216,0.595-18.318,0.468-27.521-0.28c-0.863-0.07-0.821,1.214,0,1.322
		c9.145,1.202,18.367,1.2,27.521,0.097c0.296-0.036,0.467-0.249,0.521-0.481c0.412,0.154,0.979-0.111,1.012-0.652
		c0.202-3.33-0.716-6.024-2.348-8.119c0.012,0.004,0.018,0.014,0.032,0.015c4.044,0.199,8.198,0.479,12.244,0.303
		c0.652,1.056,1.249,2.14,1.745,3.263c-3.031-0.362-6.227-0.159-9.239-0.013c-0.165,0.008-0.167,0.261,0,0.258
		c3.141-0.063,6.293,0.228,9.426,0.197c0.437,1.043,0.808,2.109,1.094,3.197c-2.554-0.399-5.271-0.076-7.798,0.384
		c-0.185,0.034-0.105,0.31,0.077,0.28c2.6-0.424,5.091-0.337,7.704-0.357c0.035,0,0.061-0.017,0.085-0.037
		c0.264,1.056,0.463,2.129,0.57,3.218c-6.693-0.322-13.461-0.012-20.16,0.078c-0.181,0.002-0.181,0.279,0,0.281
		c6.712,0.091,13.496,0.402,20.203,0.077c0.084,1.069,0.097,2.149,0.016,3.241c-2.927,0.023-5.855,0.04-8.784,0.056
		C50.269,42.998,50.165,42.818,50.042,42.653z"/>
</g>
<g>
</g>
<g>
</g>
<g>
</g>
<g>
</g>
<g>
</g>
<g>
</g>
<g>
</g>
<g>
</g>
<g>
</g>
<g>
</g>
<g>
</g>
<g>
</g>
<g>
</g>
<g>
</g>
<g>
</g>
</svg>
