<?xml version="1.0" encoding="iso-8859-1"?>
<!-- Generator: Adobe Illustrator 18.0.0, SVG Export Plug-In . SVG Version: 6.00 Build 0)  -->
<!DOCTYPE svg PUBLIC "-//W3C//DTD SVG 1.1//EN" "http://www.w3.org/Graphics/SVG/1.1/DTD/svg11.dtd">
<svg version="1.1" id="Capa_1" xmlns="http://www.w3.org/2000/svg" xmlns:xlink="http://www.w3.org/1999/xlink" x="0px" y="0px"
	 viewBox="0 0 62.816 62.816" style="enable-background:new 0 0 62.816 62.816;" xml:space="preserve">
<g>
	<path style="fill:#1D1D1B;" d="M60.706,53.532c-18.987-0.637-37.979-1.142-56.97-1.673C3.119,38.064,3.072,24.019,1.364,10.321
		c-0.1-0.804-1.27-0.857-1.294,0c-0.397,14.111,0.991,28.425,1.693,42.518c0.028,0.554,0.439,0.993,1.007,1.007
		c19.312,0.483,38.623,0.996,57.936,1.374C61.794,55.241,61.79,53.569,60.706,53.532z"/>
	<path style="fill:#1D1D1B;" d="M62.456,52.289c-10.119-7.725-20.895-14.385-31.427-21.37c-0.031-0.028-0.065-0.046-0.101-0.067
		c-1.952-1.295-3.894-2.604-5.823-3.931c0.054-0.105,0.009-0.266-0.148-0.279c-0.095-0.008-0.192-0.01-0.287-0.018
		c-6.239-4.306-12.323-8.831-18.058-13.877c-0.043-0.223-0.24-0.415-0.46-0.406c-1.678-1.49-3.337-3.009-4.949-4.598
		C0.749,7.295,0.086,7.97,0.507,8.439c1.485,1.651,3.038,3.228,4.62,4.773c-0.569,0.702-1.002,1.553-1.454,2.3
		c-0.397,0.656,0.575,1.184,1.008,0.589c0.451-0.619,1.004-1.259,1.416-1.95c0.871,0.831,1.761,1.64,2.657,2.444L8.064,17.6
		c-1.287-0.117-2.578-0.203-3.851-0.278c-0.207-0.012-0.261,0.339-0.05,0.368c1.165,0.163,2.346,0.317,3.53,0.449
		c-0.112,0.163-0.224,0.326-0.335,0.489c-0.277,0.403,0.37,0.913,0.685,0.528c0.247-0.302,0.495-0.605,0.742-0.907
		c0.688,0.066,1.375,0.12,2.061,0.161c0.624,0.532,1.243,1.071,1.875,1.594c-2.416-0.181-4.848-0.242-7.262-0.364
		c-0.202-0.01-0.201,0.302,0,0.314c2.429,0.152,4.869,0.367,7.306,0.457c-0.317,0.341-0.634,0.682-0.95,1.023
		c-0.327,0.352-0.068,0.8,0.288,0.876c-1.467-0.053-2.934-0.097-4.395-0.157c-0.221-0.009-0.219,0.329,0,0.342
		c2.91,0.171,5.834,0.408,8.753,0.494c0.168,0.131,0.333,0.266,0.502,0.397c-0.272,0.363-0.544,0.727-0.816,1.09
		c-0.01,0.013-0.01,0.027-0.018,0.04c-1.808-0.023-3.618-0.024-5.421-0.046c-0.157-0.002-0.156,0.238,0,0.244
		c1.799,0.064,3.603,0.148,5.407,0.211c0.148,0.3,0.59,0.49,0.849,0.182c0.043-0.052,0.087-0.103,0.13-0.155
		c0.677,0.02,1.353,0.035,2.03,0.044c0.442,0.322,0.881,0.648,1.322,0.972c-0.014,0.015-0.031,0.02-0.045,0.038
		c-0.102,0.131-0.192,0.27-0.288,0.404c-2.304-0.046-4.613-0.019-6.905,0.044c-0.16,0.004-0.16,0.249,0,0.248
		c2.204-0.004,4.402,0.06,6.6,0.135c-0.038,0.055-0.079,0.108-0.117,0.164c-0.302,0.445,0.374,0.954,0.74,0.571
		c0.217-0.227,0.429-0.455,0.635-0.691c0.224,0.008,0.447,0.015,0.671,0.024c0.984,0.709,1.977,1.408,2.972,2.105
		c-0.001,0.001-0.002,0.002-0.003,0.002c-2.665-0.06-5.338-0.041-7.997-0.067c-0.145-0.001-0.144,0.22,0,0.225
		c2.536,0.085,5.082,0.21,7.626,0.27c-0.142,0.197-0.275,0.397-0.424,0.59c-0.334,0.432,0.164,0.931,0.597,0.597
		c0.312-0.242,0.646-0.413,0.937-0.699c0.082-0.081,0.138-0.167,0.205-0.25c0.731,0.508,1.47,1.005,2.207,1.505
		c-3.046-0.211-6.1-0.341-9.146-0.514c-0.157-0.009-0.156,0.233,0,0.244c3.238,0.224,6.479,0.492,9.723,0.663
		c0.212,0.143,0.422,0.289,0.634,0.433c-0.025,0.023-0.049,0.049-0.076,0.071c-0.37,0.312-0.687,0.439-0.924,0.886
		c-0.056,0.105-0.023,0.224,0.076,0.289c0.214,0.141,0.415,0.19,0.614,0.201c-2.017-0.076-4.035-0.138-6.051-0.211
		c-0.154-0.006-0.153,0.231,0,0.239c3.076,0.154,6.155,0.337,9.234,0.45c0.551,0.364,1.099,0.731,1.651,1.094
		c-0.347,0.327-0.645,0.707-0.855,1.027c-0.11,0.167-0.116,0.324-0.065,0.456c-1.737-0.034-3.475-0.061-5.212-0.094
		c-0.178-0.003-0.178,0.272,0,0.277c1.876,0.05,3.752,0.105,5.629,0.152c0.081,0.018,0.165,0.02,0.249,0.005
		c1.043,0.026,2.085,0.041,3.128,0.058c0.554,0.361,1.106,0.722,1.66,1.082c-0.164,0.122-0.317,0.258-0.448,0.42
		c-0.081,0.1-0.197,0.225-0.254,0.338c-0.053,0.106-0.039,0.243-0.104,0.333c-0.097,0.135-0.069,0.288,0.015,0.406
		c-1.877-0.103-3.756-0.184-5.626-0.296c-0.169-0.01-0.168,0.251,0,0.262c3.229,0.226,6.473,0.541,9.711,0.672
		c0.394,0.256,0.789,0.511,1.183,0.767c-0.155,0.068-0.305,0.145-0.449,0.254c-0.264,0.202-0.528,0.403-0.792,0.605
		c-0.231,0.177-0.286,0.435-0.232,0.661c-1.48,0.007-2.96,0.054-4.429,0.141c-0.182,0.011-0.185,0.292,0,0.286
		c1.596-0.054,3.182-0.044,4.768-0.009c0.096,0.038,0.205,0.04,0.324,0.005c1.334,0.033,2.67,0.084,4.007,0.138
		c0.486,0.318,0.974,0.634,1.46,0.952c-0.459,0.37-0.794,0.89-0.966,1.473c-2.529-0.095-5.061-0.158-7.585-0.248
		c-0.206-0.007-0.204,0.309,0,0.319c2.498,0.114,5,0.255,7.502,0.365c0.031,0.519,0.785,0.699,0.963,0.127
		c0.01-0.031,0.026-0.056,0.037-0.086c1.048,0.042,2.097,0.071,3.144,0.091c0.434,0.288,0.871,0.574,1.303,0.863
		c-0.469,0.35-0.895,0.777-1.307,1.162c-0.487,0.456,0.157,1.327,0.724,0.939c0.578-0.396,1.245-0.791,1.746-1.314
		c0.808,0.545,1.607,1.097,2.407,1.649c-11.994-0.657-24.013-0.974-36.018-1.327c-0.103-0.003-0.102,0.154,0,0.159
		c12.18,0.62,24.373,1.283,36.567,1.584c-0.292,0.285-0.582,0.571-0.873,0.857c-0.23,0.226-0.197,0.483-0.05,0.662
		c-14.963-1.737-30.444-2.076-45.4-1.09c-0.149,0.01-0.152,0.236,0,0.234c16.602-0.125,32.921,0.495,49.475,1.685
		c0.072,0.005,0.11-0.03,0.134-0.075c0.847,0.602,1.702,1.195,2.536,1.808C62.487,54.412,63.311,52.941,62.456,52.289z
		 M12.256,22.316c0.103-0.011,0.207-0.046,0.304-0.135c0.443-0.407,0.887-0.814,1.33-1.221c0.637,0.517,1.287,1.02,1.933,1.527
		C14.636,22.412,13.446,22.359,12.256,22.316z M17.438,24.542c0.136-0.162,0.272-0.324,0.408-0.485
		c0.227,0.173,0.46,0.337,0.689,0.507C18.169,24.553,17.803,24.549,17.438,24.542z M28.958,33.462
		c0.253-0.031,0.508-0.139,0.783-0.292c0.051-0.029,0.103-0.067,0.155-0.099c0.154-0.06,0.29-0.131,0.403-0.226
		c0.36,0.241,0.723,0.479,1.084,0.718C30.575,33.525,29.767,33.493,28.958,33.462z M33.783,36.537
		c0.232-0.281,0.505-0.531,0.813-0.723c0.034-0.021,0.068-0.039,0.102-0.059c0.43,0.281,0.861,0.561,1.291,0.841
		C35.254,36.576,34.519,36.553,33.783,36.537z M38.045,39.529c0.449-0.111,0.841-0.501,1.077-0.895
		c0.561,0.363,1.121,0.726,1.681,1.09C39.886,39.648,38.966,39.583,38.045,39.529z M42.518,42.418
		c0.36-0.23,0.698-0.473,0.999-0.809c0.024-0.027,0.039-0.06,0.056-0.091c0.523,0.339,1.042,0.68,1.564,1.019
		C44.266,42.474,43.393,42.435,42.518,42.418z M47.42,45.44c0.218-0.345,0.516-0.625,0.861-0.851
		c0.49,0.322,0.977,0.647,1.465,0.971C48.971,45.515,48.196,45.473,47.42,45.44z M55.653,51.293
		c0.002-0.001,0.004-0.001,0.006-0.003c0.381-0.296,0.763-0.59,1.142-0.887c0.014-0.011,0.028-0.022,0.042-0.034
		c0.607,0.422,1.199,0.858,1.802,1.285C57.653,51.522,56.651,51.412,55.653,51.293z"/>
	<path style="fill:#1D1D1B;" d="M35.718,45.338c-0.256-0.022-0.515-0.036-0.771-0.057c-0.063-0.11-0.15-0.21-0.296-0.276
		c-8.972-4.079-15.87-9.127-22.795-16.056c0.001-0.038,0.001-0.076,0.002-0.115c0.021-0.626-1.032-0.797-1.119-0.152
		c-0.721,5.35-0.987,11.947,1.292,16.983c0.204,0.451,0.847,0.328,1.04-0.051c7.483,0.782,15.127,1.173,22.646,1.213
		C36.69,46.834,36.66,45.419,35.718,45.338z M13.071,44.498c-0.215-2.453-0.831-4.879-1.04-7.342
		c-0.193-2.276-0.242-4.553-0.204-6.833c4.152,6.328,10.823,11.606,17.927,14.584C24.199,44.57,18.602,44.421,13.071,44.498z"/>
</g>
<g>
</g>
<g>
</g>
<g>
</g>
<g>
</g>
<g>
</g>
<g>
</g>
<g>
</g>
<g>
</g>
<g>
</g>
<g>
</g>
<g>
</g>
<g>
</g>
<g>
</g>
<g>
</g>
<g>
</g>
</svg>
