<?xml version="1.0" encoding="iso-8859-1"?>
<!-- Generator: Adobe Illustrator 18.0.0, SVG Export Plug-In . SVG Version: 6.00 Build 0)  -->
<!DOCTYPE svg PUBLIC "-//W3C//DTD SVG 1.1//EN" "http://www.w3.org/Graphics/SVG/1.1/DTD/svg11.dtd">
<svg version="1.1" id="Capa_1" xmlns="http://www.w3.org/2000/svg" xmlns:xlink="http://www.w3.org/1999/xlink" x="0px" y="0px"
	 viewBox="0 0 60.256 60.256" style="enable-background:new 0 0 60.256 60.256;" xml:space="preserve">
<g>
	<path style="fill:#1D1D1B;" d="M58.343,50.533c-0.005-0.041-0.021-0.08-0.051-0.11c-1.67-3.719-5.745-7.322-8.009-9.848
		c-5.174-5.773-10.885-11.049-16.84-16.002c0.724-5.822,0.18-11.957-0.226-17.796c2.718,0.111,8.64-1.415,5.71-5.077
		c-1.126-1.407-3.051-1.488-4.706-1.582c-3.487-0.2-7.061-0.145-10.554,0.168c-1.058-0.264-2.6,0.129-3.459,0.672
		c-1.184,0.748-1.581,2.149-1.147,3.458c0.446,1.346,1.61,2.312,2.912,2.786c1.084,0.394,2.071,0.355,3.011-0.047
		c-0.756,5.743-0.425,11.931-0.587,17.672c0,0.003,0.001,0.004,0.001,0.007c-5.428,4.338-9.941,10.2-14.321,15.501
		c-2.85,3.449-8.146,8.232-8.79,12.924c-0.489,3.567,1.523,5.806,4.924,6.229c7.762,0.965,16.036,0.46,23.858,0.525
		c7.158,0.06,14.858,0.703,21.947-0.379c3.436-0.524,7.146-2.258,7.025-6.277C59.012,52.418,58.752,51.472,58.343,50.533z
		 M55.859,50.498c0.007,0.018,0.009,0.042,0.016,0.06c-1.038,0.154-2.076,0.368-3.077,0.53c-0.045,0.007-0.075,0.034-0.096,0.066
		c-0.1-0.968-0.614-1.965-1.304-2.931c0.897-0.074,1.805-0.148,2.69-0.288C54.797,48.741,55.51,49.603,55.859,50.498z
		 M53.042,46.729c0.171,0.21,0.361,0.427,0.556,0.648c-0.832,0.124-1.664,0.292-2.487,0.457c-0.574-0.747-1.237-1.466-1.882-2.133
		c0.88-0.049,1.764-0.176,2.596-0.42C52.231,45.763,52.643,46.241,53.042,46.729z M47.974,52.993
		c-1.377,0.632-3.641,0.349-5.186,0.464c-3.496,0.262-6.995,0.477-10.499,0.614c-3.172,0.124-20.024,2.038-20.857-2.155
		c-0.267-1.346,4.126-6.419,4.939-7.64c1.833-2.751,3.773-5.421,5.37-8.312c3.951-0.318,8.578-0.798,12.274-2.25
		c4.684,3.971,9.845,8.258,13.461,13.268c0.365,0.444,0.73,0.888,1.095,1.332C50.687,51.607,50.488,53.167,47.974,52.993z
		 M51.449,44.833c-0.881,0.174-1.752,0.34-2.647,0.429c-0.605-0.614-1.172-1.175-1.602-1.649c-0.277-0.306-0.567-0.596-0.847-0.897
		c0.94-0.276,1.875-0.386,2.819-0.498C49.941,43.081,50.701,43.952,51.449,44.833z M46.562,39.425
		c0.708,0.751,1.428,1.491,2.119,2.257c-0.883,0.135-1.763,0.401-2.555,0.676c-0.031,0.011-0.041,0.035-0.061,0.054
		c-0.893-0.953-1.804-1.884-2.729-2.8C44.39,39.548,45.492,39.538,46.562,39.425z M46.039,38.869
		c-0.967,0.092-1.94,0.247-2.878,0.345c-0.069,0.007-0.117,0.042-0.149,0.088c-1.049-1.029-2.129-2.023-3.221-3.005
		c0.022,0.009,0.045,0.016,0.076,0.006c1.039-0.358,2.06-0.499,3.101-0.565C44.005,36.768,45.031,37.81,46.039,38.869z
		 M55.893,53.954c-0.039-0.01-0.077-0.026-0.125-0.012c-0.772,0.214-1.5,0.536-2.284,0.718c-0.874,0.202-1.753,0.268-2.646,0.32
		c-0.283,0.016-0.277,0.41,0,0.436c1.566,0.148,3.477-0.088,4.886-0.879c-0.35,1.038-0.917,1.936-1.65,2.339
		c-2.068,1.138-5.276,0.775-7.561,0.799c-5.481,0.059-10.964,0.073-16.444,0.057c-5.158-0.015-10.319-0.062-15.476-0.203
		c-2.086-0.057-5.834,0.534-7.735-0.274c-4.572-1.943-3.062-5.174-0.863-8.165c6.3-8.57,14.506-15.766,20.543-24.458
		c0.24-0.346-0.038-0.795-0.394-0.899c0.852-5.77,1.468-12.464,0.11-18.03c-0.12-0.49-0.92-0.542-1.052-0.042
		c-1.523,0.245-3.327-0.442-4.137-1.73c-0.925-1.471,0.115-1.985,1.284-2.345c0.035,0.005,0.062,0.019,0.101,0.019
		c3.103,0.015,6.191-0.047,9.294,0.071c1.098,0.042,3.976-0.302,4.836,0.333c1.12,2.173,0.594,3.16-1.577,2.959
		c-0.724,0.049-1.445,0.016-2.162-0.097c-0.919-0.093-1.122,0.962-0.647,1.533c-0.012,0.165-0.025,0.334-0.037,0.499
		c-1.411-0.189-2.9-0.045-4.318-0.023c-0.403,0.006-0.403,0.62,0,0.626c1.404,0.022,2.876,0.16,4.274-0.02
		c-0.061,0.806-0.122,1.612-0.182,2.427c-0.006-0.001-0.007-0.008-0.013-0.009c-1.428-0.258-2.968-0.084-4.413-0.06
		c-0.448,0.007-0.449,0.689,0,0.696c1.437,0.024,2.967,0.194,4.388-0.057c-0.074,1.027-0.146,2.058-0.204,3.093
		c-1.276-0.185-2.684,0.091-3.918,0.374c-0.342,0.079-0.195,0.586,0.144,0.522c1.248-0.234,2.495-0.198,3.741-0.343
		c-0.049,0.952-0.089,1.905-0.109,2.858c-1.123,0.065-2.26,0.267-3.368,0.397c-0.263,0.031-0.275,0.442,0,0.422
		c1.108-0.079,2.257-0.096,3.37-0.237c-0.014,0.964-0.022,1.927,0.008,2.884c-0.347,0.063-0.693,0.131-1.036,0.162
		c-0.782,0.07-1.564,0.068-2.347,0.02c-0.275-0.017-0.264,0.393,0,0.422c1.002,0.111,2.27,0.237,3.4,0.075
		c0.031,0.696,0.076,1.39,0.137,2.079c-1.241-0.085-2.525,0.319-3.642,0.807c-0.217,0.095-0.062,0.467,0.163,0.385
		c1.178-0.425,2.328-0.486,3.538-0.597c0.029,0.276,0.046,0.556,0.081,0.831c-0.242,0.323-0.288,0.76,0.119,1.098
		c0.538,0.447,1.067,0.906,1.599,1.361c-1.125,0.114-2.242,0.231-3.395,0.191c-0.302-0.011-0.293,0.437,0,0.464
		c1.321,0.122,2.742,0.17,4.076-0.074c0.903,0.784,1.8,1.576,2.691,2.378c-1.166,0.152-2.347,0.432-3.473,0.684
		c-0.194,0.043-0.156,0.374,0.048,0.352c1.297-0.137,2.669-0.26,3.952-0.555c0.763,0.693,1.532,1.378,2.283,2.085
		c-0.972,0.06-1.948,0.208-2.906,0.322c-0.372,0.044-0.39,0.625,0,0.598c1.169-0.081,2.371-0.127,3.534-0.323
		c0.738,0.703,1.474,1.409,2.199,2.126c-0.953,0.12-1.893,0.386-2.772,0.73c-0.085,0.034-0.092,0.125-0.056,0.185
		c-1.459-1.311-2.947-2.59-4.493-3.812c-0.205-0.162-0.43-0.213-0.644-0.199c-0.114-0.082-0.255-0.142-0.442-0.147
		c-3.908-0.106-8.362,1.057-12.165,2.177c-0.214-0.144-0.504-0.164-0.741,0.076c-3.445,3.5-6.095,7.769-8.771,11.867
		c-1.233,1.888-4.917,5.72-3.492,8.301c1.336,2.418,5.9,1.571,7.997,1.608c5.734,0.102,11.471,0.057,17.202-0.146
		c4.806-0.17,9.833-0.179,14.579-0.976c2.112-0.355,3.985-1.042,3.952-3.552c0-0.019-0.005-0.038-0.005-0.057
		c0.029,0.03,0.07,0.049,0.121,0.043c1.032-0.108,2.116-0.174,3.181-0.304C56.185,51.972,56.133,52.99,55.893,53.954z"/>
	<path style="fill:#1D1D1B;" d="M25.708,38.929c-0.213-0.213-0.619-0.124-0.69,0.182c-0.096,0.413-0.258,0.807-0.624,1.073
		c-0.228,0.166-0.55,0.271-0.802,0.132c-0.423-0.232-0.511-1.239-0.144-1.588c0.365-0.347-0.012-1.105-0.522-0.896
		c-0.839,0.344-1.359,0.944-1.459,1.866c-0.099,0.914,0.415,1.949,1.241,2.373c0.954,0.489,2.099,0.219,2.802-0.566
		C26.128,40.816,26.444,39.666,25.708,38.929z"/>
	<path style="fill:#1D1D1B;" d="M18.624,46.262c-0.285-0.054-0.537,0.287-0.299,0.514c0.434,0.415,0.764,0.932,0.573,1.546
		c-0.146,0.466-0.488,0.703-0.973,0.724c-1.031,0.045-1.073-1.313-0.515-1.914c0.197-0.211,0.078-0.667-0.261-0.63
		c-1.115,0.123-1.779,1.055-1.745,2.162c0.04,1.306,1.174,2.24,2.45,2.238c1.222-0.001,2.367-0.925,2.455-2.173
		C20.38,47.711,19.677,46.462,18.624,46.262z"/>
	<path style="fill:#1D1D1B;" d="M27.664,46.077c-0.237-0.849-1.35-2.139-2.347-1.591c-0.172,0.095-0.236,0.391-0.068,0.525
		c0.452,0.358,0.973,0.505,1.034,1.184c0.044,0.489-0.269,0.808-0.72,0.936c-1.111,0.314-1.614-1.153-1.004-1.931
		c0.385-0.491-0.133-1.428-0.746-0.966c-0.998,0.752-1.397,2.009-0.917,3.188c0.502,1.232,1.883,1.773,3.136,1.411
		C27.215,48.491,28.006,47.3,27.664,46.077z"/>
	<path style="fill:#1D1D1B;" d="M36.505,2.933c-3.49-0.275-7.172,0.204-10.665,0.413c-0.34,0.02-0.347,0.538,0,0.534
		c3.527-0.037,7.256,0.175,10.747-0.346C36.948,3.48,36.825,2.958,36.505,2.933z"/>
</g>
<g>
</g>
<g>
</g>
<g>
</g>
<g>
</g>
<g>
</g>
<g>
</g>
<g>
</g>
<g>
</g>
<g>
</g>
<g>
</g>
<g>
</g>
<g>
</g>
<g>
</g>
<g>
</g>
<g>
</g>
</svg>
