<?xml version="1.0" encoding="iso-8859-1"?>
<!-- Generator: Adobe Illustrator 18.0.0, SVG Export Plug-In . SVG Version: 6.00 Build 0)  -->
<!DOCTYPE svg PUBLIC "-//W3C//DTD SVG 1.1//EN" "http://www.w3.org/Graphics/SVG/1.1/DTD/svg11.dtd">
<svg version="1.1" id="Capa_1" xmlns="http://www.w3.org/2000/svg" xmlns:xlink="http://www.w3.org/1999/xlink" x="0px" y="0px"
	 viewBox="0 0 62.808 62.808" style="enable-background:new 0 0 62.808 62.808;" xml:space="preserve">
<g>
	<path style="fill:#1D1D1B;" d="M58.09,24.154c-0.106-5.444,1.384-19.757-7.108-19.922c-0.621-1.107-1.569-1.956-2.889-2.385
		c-0.018-0.353-0.039-0.705-0.057-1.058c-0.021-0.405-0.323-0.737-0.742-0.742C34.307-0.137,21.342,0.243,8.373,0.884
		C7.793,0.913,7.558,1.448,7.649,1.885c-0.277,0.081-0.551,0.179-0.82,0.316C4.637,3.316,3.964,6.607,6.01,8.059
		c-1.155,1.694-0.477,4.213,0.441,6.142c-2.237,1.702-2.53,5.287-0.194,6.935c-1.49,1.953-1.369,5.132,0.452,6.769
		c-1.144,1.765-1.084,4.247,0.214,5.946c-2.083,1.725-1.23,5.251,0.656,7.169c-1.163,1.196-1.581,2.975-0.936,4.543
		c0.239,0.58,0.786,1.363,1.439,1.775c-0.423,0.238-0.805,0.509-1.11,0.815c-1.236,1.239-1.629,3.203-0.672,4.723
		c0.723,1.15,2.285,1.965,3.526,1.239c0.001,0.335,0.008,0.67,0.008,1.004c0,0.452,0.39,0.86,0.85,0.85
		c0.29-0.006,0.579-0.014,0.869-0.021c0.671,1.382,1.734,2.107,3.096,2.537c0.777,6.381,14.211,3.861,18.277,3.696
		c6.105-0.248,12.382-0.081,18.452-0.758c2.965-0.331,4.798-1.138,5.7-4.174c1.365-4.594,0.828-10.29,0.964-15.035
		C58.212,36.189,58.207,30.178,58.09,24.154z M9.731,46.399c-0.061-0.084-0.138-0.162-0.251-0.248
		c-0.129-0.097-0.313-0.096-0.468-0.047c-0.285-0.509-0.649-1.001-0.654-1.015c-0.16-0.409-0.201-0.868-0.149-1.299
		c0.106-0.883,0.669-1.537,1.411-1.926C9.662,43.376,9.701,44.888,9.731,46.399z M8.697,3.539C8.691,4.527,8.689,5.516,8.69,6.504
		c-0.426,0.052-0.842,0.16-1.229,0.344C7.206,6.97,6.988,7.111,6.786,7.261C5.493,5.777,6.782,3.707,8.697,3.539z M8.75,13.222
		c-0.423,0.073-0.838,0.198-1.241,0.369c-0.413-1.85-1.185-4.534,1.011-5.139c0.059-0.016,0.115-0.023,0.172-0.036
		C8.703,10.018,8.722,11.62,8.75,13.222z M8.541,15.16c0.084-0.025,0.16-0.026,0.242-0.045c0.031,1.462,0.067,2.924,0.108,4.386
		c-0.619,0.127-1.212,0.376-1.742,0.753C5.512,18.584,6.159,15.874,8.541,15.16z M8.147,21.798c0.247-0.179,0.518-0.305,0.8-0.392
		c0.047,1.555,0.095,3.11,0.148,4.665c-0.311,0.1-0.613,0.225-0.894,0.391c-0.191,0.113-0.346,0.258-0.513,0.393
		C6.636,25.295,6.466,23.014,8.147,21.798z M9.161,27.982c0.058,1.664,0.116,3.327,0.174,4.991c-0.49,0.029-0.948,0.116-1.348,0.268
		C6.944,31.55,7.356,28.974,9.161,27.982z M9.403,34.931c0.056,1.63,0.109,3.261,0.158,4.891C9.313,39.899,9.074,40,8.841,40.113
		C7.652,38.295,6.605,35.327,9.403,34.931z M7.939,51.066c0.012-0.98,1.019-1.791,1.844-2.212c0.02,1.331,0.024,2.661,0.031,3.992
		C8.897,52.684,7.925,52.175,7.939,51.066z M11.514,53.177c-0.369-0.595-0.195-3.26-0.107-4.832c1.411-0.16,2.635,0.443,3.994,1.221
		c0.442,0.253,1.11-0.174,0.917-0.705c-0.711-1.957-2.786-2.64-4.88-2.499c-0.018-1.623-0.032-3.251-0.046-4.88
		c1.656,0.089,2.822,1.48,4.061,2.553c0.48,0.416,1.165,0.015,1.043-0.607c-0.472-2.4-2.798-3.795-5.122-3.851
		c-0.013-1.462-0.026-2.926-0.042-4.391c0.333,0.131,0.655,0.289,0.941,0.498c0.81,0.592,1.167,1.494,1.862,2.177
		c0.339,0.333,1.013,0.211,1.116-0.295c0.473-2.324-1.668-3.895-3.946-4.415c-0.023-1.835-0.055-3.671-0.093-5.507
		c1.306,0.237,2.454,1.258,3.115,2.447c0.432,0.778,1.479,0.213,1.349-0.569c-0.356-2.144-2.399-3.478-4.502-3.665
		c-0.036-1.463-0.086-2.926-0.138-4.388c0.073,0.024,0.147,0.046,0.218,0.074c1.153,0.458,1.608,1.303,2.313,2.238
		c0.439,0.583,1.346,0.407,1.392-0.377c0.099-1.685-1.489-3.032-2.926-3.602c-0.344-0.136-0.703-0.233-1.068-0.301
		c-0.059-1.434-0.127-2.866-0.207-4.296c1.203,0.418,2.2,1.424,3.146,2.373c0.542,0.544,1.704-0.006,1.381-0.804
		c-0.795-1.961-2.65-3.256-4.653-3.563c-0.098-1.544-0.214-3.085-0.342-4.623c1.063,0.487,1.866,1.62,2.813,2.348
		c0.558,0.429,1.225-0.276,1.097-0.844c-0.414-1.846-2.208-3.218-4.098-3.548c-0.09-0.966-0.188-1.929-0.29-2.893
		c1.467,0.39,2.501,1.74,3.578,2.786c0.502,0.488,1.553,0.003,1.263-0.735c-0.563-1.435-1.728-2.669-3.125-3.378
		c6.402-0.283,12.812-0.482,19.217-0.617c3.568-0.075,7.137-0.126,10.707-0.15c1.832-0.012,4.085-0.613,5.258,1.206
		c0.008,0.013,0.015,0.033,0.022,0.047c0.019,0.065,0.043,0.124,0.079,0.181c0.081,0.238,0.137,0.579,0.176,0.975
		c-2.758,0.061-5.551,0.468-8.291,0.722c-0.337,0.031-0.348,0.552,0,0.534c2.761-0.137,5.592-0.138,8.345-0.466
		c0.067,1.487-0.008,3.31,0.028,3.932c0.323,5.606,0.566,11.215,0.769,16.826c-0.037-0.035-0.083-0.064-0.137-0.07
		c-2.17-0.252-4.603,0.266-6.715,0.745c-0.248,0.056-0.137,0.409,0.103,0.373c2.215-0.335,4.474-0.306,6.674-0.662
		c0.043-0.007,0.062-0.033,0.087-0.053c0.055,1.529,0.123,3.057,0.169,4.586c0.06,2.006,0.1,4.013,0.145,6.02
		c-0.041-0.024-0.072-0.057-0.129-0.063c-1.298-0.142-2.694,0.049-4,0.095c-0.271,0.009-0.272,0.412,0,0.422
		c1.305,0.045,2.702,0.236,4,0.095c0.063-0.007,0.098-0.041,0.141-0.069c0.021,0.957,0.049,1.914,0.069,2.872
		c-1.168-0.029-2.381,0.219-3.538,0.353c-0.329,0.038-0.343,0.553,0,0.527c1.164-0.086,2.403-0.077,3.551-0.318
		c0.013,0.645,0.035,1.29,0.047,1.934c0.003,0.189,0.016,0.417,0.031,0.659c-2.251-0.233-4.745,0.202-6.975,0.348
		c-0.241,0.016-0.247,0.381,0,0.38c2.244-0.011,4.784,0.256,7.018-0.145c0.06,0.767,0.144,1.671,0.214,2.637
		c-1.387-0.226-2.891-0.165-4.224-0.021c-0.268,0.029-0.282,0.434,0,0.429c1.449-0.029,2.848,0.151,4.268,0.273
		c0.044,0.724,0.075,1.456,0.073,2.152c-2.666-0.102-5.333-0.014-8.006-0.269c-0.342-0.033-0.328,0.484,0,0.527
		c2.587,0.341,5.343,0.678,7.989,0.497c-0.018,0.409-0.049,0.799-0.101,1.156c-2.271-0.093-4.632,0.17-6.889,0.147
		c-0.347-0.003-0.34,0.512,0,0.534c2.133,0.14,4.525,0.355,6.725,0.103c-0.122,0.433-0.285,0.793-0.514,1.027
		c-1.545,1.585-7.884,0.723-10.182,0.782c-3.543,0.092-7.086,0.174-10.628,0.307c-3.544,0.133-7.083,0.194-10.628,0.275
		C14.821,54.137,12.565,54.872,11.514,53.177z M15.771,57.153c-0.007-0.104-0.022-0.205-0.016-0.315
		c0.031-0.586-0.925-0.729-1.036-0.14c-0.009,0.046-0.01,0.087-0.018,0.133c-0.637-0.233-1.214-0.528-1.684-0.918
		c8.239-0.187,16.479-0.406,24.717-0.631c3.252-0.088,10.825,1.596,12.359-2.173c1.09-2.677-0.055-7.817-0.129-10.807
		c-0.113-4.617-0.27-9.232-0.459-13.847c-0.34-8.261-0.867-16.509-1.313-24.763c0.467,0.283,0.817,0.696,1.094,1.186
		c-0.244,0.549-0.062,1.261,0.533,1.392c0.706,2.874-0.046,7.017,0.008,8.87c0.088,3.017,0.403,6.026,0.793,9.018
		c0.912,7.004,2.286,13.975,1.965,21.075c-0.196,4.345-0.446,10.748-5.549,12.055c-3.141,0.805-7.236,0.292-10.454,0.313
		c-3.74,0.023-7.472-0.075-11.21-0.139C23.117,57.422,18.932,57.892,15.771,57.153z M56.547,29.857
		c-0.049,6.659-0.248,13.306-0.668,19.953c-0.291,4.615,0.407,8.643-5.474,9.882c-3.344,0.704-7.263,0.423-10.681,0.583
		c-3.08,0.144-18.932,2.111-23.007-1.352c5.232,0.735,10.869,0.166,16.13,0.13c4.894-0.034,10.867,0.901,15.64-0.229
		c2.626-0.622,3.737-2.245,4.513-4.723c3.081-9.851,0.499-20.997-0.639-30.956c-0.338-2.958-0.643-5.913-0.709-8.892
		c-0.054-2.442,0.461-5.033,0.15-7.45c-0.02-0.156-0.054-0.304-0.082-0.455C58.457,7.732,56.583,24.958,56.547,29.857z"/>
	<path style="fill:#1D1D1B;" d="M42.154,7.032c-0.077-0.9-1.366-0.968-1.488-0.145c-3.03-0.194-6.081-0.075-9.116-0.057
		c-1.573,0.01-9.351,0.928-10.333-0.367c-0.413-0.544-1.287-0.101-0.99,0.517c-0.233-0.095-0.562-0.009-0.604,0.268
		c-0.517,3.397-0.556,7.018-0.464,10.448c0.019,0.703,0.681,0.968,1.188,0.797c3.618,0.737,7.478,0.458,11.151,0.394
		c3.252-0.057,7.515,0.502,10.604-0.583c0.286-0.101,0.59-0.321,0.646-0.646C43.312,14.389,42.438,10.34,42.154,7.032z
		 M40.978,14.404c-0.661,3.221-4.265,2.437-7.025,2.536c-4.267,0.153-8.799-0.175-13.033,0.539
		c0.084-3.336,0.037-6.838-0.456-10.137c1.334,1.635,4.456,1.081,6.34,1.148c4.612,0.163,9.346,0.39,13.947-0.016
		C40.956,10.432,41.333,12.671,40.978,14.404z"/>
	<path style="fill:#1D1D1B;" d="M47.739,32.634c-1.251,0.065-2.439,0.215-3.697,0.135c-0.253-0.016-0.317,0.408-0.061,0.449
		c1.23,0.194,2.62,0.259,3.82-0.121C48.045,33.02,48.015,32.62,47.739,32.634z"/>
	<path style="fill:#1D1D1B;" d="M47.107,29.457c-1.209-0.335-2.632-0.035-3.799,0.343c-0.245,0.079-0.145,0.448,0.107,0.387
		c1.24-0.302,2.373-0.178,3.621-0.205C47.334,29.975,47.402,29.539,47.107,29.457z"/>
	<path style="fill:#1D1D1B;" d="M47.39,22.585c-0.783-0.018-1.552,0.189-2.333,0.245c-0.785,0.056-1.565,0.042-2.349-0.017
		c-0.243-0.018-0.232,0.343,0,0.373c1.485,0.19,3.369,0.383,4.783-0.228C47.684,22.875,47.572,22.589,47.39,22.585z"/>
	<path style="fill:#1D1D1B;" d="M47.038,19.383c-1.307-0.143-2.686-0.001-4,0.021c-0.376,0.006-0.376,0.577,0,0.584
		c1.314,0.022,2.693,0.164,4,0.021C47.44,19.964,47.441,19.427,47.038,19.383z"/>
	<path style="fill:#1D1D1B;" d="M46.773,15.115c-0.885-0.161-1.841-0.025-2.735,0.008c-0.308,0.012-0.308,0.467,0,0.478
		c0.894,0.033,1.851,0.169,2.735,0.008C47.018,15.565,47.018,15.159,46.773,15.115z"/>
	<path style="fill:#1D1D1B;" d="M46.771,10.732c-1.084-0.16-2.402,0.18-3.471,0.373c-0.297,0.053-0.228,0.538,0.071,0.525
		c0.599-0.026,1.195-0.084,1.792-0.136c0.541-0.047,1.097-0.048,1.607-0.246C46.985,11.164,47.063,10.775,46.771,10.732z"/>
	<path style="fill:#1D1D1B;" d="M46.446,7.44c-1.214-0.326-2.636-0.074-3.836,0.216c-0.308,0.075-0.174,0.521,0.129,0.468
		c1.235-0.217,2.396-0.07,3.63-0.111C46.691,8.002,46.772,7.527,46.446,7.44z"/>
</g>
<g>
</g>
<g>
</g>
<g>
</g>
<g>
</g>
<g>
</g>
<g>
</g>
<g>
</g>
<g>
</g>
<g>
</g>
<g>
</g>
<g>
</g>
<g>
</g>
<g>
</g>
<g>
</g>
<g>
</g>
</svg>
