<?xml version="1.0" encoding="iso-8859-1"?>
<!-- Generator: Adobe Illustrator 18.0.0, SVG Export Plug-In . SVG Version: 6.00 Build 0)  -->
<!DOCTYPE svg PUBLIC "-//W3C//DTD SVG 1.1//EN" "http://www.w3.org/Graphics/SVG/1.1/DTD/svg11.dtd">
<svg version="1.1" id="Capa_1" xmlns="http://www.w3.org/2000/svg" xmlns:xlink="http://www.w3.org/1999/xlink" x="0px" y="0px"
	 viewBox="0 0 63.864 63.864" style="enable-background:new 0 0 63.864 63.864;" xml:space="preserve">
<g>
	<path style="fill:#1D1D1B;" d="M22.032,47.007c-0.532-1.597-2.373-2.515-3.913-1.81c-0.059,0.027-0.108,0.064-0.146,0.107
		c-0.001,0-0.002-0.001-0.003-0.001c-1.615-0.021-2.075,2.238-1.726,3.454c0.464,1.613,2.111,2.411,3.689,1.928
		C21.482,50.211,22.567,48.613,22.032,47.007z M19.321,49.175c-0.763,0.173-1.43-0.243-1.57-1.021
		c-0.149-0.83,0.327-1.289,0.65-1.962c0.898-0.081,1.865,0.417,2.101,1.342C20.708,48.34,20.078,49.004,19.321,49.175z"/>
	<path style="fill:#1D1D1B;" d="M25.066,18.763c-0.076-0.878-1.402-0.91-1.392,0c0.045,4.051,0.233,8.097,0.45,12.141
		c-2.566,0.359-5.303,0.243-7.761,0.926c0.181-2.775-0.561-5.47,0.218-8.245c0.866-3.085,3.54-5.581,6.858-5.414
		c0.427,0.021,0.476-0.595,0.097-0.718c-8.232-2.683-10.314,9.199-8.407,14.653c0.153,0.437,0.599,0.532,0.91,0.355
		c0.05,0.111,0.127,0.209,0.262,0.252c2.724,0.867,6.141,0.17,8.917-0.291c0.344-0.057,0.628-0.469,0.614-0.806
		C25.648,27.326,25.437,23.04,25.066,18.763z"/>
	<path style="fill:#1D1D1B;" d="M62.171,13.763c0.079-0.45-0.166-0.989-0.758-1.026c-0.092-0.006-0.184-0.01-0.276-0.016
		c-0.102-0.038-0.209-0.037-0.313-0.018c-13.096-0.812-26.506-1.193-39.611-0.167c0.3-2.261-0.842-5.183-3.393-5.093
		c-3.352,0.119-3.94,3.825-3.499,6.535c-0.758,0.445-1.428,1.034-1.917,1.872c-0.892,1.528-0.788,3.481-0.8,5.176
		c-0.025,3.576,0.003,7.175,0.175,10.747c0.003,0.064,0.023,0.115,0.04,0.168c-3.625-1.04-8.61-1.418-10.891,2.27
		c-1.066,1.723-0.951,3.811-0.892,5.761c0.092,2.997,0.405,6.047,1.093,8.968c0.122,0.517,0.975,0.417,0.939-0.127
		c-0.234-3.503-0.732-7.037-0.586-10.556c1.145,0.94,2.968,0.967,4.089-0.094c1.425-1.348,1.117-3.752-0.39-4.876
		c-0.053-0.04-0.109-0.055-0.163-0.074c1.992-0.562,4.52-0.265,6.767,0.022c0.524,0.067,0.72-0.501,0.55-0.903
		c0.287,0.009,0.583-0.177,0.612-0.56c0.294-3.945-1.233-13.875,2.419-16.313c3.567-2.381,11.168-1.483,15.328-1.671
		c10.063-0.456,20.177-0.114,30.224,0.549c0.126,0.243,0.236,0.497,0.339,0.757c-5.971-0.611-12.088-0.684-18.084-0.722
		c-0.194-0.001-0.191,0.288,0,0.3c6.061,0.375,12.188,0.872,18.261,0.935c0.249,0.761,0.421,1.572,0.524,2.423
		c-0.012-0.003-0.017-0.015-0.03-0.016c-7.179-0.886-14.788-1.105-22.003-0.547c-0.102,0.008-0.104,0.155,0,0.159
		c7.316,0.339,14.681,0.575,22.003,0.79c0.031,0.001,0.046-0.017,0.069-0.026c0.105,1.064,0.126,2.171,0.094,3.283
		c-1.094-0.036-2.188-0.07-3.282-0.106c0.001-0.602,0.012-1.205,0.009-1.807c-0.004-0.813-0.887-1.04-1.409-0.702
		c-1.811-0.024-3.616,0.007-5.427-0.105c-1.77-0.11-3.529-0.433-5.292-0.194c-0.064,0.009-0.112,0.034-0.165,0.055
		c-0.345-0.288-0.978-0.251-1.06,0.288c-0.107,0.7-0.191,1.403-0.276,2.106c-1.196-0.022-2.392-0.042-3.588-0.056
		c0.031-0.73-0.035-1.437-0.36-1.997c-0.642-1.104-1.881-1.191-3.02-1.257c-2.335-0.136-4.73,0.028-7.073,0.057
		c-0.228-0.375-0.938-0.27-0.993,0.287c-0.278,2.831-0.573,5.662-0.824,8.496c-0.138,1.56-1.002,4.415-0.053,5.837
		c0.625,0.936,1.818,0.977,2.848,1.071c2.505,0.228,5.237,0.093,7.582-0.86c0.245-0.099,0.4-0.326,0.466-0.571
		c0.183-0.086,0.336-0.251,0.367-0.503c0.261-2.145,0.451-4.299,0.632-6.453c1.192,0.038,2.385,0.076,3.575,0.124
		c-0.062,0.676-0.121,1.352-0.183,2.027c-0.103,1.125-0.648,3.11-0.573,4.658c-0.939,0.026-1.879,0.046-2.817,0.079
		c-0.195,0.007-0.197,0.306,0,0.305c0.952-0.008,1.903-0.002,2.854-0.003c0.057,0.439,0.166,0.838,0.382,1.142
		c0.79,1.109,2.64,0.605,3.73,0.53c2.76-0.189,5.834-0.022,8.492-0.829c0.3-0.091,0.481-0.383,0.519-0.681
		c0.046,0.001,0.091,0.002,0.137,0.003c0.262,0.46,0.967,0.469,1.25,0.028c1.002,0.023,2.004,0.045,3.006,0.068
		c-0.033,1.211-0.064,2.421-0.095,3.632c-6.922-0.228-13.85-0.348-20.775-0.442c-0.16-0.002-0.159,0.241,0,0.248
		c6.917,0.302,13.84,0.577,20.761,0.745c-0.021,0.844-0.046,1.689-0.062,2.533c-6.802-0.354-13.667-0.103-20.447,0.482
		c-0.16,0.014-0.164,0.262,0,0.253c6.827-0.363,13.608-0.348,20.436-0.243c-0.023,1.287-0.039,2.574-0.043,3.86
		c-1.208-0.137-2.42-0.259-3.635-0.364c-1.99-2.688-7.849-5.471-9.626-1.174c-0.019,0.046-0.024,0.092-0.028,0.137
		c-0.265,0.128-0.505,0.288-0.746,0.445c-2.041-0.063-4.079-0.109-6.111-0.131c-0.131-0.001-0.129,0.194,0,0.202
		c1.843,0.105,3.684,0.227,5.523,0.358c-0.823,0.669-1.494,1.497-1.961,2.439c-1.27,0.03-2.539,0.071-3.804,0.133
		c-0.177,0.009-0.179,0.279,0,0.277c1.206-0.015,2.405,0.004,3.604,0.018c-0.254,0.602-0.439,1.234-0.535,1.886
		c-0.029-0.004-0.051-0.02-0.082-0.021c-5.631-0.313-11.261-0.673-16.902-0.573c0.003-2.215-0.738-4.392-2.4-5.958
		c-2.558-2.41-8.031-2.869-9.868,0.638c-1.697,1.373-2.652,3.29-2.826,5.302c-1.189-0.125-2.439-0.005-3.614,0.007
		c-1.792,0.018-3.6-0.002-5.385,0.165c-0.894,0.084-0.896,1.308,0,1.392c1.783,0.167,3.594,0.148,5.385,0.165
		c1.198,0.011,2.454,0.135,3.655,0.002c0.186,1.366,0.724,2.714,1.644,3.901c2.813,3.629,8.349,4.457,11.324,0.6
		c1.14-1.478,1.854-3.355,2.037-5.265c5.625,0.737,11.289,1.026,16.951,1.353c0.006,0,0.01-0.003,0.016-0.002
		c0.061,0.803,0.245,1.606,0.573,2.377c1.74,4.098,6.952,5.369,10.772,3.473c3.318-1.647,4.558-5.323,3.884-8.71
		c0.402,0.032,0.803,0.062,1.206,0.096c-0.053,0.024-0.101,0.059-0.157,0.075c-0.825,0.247-0.676,1.503,0.204,1.51
		c1.301,0.01,2.631-1.374,2.536-2.703c0.129-0.147,0.228-0.331,0.241-0.578c0.371-7.054,0.391-14.14,0.551-21.202
		C63.823,20.483,64.383,16.62,62.171,13.763z M4.646,37.238c-0.829,0.867-2.257,0.564-3.007-0.232
		c-0.003-0.004-0.008-0.004-0.011-0.008c0.361-1.896,1.353-2.971,2.682-3.537c-0.206,0.265-0.26,0.653,0.036,0.908
		C5.16,35.07,5.448,36.398,4.646,37.238z M15.55,13.398c-0.053-1.855,0.075-4.167,2.211-4.406c1.984-0.222,1.895,2.155,1.926,3.657
		C18.325,12.768,16.862,12.933,15.55,13.398z M36.416,21.365c1.156,0.061,2.313,0.106,3.47,0.158
		c-0.023,0.097-0.029,0.186-0.073,0.292c0.117,0.976,0.116,2,0.065,3.041c-0.235,0.008-0.471,0.011-0.705,0.02
		c-0.202,0.008-0.203,0.309,0,0.314c0.23,0.006,0.459,0.017,0.69,0.024c-0.124,2.055-0.435,4.168-0.502,6.13
		c-1.703,0.227-3.381,0.608-5.107,0.646c-1.025,0.022-2.025,0.139-2.875-0.537c-1.033-0.821-0.704-1.215-0.629-2.591
		c0.17-3.089,0.292-6.181,0.417-9.272c1.439-0.004,2.878-0.008,4.318-0.011c0.724-0.002,1.58-0.153,2.279-0.006
		c0.529-0.093,0.958,0.115,1.286,0.625c0.575,0.185,0.854,0.505,0.881,0.941c-1.171-0.01-2.343-0.027-3.513-0.028
		C36.252,21.111,36.254,21.356,36.416,21.365z M44.804,24.774c-1.201-0.001-2.399,0.016-3.594,0.045
		c0.029-0.341,0.06-0.683,0.088-1.024c0.053-0.635,0.202-1.415,0.273-2.195c1.182,0.049,2.364,0.093,3.547,0.135
		C45.001,22.746,44.898,23.759,44.804,24.774z M46.713,20.285c2.993,0.978,7.074,0.599,10.317,0.187
		c-0.001,0.346,0.005,0.692,0.005,1.038c-3.452-0.108-6.906-0.201-10.36-0.273C46.688,20.92,46.705,20.603,46.713,20.285z
		 M46.654,21.786c3.461,0.113,6.923,0.206,10.384,0.282c0.002,1.083,0.003,2.165,0.015,3.248c-3.506-0.31-7.039-0.482-10.561-0.527
		C46.556,23.789,46.61,22.788,46.654,21.786z M56.914,31.975c-0.077-0.057-0.166-0.103-0.283-0.121
		c-1.649-0.253-3.284-0.055-4.94,0.081c-1.939,0.007-3.878,0.036-5.816,0.08c-0.17-1.16,0.51-5.55,0.555-6.232
		c0.007-0.108,0.013-0.216,0.02-0.323c3.542,0.16,7.075,0.359,10.613,0.6c0.013,0.969,0.025,1.939,0.045,2.908
		c-3.401-0.001-6.805,0.08-10.192,0.297c-0.134,0.009-0.137,0.21,0,0.211c3.402,0.012,6.803,0.016,10.204,0.032
		c0.02,0.823,0.027,1.646,0.055,2.469C57.089,31.976,57.002,31.977,56.914,31.975z M23.982,51.646
		c-2.131,3.612-6.53,3.195-8.935,0.113c-2.064-2.646-1.651-6.066,0.125-8.709c0.161,0.017,0.334-0.02,0.491-0.144
		c2.271-1.801,5.387-2.412,7.712-0.213C25.762,44.95,25.538,49.009,23.982,51.646z M57.269,47.975
		c-1.015-0.176-2.046-0.294-3.085-0.354c-0.027-0.153-0.066-0.306-0.129-0.46c-0.109-0.264-0.262-0.496-0.443-0.7
		c1.13,0.069,2.261,0.137,3.393,0.22C57.126,47.106,57.219,47.539,57.269,47.975z M49.215,42.81c0.089-0.053,0.141-0.13,0.17-0.213
		c2.124-1.211,4.088-0.708,5.532,0.61c-1.938-0.134-3.877-0.238-5.819-0.314C49.139,42.868,49.174,42.835,49.215,42.81z
		 M48.42,43.381c2.394,0.177,4.787,0.362,7.179,0.549c0.489,0.609,0.889,1.319,1.18,2.078c-1.408-0.116-2.819-0.199-4.232-0.256
		c-0.427-0.147-0.891-0.185-1.344-0.081c-0.078-0.031-0.16-0.052-0.245-0.047c-0.125,0.007-0.243,0.029-0.355,0.063
		c-1.32-0.031-2.641-0.04-3.961-0.028C47.086,44.787,47.686,44,48.42,43.381z M52.695,48.144c-0.112,0.364-0.481,0.644-0.863,0.719
		c-0.524,0.103-0.942-0.186-1.01-0.723c-0.003-0.026,0.005-0.044,0.003-0.069C51.449,48.089,52.073,48.109,52.695,48.144z
		 M50.904,47.58c0.117-0.274,0.331-0.484,0.549-0.733c0.488-0.008,0.972,0.268,1.18,0.72C52.056,47.559,51.48,47.565,50.904,47.58z
		 M56.511,51.888c-2.766-0.207-5.571-0.247-8.338-0.061c-0.265,0.018-0.271,0.42,0,0.417c2.672-0.023,5.325,0.011,7.992,0.134
		c-0.61,0.762-1.472,1.381-2.635,1.758c-2.914,0.945-6.441-0.202-7.425-3.301c-0.486-1.531-0.322-3.211,0.305-4.696
		c1.133,0.027,2.264,0.075,3.395,0.123c-0.294,0.38-0.471,0.882-0.529,1.384c-0.54,0.031-1.078,0.066-1.611,0.109
		c-0.208,0.017-0.213,0.338,0,0.328c0.535-0.025,1.062-0.019,1.592-0.021c0.004,0.241,0.028,0.476,0.09,0.684
		c0.136,0.457,0.398,0.829,0.728,1.11c-0.728,0.021-1.45,0.054-2.158,0.098c-0.185,0.012-0.189,0.287,0,0.291
		c1.144,0.02,2.282,0.083,3.418,0.157c0.086,0.01,0.172,0.016,0.26,0.017c1.808,0.12,3.612,0.266,5.425,0.36
		C56.892,51.166,56.727,51.539,56.511,51.888z M57.153,50.318c-1.282-0.244-2.611-0.38-3.951-0.44
		c0.54-0.403,0.914-0.986,0.997-1.631c1.034,0.075,2.071,0.155,3.115,0.237C57.342,49.107,57.295,49.726,57.153,50.318z
		 M61.31,44.754c-0.355,0.32-0.271,0.731-0.237,1.134c0.017,0.199-0.048,0.384-0.145,0.554c-0.64-0.082-1.281-0.161-1.924-0.229
		c-0.2-0.73-0.511-1.428-0.89-2.092c1.066,0.081,2.132,0.161,3.199,0.238C61.313,44.491,61.31,44.623,61.31,44.754z M61.557,32.122
		c-0.963-0.04-1.927-0.071-2.891-0.097c0.029-0.835,0.035-1.67,0.056-2.505c0.968,0.007,1.935,0.008,2.903,0.02
		C61.603,30.4,61.58,31.261,61.557,32.122z M61.642,28.869c-0.001,0.049-0.003,0.098-0.004,0.146
		c-0.968-0.021-1.936-0.037-2.905-0.045c0.02-0.929,0.03-1.857,0.043-2.786c1.002,0.072,2.005,0.147,3.008,0.224
		C61.717,27.284,61.66,28.114,61.642,28.869z M61.83,25.83c-1.011-0.126-2.025-0.241-3.043-0.344
		c0.014-1.126,0.012-2.253,0.016-3.379c1.089,0.023,2.178,0.047,3.266,0.07C62.019,23.42,61.923,24.66,61.83,25.83z"/>
</g>
<g>
</g>
<g>
</g>
<g>
</g>
<g>
</g>
<g>
</g>
<g>
</g>
<g>
</g>
<g>
</g>
<g>
</g>
<g>
</g>
<g>
</g>
<g>
</g>
<g>
</g>
<g>
</g>
<g>
</g>
</svg>
