<?xml version="1.0" encoding="iso-8859-1"?>
<!-- Generator: Adobe Illustrator 18.0.0, SVG Export Plug-In . SVG Version: 6.00 Build 0)  -->
<!DOCTYPE svg PUBLIC "-//W3C//DTD SVG 1.1//EN" "http://www.w3.org/Graphics/SVG/1.1/DTD/svg11.dtd">
<svg version="1.1" id="Capa_1" xmlns="http://www.w3.org/2000/svg" xmlns:xlink="http://www.w3.org/1999/xlink" x="0px" y="0px"
	 viewBox="0 0 55.781 55.781" style="enable-background:new 0 0 55.781 55.781;" xml:space="preserve">
<g>
	<path style="fill:#1D1D1B;" d="M35.382,24.184c-0.164-3.174-4.038-11.101-8.167-8.029c-0.004,0.003-0.005,0.007-0.009,0.01
		c-4.537-0.704-8.425,3.675-9.111,8.113c-0.8,5.182,3.42,9.988,8.732,9.698C31.826,33.703,35.635,29.088,35.382,24.184z
		 M26.379,32.127c-1.965-0.006-3.418-0.639-4.43-1.631c2.783,0.158,5.611,0.318,8.407,0.312
		C29.192,31.631,27.814,32.131,26.379,32.127z M33.381,26.603c-0.022,0.079-0.059,0.153-0.085,0.231
		c-3.251-0.342-6.578-0.312-9.841-0.44c-0.233-0.009-0.231,0.348,0,0.361c3.209,0.185,6.464,0.527,9.682,0.512
		c-0.15,0.365-0.319,0.722-0.521,1.064c-3.474-0.144-6.935-0.184-10.406-0.48c-0.212-0.018-0.206,0.305,0,0.328
		c3.336,0.368,6.744,0.678,10.111,0.625c-0.395,0.571-0.857,1.099-1.386,1.551c-3.058-0.2-6.173-0.184-9.23-0.177
		c-0.02,0-0.029,0.013-0.045,0.019c-3.515-4.036-0.623-12.997,5.69-12.932c0.098,0.028,0.207,0.04,0.335,0.009
		c0.012-0.003,0.022-0.002,0.034-0.005c0.263,0.017,0.53,0.048,0.803,0.097c0.205,0.037,0.354-0.046,0.433-0.171
		c1.14,0.115,2.065,0.799,2.783,1.763c-2.208-0.407-4.56-0.416-6.784-0.592c-0.26-0.021-0.255,0.378,0,0.403
		c2.322,0.232,4.749,0.685,7.087,0.627c0.265,0.421,0.497,0.879,0.694,1.36c-2.799-0.481-5.693-0.657-8.53-0.614
		c-0.209,0.003-0.208,0.315,0,0.323c2.864,0.124,5.667,0.424,8.508,0.803c0.084,0.011,0.143-0.03,0.186-0.086
		c0.397,1.112,0.622,2.305,0.666,3.372c-3.213-0.036-6.408-0.115-9.614-0.372c-0.225-0.018-0.218,0.323,0,0.347
		c3.19,0.351,6.408,0.571,9.62,0.532C33.562,25.639,33.504,26.169,33.381,26.603z"/>
	<path style="fill:#1D1D1B;" d="M53.082,49.776c0.041,0.001,0.081,0.002,0.122,0.003c0.266,0.008,0.257-0.383,0-0.408
		c-0.117-0.011-0.236-0.009-0.353-0.018c-0.316-0.499-0.735-0.95-1.235-1.33c0.892-6.34-1.155-12.987-4.294-19.036
		c3.498-6.137,4.971-13.191,3.616-20.375c-0.004-0.02-0.015-0.031-0.02-0.049c1.283-1.55,1.541-3.77,0.469-5.598
		c-1.134-1.933-3.509-2.469-5.496-1.712C45.821,1.166,45.728,1.09,45.6,1.031c-5.881-2.729-11.149,1.543-15.705,5.018
		c-0.251,0.191-0.499,0.387-0.75,0.579c-4.542-3.511-9.692-5.932-14.92-5.131c-0.184-0.247-0.398-0.476-0.651-0.677
		C12.051-0.384,8.469-0.416,7.71,1.765C6.661,2.772,6.471,4.781,7.318,6.107C7.391,6.22,7.471,6.328,7.552,6.433
		C3.357,12.037,5.57,19.43,9.039,25.647c-3.488,4.33-6.682,9.349-6.685,14.863c-0.002,3.501,1.997,9.487,6.223,9.006
		C7.9,50.554,8.044,52.152,8.95,53.127c1.646,1.77,5.116,2.279,7,0.625c1.326-1.164,1.806-3.181,1.134-4.788
		c0.029,0.007,0.055,0.018,0.088,0.018c3.863-0.005,7.755-1.124,11.438-2.898c4.307,2.617,8.975,4.57,13.801,5.533
		c0.95,0.189,1.319-1.133,0.4-1.451c-4.244-1.467-8.255-3.148-12.011-5.227c4.717-2.662,8.986-6.316,12.242-9.991
		c1.179-1.331,2.249-2.735,3.204-4.198c2.667,5.338,4.427,11.082,3.847,16.404c-0.084-0.035-0.168-0.073-0.253-0.105
		c-2.026-0.764-5.823-0.469-5.867,2.179c-1.456,2.372-0.128,5.29,2.413,6.218c2.521,0.92,5.482-0.082,6.656-2.563
		C53.583,51.738,53.513,50.686,53.082,49.776z M9.779,2.027c0.279-0.007,0.434-0.276,0.402-0.505
		c0.549-0.155,1.132-0.172,1.81,0.086c0.394,0.15,0.708,0.384,0.946,0.669c-1.161,0.003-2.325,0.048-3.482,0.063
		c-0.281,0.004-0.281,0.432,0,0.436c1.269,0.017,2.548,0.072,3.822,0.064c0.165,0.381,0.238,0.804,0.212,1.234
		c-1.508-0.029-3.032,0.058-4.533,0.086c-0.19,0.003-0.19,0.292,0,0.295c1.478,0.027,2.978,0.113,4.463,0.089
		c-0.053,0.234-0.124,0.467-0.234,0.687c-0.024,0.049-0.058,0.086-0.084,0.132c-1.206-0.203-2.442-0.277-3.657-0.401
		c-0.262-0.027-0.257,0.378,0,0.408c1.127,0.132,2.262,0.31,3.396,0.383c-0.825,0.986-2.225,1.132-3.354,0.358
		C8.89,5.703,8.438,5.09,8.288,4.379C8.083,3.403,8.642,2.057,9.779,2.027z M8.525,7.356c1.564,1.098,3.755,1.188,5.206-0.29
		c1.136-1.157,1.523-2.938,1.05-4.439c4.715-0.009,9.089,2.096,12.986,5.065c-5.692,4.444-11.173,9.182-15.927,14.635
		c-0.523,0.6-1.057,1.218-1.592,1.851C7.193,18.531,5.513,12.253,8.525,7.356z M15.817,50.882c-1.377-0.009-2.74,0.032-4.124-0.116
		c-0.187-0.02-0.182,0.267,0,0.291c1.307,0.167,2.688,0.304,4.027,0.218c-0.076,0.236-0.174,0.468-0.314,0.683
		c-1.393-0.078-2.807-0.003-4.2,0.008c-0.121,0.001-0.121,0.186,0,0.188c1.336,0.011,2.692,0.078,4.03,0.016
		c-0.904,1.112-2.472,1.113-3.771,0.695c-1.428-0.46-3.081-2.646-1.015-3.555c0.443-0.195,0.148-0.748-0.242-0.768
		c0.279-0.133,0.567-0.242,0.856-0.348c0.093,0.067,0.206,0.11,0.33,0.091c1.265-0.196,2.293-0.629,3.482,0.209
		c0.288,0.203,0.488,0.462,0.647,0.74c-1.433-0.172-2.876-0.228-4.315-0.067c-0.193,0.022-0.204,0.314,0,0.309
		c1.526-0.032,3.022,0.016,4.529,0.234C15.849,50.084,15.884,50.484,15.817,50.882z M17.056,48.125
		c-0.161,0.025-0.249,0.128-0.287,0.25c-0.087-0.131-0.162-0.268-0.268-0.389c-1.144-1.309-4.062-2.112-5.341-0.579
		c-0.022-0.001-0.043-0.006-0.065-0.003c-0.721,0.104-1.393,0.563-1.938,1.102c-3.899,0.559-5.202-6.011-5.057-8.756
		c0.171-3.235,1.804-6.363,3.515-9.044C8.36,29.539,9.161,28.402,10,27.292c1.261,2.065,2.616,3.96,3.854,5.559
		c3.575,4.616,8.082,8.863,13.147,12.208C23.772,46.544,20.408,47.597,17.056,48.125z M29.151,43.988
		c-3.999-2.393-7.691-5.288-11.034-8.938c-2.142-2.338-4.777-5.616-6.95-9.254c2.005-2.487,4.2-4.831,6.463-7.054
		c3.169-3.113,6.55-6.007,10.025-8.771c0.457-0.364,0.949-0.772,1.46-1.199c3.453,2.881,6.496,6.361,9.014,9.506
		c2.43,3.035,5.034,6.736,7.205,10.722C41.546,35.257,35.71,40.51,29.151,43.988z M39.881,17.649c-2.462-3.11-5.716-6.86-9.44-9.98
		c3.985-3.291,9.106-7.086,13.82-5.367c-1.354,1.346-1.712,3.428-0.426,5.064c1.191,1.516,4.565,2.821,5.832,0.689
		c0.24-0.404-0.158-0.925-0.611-0.795c-0.784,0.224-1.369,0.583-2.227,0.414c-0.686-0.135-1.354-0.524-1.815-1.051
		c-1.232-1.411-0.449-3.262,1.111-4.003c1.557-0.739,2.757-0.313,3.504,0.613c-1.055-0.095-2.128-0.155-3.172-0.144
		c-0.198,0.002-0.259,0.33-0.049,0.359c1.161,0.162,2.372,0.253,3.554,0.288c0.146,0.269,0.274,0.553,0.358,0.862
		c-1.709-0.03-3.411,0.015-5.125-0.104c-0.161-0.011-0.202,0.261-0.039,0.285c1.701,0.252,3.521,0.407,5.26,0.253
		c0.056,0.324,0.081,0.658,0.068,0.994c-1.77,0.077-3.5,0.126-5.289-0.08c-0.187-0.022-0.232,0.299-0.045,0.331
		c1.722,0.294,3.538,0.426,5.294,0.227c-0.084,0.59-0.28,1.166-0.602,1.673c-0.2,0.113-0.358,0.297-0.406,0.542
		c-0.148,0.199-0.101,0.464,0.044,0.632c1.045,6.288-0.267,12.393-3.133,17.842C44.385,23.71,42.11,20.464,39.881,17.649z
		 M51.164,52.63c-1.405-0.055-2.806-0.102-4.206-0.275c-0.208-0.026-0.259,0.338-0.05,0.368c1.295,0.19,2.597,0.324,3.903,0.302
		c-2.323,2.303-6.071,0.398-6.091-2.575c0.253-0.025,0.497-0.176,0.573-0.453c0.659-2.411,3.649-2.05,5.274-0.669
		c-1.058,0.051-2.114,0.168-3.149,0.32c-0.132,0.019-0.102,0.25,0.032,0.235c1.185-0.132,2.353-0.157,3.525-0.148
		c0.325,0.376,0.553,0.8,0.626,1.252c-1.296,0.104-2.576,0.222-3.895,0.169c-0.191-0.008-0.188,0.283,0,0.295
		c1.278,0.081,2.629,0.124,3.926-0.036C51.609,51.812,51.467,52.222,51.164,52.63z"/>
	<path style="fill:#1D1D1B;" d="M32.955,22.589c-3.764-0.226-7.496-0.224-11.251-0.682c-0.179-0.022-0.223,0.292-0.043,0.318
		c3.698,0.535,7.556,1.031,11.294,0.786C33.226,22.993,33.228,22.605,32.955,22.589z"/>
</g>
<g>
</g>
<g>
</g>
<g>
</g>
<g>
</g>
<g>
</g>
<g>
</g>
<g>
</g>
<g>
</g>
<g>
</g>
<g>
</g>
<g>
</g>
<g>
</g>
<g>
</g>
<g>
</g>
<g>
</g>
</svg>
