<?xml version="1.0" encoding="iso-8859-1"?>
<!-- Generator: Adobe Illustrator 18.0.0, SVG Export Plug-In . SVG Version: 6.00 Build 0)  -->
<!DOCTYPE svg PUBLIC "-//W3C//DTD SVG 1.1//EN" "http://www.w3.org/Graphics/SVG/1.1/DTD/svg11.dtd">
<svg version="1.1" id="Capa_1" xmlns="http://www.w3.org/2000/svg" xmlns:xlink="http://www.w3.org/1999/xlink" x="0px" y="0px"
	 viewBox="0 0 65.754 65.754" style="enable-background:new 0 0 65.754 65.754;" xml:space="preserve">
<g>
	<path style="fill:#1D1D1B;" d="M39.345,23.467c-0.259-5.385-0.753-10.979-1.672-16.287c2.571-0.308,7.806-1.254,6.924-4.432
		c-1.003-3.615-9.718-2.632-12.029-2.611C29.34,0.166,22.105-0.2,20.293,3.385c-1.57,3.106,2.312,4.61,5.002,4.725
		c-0.717,4.958-0.75,10.466-0.277,15.368c0.04,0.418,0.282,0.684,0.575,0.807C14.291,26.848,6.821,37.476,10.507,49.079
		c3.299,10.386,14.286,16.86,24.873,16.67c10.514-0.189,19.457-7.066,20.677-17.826C57.318,36.816,49.801,26.586,39.345,23.467z
		 M51.253,45.75c0.911-0.042,2.033-0.063,2.921-0.342c-0.001,0.308,0.012,0.614-0.004,0.925c-0.026,0.533-0.077,1.054-0.144,1.567
		c-0.55,0.082-1.08,0.245-1.645,0.271c-0.705,0.033-1.392-0.074-2.066-0.28c-0.328-0.1-0.456,0.395-0.14,0.508
		c1.088,0.39,2.58,0.636,3.734,0.207c-0.239,1.418-0.616,2.764-1.136,4.017c-0.503,0.067-1.007,0.176-1.51,0.212
		c-0.781,0.057-1.567,0.051-2.348,0.006c-0.311-0.018-0.391,0.509-0.075,0.552c1.068,0.148,2.378,0.283,3.552,0.1
		c-0.64,1.334-1.433,2.563-2.361,3.669c-1.687-0.245-3.606,0.219-5.209,0.653c-0.385,0.104-0.223,0.686,0.164,0.597
		c1.47-0.339,2.957-0.366,4.428-0.552c-1.128,1.208-2.417,2.26-3.844,3.126c-0.946-0.039-1.908,0.094-2.852,0.132
		c-1.379,0.056-2.759,0.065-4.138,0.04c-0.376-0.007-0.364,0.545,0,0.577c1.518,0.13,3.33,0.356,5.037,0.297
		c-2.681,1.227-5.716,1.88-8.919,1.853c-9.403-0.078-19.21-6.194-22.175-15.361c-3.671-11.35,4.349-19.384,13.971-23.546
		c0.373-0.162,0.248-0.604-0.038-0.766c0.219-0.142,0.387-0.377,0.407-0.734c0.273-5.035,0.291-10.48-0.168-15.542
		c0.256-0.229,0.178-0.68-0.098-0.927c-0.087-0.253-0.329-0.422-0.575-0.452c-2.105-2.644-2.009-4.022,0.333-4.108
		c0.852-0.097,1.704-0.194,2.556-0.292c1.753-0.131,3.529-0.117,5.286-0.118c1.426-0.001,3.539-0.353,4.877,0.171
		c0.905-0.083,1.486,0.299,1.758,1.121c-2.401-0.105-4.892,0.134-7.254,0.184c-0.38,0.008-0.381,0.583,0,0.591
		c2.416,0.051,4.968,0.3,7.421,0.176c0.008,0.133,0.018,0.263,0.017,0.409c-1.333,0.438-2.704,0.687-4.114,0.746
		c-0.481,0.044-0.755,0.38-0.837,0.751c-1.497,0.04-2.994,0.238-4.483,0.387c-0.376,0.038-0.389,0.62,0,0.598
		c1.517-0.086,3.046-0.129,4.554-0.327c0.046,0.093,0.103,0.179,0.183,0.246c-0.043,0.852-0.053,1.717-0.059,2.584
		c-0.72-0.056-1.443,0.09-2.162,0.126c-0.731,0.036-1.454,0.022-2.184-0.036c-0.449-0.035-0.43,0.636,0,0.689
		c1.359,0.168,3.018,0.326,4.333-0.195c0.003,1.071,0.031,2.15,0.079,3.231c-1.445-0.131-2.972,0.022-4.415,0.065
		c-0.326,0.01-0.326,0.496,0,0.506c1.451,0.044,2.99,0.199,4.443,0.063c0.056,1.067,0.125,2.134,0.221,3.198
		c-0.492,0.061-0.982,0.155-1.476,0.189c-0.73,0.051-1.454,0.02-2.184-0.018c-0.315-0.017-0.395,0.505-0.076,0.559
		c1.176,0.201,2.579,0.3,3.801,0.013c0.211,2.148,0.498,4.275,0.842,6.337c-1.097,0.042-2.192,0.118-3.238,0.148
		c-0.33,0.01-0.331,0.504,0,0.513c1.938,0.057,4.04,0.271,6.013,0.121c1.537,0.666,2.996,1.491,4.349,2.459
		c-1.245,0.004-2.505,0.094-3.695,0.128c-0.475,0.013-0.476,0.725,0,0.738c1.593,0.044,3.31,0.194,4.949,0.096
		c0.934,0.766,1.815,1.593,2.62,2.487c-2.41-0.006-4.836,0.129-7.236,0.206c-0.226,0.007-0.227,0.344,0,0.352
		c2.611,0.084,5.253,0.233,7.873,0.196c0.659,0.797,1.279,1.626,1.824,2.502c-0.907-0.013-1.847,0.082-2.697,0.097
		c-0.466,0.008-0.467,0.716,0,0.724c1.017,0.018,2.165,0.158,3.226,0.077c0.499,0.893,0.943,1.815,1.312,2.77
		c-0.689,0.072-1.378,0.25-1.969,0.439c-0.413,0.132-0.245,0.752,0.179,0.651c0.613-0.146,1.233-0.243,1.864-0.277
		c0.075-0.004,0.152,0.002,0.228,0.001c0.286,0.841,0.524,1.7,0.7,2.577c-0.955-0.035-1.931,0.046-2.873,0.065
		c-0.43,0.009-0.43,0.659,0,0.668c0.985,0.02,2.007,0.103,3.003,0.055c0.141,0.88,0.24,1.77,0.262,2.677
		c-0.95-0.05-2.066,0.244-2.981,0.452C50.962,45.382,51.011,45.761,51.253,45.75z"/>
	<path style="fill:#1D1D1B;" d="M48.339,38.195c-0.086-0.397-0.463-0.559-0.816-0.526c0.215-0.388,0.091-1.015-0.419-1.174
		c-4.652-1.451-10.024-0.649-14.827-0.519c-5.356,0.145-10.841,0.048-16.139,0.908c-0.429,0.07-0.358,0.569-0.07,0.757
		c-0.028,0.041-0.058,0.081-0.076,0.135c-3.671,10.6,6.033,23.475,17.005,23.633c4.984,0.072,9.803-2.145,12.909-6.062
		C49.915,50.291,49.645,44.21,48.339,38.195z M45.876,52.055c-2.407,4.491-7.109,7.483-12.216,7.541
		c-10.51,0.118-18.668-11.529-16.702-21.553c0.02-0.099,0.008-0.185-0.015-0.263c9.938,1.011,20.055-1.009,29.961,0.201
		c0.023,0.003,0.04-0.006,0.063-0.005c-0.08,0.114-0.132,0.249-0.112,0.421C47.389,43.007,48.177,47.761,45.876,52.055z"/>
	<path style="fill:#1D1D1B;" d="M21.91,40.73c-0.36,0.001-0.564,0.464-0.298,0.72c0.483,0.465,0.851,0.872,0.752,1.599
		c-0.073,0.538-0.438,0.869-0.973,0.909c-1.537,0.115-1.648-1.986-0.385-2.489c0.479-0.19,0.293-0.833-0.21-0.763
		c-1.189,0.165-2.064,1.322-2.002,2.503c0.069,1.314,1.236,2.284,2.526,2.28c1.271-0.004,2.465-0.907,2.538-2.231
		C23.916,42.189,23.116,40.728,21.91,40.73z"/>
	<path style="fill:#1D1D1B;" d="M27.463,48.83c-0.275-0.529-1.096-0.268-1.097,0.297c-0.003,1.076-0.442,2.552-1.808,2.337
		c-1.198-0.189-1.167-1.572-0.307-2.186c0.364-0.26,0.298-1.007-0.257-0.95c-1.05,0.108-1.734,0.927-1.854,1.958
		c-0.135,1.162,0.534,2.201,1.609,2.634C26.227,53.917,28.691,51.192,27.463,48.83z"/>
	<path style="fill:#1D1D1B;" d="M31.141,42.424c-0.517-0.249-1.167,0.277-0.83,0.83c0.558,0.915,0.407,2.441-0.966,2.342
		c-1.574-0.113-1.695-1.983-0.876-3.006c0.233-0.29-0.06-0.779-0.426-0.552c-2.224,1.378-1.341,4.791,1.198,5.107
		c1.182,0.147,2.377-0.434,2.86-1.551C32.579,44.492,32.291,42.979,31.141,42.424z"/>
	<path style="fill:#1D1D1B;" d="M36.579,21.538c-1.334,0.013-2.671,0.23-3.996,0.377c-0.348,0.039-0.361,0.583,0,0.556
		c1.354-0.105,2.732-0.146,4.07-0.386C36.965,22.027,36.887,21.535,36.579,21.538z"/>
</g>
<g>
</g>
<g>
</g>
<g>
</g>
<g>
</g>
<g>
</g>
<g>
</g>
<g>
</g>
<g>
</g>
<g>
</g>
<g>
</g>
<g>
</g>
<g>
</g>
<g>
</g>
<g>
</g>
<g>
</g>
</svg>
