<?xml version="1.0" encoding="iso-8859-1"?>
<!-- Generator: Adobe Illustrator 18.0.0, SVG Export Plug-In . SVG Version: 6.00 Build 0)  -->
<!DOCTYPE svg PUBLIC "-//W3C//DTD SVG 1.1//EN" "http://www.w3.org/Graphics/SVG/1.1/DTD/svg11.dtd">
<svg version="1.1" id="Capa_1" xmlns="http://www.w3.org/2000/svg" xmlns:xlink="http://www.w3.org/1999/xlink" x="0px" y="0px"
	 viewBox="0 0 61.798 61.798" style="enable-background:new 0 0 61.798 61.798;" xml:space="preserve">
<g>
	<path style="fill:#1D1D1B;" d="M52.979,41.286c-0.018-1.221-0.022-2.442-0.033-3.662c0.068-0.108,0.069-0.238-0.003-0.33
		c-0.043-4.896-0.059-9.792-0.155-14.688c-0.092-4.672,1.015-11.207-0.652-15.641c-0.879-2.336-3.009-3.423-5.209-4.215
		c-1.501-1.881-3.83-1.645-6.034-1.729c-4.582-0.174-9.169-0.262-13.753-0.377c-5.355-0.134-14.364-2.482-18.087,2.72
		C8.714,3.838,8.957,4.297,9.359,4.51c-0.794,9.886-0.642,19.911-0.846,29.818c-0.093,4.507-0.242,9.014-0.261,13.522
		c-0.009,2.223-0.319,5.083,1.143,6.981c2.667,8.15,12.893,6.979,19.744,6.815c5.913-0.141,12.346,0.227,18.174-0.833
		c2.417-0.44,4.37-1.32,5.329-3.66C54.487,52.657,53.049,46.04,52.979,41.286z M51.481,51.14c-0.722-0.017-1.445-0.018-2.17-0.003
		c0.151-0.98,0.166-2.04,0.126-3.114c0.648,0.021,1.301,0.044,1.952,0.033c0.006,0.365,0.017,0.73,0.023,1.095
		C51.421,49.765,51.457,50.441,51.481,51.14z M50.478,17.453c-0.66-0.167-1.408-0.133-2.141-0.075
		c-0.026-0.958-0.053-1.916-0.079-2.874c0.034,0.013,0.058,0.038,0.102,0.039c0.603,0.006,1.205-0.046,1.808-0.043
		c0.194,0.001,0.39,0.016,0.587,0.029c0.007,0.396,0.013,0.793,0.019,1.194c0.037,2.405,0.07,4.811,0.104,7.217
		c-0.153,0.038-0.305,0.08-0.462,0.104c-0.527,0.082-1.06,0.079-1.587,0.004c-0.14-0.02-0.253,0.034-0.334,0.116
		c-0.046-1.672-0.092-3.345-0.137-5.017c0.727,0.057,1.468,0.089,2.12-0.076C50.782,17.992,50.783,17.53,50.478,17.453z
		 M48.259,10.7c0.461-0.029,0.922-0.058,1.383-0.088c0.282-0.019,0.562-0.028,0.835-0.066c0.15,0.968,0.222,1.985,0.255,3.037
		c-0.189,0.005-0.378,0.016-0.564,0.028c-0.645,0.042-1.277,0.127-1.887,0.345c-0.017,0.006-0.022,0.022-0.037,0.031
		c-0.009-0.317-0.017-0.635-0.026-0.952C48.199,12.348,48.229,11.548,48.259,10.7z M48.633,23.759
		c0.658,0.13,1.506,0.226,2.259,0.097c0.013,0.894,0.023,1.788,0.039,2.681c0.003,0.19,0.008,0.38,0.012,0.57
		c-0.296,0.037-0.592,0.092-0.878,0.13c-0.484,0.064-0.969,0.129-1.453,0.194c-0.007-0.277-0.015-0.554-0.023-0.83
		c-0.026-0.964-0.053-1.929-0.079-2.893C48.545,23.73,48.583,23.749,48.633,23.759z M50.193,28.036
		c0.252-0.02,0.511-0.029,0.768-0.049c0.03,1.54,0.063,3.08,0.096,4.621c-0.76,0.199-1.494,0.395-2.29,0.46
		c-0.046-1.636-0.09-3.272-0.134-4.907C49.152,28.118,49.672,28.077,50.193,28.036z M51.073,33.439
		c0.029,1.336,0.053,2.672,0.083,4.008c-0.474,0.049-0.952,0.045-1.426,0c-0.327-0.031-0.398,0.505-0.078,0.573
		c0.448,0.095,0.986,0.167,1.52,0.16c0.034,1.503,0.068,3.006,0.101,4.509c-0.475,0.108-0.94,0.181-1.464,0.098
		c-0.372-0.059-0.541,0.5-0.159,0.576c0.518,0.103,1.097,0.126,1.638,0.019c0.029,1.361,0.063,2.722,0.088,4.083
		c-0.654-0.01-1.31,0.014-1.961,0.034c-0.104-1.9-0.361-3.813-0.401-5.394c-0.071-2.78-0.151-5.559-0.228-8.339
		C49.543,33.76,50.347,33.688,51.073,33.439z M50.3,9.628c-0.262,0.02-0.526,0.062-0.786,0.093c-0.41,0.049-0.819,0.099-1.228,0.149
		c0.042-1.43,0.046-2.949-0.202-4.316C49.3,6.657,49.943,8.058,50.3,9.628z M9.91,43.987c0.034-13.139,0.782-26.373,0.414-39.505
		c0.089-0.06,0.174-0.131,0.246-0.232c2.23-3.138,7.467-2.194,10.675-2.07c3.276,0.126,6.549,0.302,9.823,0.464
		c3.176,0.157,7.819-0.497,10.806,0.507c4.564,1.534,4.047,6.794,4.17,10.851c0.196,6.461,0.392,12.921,0.588,19.382
		c0.108,3.553,0.205,7.107,0.325,10.66c0.043,1.266,0.232,2.614,0.142,3.876c0.393,1.541,0.019,2.897-1.121,4.067
		c-0.24,1.68-1.12,2.493-2.639,2.439c-2.677,1.379-7.81,1.061-10.939,1.247c-3.123,0.186-6.258,0.223-9.385,0.118
		c-2.945-0.099-7.508,0.269-10.227-0.888C8.655,53.145,9.901,47.531,9.91,43.987z M51.117,55.502
		c-0.799-0.033-1.604-0.033-2.39,0.042c-0.28,0.027-0.281,0.409,0,0.436c0.719,0.068,1.455,0.074,2.188,0.051
		c-0.205,0.512-0.458,1-0.823,1.424c-2.1-0.062-4.36,0.491-6.419,0.784c-0.234,0.033-0.181,0.434,0.056,0.414
		c1.801-0.153,3.759-0.149,5.576-0.488c-0.294,0.215-0.615,0.414-0.991,0.578c-1.294,0.565-3.145,0.449-4.527,0.511
		c-3.579,0.161-7.162,0.218-10.74,0.397c-6.772,0.34-16.749,2.4-21.575-3.344c1.844,0.703,4.223,0.694,5.927,0.856
		c4.362,0.416,8.75,0.558,13.129,0.413c4.683-0.155,16.225,0.749,18.37-4.757c0.136-0.348,0.236-0.719,0.319-1.101
		c0.763,0.016,1.522,0.016,2.281-0.002C51.521,52.99,51.473,54.316,51.117,55.502z"/>
	<path style="fill:#1D1D1B;" d="M42.964,13.762c-0.099-2.623-0.15-5.517-0.806-8.092c0.389-0.135,0.366-0.783-0.106-0.761
		c-0.065,0.003-0.131,0.004-0.196,0.007c-0.306-0.31-0.834-0.278-1.118,0.038c-8.788,0.319-17.574-0.191-26.342,0.195
		c-0.162,0.007-0.245,0.17-0.227,0.306c-0.002,0.012-0.012,0.018-0.012,0.032c-0.005,1.493,0.135,2.888,0.322,4.373
		c0.148,1.179,0.143,2.38,0.612,3.477c0.047,0.109,0.136,0.177,0.24,0.213c-0.123,0.212-0.031,0.526,0.299,0.548
		c4.473,0.292,8.89-0.159,13.356-0.355c4.459-0.196,8.675,0.384,13.08,0.902c0.32,0.038,0.492-0.138,0.547-0.366
		C42.815,14.198,42.974,14.024,42.964,13.762z M15.983,13.318c0.016-0.033,0.033-0.066,0.039-0.105
		c0.192-1.18-0.122-2.349-0.313-3.522c-0.228-1.397-0.522-2.687-0.983-4.01c8.396,1.243,17.345,0.765,25.824,0.13
		c0.005,2.445,0.586,5.041,1.124,7.439C33.872,10.292,24.044,12.441,15.983,13.318z"/>
	<path style="fill:#1D1D1B;" d="M20.042,17.458c-0.008-0.354-0.313-0.726-0.696-0.696c-1.55,0.122-3.089,0.129-4.638-0.006
		c-0.084-0.007-0.152,0.016-0.213,0.049c-0.316-0.049-0.667,0.094-0.738,0.449c-0.334,1.663-0.235,3.47-0.216,5.16
		c0.005,0.47,0.396,0.877,0.874,0.874c1.779-0.013,3.556-0.02,5.335-0.086c0.551-0.02,0.863-0.49,0.768-1.008
		C20.23,20.625,20.077,19.052,20.042,17.458z M18.653,18.128c0.004,1.159,0.072,2.312,0.202,3.463
		c-1.187-0.028-2.374-0.041-3.562-0.045c0.008-1.272-0.004-2.576-0.21-3.82C16.264,17.941,17.453,18.079,18.653,18.128z"/>
	<path style="fill:#1D1D1B;" d="M19.38,25.376c-1.705,0.03-3.409,0.075-5.114,0.128c-0.001-0.025-0.001-0.05-0.002-0.075
		c-0.067-1.119-1.671-1.12-1.74,0c-0.074,1.197-0.037,2.405-0.043,3.604c-0.004,0.863-0.129,1.896,0.5,2.591
		c0.588,0.65,1.49,0.662,2.307,0.699c1.235,0.056,2.471,0.023,3.704-0.059c0.594-0.039,0.961-0.525,0.844-1.108
		c-0.328-1.625-0.216-3.233,0.283-4.811C20.267,25.874,19.864,25.367,19.38,25.376z M16.595,30.542
		c-0.515-0.013-1.934,0.16-2.284-0.3c-0.235-0.309-0.012-1.71-0.014-2.11c-0.001-0.487,0.002-0.975,0-1.463
		c1.355,0.071,2.71,0.133,4.065,0.191c-0.337,1.206-0.446,2.421-0.341,3.666C17.546,30.534,17.07,30.553,16.595,30.542z"/>
	<path style="fill:#1D1D1B;" d="M18.655,35.3c-0.051-0.305-0.425-0.576-0.729-0.555c-1.553,0.109-3.048,0.318-4.516,0.811
		c-0.016-0.105-0.03-0.21-0.047-0.314c-0.129-0.812-1.472-0.621-1.433,0.194c0.08,1.665,0.187,3.323,0.339,4.983
		c0.044,0.48,0.379,0.913,0.904,0.904c1.842-0.031,3.684-0.063,5.526-0.094c0.569-0.01,0.876-0.51,0.785-1.031
		C19.201,38.565,18.93,36.932,18.655,35.3z M17.265,36.171c0.167,1.137,0.333,2.275,0.497,3.413
		c-1.266-0.019-2.532-0.039-3.798-0.058c-0.127-1.034-0.269-2.065-0.423-3.095C14.77,36.123,16.012,35.991,17.265,36.171z"/>
	<path style="fill:#1D1D1B;" d="M18.699,44.812c-0.045-0.363-0.283-0.711-0.696-0.696c-1.208,0.043-2.659-0.141-3.775,0.364
		c-0.115,0.052-0.162,0.177-0.154,0.299c-0.245-0.432-0.951-0.523-1.205-0.028c-0.484,0.945-0.453,2.068-0.567,3.112
		c-0.104,0.948-0.521,2.287,0.105,3.131c0.487,0.657,1.416,0.629,2.144,0.689c1.296,0.107,2.591,0.213,3.886,0.32
		c0.437,0.036,0.94-0.437,0.885-0.885C19.064,49.021,18.957,46.908,18.699,44.812z M14.78,49.895
		c-0.369-0.034-0.751-0.028-0.862-0.19c-0.216-0.316,0.171-1.894,0.207-2.301c0.075-0.827,0.234-1.635,0.02-2.443
		c0.024,0.031,0.046,0.064,0.083,0.082c0.887,0.434,2.014,0.421,3.05,0.44c-0.075,1.555,0.016,3.11,0.174,4.66
		c-0.509-0.047-1.019-0.095-1.528-0.142C15.542,49.966,15.161,49.93,14.78,49.895z"/>
	<path style="fill:#1D1D1B;" d="M28.902,16.965c-0.432-0.675-1.168-0.787-1.913-0.744c-1.25,0.071-2.595,0.146-3.818,0.419
		c-0.713,0.159-0.727,1.046-0.266,1.426c-0.081,0.855-0.14,1.711-0.195,2.57c-0.049,0.768-0.122,1.651,0.696,2.046
		c0.859,0.415,2.161,0.173,3.082,0.178c0.806,0.004,1.813,0.167,2.374-0.554c0.527-0.678,0.316-1.831,0.317-2.623
		C29.18,18.846,29.379,17.712,28.902,16.965z M27.638,21.162c-0.207,0.344-3.299,0.39-3.547,0.032
		c-0.097-0.139-0.053-0.945-0.063-1.118c-0.017-0.311-0.035-0.621-0.053-0.932c-0.018-0.314-0.056-0.624-0.083-0.935
		c0.5-0.037,0.999-0.105,1.497-0.168c0.472-0.06,1.541-0.415,1.978-0.231c0.416,0.175,0.247,0.872,0.252,1.317
		c0.003,0.308,0.006,0.617,0.009,0.925C27.629,20.224,27.725,21.018,27.638,21.162z"/>
	<path style="fill:#1D1D1B;" d="M36.957,19.473c-0.045-0.905-0.085-1.811-0.139-2.715c-0.025-0.415-0.367-0.894-0.841-0.841
		c-1.186,0.133-2.483,0.316-3.576,0.846c-0.228-0.281-0.802-0.244-0.924,0.18c-0.389,1.356-0.759,3.102-0.463,4.511
		c0.281,1.337,1.773,1.106,2.815,1.113c0.996,0.006,2.739,0.361,3.145-0.908C37.184,20.996,36.99,20.145,36.957,19.473z
		 M34.016,20.979c-0.263,0.002-1.313,0.167-1.505,0.012c-0.111,0.167-0.141,0.065-0.089-0.307c-0.019-0.241-0.033-0.483-0.041-0.724
		c-0.018-0.552-0.001-1.107,0.028-1.66c0.077,0.009,0.156,0.014,0.24-0.002c0.869-0.161,1.688-0.428,2.547-0.588
		c0.044,0.717,0.089,1.435,0.135,2.152c0.009,0.147,0.03,1.312,0.19,1.106C35.419,21.098,34.212,20.977,34.016,20.979z"/>
	<path style="fill:#1D1D1B;" d="M43.76,16.906c-0.075-0.341-0.439-0.597-0.78-0.594c-0.768,0.008-1.535-0.003-2.301-0.044
		c-0.696-0.038-1.321-0.186-1.962,0.136c-0.208-0.115-0.478-0.097-0.614,0.175c-1.128,2.259-0.163,5.487,2.7,5.614
		C43.758,22.325,44.252,19.146,43.76,16.906z M40.919,20.664c-1.649-0.007-2.119-1.633-2.024-3.019
		c0.528,0.288,1.186,0.251,1.784,0.275c0.542,0.021,1.085,0.013,1.627,0.008C42.47,19.099,42.372,20.669,40.919,20.664z"/>
	<path style="fill:#1D1D1B;" d="M28.298,31.463c-0.244-0.74-0.191-1.612-0.245-2.383c-0.054-0.758-0.128-1.501-0.223-2.254
		c-0.056-0.444-0.378-0.736-0.842-0.641c-1.512,0.311-3.051,0.423-4.593,0.386c-0.195-0.005-0.322,0.077-0.398,0.191
		c-0.234,0.114-0.416,0.344-0.435,0.672c-0.075,1.295,0.165,2.64,0.273,3.932c0.036,0.431,0.281,0.838,0.725,0.952
		c1.603,0.412,3.465,0.739,5.091,0.286C28.115,32.474,28.456,31.941,28.298,31.463z M23.686,30.505
		c-0.136-0.956-0.257-1.933-0.499-2.861c1.11,0.088,2.206,0.059,3.312-0.069c-0.005,0.501-0.015,1.002-0.001,1.505
		c0.014,0.505,0.085,1.088,0.08,1.639C25.612,30.66,24.653,30.642,23.686,30.505z"/>
	<path style="fill:#1D1D1B;" d="M28.091,37.423c-0.054-0.606-0.057-1.285-0.597-1.683c-0.575-0.424-1.585-0.314-2.248-0.337
		c-0.975-0.034-1.95-0.062-2.925-0.057c-0.348-0.531-1.271-0.285-1.313,0.417c-0.07,1.174,0.109,2.379,0.219,3.549
		c0.068,0.728,0.015,1.685,0.603,2.234c0.585,0.546,1.497,0.417,2.223,0.4c1.192-0.029,2.385-0.082,3.576-0.124
		c0.387-0.014,0.802-0.341,0.766-0.766C28.292,39.846,28.198,38.634,28.091,37.423z M22.979,40.2
		c-0.253-0.227-0.169-1.85-0.208-2.218c-0.058-0.55-0.123-1.104-0.211-1.653c1.114,0.164,2.235,0.271,3.344,0.464
		c0.163,0.005,0.321,0.039,0.473,0.101c0.309,0.006,0.402,0.183,0.279,0.53c0.097,0.341,0.045,0.784,0.065,1.136
		c0.033,0.576,0.066,1.153,0.098,1.729c-0.55-0.003-1.099-0.005-1.649-0.008C24.7,40.277,23.336,40.52,22.979,40.2z"/>
	<path style="fill:#1D1D1B;" d="M28.394,49.968c-0.094-1.286-0.139-2.587-0.311-3.865c-0.072-0.536-0.437-0.843-0.986-0.751
		c-1.574,0.263-3.176,0.33-4.75,0.595c-0.003-0.023-0.004-0.045-0.007-0.068c-0.126-0.912-1.491-0.625-1.537,0.208
		c-0.095,1.744,0.075,3.524,0.141,5.268c0.014,0.36,0.256,0.753,0.633,0.832c1.094,0.228,2.203,0.393,3.32,0.456
		c0.88,0.049,2.25,0.242,2.989-0.379C28.576,51.683,28.453,50.769,28.394,49.968z M26.711,50.779
		c-0.23,0.336-1.586,0.125-2.035,0.099c-0.685-0.041-1.36-0.135-2.033-0.251c-0.044-1.203-0.076-2.414-0.181-3.613
		c1.363,0.022,2.723-0.095,4.085-0.121c0.019,0.495,0.047,0.99,0.073,1.485C26.646,48.872,26.984,50.38,26.711,50.779z"/>
	<path style="fill:#1D1D1B;" d="M37.425,51.39c-0.532-1.446-0.699-2.91-0.418-4.431c0.09-0.487-0.231-1.193-0.846-1.111
		c-1.727,0.231-3.324,0.072-5.014-0.323c-0.648-0.152-1.103,0.39-1.002,1.002c0.24,1.461,0.441,2.93,0.671,4.393
		c0.032,0.206,0.165,0.324,0.326,0.379c-0.114,0.235-0.075,0.559,0.116,0.729c0.673,0.603,1.334,0.486,2.205,0.499
		c1.025,0.014,2.051,0.023,3.076,0.026C37.095,52.554,37.634,51.958,37.425,51.39z M31.971,50.749
		c-0.052-1.118-0.117-2.236-0.173-3.354c1.096,0.252,2.229,0.332,3.352,0.279c-0.094,1.018-0.039,2.027,0.178,3.025
		c-0.622-0.009-1.244-0.02-1.867-0.025C32.904,50.669,32.426,50.622,31.971,50.749z"/>
	<path style="fill:#1D1D1B;" d="M36.744,37.145c-0.033-0.33-0.215-0.659-0.564-0.741c-1.52-0.358-3.057-0.512-4.573-0.929
		c-0.463-0.127-1.095,0.248-1.033,0.787c0.204,1.775,0.397,3.548,0.676,5.312c0.003,0.018,0.013,0.028,0.017,0.045
		c-0.088,0.418,0.131,0.919,0.579,1.019c1.478,0.33,3.287-0.174,4.776-0.387c0.361-0.052,0.734-0.537,0.688-0.903
		C37.134,39.946,36.883,38.553,36.744,37.145z M32.36,40.851c-0.014-1.152-0.054-2.303-0.105-3.453
		c0.973,0.286,2.002,0.483,2.998,0.509c0.056,0.854,0.101,1.708,0.141,2.563C34.382,40.521,33.307,40.575,32.36,40.851z"/>
	<path style="fill:#1D1D1B;" d="M36.896,28.183c-0.088-0.558-0.289-1.063-0.808-1.361c-0.555-0.319-1.304-0.27-1.917-0.292
		c-1.035-0.037-2.07-0.072-3.106-0.099c-0.549-0.014-0.826,0.505-0.749,0.983c0.226,1.392,0.571,2.725,1.078,4.029
		c-0.16,0.339-0.076,0.789,0.285,0.984c0.691,0.373,1.336,0.285,2.113,0.283c0.833-0.002,1.669,0.013,2.501-0.02
		c0.681-0.028,1.004-0.584,0.919-1.206C37.062,30.389,37.069,29.272,36.896,28.183z M33.791,30.806
		c-0.501,0.008-0.962-0.013-1.412,0.073c-0.189-0.936-0.349-1.875-0.455-2.823c0.36,0.031,0.721,0.062,1.081,0.093
		c0.501,0.042,1.483-0.056,1.941,0.159c0.216,0.102,0.13,0.026,0.19,0.126c0.106,0.176,0.054,0.799,0.069,1.031
		c0.03,0.438,0.061,0.877,0.089,1.316C34.793,30.788,34.292,30.799,33.791,30.806z"/>
	<path style="fill:#1D1D1B;" d="M44.333,27.103c-0.105-1.232-1.029-1.935-2.23-1.848c-0.576,0.042-1.124,0.239-1.688,0.344
		c-0.521,0.097-1.025-0.069-1.534,0.054c-0.505,0.122-0.64,0.663-0.466,1.087c-0.391,1.425-0.491,2.824-0.436,4.32
		c0.017,0.469,0.377,0.841,0.853,0.853c1.007,0.025,2.013,0.05,3.02,0.074c0.676,0.017,1.48,0.131,2.011-0.398
		c0.503-0.501,0.429-1.273,0.443-1.919C44.323,28.822,44.405,27.947,44.333,27.103z M42.512,28.448
		c-0.002,0.291-0.003,0.582-0.005,0.873c-0.001,0.126,0.047,0.621,0.026,0.89c-0.065-0.062-0.325,0.025-0.494,0.023
		c-0.315-0.003-0.629-0.005-0.944-0.008c-0.52-0.004-1.04-0.009-1.559-0.013c-0.162-0.906-0.21-1.837-0.166-2.76
		c0.364,0.07,0.764,0.046,1.112-0.003c0.333-0.047,1.723-0.586,1.986-0.364C42.646,27.236,42.513,28.238,42.512,28.448z"/>
	<path style="fill:#1D1D1B;" d="M44.579,42.549c-0.162-2.114,0.005-4.587-0.694-6.583c-0.095-0.273-0.315-0.583-0.629-0.629
		c-1.246-0.182-2.232,0.13-3.429,0.584c-0.54,0.205-0.677,0.752-0.541,1.182c-0.896,3.983-0.141,8.706,0.512,12.646
		c0.527,3.174,1.919,2.559,4.727,1.82c0.364-0.096,0.702-0.49,0.673-0.883C44.992,47.974,44.787,45.262,44.579,42.549z
		 M41.551,49.267c-0.605-1.337-0.531-3.61-0.679-5.012c-0.232-2.196-0.195-4.461-0.586-6.637c0.003-0.001,0.006,0,0.009-0.001
		c1.827-0.664,1.802-0.377,2.163,1.445c0.221,1.115,0.174,2.357,0.263,3.487c0.195,2.483,0.393,4.965,0.59,7.448
		c-0.302,0.08-0.603,0.161-0.905,0.241C41.63,50.697,41.344,50.373,41.551,49.267z"/>
</g>
<g>
</g>
<g>
</g>
<g>
</g>
<g>
</g>
<g>
</g>
<g>
</g>
<g>
</g>
<g>
</g>
<g>
</g>
<g>
</g>
<g>
</g>
<g>
</g>
<g>
</g>
<g>
</g>
<g>
</g>
</svg>
