<?xml version="1.0" encoding="iso-8859-1"?>
<!-- Generator: Adobe Illustrator 18.0.0, SVG Export Plug-In . SVG Version: 6.00 Build 0)  -->
<!DOCTYPE svg PUBLIC "-//W3C//DTD SVG 1.1//EN" "http://www.w3.org/Graphics/SVG/1.1/DTD/svg11.dtd">
<svg version="1.1" id="Capa_1" xmlns="http://www.w3.org/2000/svg" xmlns:xlink="http://www.w3.org/1999/xlink" x="0px" y="0px"
	 viewBox="0 0 62.256 62.256" style="enable-background:new 0 0 62.256 62.256;" xml:space="preserve">
<g>
	<path style="fill:#1D1D1B;" d="M60.849,10.854c0.001-0.826-0.869-1.063-1.413-0.739c-0.293-0.093-0.62-0.05-1.021-0.009
		c-0.652,0.066-1.308,0.11-1.961,0.165c-0.104,0.009-0.19,0.039-0.265,0.08c-0.262-0.014-0.541,0.157-0.586,0.509
		c-0.303,2.372-0.506,4.761-0.66,7.158c-2.585-0.044-5.186-0.023-7.764,0.201c-0.137-0.945-0.276-1.889-0.391-2.825
		c0,0,0.001,0,0.001,0c0.673-0.32,0.258-1.213-0.344-1.271c-0.592-0.057-1.213,0.169-1.789,0.3
		c-0.616,0.141-1.232,0.282-1.848,0.422l0,0c-0.183-0.041-0.376,0.013-0.471,0.223c-0.536,1.184-0.698,2.483-0.744,3.775
		c-0.325-0.181-0.709-0.147-1.1-0.134c-0.396,0.014-0.792,0.04-1.188,0.064c-0.182-0.876-0.316-1.749-0.058-2.626
		c0.162-0.549-0.282-1.088-0.835-1.097c-1.153-0.018-2.305-0.036-3.458-0.054c-0.953-0.015-1.079,1.251-0.388,1.615
		c-0.08,0.043-0.154,0.106-0.204,0.215c-0.346,0.758-0.667,1.588-0.849,2.436c-4.969-0.579-10.361-0.394-15.375,0.034
		c-0.014-0.304-0.034-0.606-0.049-0.91c0.006-0.026,0.003-0.049-0.004-0.075c-0.041-0.82-0.08-1.641-0.132-2.457
		c-0.03-0.469-0.525-0.592-0.807-0.375c-0.113-0.251-0.337-0.445-0.692-0.433c-0.563,0.019-1.106,0.128-1.659,0.232
		c-0.326,0.061-0.459,0.393-0.412,0.686c-0.267-0.301-0.773-0.388-0.983,0.069c-0.362,0.788-0.677,1.865-0.838,3.003
		c-1.813-0.293-3.805,0.024-5.585,0.496c-0.104-0.717-0.214-1.433-0.323-2.149c0.005-0.034-0.003-0.063-0.015-0.096
		c-0.249-1.645-0.505-3.288-0.785-4.925c0.432-0.313,0.23-1.227-0.403-1.176c-1.673,0.135-3.242,0.174-4.886-0.242
		c-0.578-0.146-0.788,0.681-0.243,0.881c0.009,0.003,0.019,0.005,0.028,0.009c-0.131,0.121-0.222,0.293-0.228,0.524
		c-0.181,6.886-0.152,13.79,0.037,20.675c0.169,6.171-0.095,12.739,1.282,18.78c0.083,0.364,0.657,0.284,0.649-0.088l-0.008-0.367
		c-0.002-0.095-0.114-0.174-0.201-0.115c0.46-0.313,0.646-1.292,0.691-2.505c0.018,0.026,0.041,0.049,0.083,0.057
		c1.767,0.324,3.848,0.497,5.569-0.126c0.043-0.015,0.063-0.054,0.072-0.093c0.074,0.664,0.148,1.329,0.221,1.993
		c-0.994-0.184-2.018-0.232-3.024-0.313c-0.913-0.073-1.934-0.339-2.755,0.147c-0.241,0.143-0.297,0.497-0.09,0.696
		c0.687,0.66,1.72,0.636,2.626,0.774c1.048,0.159,2.112,0.372,3.172,0.407c0.416,0.014,0.685-0.274,0.787-0.615
		c0.535,0.163,1.175-0.096,1.116-0.81C9.528,40.847,8.567,30.753,7.156,20.769c1.791-0.232,3.506-0.088,5.297-0.099
		c0.022,1.566,0.438,3.045,1.554,3.854c0.151,0.11,0.311,0.131,0.462,0.103c0.1,0.23,0.335,0.414,0.655,0.369
		c0.489-0.069,0.977-0.138,1.466-0.207c0.265-0.038,0.504-0.064,0.73-0.127c0.476,0.064,1.008-0.197,0.991-0.807
		c-0.031-1.142-0.075-2.29-0.123-3.438c4.953,0.42,10.271,0.602,15.181,0.046c-0.013,0.559,0.049,1.116,0.243,1.656
		c0.461,1.286,1.729,2.32,3.12,2.36c1.478,0.042,2.548-1.1,2.848-2.471c0.152-0.694,0.083-1.379-0.04-2.059
		c0.317,0.019,0.634,0.04,0.952,0.051c0.381,0.013,0.756,0.048,1.075-0.116c-0.001,0.993,0.099,2.047,0.632,2.814
		c0.142,0.205,0.394,0.288,0.62,0.253c0.014,0.13,0.06,0.258,0.173,0.365c0.582,0.552,1.331,0.871,2.138,0.875
		c0.42,0.002,0.881-0.067,1.265-0.249c0.488,0.399,1.366,0.228,1.335-0.583c-0.048-1.277-0.196-2.564-0.37-3.85
		c2.486,0.206,4.992,0.225,7.484,0.184c-0.205,3.724-0.316,7.459-0.498,11.165c-0.065,1.314-0.144,2.631-0.228,3.948
		c-5.828-0.731-12.025-0.31-17.883-0.014c-0.024-0.984-0.066-1.966-0.163-2.937c-0.013-0.132-0.061-0.234-0.12-0.322
		c0.145-0.051,0.29-0.125,0.438-0.241c0.243-0.188,0.241-0.688,0-0.875c-0.572-0.444-1.087-0.324-1.784-0.284
		c-0.718,0.041-1.436,0.082-2.154,0.124c-0.768,0.044-0.77,1.151,0,1.195l2.154,0.124c0.106,0.006,0.201,0.014,0.299,0.021
		c-0.036,0.074-0.062,0.159-0.072,0.257c-0.011,0.112-0.014,0.226-0.024,0.339c-0.703-0.002-1.406,0.008-2.107,0.014
		c-0.19,0.001-0.19,0.294,0,0.295c0.694,0.005,1.389,0.015,2.084,0.014c-0.023,0.312-0.051,0.623-0.066,0.936
		c-0.59,0.002-1.18,0.018-1.768,0.028c-0.16,0.003-0.16,0.246,0,0.248c0.582,0.01,1.167,0.026,1.751,0.028
		c-0.024,0.557-0.04,1.115-0.048,1.674c-0.401,0.005-0.803,0.017-1.203,0.026c-0.19,0.004-0.19,0.291,0,0.295
		c0.399,0.009,0.799,0.02,1.198,0.026c-0.008,0.716-0.011,1.432-0.014,2.147c-0.458,0.076-0.917,0.101-1.396,0.035
		c-0.17-0.023-0.246,0.234-0.072,0.262c0.49,0.08,0.983,0.088,1.467,0.019c-0.001,0.31-0.001,0.621-0.005,0.93
		c-0.137,0.051-0.276,0.096-0.42,0.13c-0.475,0.11-0.992,0.098-1.482,0.047c0.179-0.183,0.285-0.439,0.207-0.763
		c-0.737-3.059-1.214-6.093-1.229-9.247c-0.003-0.643-0.893-0.601-0.97,0c-0.228,1.771-0.287,3.554-0.16,5.323
		c-0.804,0.001-1.617,0.068-2.423,0.131c-0.047-0.762-0.116-1.521-0.186-2.279c0.192-0.025,0.19-0.314-0.015-0.321
		c-0.004,0-0.008,0-0.011,0c-0.016-0.161-0.022-0.323-0.04-0.484c0.086-0.022,0.175-0.04,0.257-0.072
		c0.774-0.294,0.662-1.393-0.196-1.45c-0.598-0.04-1.221,0.161-1.806,0.281c-0.59,0.121-1.178,0.247-1.766,0.372
		c-0.106-0.691-1.163-0.724-1.145,0.026c0.031,1.277,0.051,2.565,0.092,3.851c-4.584-0.345-9.303-0.095-13.884,0.204
		c-0.56,0.037-0.561,0.835,0,0.872c4.598,0.3,9.338,0.551,13.938,0.201c0.044,0.96,0.1,1.919,0.196,2.869
		c0.054,0.542,0.536,0.786,0.951,0.732c-0.192,0.325-0.042,0.851,0.418,0.799c0.481-0.054,0.962-0.108,1.442-0.166
		c0.229-0.027,0.458-0.043,0.682-0.076c0.539,0.209,1.295-0.052,1.272-0.795c-0.034-1.141-0.076-2.287-0.133-3.432
		c0.832,0.065,1.671,0.136,2.499,0.127c0.132,1.002,0.321,1.999,0.59,2.983c0.108,0.397,0.404,0.579,0.716,0.597
		c-0.058,0.242,0.041,0.549,0.312,0.642c1.217,0.418,2.94,0.591,4.049-0.157c0.55-0.372,0.399-1.156-0.114-1.359
		c-0.007-0.941-0.007-1.889-0.016-2.837c5.826,0.295,11.991,0.71,17.792-0.007c-0.323,4.972-0.684,9.96-0.628,14.924
		c0.009,0.811,1.344,1.064,1.476,0.206c0.021,0.003,0.035,0.014,0.057,0.016c1.99,0.196,4.001,0.271,6,0.26
		c0.61-0.003,0.917-0.469,0.927-0.941c0.216-0.087,0.387-0.271,0.375-0.542C61.676,36.817,60.828,23.897,60.849,10.854z
		 M7.183,38.383c-1.325-0.013-2.66,0.055-3.98,0.077c-0.187,0.003-0.187,0.288,0,0.291c1.336,0.022,2.686,0.091,4.027,0.076
		c0.078,0.714,0.152,1.429,0.23,2.144c-1.253,0.058-2.506,0.185-3.755,0.284c-0.172,0.014-0.176,0.281,0,0.272
		c1.261-0.067,2.532-0.106,3.792-0.216c0.085,0.775,0.167,1.552,0.253,2.326c-1.013,0.079-2.018,0.13-3.045,0.061
		c-0.173-0.012-0.168,0.25,0,0.267c1.022,0.104,2.062,0.147,3.086,0.044c0.078,0.707,0.155,1.416,0.233,2.122
		c-1.273,0.256-2.43,0.402-3.77,0.038c-0.228-0.062-0.322,0.285-0.097,0.353c1.222,0.368,2.674,0.496,3.918,0.073
		c0.071,0.634,0.14,1.269,0.21,1.902c-0.016-0.033-0.043-0.06-0.094-0.056c-1.895,0.142-3.554,0.397-5.457,0.062
		c-0.077-0.014-0.128,0.03-0.16,0.084c0.067-2.459-0.414-5.799-0.439-6.695c-0.093-3.28-0.184-6.56-0.251-9.841
		c-0.133-6.564-0.182-13.126-0.26-19.691c-0.001-0.051-0.02-0.088-0.028-0.134c1.061,0.273,2.154,0.391,3.247,0.313
		c0.033,0.525,0.079,1.05,0.119,1.575c-0.991-0.177-2.004-0.241-3.009-0.174c-0.216,0.014-0.219,0.329,0,0.337
		c1.031,0.039,2.04,0.165,3.047,0.34c0.064,0.829,0.122,1.659,0.187,2.488c-0.747,0.007-1.497,0.048-2.235,0.066
		c-0.238,0.006-0.239,0.365,0,0.37c0.75,0.018,1.514,0.061,2.273,0.066c0.054,0.68,0.097,1.359,0.153,2.039
		c-0.969-0.006-1.914,0.026-2.894-0.13c-0.228-0.036-0.331,0.305-0.097,0.353c0.966,0.195,2.027,0.333,3.029,0.22
		c0.071,0.836,0.137,1.672,0.211,2.508c-0.916-0.015-1.851,0.131-2.724,0.324c-0.199,0.044-0.113,0.339,0.083,0.303
		c0.909-0.166,1.786-0.176,2.68-0.176c0.071,0.799,0.135,1.599,0.21,2.399c-1.224-0.037-2.45-0.008-3.675,0.016
		c-0.184,0.004-0.184,0.282,0,0.286c1.234,0.025,2.47,0.054,3.703,0.016c0.137,1.456,0.28,2.913,0.426,4.369
		c-1.285-0.064-2.601,0.037-3.879,0.065c-0.202,0.004-0.202,0.31,0,0.314c1.292,0.028,2.624,0.131,3.924,0.063
		c0.078,0.774,0.153,1.547,0.233,2.321c-0.96-0.054-1.966,0.031-2.907,0.069c-0.181,0.007-0.181,0.274,0,0.281
		c0.955,0.038,1.977,0.125,2.95,0.066c0.089,0.854,0.174,1.709,0.265,2.564c-0.658-0.012-1.317-0.006-1.965,0.047
		c-0.235,0.019-0.235,0.346,0,0.366c0.665,0.054,1.34,0.059,2.014,0.046C7.04,37.016,7.11,37.7,7.183,38.383z M16.844,18.185
		c-0.713-0.005-1.425,0-2.141,0.018c-0.196,0.005-0.196,0.3,0,0.305c0.71,0.018,1.418,0.023,2.126,0.018
		c-0.012,0.298-0.026,0.594-0.04,0.892c-0.111,0.01-0.225,0.019-0.336,0.03c-0.524,0.05-0.525,0.765,0,0.816
		c0.098,0.009,0.199,0.017,0.297,0.026c-0.023,0.53-0.045,1.059-0.071,1.589c-0.493,0.003-0.987,0.025-1.476,0.035
		c-0.247,0.005-0.248,0.38,0,0.384c0.482,0.009,0.97,0.032,1.456,0.035c-0.016,0.352-0.037,0.705-0.047,1.057
		c-0.125,0.036-0.251,0.075-0.378,0.111c-0.376,0.106-0.752,0.212-1.128,0.318c0.041-1.12-0.62-2.177-0.795-3.29
		c-0.214-1.358-0.063-2.677,0.231-4.012c0.017-0.076,0.016-0.15,0.005-0.221c0.066,0.064,0.144,0.117,0.247,0.136
		c0.553,0.104,1.095,0.213,1.659,0.232c0.196,0.007,0.343-0.061,0.465-0.153C16.885,17.067,16.866,17.626,16.844,18.185z
		 M37.93,21.157c-0.647-0.02-1.285-0.075-1.931-0.217c-0.214-0.047-0.306,0.277-0.091,0.33c0.637,0.158,1.297,0.267,1.957,0.29
		c-0.007,0.03-0.007,0.06-0.014,0.09c-0.422,1.684-2.17,1.011-2.762-0.153c-0.206-0.406-0.279-0.847-0.286-1.299
		c0.152-0.169,0.166-0.466,0.034-0.653c0.095-0.796,0.341-1.601,0.502-2.306c0.047-0.207-0.039-0.395-0.179-0.522
		c0.757,0.015,1.513,0.031,2.27,0.046c-0.008,0.482,0.059,0.957,0.146,1.43c-0.556,0.046-1.107,0.14-1.655,0.294
		c-0.152,0.043-0.088,0.269,0.065,0.235c0.548-0.121,1.101-0.172,1.656-0.19c0.057,0.286,0.116,0.572,0.169,0.857
		c-0.391,0.017-0.777,0.051-1.133,0.121c-0.094,0.018-0.094,0.171,0,0.19c0.377,0.074,0.788,0.11,1.203,0.125
		C37.944,20.268,37.978,20.711,37.93,21.157z M45.087,22.648c-0.476,0.063-0.919-0.085-1.302-0.359
		c-0.157-0.112-0.321-0.129-0.469-0.087c0.13-1.009-0.159-2.072-0.193-3.091c-0.034-1.049,0.075-2.092,0.098-3.137
		c0.584-0.072,1.168-0.144,1.751-0.216c0.293-0.036,0.586-0.06,0.874-0.102c0.007,0.329,0.008,0.663,0.012,0.994
		c-0.704-0.027-1.398-0.068-2.102-0.233c-0.255-0.06-0.363,0.326-0.109,0.393c0.717,0.188,1.47,0.319,2.216,0.299
		c0.004,0.414,0.011,0.825,0.014,1.24c-0.141,0.017-0.283,0.024-0.424,0.042c-0.595,0.076-0.597,0.852,0,0.928
		c0.145,0.018,0.292,0.026,0.438,0.043c0.004,0.267,0.02,0.532,0.028,0.798c-0.655-0.01-1.314,0.027-1.965,0.04
		c-0.199,0.004-0.199,0.306,0,0.309c0.656,0.013,1.32,0.051,1.979,0.039c0.013,0.381,0.019,0.764,0.04,1.144
		c-0.755-0.016-1.515,0.043-2.267,0.076c-0.186,0.008-0.188,0.29,0,0.291c0.759,0.001,1.525,0.015,2.285-0.035
		c0.006,0.096,0.008,0.193,0.015,0.288C45.704,22.431,45.434,22.602,45.087,22.648z M26.57,38.852
		c-0.148,0.046-0.294,0.094-0.437,0.134c-0.374,0.107-0.746,0.217-1.119,0.326c0.082-0.118,0.141-0.26,0.134-0.452
		c-0.01-0.285-0.031-0.57-0.047-0.855c0.501,0.011,1.002,0.021,1.502,0.032C26.595,38.309,26.579,38.581,26.57,38.852z
		 M25.704,33.678c0.387,0.041,0.771,0.019,1.134-0.094c-0.045,0.624-0.083,1.249-0.116,1.874c-0.506-0.001-1.012,0.007-1.519,0.016
		c-0.169,0.003-0.169,0.26,0,0.263c0.502,0.009,1.003,0.017,1.505,0.016c-0.032,0.64-0.066,1.28-0.089,1.919
		c-0.511,0.011-1.023,0.022-1.534,0.033c-0.116-1.885-0.332-3.775-0.55-5.653c0.605-0.053,1.21-0.105,1.815-0.163
		c0.209-0.02,0.425-0.033,0.641-0.048c-0.012,0.115-0.019,0.23-0.03,0.345c-0.503,0.005-1.006,0.015-1.507,0.021
		c-0.19,0.002-0.19,0.293,0,0.295c0.492,0.006,0.985,0.016,1.478,0.021c-0.025,0.281-0.053,0.562-0.074,0.844
		c-0.374,0.116-0.744,0.185-1.153,0.16C25.606,33.522,25.609,33.668,25.704,33.678z M58.415,11.603
		c0.211,0.021,0.4,0.042,0.577,0.045c-0.005,0.224-0.004,0.449-0.008,0.674c-0.68,0.037-1.364,0.137-2.036,0.201
		c-0.109,0.01-0.17,0.078-0.208,0.157c-0.016-0.407-0.017-0.815-0.04-1.221C57.272,11.505,57.844,11.546,58.415,11.603z
		 M58.976,12.906c-0.009,0.656-0.022,1.312-0.025,1.969c-0.69,0.019-1.378,0.128-2.046,0.307c-0.041,0.011-0.062,0.038-0.082,0.064
		c-0.011-0.764-0.048-1.526-0.075-2.289c0.041,0.057,0.102,0.099,0.199,0.092C57.617,12.999,58.303,12.98,58.976,12.906z
		 M56.282,31.809c0.271-5.423,0.617-10.916,0.545-16.37c0.036,0.052,0.09,0.092,0.17,0.073c0.656-0.152,1.301-0.206,1.955-0.216
		c-0.002,0.694-0.004,1.387,0,2.082c-0.337,0.01-0.677,0.043-0.998,0.054c-0.223,0.007-0.224,0.34,0,0.347
		c0.322,0.01,0.664,0.043,1.001,0.054c0.006,0.939,0.008,1.877,0.021,2.817c-0.507,0.009-1.016,0.01-1.523,0.037
		c-0.217,0.011-0.218,0.326,0,0.337c0.509,0.026,1.019,0.026,1.528,0.035c0.012,0.795,0.014,1.59,0.032,2.385
		c-0.6-0.032-1.216,0.011-1.81,0.017c-0.187,0.002-0.187,0.289,0,0.291c0.596,0.005,1.214,0.048,1.816,0.016
		c0.016,0.677,0.016,1.354,0.037,2.031c-0.7-0.063-1.404-0.104-2.098-0.158c-0.21-0.016-0.203,0.301,0,0.323
		c0.698,0.078,1.406,0.187,2.112,0.255c0.029,0.884,0.054,1.769,0.092,2.653c-0.52,0.021-1.042,0.122-1.521,0.267
		c-0.199,0.06-0.116,0.367,0.086,0.312c0.495-0.134,0.971-0.17,1.452-0.176c0.028,0.631,0.047,1.262,0.08,1.892
		c-0.685-0.012-1.37-0.008-2.056-0.003c-0.247,0.002-0.248,0.382,0,0.384c0.693,0.006,1.384,0.009,2.075-0.003
		c0.033,0.611,0.054,1.222,0.092,1.832c-1.052-0.023-2.11,0.001-3.165,0.032C56.231,32.875,56.255,32.34,56.282,31.809z
		 M56.187,33.801c1.071,0.031,2.144,0.056,3.212,0.032c0.05,0.781,0.084,1.564,0.143,2.344c-1.116,0.054-2.241,0.199-3.338,0.281
		c-0.185,0.014-0.188,0.299,0,0.291c1.108-0.049,2.251-0.04,3.374-0.12c0.052,0.67,0.101,1.341,0.161,2.01
		c-0.763-0.018-1.553,0.056-2.285,0.068c-0.19,0.003-0.19,0.292,0,0.295c0.744,0.012,1.549,0.089,2.324,0.068
		c0.057,0.625,0.108,1.25,0.171,1.874c-1.079,0.007-2.124-0.03-3.2-0.252c-0.212-0.044-0.303,0.279-0.09,0.325
		c1.086,0.236,2.214,0.363,3.327,0.284c0.072,0.699,0.138,1.399,0.219,2.097c-1.52,0.042-3.038,0.155-4.555,0.264
		C55.889,40.377,56.032,37.083,56.187,33.801z M60.953,49.392c-1.957-0.011-3.925,0.064-5.874,0.251
		c0.239-1.879,0.406-3.77,0.548-5.664c1.541-0.052,3.083-0.098,4.619-0.219c0.076,0.645,0.143,1.292,0.227,1.935
		c-0.754-0.03-1.521,0.017-2.27,0.024c-0.175,0.002-0.175,0.27,0,0.272c0.762,0.007,1.544,0.056,2.31,0.022
		c0.063,0.48,0.116,0.962,0.183,1.441c-1.08-0.032-2.165-0.002-3.244,0.006c-0.187,0.001-0.187,0.289,0,0.291
		c1.093,0.007,2.192,0.039,3.286,0.005c0.079,0.546,0.144,1.095,0.228,1.639C60.962,49.394,60.959,49.392,60.953,49.392z"/>
	<path style="fill:#1D1D1B;" d="M6.002,28.192c-1.152-0.311-2.434-0.226-3.602-0.055c-0.197,0.029-0.153,0.372,0.047,0.35
		c1.197-0.131,2.31,0.011,3.499,0.119C6.186,28.628,6.227,28.252,6.002,28.192z"/>
</g>
<g>
</g>
<g>
</g>
<g>
</g>
<g>
</g>
<g>
</g>
<g>
</g>
<g>
</g>
<g>
</g>
<g>
</g>
<g>
</g>
<g>
</g>
<g>
</g>
<g>
</g>
<g>
</g>
<g>
</g>
</svg>
