<?xml version="1.0" encoding="iso-8859-1"?>
<!-- Generator: Adobe Illustrator 18.0.0, SVG Export Plug-In . SVG Version: 6.00 Build 0)  -->
<!DOCTYPE svg PUBLIC "-//W3C//DTD SVG 1.1//EN" "http://www.w3.org/Graphics/SVG/1.1/DTD/svg11.dtd">
<svg version="1.1" id="Capa_1" xmlns="http://www.w3.org/2000/svg" xmlns:xlink="http://www.w3.org/1999/xlink" x="0px" y="0px"
	 viewBox="0 0 62.677 62.677" style="enable-background:new 0 0 62.677 62.677;" xml:space="preserve">
<g>
	<path style="fill:#1D1D1B;" d="M39.273,32.766c7.94-1.661,17.495-9.129,14.079-18.115C49.768,5.22,39.629-0.523,29.774,0.038
		C20.24,0.58,9.935,6.823,8.725,16.981C7.68,25.756,14.043,34.595,23.02,35.064c0.474,2.459,0.665,4.912,0.536,7.419
		c-0.011,0.224,0.085,0.398,0.227,0.522c-0.087,0.244-0.036,0.529,0.249,0.676c4.202,2.164,10.239,2.481,14.325-0.217
		c0.286,0.014,0.576-0.1,0.781-0.313c0.557,3.015-0.188,4.524-2.242,4.519c-0.662,0.125-1.33,0.18-2.004,0.165
		c-1.171,0.056-2.355,0.013-3.526-0.013c-1.174-0.026-2.351-0.063-3.523-0.146l-1.407-0.098c-2.699,0.252-3.808-1.325-3.327-4.731
		c0.502-0.119,0.353-0.82-0.116-0.856c-2.252-0.172-3.532,2.203-2.784,4.234c0.149,0.404,0.369,0.749,0.623,1.064
		c-1.534,0.807-2.065,2.518-1.342,4.259c0.07,0.169,0.155,0.325,0.243,0.477c-1.24,1.246-1.598,3.063-1.138,4.746
		c0.351,1.284,1.492,3.192,3,3.174c4.975,2.64,12.167,3.701,17.233,1.668c3.528-1.416,5.384-5.431,2.738-8.176
		c1.63-1.77,2.004-4.281,0.614-6.383c-0.093-0.141-0.21-0.227-0.333-0.29c0.046-0.094,0.099-0.18,0.139-0.279
		c0.901-2.263-0.352-4.655-2.678-5.004c-0.409-2.939-0.657-5.768-0.301-8.712C39.095,32.771,39.177,32.786,39.273,32.766z
		 M37.888,60.353c-1.789,0.563-3.843,0.286-5.677,0.177c-3.243-0.193-6.727-0.4-9.893-1.403c-0.01-0.028-0.01-0.059-0.024-0.084
		c-0.263-0.461-0.655-0.647-1.037-0.99c-0.509-0.458-0.892-1.063-1.121-1.705c-0.419-1.173-0.313-2.389,0.267-3.459
		c1.958,1.962,5.749,2.157,8.157,2.449c3.696,0.448,8.98,1.329,12.226-1.181c0.073-0.057,0.131-0.124,0.201-0.183
		C42.863,56.311,40.304,59.593,37.888,60.353z M31.784,53.809c-2.064-0.139-4.158-0.329-6.188-0.719
		c-1.474-0.283-7.756-1.605-4.08-5.122c2.634,2.049,7.91,1.623,10.557,1.672c2.526,0.047,6.564,0.337,8.753-1.533
		C44.078,53.574,34.733,54.009,31.784,53.809z M25.004,42.722c0.004-0.016,0.014-0.025,0.017-0.042
		c0.492-2.828,0.471-5.646-0.127-8.456c-0.145-0.682-0.767-0.825-1.271-0.625c-7.844-2.359-14.173-8.478-12.38-17.441
		c1.73-8.65,11.125-13.587,19.319-13.896c3.501-0.132,6.937,0.597,10.028,2.044c-3.393-0.61-6.953-0.594-10.335-0.255
		c-0.18,0.018-0.186,0.296,0,0.286c4.117-0.234,8.006,0.24,12.05,0.873c1.244,0.723,2.421,1.563,3.502,2.524
		c-4.568-0.305-9.224-0.106-13.791-0.123c-0.154-0.001-0.153,0.234,0,0.239c4.74,0.155,9.569,0.547,14.314,0.361
		c0.891,0.846,1.717,1.769,2.457,2.77c-5.129-0.541-10.377-0.592-15.518-0.851c-0.147-0.007-0.141,0.21,0,0.225
		c2.768,0.283,5.583,0.596,8.401,0.818c-0.058,0.028-0.115,0.063-0.165,0.116c-2.956,3.159-5.258,6.922-6.867,10.982
		c-1.14-0.153-2.314-0.351-3.526-0.428c-2.58-0.165-5.224,0.205-7.622,1.205c-0.826-1.351-1.742-2.633-2.75-3.823
		c-0.521-0.614-1.414,0.169-1.071,0.826c0.695,1.332,1.339,2.641,1.958,3.944c-1.939,1.215-3.564,3.086-2.057,5.32
		c0.306,0.453,1.144,0.185,0.938-0.396c-0.558-1.574,0.331-2.709,1.782-3.518c2.588,5.68,4.434,11.277,5.394,17.807
		C26.817,43.108,25.933,42.958,25.004,42.722z M28.939,43.318c0.022-0.062,0.041-0.125,0.041-0.198
		c0.008-6.245-1.558-12.914-4.628-18.571c2.358-0.734,5.061-0.967,6.036-0.952c1.198,0.019,2.396,0.24,3.597,0.44
		c-2.093,6.15-2.635,12.863-1.466,19.144C31.331,43.324,30.152,43.382,28.939,43.318z M38.701,30.692
		c-0.027,0.007-0.041,0.023-0.066,0.031c-0.288-0.113-0.625-0.075-0.851,0.17c-1.007-0.023-2.012-0.005-3.02,0.017
		c-0.178,0.004-0.178,0.273,0,0.277c0.949,0.021,1.895,0.036,2.842,0.021c-0.004,0.011-0.012,0.017-0.015,0.028
		c-0.26,0.852-0.472,1.725-0.632,2.608c-0.814-0.032-1.631,0.001-2.445,0.017c-0.241,0.005-0.242,0.37,0,0.375
		c0.793,0.016,1.589,0.046,2.382,0.018c-0.112,0.694-0.2,1.393-0.24,2.095c-0.762,0.214-1.507,0.353-2.329,0.215
		c-0.269-0.045-0.39,0.357-0.115,0.416c0.79,0.168,1.658,0.183,2.42-0.097c-0.022,0.748-0.005,1.497,0.067,2.24
		c-0.662,0.089-1.248,0.233-1.933,0.175c-0.268-0.023-0.319,0.402-0.063,0.465c0.635,0.156,1.45,0.15,2.038-0.19
		c0.112,0.892,0.295,1.775,0.568,2.638c-1.184,0.315-2.311,0.575-3.418,0.769c-0.567-6.729,0.186-12.846,2.198-18.659
		c0.584,0.049,1.169,0.066,1.754,0.019c2.52-0.204,4.629-1.32,5.191-3.843c0.086-0.385-0.409-0.745-0.705-0.411
		c-1.732,1.955-3.582,2.414-5.549,2.374c1.413-3.559,3.302-7.015,5.673-10.436c0.218-0.314,0.041-0.651-0.235-0.811
		c2.311,0.172,4.621,0.274,6.911,0.25c0.21,0.302,0.42,0.605,0.615,0.92c0.343,0.553,0.628,1.095,0.88,1.633
		c-2.644-0.386-5.475-0.248-8.11-0.091c-0.164,0.01-0.167,0.257,0,0.258c2.776,0.013,5.563,0.311,8.332,0.307
		c0.28,0.661,0.493,1.311,0.634,1.953c-2.673-0.503-5.538-0.459-8.216-0.269c-0.167,0.012-0.171,0.265,0,0.262
		c2.815-0.039,5.533,0.293,8.315,0.539c0.111,0.688,0.15,1.368,0.096,2.039c-2.35-0.17-4.851-0.063-7.161,0.137
		c-0.19,0.016-0.19,0.279,0,0.295c2.289,0.198,4.766,0.305,7.098,0.141c-0.101,0.663-0.274,1.321-0.545,1.974
		c-2.348-0.23-4.811,0.009-7.098,0.344c-0.205,0.03-0.159,0.382,0.049,0.364c2.279-0.206,4.52-0.126,6.782-0.113
		c-0.342,0.688-0.778,1.372-1.317,2.055c-2.153,0.031-4.317,0.166-6.468,0.178c-0.177,0.001-0.173,0.258,0,0.272
		c1.93,0.15,3.955,0.271,5.932,0.19c-0.102,0.116-0.197,0.232-0.305,0.348c-0.447,0.48-0.919,0.914-1.401,1.328
		c-3.399-0.113-6.833,0.058-10.228,0.101c-0.22,0.003-0.221,0.339,0,0.342c3.169,0.04,6.373,0.19,9.55,0.119
		c-0.796,0.615-1.632,1.155-2.508,1.623c-2.794-0.41-5.768-0.336-8.543-0.266c-0.232,0.006-0.233,0.356,0,0.361
		c2.465,0.054,4.932,0.326,7.394,0.468C41.578,29.873,40.174,30.337,38.701,30.692z"/>
</g>
<g>
</g>
<g>
</g>
<g>
</g>
<g>
</g>
<g>
</g>
<g>
</g>
<g>
</g>
<g>
</g>
<g>
</g>
<g>
</g>
<g>
</g>
<g>
</g>
<g>
</g>
<g>
</g>
<g>
</g>
</svg>
