<?xml version="1.0" encoding="iso-8859-1"?>
<!-- Generator: Adobe Illustrator 18.0.0, SVG Export Plug-In . SVG Version: 6.00 Build 0)  -->
<!DOCTYPE svg PUBLIC "-//W3C//DTD SVG 1.1//EN" "http://www.w3.org/Graphics/SVG/1.1/DTD/svg11.dtd">
<svg version="1.1" id="Capa_1" xmlns="http://www.w3.org/2000/svg" xmlns:xlink="http://www.w3.org/1999/xlink" x="0px" y="0px"
	 viewBox="0 0 62.567 62.567" style="enable-background:new 0 0 62.567 62.567;" xml:space="preserve">
<g>
	<path style="fill:#1D1D1B;" d="M54.058,15.709c-3.164-0.19-6.334,0.187-8.292-2.958c-1.13-1.814-1.593-3.927-2.547-5.824
		c-1.304-2.594-3.296-4.448-6.314-4.629c-8.107-0.484-10.881,8.361-11.759,14.738c-0.023,0.166,0,0.315,0.043,0.453
		C13.9,15.717,6.708,27.494,2.479,36.609c-3.673,7.915-4.594,21.497,6.74,23.464c10.93,1.896,17.174-9.076,20.691-17.483
		c2.293-5.481,6.4-12.517,4.283-18.623c-1.144-3.298-4.177-5.677-7.584-5.399c-0.009-0.047-0.026-0.089-0.043-0.132
		c0.119,0.008,0.235,0.007,0.355,0.017c0.338,0.03,0.392-0.493,0.079-0.58c-0.057-0.016-0.112-0.025-0.168-0.04
		c0.052-0.086,0.103-0.176,0.131-0.295c1.089-4.62,2.281-11.007,7.612-12.543c6.146-1.77,6.837,5.346,9.105,8.977
		c1.096,1.754,2.611,3.494,4.587,4.256c3.522,1.358,7.059-1.173,10.109,1.81c11.699,11.442-23.723,19.664-11.613,31.348
		c0.811,0.782,2.329-0.264,1.623-1.253c-4.714-6.604,3.562-10.904,7.717-14.272c2.565-2.079,4.949-4.726,5.963-7.943
		C63.961,21.903,60.306,16.084,54.058,15.709z M24.704,18.416c-0.026,0.045-0.062,0.075-0.082,0.126
		c-1.723,4.238-3.317,8.656-4.64,13.036c-3.247-1.287-6.405-2.794-9.483-4.604C14.066,22.36,18.698,18.703,24.704,18.416z
		 M29.886,37.836c-4.288-0.668-8.781-0.572-13.089-0.364c-0.228,0.011-0.23,0.362,0,0.356c4.332-0.102,8.581,0.293,12.886,0.52
		c-0.368,0.913-0.741,1.806-1.112,2.644c-3.547-0.666-7.31-0.481-10.823,0.202c-0.201,0.039-0.112,0.331,0.083,0.303
		c3.605-0.526,6.946-0.386,10.491,0.05c-0.341,0.757-0.675,1.485-0.985,2.138c-2.245-0.066-4.556,0.179-6.789,0.325
		c-0.212,0.014-0.216,0.336,0,0.333c2.162-0.029,4.404,0.022,6.568-0.191c-0.342,0.717-0.653,1.356-0.905,1.879
		c-0.209,0.435-0.446,0.881-0.695,1.333c-2.905-0.036-5.832,0.143-8.718,0.373c-0.208,0.017-0.213,0.338,0,0.328
		c2.806-0.129,5.606-0.127,8.41-0.163c-0.533,0.917-1.132,1.85-1.804,2.767c-4.031,0.01-8.082,0.175-12.106,0.371
		c-0.171,0.008-0.173,0.266,0,0.267c3.907,0.017,7.839,0.002,11.747-0.152c-0.743,0.972-1.555,1.915-2.43,2.783
		c-4.417-0.135-8.912,0.226-13.317,0.413c-0.111,0.005-0.112,0.174,0,0.173c4.251-0.011,8.594,0.137,12.849-0.15
		c-0.626,0.587-1.271,1.147-1.949,1.637c-3.683-0.327-7.457-0.285-11.15-0.302c-0.203-0.001-0.201,0.304,0,0.314
		c3.517,0.185,7.105,0.421,10.636,0.342c-3.44,2.299-7.446,3.099-11.492,0.444c-8.593-5.638-3.063-17.663,0.701-24.334
		c0.844-1.495,1.776-2.984,2.798-4.408c6.202,4.126,13.004,7.336,20.302,8.943c0.079,0.018,0.146,0.003,0.22,0.005
		C30.106,37.295,29.994,37.561,29.886,37.836z M30.881,35.151c-0.096-0.065-0.198-0.126-0.332-0.161
		c-0.791-0.206-1.577-0.42-2.357-0.643c0.963,0.068,1.926,0.132,2.892,0.175C31.016,34.731,30.952,34.941,30.881,35.151z
		 M30.282,21.324c-0.993-0.111-2-0.134-2.986-0.1c-0.204,0.007-0.206,0.317,0,0.319c1.229,0.008,2.42,0.158,3.619,0.336
		c0.563,0.591,0.966,1.305,1.226,2.121c-1.494-0.299-3.127-0.321-4.594-0.306c-0.231,0.003-0.228,0.343,0,0.356
		c1.592,0.094,3.17,0.382,4.751,0.522c0.165,0.715,0.244,1.488,0.243,2.311c-1.897-0.173-3.845-0.12-5.744-0.16
		c-0.219-0.005-0.216,0.325,0,0.338c1.895,0.111,3.835,0.321,5.74,0.3c-0.035,0.963-0.163,1.98-0.365,3.027
		c-2.435-0.161-4.941,0.019-7.375,0.068c-0.232,0.005-0.233,0.356,0,0.361c2.399,0.048,4.868,0.222,7.27,0.073
		c-0.213,1.002-0.479,2.023-0.795,3.047c-1.853-0.345-3.815-0.435-5.754-0.403c-1.415-0.45-2.815-0.929-4.198-1.448
		c1.79-3.883,3.422-7.94,4.877-11.974C27.978,20.167,29.307,20.605,30.282,21.324z"/>
</g>
<g>
</g>
<g>
</g>
<g>
</g>
<g>
</g>
<g>
</g>
<g>
</g>
<g>
</g>
<g>
</g>
<g>
</g>
<g>
</g>
<g>
</g>
<g>
</g>
<g>
</g>
<g>
</g>
<g>
</g>
</svg>
