<?xml version="1.0" encoding="utf-8"?>
<!-- Generator: Adobe Illustrator 17.0.0, SVG Export Plug-In . SVG Version: 6.00 Build 0)  -->
<!DOCTYPE svg PUBLIC "-//W3C//DTD SVG 1.1//EN" "http://www.w3.org/Graphics/SVG/1.1/DTD/svg11.dtd">
<svg version="1.1" xmlns="http://www.w3.org/2000/svg" xmlns:xlink="http://www.w3.org/1999/xlink" x="0px" y="0px"
	 width="730.924px" height="233.493px" viewBox="0 0 730.924 233.493" enable-background="new 0 0 730.924 233.493"
	 xml:space="preserve">
<g id="Layer_1" display="none">
	<rect x="-24.752" y="-61.61" display="inline" fill="#2571B5" stroke="#000000" stroke-miterlimit="10" width="800" height="600"/>
</g>
<g id="Layer_2">
	<g>
		<path fill="#414042" d="M223.527,13.72c0.98,1.47,1.47,2.86,1.47,4.165v0.98l-17.151,16.905v-6.125L223.527,13.72z
			 M225.732,26.461v6.37l-15.68,15.681h-1.225v-5.39L225.732,26.461z M225.732,39.937c0.816,0.164,1.225,0.612,1.225,1.347
			c0,0.736,0,1.348,0,1.838c0,0.819-0.042,1.512-0.123,2.083c-0.084,0.574-0.451,1.187-1.103,1.837
			c-0.49,0.49-1.309,1.39-2.45,2.695c-1.145,1.309-2.37,2.615-3.675,3.921c-1.309,1.309-2.572,2.572-3.797,3.797
			c-1.225,1.225-2.083,2.083-2.573,2.573c-0.329,0.165-0.857,0.532-1.592,1.103c-0.736,0.574-1.267,0.857-1.593,0.857v-6.37
			L225.732,39.937z M226.713,53.412v6.615l-15.681,15.68v-6.37L226.713,53.412z M211.031,82.813l15.681-15.68h1.224v5.39
			l-15.925,15.68c-0.49-0.651-0.777-1.263-0.857-1.837c-0.084-0.57-0.123-1.263-0.123-2.083V82.813z M228.917,79.873v6.125
			l-15.68,15.681v-6.126L228.917,79.873z M228.917,93.593h1.716c0,0.655-0.084,1.8-0.245,3.43c-0.165,1.634-0.654,2.859-1.47,3.675
			l-15.68,15.68v-7.105L228.917,93.593z M229.898,107.069v6.37l-15.681,15.68v-6.37L229.898,107.069z M229.898,120.789
			c0.65,0.654,1.018,1.267,1.103,1.837c0.08,0.574,0.122,1.267,0.122,2.083v1.225l-16.905,16.905v-6.37L229.898,120.789z
			 M215.197,149.945l15.925-15.68h0.98v5.39l-15.68,15.68c-0.819-0.161-1.225-0.693-1.225-1.592c0-0.896,0-1.509,0-1.837V149.945z
			 M233.083,146.025c0.815,1.309,1.224,2.615,1.224,3.92c0,0.98-0.164,1.758-0.49,2.328c-0.329,0.575-0.9,1.267-1.716,2.083
			c-0.98,0.98-2.204,2.247-3.675,3.798c-1.47,1.554-2.94,3.063-4.41,4.532c-1.47,1.47-3.35,3.185-5.635,5.146h-0.98v-6.126
			L233.083,146.025z M218.382,175.181l16.906-16.661c0.325,0.82,0.612,1.555,0.857,2.205c0.244,0.655,0.367,1.39,0.367,2.205
			c0,0.165-0.042,0.245-0.123,0.245c-0.084,0-0.122,0.084-0.122,0.245v0.49l-16.661,16.416c-0.819-1.141-1.225-2.531-1.225-4.165
			V175.181z M221.322,185.716l17.151-16.905c0.815,1.309,1.224,2.695,1.224,4.165c0,0.165-0.042,0.287-0.123,0.367
			c-0.084,0.084-0.122,0.207-0.122,0.368c-0.165,0.165-0.245,0.329-0.245,0.49l-15.68,15.68l-0.49,0.245l-0.245-0.245
			c-0.329,0-0.574-0.406-0.735-1.225c-0.165-0.815-0.41-1.47-0.735-1.96v-0.49V185.716z M225.732,196.007l16.661-16.415
			c0.65,0.329,1.183,0.857,1.592,1.592c0.406,0.735,0.613,1.432,0.613,2.083v0.245l-16.661,16.905
			c-1.47-0.815-2.205-2.04-2.205-3.675V196.007z M228.917,4.165c0.816-1.795,1.876-3.185,3.185-4.165h3.675h3.43
			c0.161,0,0.693,0.042,1.592,0.123c0.896,0.084,1.796,0.207,2.695,0.368c0.896,0.164,1.753,0.287,2.572,0.367
			c0.816,0.084,1.386,0.123,1.716,0.123c0.98,0.165,2.653,0.287,5.022,0.368c2.366,0.084,4.858,0.123,7.473,0.123
			c2.611,0,5.103-0.038,7.473-0.123c2.366-0.08,4.042-0.203,5.022-0.368c1.141,0.819,1.96,2.044,2.45,3.675
			c0.49,1.634,0.735,3.024,0.735,4.165c0,5.229-0.165,10.455-0.49,15.68c-0.329,5.229-0.49,10.455-0.49,15.68
			c0,16.171,0.938,31.935,2.818,47.287c1.876,15.355,4.448,30.955,7.717,46.796c0.161,0.819,0.448,2.044,0.858,3.675
			c0.405,1.634,0.815,3.349,1.224,5.145c0.406,1.799,0.816,3.472,1.225,5.022c0.406,1.555,0.693,2.573,0.857,3.063
			c0.981,2.78,2.695,5.597,5.146,8.453c2.45,2.86,5.306,4.288,8.575,4.288c2.285,0,4.165-0.49,5.635-1.47
			c1.47-0.98,3.101-2.286,4.901-3.921c3.92-3.59,6.898-7.717,8.942-12.373c2.04-4.655,3.511-9.513,4.41-14.578
			c0.896-5.062,1.348-10.249,1.348-15.558c0-5.306,0-10.413,0-15.313c0-7.351-0.042-14.659-0.123-21.929
			c-0.084-7.266-0.452-14.578-1.103-21.928c0-0.98-0.207-3.43-0.612-7.35c-0.41-3.921-0.858-8.124-1.348-12.619
			c-0.49-4.49-0.942-8.735-1.348-12.74c-0.409-4-0.697-6.492-0.857-7.473c0-0.325-0.042-1.508-0.123-3.552
			C323.039,11.068,323,9.555,323,8.575c0-0.651,0.038-1.63,0.123-2.94c0.08-1.306,0.123-2.121,0.123-2.45l2.205-0.98h37.732
			c0.16,0,0.938,0.245,2.327,0.735c1.386,0.49,2.408,0.9,3.063,1.225c0,0.165,0.161,0.368,0.49,0.613
			c0.326,0.244,0.49,0.451,0.49,0.612c0.16,0.654,0.325,2.002,0.49,4.042c0.161,2.044,0.245,3.472,0.245,4.288
			c0.161,0.819,0.283,2.535,0.367,5.145c0.08,2.615,0.203,5.432,0.368,8.453c0.161,3.025,0.284,5.965,0.368,8.821
			c0.08,2.859,0.203,4.862,0.367,6.002v8.575c0,10.456-0.329,20.91-0.98,31.361c-0.654,10.455-1.389,20.91-2.205,31.361
			c-0.164,0.98-0.409,3.349-0.735,7.105c-0.329,3.759-0.654,7.802-0.98,12.128c-0.329,4.329-0.654,8.414-0.98,12.25
			c-0.329,3.839-0.49,6.248-0.49,7.228c-1.144,11.6-4.655,21.358-10.535,29.279c-5.88,7.924-13.966,14.252-24.256,18.988
			c-5.229,2.45-10.413,4.288-15.558,5.513c-5.145,1.225-10.658,1.837-16.538,1.837c-7.68,0-14.785-1.306-21.316-3.92
			c-6.535-2.611-12.334-6.248-17.395-10.903c-5.065-4.655-9.353-10.084-12.863-16.293c-3.515-6.205-6.087-12.986-7.718-20.336
			c0-0.325-0.123-1.305-0.368-2.94c-0.245-1.63-0.451-3.43-0.612-5.39c-0.165-1.96-0.329-3.755-0.49-5.39
			c-0.165-1.63-0.245-2.61-0.245-2.94c-0.164-0.161-0.287-0.529-0.367-1.103c-0.084-0.57-0.207-1.225-0.368-1.96
			c-0.165-0.735-0.287-1.428-0.368-2.083c-0.084-0.651-0.122-1.06-0.122-1.225c0-0.49-0.042-1.263-0.123-2.328
			c-0.084-1.06-0.207-2.121-0.368-3.185c-0.165-1.06-0.287-2.083-0.368-3.063c-0.084-0.98-0.122-1.63-0.122-1.96
			c-0.165-1.141-0.329-4.042-0.49-8.698c-0.165-4.655-0.368-9.594-0.612-14.823c-0.245-5.225-0.49-10.168-0.736-14.823
			c-0.245-4.655-0.367-7.553-0.367-8.698c0-0.326-0.042-0.98-0.123-1.96c-0.084-0.98-0.207-2.083-0.368-3.308
			c-0.165-1.225-0.287-2.366-0.368-3.43c-0.084-1.06-0.123-1.753-0.123-2.083c0-0.98-0.122-3.143-0.367-6.493
			c-0.245-3.346-0.49-7.021-0.735-11.025c-0.245-4.001-0.49-7.879-0.736-11.639c-0.245-3.755-0.367-6.53-0.367-8.33
			c-0.165-2.775-0.368-5.513-0.613-8.208c-0.245-2.695-0.368-5.429-0.368-8.208V4.165z M247.783,187.922h0.245l0.49-0.245
			c0.815,0,1.428,0.368,1.837,1.103c0.406,0.735,0.613,1.512,0.613,2.328v0.98c-0.49,0.49-1.39,1.389-2.695,2.695
			c-1.309,1.309-2.695,2.695-4.165,4.165c-1.47,1.47-2.817,2.818-4.042,4.043c-1.225,1.224-2.083,2.083-2.573,2.572
			c-0.329,0.165-0.857,0.533-1.592,1.103c-0.735,0.571-1.267,0.938-1.593,1.103h-0.735h-0.49c-0.329-0.49-0.778-1.141-1.348-1.96
			c-0.575-0.815-0.777-1.225-0.613-1.225L247.783,187.922z M238.473,211.687l16.905-16.415c0-0.326,0.405-0.161,1.225,0.49
			c0.815,0.655,1.385,1.225,1.715,1.716v0.245v0.49l-16.905,17.151h-0.49h-0.245c-0.329-0.329-0.735-0.735-1.224-1.225
			c-0.49-0.49-0.82-0.819-0.98-0.98v-0.735V211.687z M245.578,218.302l16.905-16.905l0.98,0.49c0.651,0.329,1.06,0.49,1.225,0.49
			c0,0.165,0.161,0.368,0.49,0.613c0.326,0.244,0.49,0.451,0.49,0.612v0.245v0.735l-15.68,15.68
			c-0.165,0.161-0.329,0.245-0.49,0.245h-0.49c-0.655,0-1.39-0.084-2.205-0.245c-0.82-0.164-1.225-0.654-1.225-1.47V218.302z
			 M255.378,223.447l16.66-16.66l3.92,1.96l-16.66,16.905h-0.98c-0.329,0-0.98-0.084-1.96-0.244c-0.98-0.165-1.47-0.655-1.47-1.47
			L255.378,223.447z M281.349,210.952h6.37c0,0.326-0.287,0.857-0.857,1.593c-0.574,0.735-1.022,1.182-1.348,1.347
			c-0.49,0.49-1.389,1.428-2.695,2.818c-1.309,1.385-2.657,2.817-4.042,4.288c-1.39,1.47-2.738,2.856-4.043,4.165
			c-1.309,1.306-2.204,2.205-2.695,2.695h-2.205c-0.819,0-1.554-0.042-2.205-0.123c-0.654-0.084-1.309-0.451-1.96-1.103
			L281.349,210.952z M301.439,211.687l-15.925,16.171c-0.819,0.651-1.592,0.98-2.327,0.98c-0.736,0-1.593,0-2.573,0h-2.45
			l16.905-17.151H301.439z M315.895,210.952l-13.475,13.72c-0.82,0.815-1.922,1.386-3.308,1.716c-1.39,0.325-2.573,0.49-3.553,0.49
			h-0.735h-0.736c-0.165,0-0.244-0.084-0.244-0.245l14.7-14.946c0.651-0.329,1.508-0.532,2.572-0.612
			c1.06-0.084,1.998-0.123,2.818-0.123H315.895z M317.12,8.575h0.98v3.185l-15.68,15.68v-4.41L317.12,8.575z M302.42,34.546
			l16.905-16.661v6.37L303.4,39.937c-0.49-0.651-0.778-1.263-0.858-1.838c-0.084-0.57-0.122-1.183-0.122-1.837V34.546z
			 M320.306,30.626c0.161,0.329,0.325,0.98,0.49,1.96c0.161,0.981,0.245,1.635,0.245,1.961v0.735v0.49l-16.416,16.661v-6.125
			L320.306,30.626z M305.115,60.762c0-0.161,0.08-0.406,0.245-0.735l15.68-15.925h1.47v5.145l-16.171,15.68
			c-0.655-0.161-1.022-0.651-1.103-1.47c-0.084-0.815-0.123-1.47-0.123-1.96V60.762z M317.12,147.005
			c-0.165,0.329-0.533,1.022-1.103,2.083c-0.575,1.064-0.942,1.758-1.103,2.083c-0.98,1.145-2.37,2.657-4.165,4.533
			c-1.8,1.879-2.86,2.817-3.185,2.817h-2.205L317.12,147.005z M306.34,72.522l16.171-15.68h0.735v6.37l-15.68,15.68
			c-0.655-0.651-1.022-1.386-1.103-2.205c-0.084-0.815-0.123-1.63-0.123-2.45V72.522z M323.245,70.317
			c0.815,0.165,1.263,0.696,1.348,1.593c0.08,0.9,0.123,1.512,0.123,1.837c0,0.329-0.042,0.532-0.123,0.612
			c-0.084,0.084-0.123,0.287-0.123,0.613c-0.165,0.329-0.245,0.574-0.245,0.735l-15.68,15.68h-0.98v-5.39L323.245,70.317z
			 M307.565,100.699c0-0.161,0.123-0.49,0.367-0.981c0.245-0.49,0.448-0.896,0.613-1.224l15.68-15.681v6.37l-15.68,15.681
			c-0.165-0.326-0.368-1.018-0.613-2.083C307.688,101.721,307.565,101.027,307.565,100.699z M323.245,127.16v1.96
			c0,0.819-0.042,1.715-0.123,2.695c-0.084,0.98-0.287,1.8-0.612,2.45l-14.945,14.7v-6.125L323.245,127.16z M325.451,96.778v6.125
			l-16.905,16.661v-6.125L325.451,96.778z M324.225,111.234c0,0.329,0.08,0.857,0.245,1.592c0.161,0.735,0.245,1.187,0.245,1.348
			c0,0.98-0.042,1.922-0.123,2.817c-0.084,0.9-0.533,1.758-1.348,2.573l-13.72,13.72h-0.98v-6.125L324.225,111.234z
			 M333.781,204.582c-2.779,2.94-5.352,5.593-7.718,7.963c-2.369,2.365-5.352,4.288-8.942,5.757l12.495-12.74
			c0.326-0.161,0.735-0.326,1.225-0.49c0.326-0.161,0.651-0.245,0.98-0.245c0.326,0,0.651-0.08,0.98-0.245h0.49H333.781z"/>
		<path fill="#414042" d="M396.834,9.555c0,0.165,0.08,0.245,0.244,0.245l0.245,0.245l-0.49,0.49
			c-0.165,0.49-0.613,1.267-1.348,2.328c-0.735,1.064-1.267,1.757-1.593,2.083c-0.49,0.329-1.224,1.022-2.205,2.083
			c-0.98,1.064-2.044,2.125-3.185,3.185c-1.144,1.064-2.204,2.083-3.185,3.063c-0.98,0.98-1.634,1.635-1.96,1.96
			c-0.165,0.165-0.49,0.368-0.98,0.613c-0.49,0.245-0.9,0.451-1.225,0.612v-1.225L396.834,9.555z M396.834,18.865v6.37
			l-15.681,15.681v-6.37L396.834,18.865z M396.834,32.831v6.126l-15.681,15.68v-6.125L396.834,32.831z M382.133,61.987l16.171-15.68
			c1.47,0.819,2.205,1.799,2.205,2.94c0,0.165-0.042,0.287-0.123,0.368c-0.084,0.084-0.123,0.206-0.123,0.367l-0.244,0.245
			l-16.661,16.905c-0.819-0.161-1.225-0.693-1.225-1.592c0-0.896,0-1.509,0-1.838V61.987z M412.514,51.452v0.98l-13.475,13.966
			c-0.82,0.654-1.677,0.942-2.573,0.857c-0.9-0.08-1.757-0.123-2.573-0.123h-3.185l15.681-15.68H412.514z M443.875,180.326
			c0-4.736,0.245-9.348,0.736-13.843c0.49-4.491,0.735-9.104,0.735-13.843v-2.695c-0.165-0.651-0.329-1.998-0.49-4.042
			c-0.165-2.04-0.329-4.165-0.49-6.37c-0.165-2.205-0.329-4.288-0.49-6.248c-0.164-1.96-0.244-3.346-0.244-4.165v-3.185
			c0-1.47,0-3.798,0-6.983s-0.042-6.492-0.123-9.922c-0.084-3.43-0.165-6.615-0.245-9.555c-0.084-2.941-0.123-4.901-0.123-5.881
			c0-1.141-0.084-3.223-0.245-6.248c-0.164-3.02-0.367-6.248-0.612-9.678c-0.245-3.43-0.49-6.738-0.735-9.923
			c-0.245-3.185-0.368-5.428-0.368-6.737c-0.165-1.141-0.41-2.45-0.735-3.921c-0.329-1.47-0.736-2.94-1.225-4.409
			c-0.49-1.47-1.187-2.734-2.083-3.798c-0.9-1.06-2.083-1.673-3.553-1.837c-0.654,0-1.799-0.038-3.43-0.123
			c-1.634-0.08-3.35-0.161-5.145-0.245c-1.799-0.08-3.472-0.161-5.022-0.245c-1.555-0.08-2.573-0.122-3.063-0.122
			c-0.165,0-0.655,0.042-1.47,0.122c-0.819,0.084-1.676,0.165-2.572,0.245c-0.9,0.084-1.8,0.165-2.695,0.245
			c-0.9,0.084-1.432,0.123-1.592,0.123h-0.736c-3.759,0-5.635-2.04-5.635-6.125V4.165l0.98-0.98
			c5.715-0.161,10.86-0.326,15.435-0.49c4.571-0.161,9.758-0.326,15.559-0.49c5.796-0.161,11.638-0.283,17.518-0.368
			c5.881-0.08,11.554-0.202,17.029-0.367c5.471-0.161,10.168-0.326,14.087-0.49h17.886h17.885c1.306,0.49,2.243,2.167,2.818,5.022
			c0.57,2.86,0.979,6.003,1.224,9.433c0.245,3.43,0.368,6.737,0.368,9.922s0,5.352,0,6.493c0,0.98,0,2.167,0,3.553
			c0,1.39-0.123,2.737-0.368,4.042c-0.245,1.309-0.777,2.412-1.592,3.308c-0.82,0.9-1.96,1.348-3.43,1.348
			c-0.82,0-2.167,0.084-4.042,0.244c-1.88,0.165-3.883,0.287-6.004,0.368c-2.124,0.084-4.127,0.207-6.002,0.368
			c-1.879,0.165-3.227,0.245-4.042,0.245c-0.49,0-1.676,0.084-3.552,0.244c-1.88,0.165-3.063,0.41-3.554,0.736
			c-0.164,0-0.532,0.122-1.102,0.367c-0.575,0.245-0.942,0.368-1.103,0.368c0,0.98,0,2.614,0,4.9c0,2.289-0.041,4.655-0.123,7.106
			c-0.083,2.45-0.121,4.819-0.121,7.105c0,2.289,0,3.92,0,4.9c0,17.641,0.772,35.201,2.326,52.677
			c1.551,17.48,2.328,35.12,2.328,52.922v15.436c0,0.98-0.084,2.205-0.245,3.675c-0.164,1.47-0.287,2.941-0.366,4.41
			c-0.084,1.47-0.288,3.269-0.613,5.39l-0.981,1.225c-3.759,0.161-6.902,0.283-9.432,0.368c-2.535,0.08-5.187,0.202-7.962,0.367
			c-2.78,0.161-5.066,0.245-6.861,0.245h-11.516h-7.105l-2.205-2.205c-0.165,0-0.287-0.651-0.368-1.96
			c-0.083-1.306-0.164-2.856-0.244-4.655c-0.084-1.795-0.165-3.633-0.245-5.512c-0.084-1.876-0.123-3.388-0.123-4.533
			c0-0.161-0.084-1.348-0.245-3.553C443.955,183.144,443.875,181.471,443.875,180.326z M427.459,51.452l-15.68,15.68h-6.37
			l16.66-16.905L427.459,51.452z M416.924,69.337l16.66-16.905c0.161,0,0.368,0.165,0.613,0.49c0.244,0.329,0.447,0.49,0.612,0.49
			c0.326,0.49,0.57,1.145,0.735,1.96c0.161,0.819,0.245,1.309,0.245,1.47l-16.905,16.66c-0.49-0.326-0.98-0.857-1.47-1.592
			c-0.49-0.736-0.735-1.428-0.735-2.083L416.924,69.337z M436.77,64.192v6.125l-15.68,15.68l-0.98-5.39L436.77,64.192z
			 M420.844,94.329c0-0.161,0.08-0.406,0.245-0.736l15.68-15.925h1.47c0,0.819,0,2.044,0,3.675c0,1.634-0.49,2.859-1.47,3.675
			l-12.495,12.74c-0.165,0.165-0.533,0.329-1.103,0.49c-0.575,0.165-0.942,0.245-1.103,0.245c-0.654,0-1.022-0.49-1.103-1.47
			c-0.084-0.98-0.123-1.63-0.123-1.96V94.329z M438.975,90.408v6.37l-15.68,15.681h-1.225v-5.39L438.975,90.408z M438.975,175.181
			c0.161,0.329,0.368,1.064,0.612,2.205c0.245,1.145,0.368,1.88,0.368,2.205v0.49v0.245l-16.66,17.151
			c0-0.326-0.042-0.736-0.123-1.225c-0.084-0.49-0.123-0.815-0.123-0.98c0-0.815,0.038-1.754,0.123-2.818
			c0.08-1.06,0.447-1.918,1.103-2.572L438.975,175.181z M423.049,205.317c0-0.325,0.08-0.57,0.245-0.735l15.68-15.68
			c0.651,0.654,1.018,1.225,1.103,1.715c0.08,0.49,0.123,1.145,0.123,1.96c0,0.165-0.042,0.329-0.123,0.49
			c-0.084,0.165-0.123,0.329-0.123,0.49v0.736c0,0.165-0.409,0.777-1.225,1.837c-0.819,1.064-1.47,1.757-1.96,2.083
			c-0.329,0.49-1.103,1.348-2.328,2.573c-1.225,1.224-2.492,2.492-3.797,3.797c-1.309,1.309-2.573,2.573-3.798,3.798
			c-1.224,1.224-2.083,2.083-2.572,2.572c-0.819-0.329-1.225-1.022-1.225-2.083c0-1.064,0-1.757,0-2.083V205.317z M438.975,103.884
			v6.37l-15.68,15.68v-6.37L438.975,103.884z M438.975,118.584v6.37l-15.68,15.68v-6.37L438.975,118.584z M423.294,147.74
			l16.66-16.415v7.105l-15.68,15.925c-0.165-0.49-0.368-1.427-0.613-2.817c-0.244-1.386-0.367-2.243-0.367-2.573v-0.49V147.74z
			 M441.18,144.8v6.37l-15.926,15.68h-0.98v-5.145L441.18,144.8z M441.18,159.5c0,0.82-0.123,1.961-0.368,3.43
			c-0.244,1.47-0.532,2.37-0.857,2.695l-15.68,15.68v-1.715c0-0.816,0.038-1.754,0.123-2.818c0.08-1.06,0.367-1.918,0.857-2.572
			l14.7-14.701H441.18z M439.955,202.377v6.37l-15.68,15.925v-6.37L439.955,202.377z M449.265,213.157l-15.68,15.68h-6.125
			l16.905-17.151L449.265,213.157z M463.966,211.687v1.47l-14.701,14.7c-0.654,0.651-1.347,0.98-2.083,0.98
			c-0.735,0-1.592,0-2.572,0h-2.45l16.66-17.151H463.966z M472.541,211.687h7.104l-15.68,16.171l-7.106,0.98v-0.98L472.541,211.687z
			 M491.407,53.167c0-1.96,0.774-3.101,2.328-3.43c1.551-0.325,3.062-0.49,4.533-0.49h1.47l-7.106,7.595
			c-0.164-0.326-0.366-0.896-0.611-1.716c-0.245-0.815-0.452-1.385-0.613-1.715V53.167z M515.418,48.512l-15.681,15.68
			c-0.654,0.654-1.39,1.022-2.205,1.103c-0.82,0.084-1.635,0.123-2.45,0.123c-0.164,0-0.575-0.08-1.224-0.245
			c-0.654-0.161-1.065-0.245-1.226-0.245l16.662-16.415H515.418z"/>
		<path fill="#414042" d="M553.294,46.551l-15.681,15.681v-0.736v-0.244c0.326-1.141,0.57-2.489,0.736-4.043
			c0.161-1.55,0.245-2.407,0.245-2.572l15.925-15.68L553.294,46.551z M553.294,125.2h1.224v5.145l-15.925,15.68h-0.981v-5.145
			L553.294,125.2z M554.519,11.76v5.39l-15.925,15.68v-5.39L554.519,11.76z M554.519,24.256c0.651,1.8,0.981,3.269,0.981,4.41
			c0,0.98-0.697,2.37-2.083,4.165c-1.39,1.8-3.025,3.637-4.901,5.513c-1.88,1.879-3.759,3.595-5.635,5.145
			c-1.88,1.555-3.308,2.573-4.288,3.063v-6.37L554.519,24.256z M554.519,52.922v6.126l-15.925,15.68v-6.125L554.519,52.922z
			 M554.519,67.623v6.125l-15.925,15.68v-6.125L554.519,67.623z M554.519,81.098v3.185c0,1.47-0.041,2.535-0.123,3.185
			c-0.084,0.654-0.777,1.634-2.083,2.94c-0.329,0.49-0.979,1.267-1.96,2.328c-0.979,1.064-2.044,2.125-3.184,3.185
			c-1.145,1.064-2.205,2.083-3.186,3.063c-0.979,0.98-1.715,1.716-2.205,2.205c-0.164,0.165-0.654,0.49-1.47,0.98
			c-0.82,0.49-1.39,0.735-1.715,0.735v-6.125L554.519,81.098z M554.519,95.798v6.125l-15.925,15.681v-6.126L554.519,95.798z
			 M554.519,109.274v6.37l-15.925,15.925v-6.37L554.519,109.274z M554.519,137.695v3.185c0,1.634-0.041,2.737-0.123,3.308
			c-0.084,0.574-0.777,1.592-2.083,3.063c-0.329,0.329-0.979,1.022-1.96,2.083c-0.979,1.064-2.044,2.125-3.184,3.185
			c-1.145,1.064-2.205,2.083-3.186,3.063c-0.979,0.98-1.715,1.635-2.205,1.96c-0.164,0.329-0.654,0.736-1.47,1.225
			c-0.82,0.49-1.39,0.819-1.715,0.98v-6.37L554.519,137.695z M538.594,168.321L555.5,151.17v6.37l-15.681,15.681
			c-0.818-0.161-1.224-0.651-1.224-1.47c0-0.815,0-1.47,0-1.96V168.321z M539.573,211.442c0-0.655,0.038-1.267,0.123-1.838
			c0.081-0.574,0.447-1.103,1.103-1.592l15.68-15.68c0,0.164,0.038,0.654,0.123,1.47c0.081,0.819,0.123,1.39,0.123,1.716
			c0,0.819,0,1.676,0,2.572c0,0.9-0.409,1.677-1.224,2.328l-13.721,13.966h-0.245c-0.818,0-1.347-0.329-1.592-0.98
			C539.696,212.747,539.573,212.093,539.573,211.442z M555.5,165.135v6.125l-15.681,15.681v-6.126L555.5,165.135z M555.5,179.591
			v6.125l-15.681,16.171v-6.37L555.5,179.591z M556.479,206.787v6.37l-15.68,15.925v-6.37L556.479,206.787z M560.889,216.097h6.37
			l-17.151,17.151h-1.224c-0.82,0-1.513-0.042-2.083-0.123c-0.575-0.084-1.188-0.367-1.837-0.857L560.889,216.097z M561.87,211.197
			c-0.166-2.125-0.329-5.429-0.49-9.923c-0.164-4.491-0.368-9.513-0.613-15.068c-0.245-5.55-0.489-11.393-0.734-17.518
			c-0.245-6.125-0.452-11.963-0.613-17.518c-0.164-5.551-0.329-10.574-0.49-15.068c-0.164-4.49-0.245-7.798-0.245-9.922
			c0-0.49,0-2.531,0-6.126c0-3.59-0.041-7.675-0.123-12.25c-0.084-4.571-0.123-9.146-0.123-13.72c0-4.571,0-8.166,0-10.78
			c0-1.631,0-4.491,0-8.575c0-4.081,0.038-8.411,0.123-12.986c0.081-4.571,0.123-8.901,0.123-12.986c0-4.081,0-6.94,0-8.575
			c0.161-0.651,0.368-2.04,0.613-4.165c0.245-2.121,0.368-3.51,0.368-4.165c0-0.98,0.038-2.653,0.123-5.022
			c0.08-2.366,0.123-4.901,0.123-7.595s-0.043-5.225-0.123-7.595c-0.084-2.366-0.123-4.042-0.123-5.022
			c1.63-0.651,2.939-1.018,3.92-1.103c0.981-0.08,2.205-0.123,3.675-0.123h3.92c1.142,0.165,3.186,0.287,6.127,0.368
			c2.939,0.084,6.002,0.206,9.187,0.367c3.186,0.165,6.206,0.287,9.066,0.368c2.856,0.084,4.858,0.123,6.002,0.123
			c2.121,1.799,4.124,4.042,6.002,6.738c1.876,2.695,3.592,5.554,5.146,8.575c1.551,3.025,3.062,6.045,4.533,9.066
			c1.47,3.024,2.939,5.678,4.41,7.963c0.161,0.49,0.734,1.512,1.715,3.063c0.979,1.554,1.998,3.185,3.063,4.9
			c1.06,1.715,2.04,3.35,2.939,4.9c0.896,1.555,1.508,2.492,1.837,2.818c0.161,0.329,0.529,1.064,1.103,2.205
			c0.57,1.145,1.183,2.411,1.837,3.797c0.651,1.39,1.263,2.657,1.837,3.798c0.57,1.145,1.019,1.799,1.347,1.96l5.146,5.145
			c0.161,0.329,0.49,1.064,0.981,2.205c0.489,1.145,0.895,1.799,1.224,1.96c0.161,0.329,0.57,0.942,1.224,1.837
			c0.651,0.9,1.428,1.88,2.328,2.941c0.896,1.064,1.715,2.044,2.45,2.94c0.736,0.9,1.183,1.431,1.347,1.592
			c0.326,0.329,0.694,0.9,1.103,1.716c0.406,0.819,0.693,1.309,0.858,1.47c0.159,0.329,0.611,1.145,1.347,2.45
			c0.736,1.309,1.551,2.695,2.45,4.165c0.895,1.47,1.672,2.817,2.328,4.042c0.65,1.225,1.14,2.002,1.47,2.328
			c0.161,0.165,0.651,0.777,1.47,1.837c0.815,1.064,1.387,1.758,1.716,2.083c0.815,0.98,1.508,1.555,2.083,1.716
			c0.57,0.165,1.181,0.654,1.837,1.47c0.325,0.329,0.895,1.225,1.715,2.695c0.815,1.47,1.306,2.37,1.47,2.695
			c0.161,0.165,0.815,0.82,1.96,1.961c1.142,1.144,1.876,1.799,2.205,1.96c0.161,0.329,0.57,0.9,1.226,1.715
			c0.65,0.819,1.347,1.677,2.083,2.573c0.734,0.9,1.427,1.799,2.083,2.695c0.65,0.9,1.06,1.432,1.224,1.593
			c0.161,0.164,0.447,0.532,0.858,1.103c0.406,0.574,0.693,0.942,0.857,1.103c0.326-0.651,0.572-2.041,0.736-4.166
			c0.161-2.121,0.325-3.59,0.49-4.409v-2.941c0-6.205-0.288-12.373-0.858-18.498c-0.575-6.126-1.267-12.209-2.083-18.253V10.78
			c0-0.49,0.123-1.225,0.368-2.205s0.693-1.63,1.347-1.96c0.49,0,1.226,0,2.205,0c0.981,0,2.041-0.038,3.186-0.123
			c1.14-0.08,2.205-0.123,3.184-0.123c0.981,0,1.715,0,2.205,0c0.651,0,1.509,0,2.573,0c1.06,0,2.121,0.042,3.186,0.123
			c1.06,0.084,2.04,0.123,2.939,0.123c0.896,0,1.428,0,1.592,0c0.651,0,1.755,0.042,3.308,0.123
			c1.551,0.084,3.266,0.165,5.144,0.245c1.877,0.084,3.592,0.206,5.146,0.367c1.551,0.165,2.653,0.245,3.307,0.245
			c1.142,0.819,2.041,1.799,2.695,2.94c0.651,1.145,1.142,2.412,1.471,3.798c0.325,1.389,0.527,2.779,0.611,4.165
			c0.081,1.389,0.204,2.656,0.368,3.797c0.161,2.45,0.368,6.045,0.613,10.78c0.245,4.74,0.49,9.64,0.734,14.7
			c0.245,5.065,0.449,9.64,0.613,13.72c0.161,4.085,0.245,6.7,0.245,7.841c0,1.96,0.038,4.984,0.123,9.065
			c0.08,4.085,0.123,8.66,0.123,13.721c0,5.065,0,10.455,0,16.17c0,5.72,0,11.11,0,16.171c0,5.065-0.043,9.64-0.123,13.72
			c-0.084,4.085-0.123,7.106-0.123,9.066c0.651,4.575,1.019,8.66,1.103,12.25c0.08,3.595,0.121,7.76,0.121,12.496
			c0,0.819-0.041,1.922-0.121,3.308c-0.084,1.389-0.123,2.737-0.123,4.042c0,1.309-0.043,2.492-0.123,3.552
			c-0.084,1.064-0.123,1.677-0.123,1.838c0,0.819-0.043,2.289-0.123,4.41c-0.084,2.125-0.166,4.371-0.245,6.737
			c-0.084,2.37-0.166,4.575-0.245,6.615c-0.084,2.044-0.123,3.472-0.123,4.288c-0.979,0.161-2.818,0.368-5.512,0.612
			c-2.695,0.245-5.598,0.49-8.698,0.736c-3.105,0.245-6.002,0.447-8.698,0.612c-2.695,0.161-4.533,0.245-5.514,0.245h-6.859h-6.861
			c-1.635-0.49-3.025-1.47-4.165-2.94c-1.145-1.47-2.125-2.856-2.941-4.165c-5.389-8.821-10.78-17.599-16.17-26.339
			c-5.391-8.735-11.191-17.109-17.396-25.113c-0.49-0.49-1.39-1.551-2.695-3.185c-1.309-1.631-2.205-2.695-2.695-3.185
			c-0.328-0.326-0.979-1.06-1.96-2.205c-0.979-1.141-2.044-2.328-3.184-3.553c-1.145-1.225-2.248-2.407-3.308-3.552
			c-1.064-1.141-1.676-1.876-1.837-2.205c-0.329-0.326-0.899-1.141-1.715-2.45c-0.82-1.306-1.676-2.733-2.573-4.288
			c-0.899-1.551-1.799-3.02-2.694-4.41c-0.901-1.386-1.433-2.328-1.594-2.817c-0.164-0.326-0.818-1.348-1.96-3.063
			c-1.145-1.716-1.879-2.734-2.205-3.063c-0.329-0.49-1.022-1.673-2.083-3.553c-1.064-1.876-2.167-3.836-3.307-5.881
			c-1.145-2.04-2.248-4-3.308-5.88c-1.063-1.876-1.676-3.063-1.837-3.553c-0.164-0.161-0.532-0.693-1.102-1.592
			c-0.575-0.896-0.942-1.428-1.103-1.593c0,0.165-0.164,0.697-0.49,1.593c-0.328,0.9-0.489,1.431-0.489,1.592v0.98v1.225
			c0.489,11.271,0.815,22.46,0.979,33.566c0.161,11.109,0.57,22.296,1.226,33.566c0,0.329,0.038,1.103,0.123,2.328
			c0.08,1.225,0.202,2.535,0.366,3.92c0.161,1.39,0.284,2.695,0.368,3.921c0.081,1.224,0.123,2.002,0.123,2.327v27.196
			c0.815,1.634,1.226,3.43,1.226,5.39c0,0.326-0.043,0.528-0.123,0.612c-0.084,0.08-0.123,0.283-0.123,0.613v0.735
			c0,0.161-0.288,0.368-0.858,0.612c-0.575,0.245-0.941,0.448-1.102,0.613c-3.921,0.815-7.638,1.183-11.148,1.103
			c-3.514-0.084-7.313-0.123-11.393-0.123h-15.436c-0.489,0-1.676-0.123-3.552-0.368C563.543,211.565,562.36,211.358,561.87,211.197
			z M580.735,217.567l-15.681,15.68h-6.37l15.681-15.68H580.735z M595.435,217.567c-0.49,0.49-1.39,1.386-2.695,2.695
			c-1.309,1.306-2.694,2.653-4.165,4.043c-1.47,1.385-2.901,2.733-4.288,4.042c-1.39,1.306-2.328,2.205-2.817,2.695
			c-1.31,1.306-2.205,2.04-2.695,2.205c-0.49,0.161-1.635,0.245-3.431,0.245c-0.164,0-0.654-0.042-1.47-0.123
			c-0.818-0.084-1.39-0.123-1.715-0.123l15.925-15.68H595.435z M603.766,216.097c-0.49,0.815-1.39,1.96-2.695,3.43
			c-1.309,1.47-2.778,2.978-4.41,4.533c-1.634,1.55-3.146,2.978-4.531,4.288c-1.39,1.306-2.412,2.205-3.063,2.695
			c-0.654,0.49-0.164-0.165,1.47-1.96c1.632-1.799,3.511-3.759,5.636-5.88c2.121-2.125,4.042-4.005,5.757-5.635
			C603.643,215.932,604.256,215.443,603.766,216.097z M611.117,109.274c0.161,0.329,0.489,0.857,0.979,1.592
			c0.49,0.735,0.896,1.267,1.226,1.593v0.49v0.735c-0.329,0.165-0.9,0.655-1.716,1.47c-0.818,0.819-1.309,1.39-1.47,1.715
			c0-0.325-0.041-0.896-0.123-1.715c-0.084-0.815-0.123-1.306-0.123-1.47c0-0.16-0.041-0.896-0.123-2.205
			C609.684,110.174,610.136,109.438,611.117,109.274z M609.891,125.689c0-0.161,0.081-0.326,0.245-0.49l6.37-6.615
			c1.306,0.819,1.96,1.96,1.96,3.43v0.98l-7.349,7.35c-0.82-0.98-1.226-2.286-1.226-3.921V125.689z M611.117,152.15l16.905-16.66
			c1.47,0.98,2.205,2.044,2.205,3.185c0,0.165-0.043,0.287-0.123,0.368c-0.084,0.084-0.123,0.206-0.123,0.367v0.245l-16.66,16.905
			c-0.82-0.49-1.471-0.938-1.96-1.348c-0.49-0.405-0.736-1.103-0.736-2.083L611.117,152.15z M621.652,127.16h0.49
			c0.815,0,1.304,0.409,1.47,1.225c0.161,0.819,0.245,1.47,0.245,1.96c0,1.309-0.411,2.289-1.226,2.94
			c-0.654,0.819-1.554,1.837-2.694,3.063c-1.145,1.225-2.289,2.412-3.431,3.553c-1.145,1.145-2.614,2.534-4.41,4.165h-0.979v-6.37
			L621.652,127.16z M617.242,159.745l16.906-16.905h0.49h0.489c0.326,0.329,0.817,0.98,1.471,1.96c0.325,0.49,0.57,0.9,0.734,1.225
			l-16.905,16.905h-0.245h-0.734l-2.205-2.205v-0.245V159.745z M640.517,151.17h0.245h0.734c0.161,0.329,0.529,0.697,1.103,1.103
			c0.57,0.41,0.938,0.777,1.102,1.103v0.49v0.49l-16.905,16.905l-3.184-2.94L640.517,151.17z M629.982,175.426l16.905-16.66
			c1.47,0.654,2.205,1.715,2.205,3.185c0,1.145-0.736,2.535-2.205,4.165c-0.49,0.49-1.431,1.39-2.818,2.695
			c-1.39,1.309-2.817,2.695-4.288,4.165c-1.47,1.47-2.859,2.817-4.165,4.042c-1.309,1.225-2.205,2.083-2.695,2.573
			c-0.164-0.326-0.611-0.858-1.347-1.593s-1.267-1.263-1.592-1.592v-0.245V175.426z M636.107,184.001l16.905-17.151
			c0.325,0.329,0.736,0.9,1.224,1.716c0.49,0.819,0.817,1.309,0.981,1.47v0.736v0.49l-16.905,16.661
			c-1.47-0.49-2.205-1.551-2.205-3.185V184.001z M641.496,192.332l16.905-16.906c0.49,0.329,0.981,0.858,1.471,1.593
			s0.734,1.432,0.734,2.083l-0.244,0.49l-16.662,16.905c-1.47-0.816-2.205-2.121-2.205-3.921V192.332z M647.867,200.417
			l15.681-15.68h0.49c0.815,0,1.263,0.409,1.347,1.225c0.081,0.819,0.123,1.554,0.123,2.204v0.981l-15.68,15.68h-0.49
			c-0.654,0-1.065-0.406-1.226-1.225c-0.164-0.815-0.245-1.551-0.245-2.205V200.417z M653.012,208.992l15.681-15.68h0.734
			c0.49,0,1.019,0.409,1.594,1.224c0.57,0.82,0.857,1.47,0.857,1.961c0,0.165-0.084,0.49-0.245,0.98
			c-0.164,0.49-0.409,0.9-0.734,1.225l-13.721,13.475c-0.164,0.161-0.409,0.326-0.736,0.49c-0.654,0.326-1.064,0.49-1.224,0.49
			l-0.49,0.245c-0.818,0-1.309-0.452-1.47-1.348c-0.165-0.9-0.245-1.592-0.245-2.083V208.992z M658.158,218.793
			c0-0.165,0.08-0.329,0.244-0.49l16.662-16.415l2.205,3.92l-16.905,16.905h-0.49c-0.82,0-1.31-0.41-1.471-1.225
			c-0.164-0.819-0.244-1.554-0.244-2.205V218.793z M677.269,17.885c0,0.98,0,1.922,0,2.818c0,0.9-0.411,1.757-1.226,2.572
			l-12.495,12.495l-1.96,1.47c0-0.326-0.041-0.815-0.123-1.47c-0.084-0.651-0.123-1.14-0.123-1.47c0-0.815,0.038-1.593,0.123-2.328
			c0.081-0.735,0.447-1.509,1.103-2.328l14.7-14.7V17.885z M661.343,87.958c0-0.326,0.081-0.571,0.245-0.736l15.681-15.68v3.185
			c0,0.98,0,1.922,0,2.817c0,0.9-0.411,1.758-1.226,2.573l-12.495,12.495h-0.49c-0.818,0-1.309-0.405-1.47-1.225
			c-0.164-0.815-0.245-1.55-0.245-2.205V87.958z M677.269,29.646v6.125l-15.681,15.681v-6.125L677.269,29.646z M677.269,43.366v6.37
			l-15.681,15.681v-6.37L677.269,43.366z M677.269,57.822v6.615l-15.681,15.68v-6.37L677.269,57.822z M663.548,226.878
			l16.905-16.905c0.325,0.161,0.736,0.406,1.226,0.735c0.979,0.651,1.549,1.141,1.715,1.47v0.49v0.49l-16.905,16.905
			c-0.165-0.165-0.411-0.329-0.736-0.49l-0.979-0.49c-0.329-0.165-0.575-0.368-0.736-0.612c-0.165-0.245-0.329-0.452-0.49-0.613
			v-0.49V226.878z M665.508,98.003l12.74-12.986c0.651,0.655,1.019,1.309,1.103,1.96c0.08,0.655,0.123,1.39,0.123,2.205v1.225
			l-11.761,11.515c-0.329-0.16-0.697-0.612-1.102-1.347c-0.411-0.736-0.777-1.263-1.103-1.593v-0.735V98.003z M672.859,104.128
			l6.615-6.125h0.979v4.9l-6.37,6.371c-0.164-0.326-0.368-1.019-0.613-2.083c-0.244-1.06-0.451-1.753-0.611-2.083v-0.49V104.128z
			 M690.743,214.382h6.125l-15.68,15.68l-5.146,0.98l-0.979-0.98L690.743,214.382z M679.229,112.949c0-0.161,0.08-0.326,0.245-0.49
			c0-0.326,0.244-0.736,0.734-1.225c0.49-0.49,0.815-0.736,0.981-0.736v6.37c-0.329-0.49-0.736-1.103-1.226-1.837
			C679.474,114.297,679.229,113.603,679.229,112.949z M711.814,213.157v1.225l-13.474,13.475c-0.82,0.815-1.676,1.225-2.573,1.225
			c-0.9,0-1.837,0-2.818,0h-3.184l15.68-15.925H711.814z M725.535,212.177l-15.926,15.68h-4.165l15.681-15.68H725.535z"/>
	</g>
</g>
<g id="Layer_3">
	<g>
		<path fill="#27AAE1" d="M66.706,130.764c-1.679,1.368-3.016,2.457-4.352,3.546c0.093,0.152,0.187,0.304,0.28,0.456
			c2.05-1.127,4.093-2.267,6.156-3.37c0.549-0.294,1.142-0.583,1.746-0.684c3.225-0.543,6.461-1.026,9.693-1.53
			c-0.009-0.196-0.019-0.393-0.028-0.589c-0.368-0.039-0.737-0.111-1.105-0.111c-19.271,0.013-38.543,0.026-57.814,0.054
			c-4.511,0.006-4.678-0.084-4.806-4.572c-0.276-9.712-0.506-19.426-0.739-29.139c-0.065-2.732,1.655-4.224,4.442-4.09
			c4.22,0.203,8.444,0.331,12.668,0.44c2.277,0.059,4.556,0.01,7.02,0.01c-0.261-0.431-0.455-0.753-0.873-1.444
			c3.54-3.238,7.137-6.53,10.826-9.904c0.792,0.719,1.908,1.732,3.299,2.994c-2.864,2.612-5.651,5.152-8.437,7.693
			c0.161,0.194,0.322,0.389,0.482,0.583c2.544,0.188,5.101,0.742,7-1.959c1.01-1.437,2.445-2.575,3.715-3.874
			c1.337,0.98,2.556,1.874,3.899,2.859c-0.92,0.987-1.785,1.916-2.752,2.954c2.048,0.626,3.602,0.18,4.867-1.64
			c2.216,1.874,4.731,2.347,7.845,1.841c-0.765-0.456-1.279-0.769-1.799-1.071c-10.689-6.199-20.664-13.39-28.294-23.19
			C27.558,51.501,18.991,34.199,15.515,14.68c-0.636-3.569-0.264-7.343-0.125-11.013c0.082-2.173,1.249-3.059,3.41-3.078
			c10.639-0.095,21.279-0.17,31.918-0.251c0.108-0.001,0.217,0.007,0.325,0.012c3.349,0.148,3.387,0.221,3.566,3.56
			c0.953,17.707,8.081,32.396,21.548,43.973c0.435,0.374,0.897,0.717,1.598,1.093c-0.713-2.633,1.19-3.706,2.634-5.022
			c1.989-1.812,4.005-3.595,6.316-5.664c0,2.273,0.056,4.148-0.041,6.015c-0.023,0.44-0.497,0.919-0.868,1.267
			c-1.854,1.741-3.743,3.445-5.78,5.309c0.98,0.696,1.832,1.301,2.779,1.974c1.229-1.341,2.393-2.611,3.948-4.308
			c0,1.861,0.132,3.284-0.032,4.671c-0.228,1.924,0.599,2.935,2.629,3.435c0-0.66-0.001-1.275,0-1.89
			c0.016-15.689,0.032-31.377,0.049-47.066c0-0.38-0.004-0.76,0.002-1.14c0.065-3.813,0.759-4.575,4.529-4.693
			c9.765-0.306,19.531-0.579,29.298-0.848c1.893-0.052,2.842,0.988,2.873,3.122c0.117,7.925,0.213,15.849,0.326,23.774
			c0.121,8.522,0.25,17.043,0.379,25.564c0.004,0.265,0.041,0.53,0.082,1.026c0.778-0.318,1.507-0.511,2.126-0.884
			c8.729-5.268,16.947-11.176,23.377-19.23c4.624-5.793,6.326-12.757,7.564-19.838c0.493-2.818,0.5-5.72,0.745-8.582
			c0.064-0.754,0.128-1.518,0.3-2.252c0.485-2.068,1.27-2.688,3.444-2.651c5.644,0.097,11.288,0.231,16.932,0.35
			c4.396,0.093,8.792,0.186,13.187,0.276c0.379,0.008,0.766,0.04,1.138-0.015c2.676-0.395,3.61,0.246,3.729,3.021
			c0.109,2.542,0.198,5.138-0.184,7.637c-1.635,10.699-4.468,21.088-8.737,31.048c-3.976,9.276-10.413,16.84-17.116,24.202
			c-10.459,11.486-23.371,19.034-38.07,23.716c-0.297,0.095-0.579,0.237-1.22,0.503c0.804,0.062,1.247,0.122,1.691,0.127
			c20.573,0.191,41.146,0.378,61.719,0.563c2.631,0.024,3.5,0.911,3.423,3.547c-0.287,9.82-0.577,19.64-0.868,29.46
			c-0.063,2.116-0.957,2.88-3.417,2.883c-17.86,0.017-35.72,0.027-53.58,0.04c-0.573,0-1.146,0-1.875,0
			c2.627,2.401,5.707,2.038,9.032,1.991c-0.589,0.699-0.977,1.158-1.428,1.694c1.105,1.02,2.128,1.487,3.311,0.049
			c1.183-1.439,2.72-1.993,4.617-1.798c1.434,0.148,2.896,0.029,4.863,0.029c-2.377,2.042-4.395,3.776-6.553,5.63
			c0.643,0.456,1.188,0.841,1.86,1.317c1.933-1.951,3.832-3.805,5.651-5.733c0.842-0.892,1.724-1.358,2.99-1.273
			c1.55,0.104,3.111,0.025,5.058,0.025c-3.421,3.316-6.577,6.375-9.426,9.136c3.455,3.662,6.806,6.847,9.729,10.385
			c7.824,9.472,14.79,19.541,20.329,30.549c3.197,6.353,4.533,13.198,5.189,20.181c0.517,5.505,0.686,11.041,1.069,16.559
			c0.105,1.514-0.537,2.016-1.952,2.006c-8.14-0.058-16.279-0.086-24.419-0.118c-2.856-0.011-5.713-0.002-8.579-0.002
			c-0.318-3.166-0.561-6.068-0.91-8.958c-0.913-7.55-3.028-14.754-6.575-21.487c-3.391-6.439-8.484-11.379-14.419-15.436
			c-3.126-2.137-6.465-3.973-9.771-5.832c-1.198-0.674-2.581-1.02-4.015-1.567c0,3.138,0,5.987,0,9.198
			c1.797-1.883,3.381-3.543,5.048-5.289c1.354,0.906,2.648,1.771,4.041,2.703c-2.476,2.664-4.723,5.321-7.233,7.699
			c-1.784,1.69-2.264,3.543-1.799,5.983c3.668-4.082,7.268-8.089,10.979-12.22c1.33,1.009,2.555,1.938,3.846,2.917
			c-4.119,4.638-8.144,9.171-12.225,13.766c-0.81-0.461-1.637-0.933-2.736-1.559c0,0.821,0,1.386,0,1.951
			c-0.001,8.36,0.001,16.72-0.004,25.08c-0.002,2.812-0.774,3.574-3.574,3.541c-9.879-0.118-19.758-0.24-29.637-0.361
			c-0.38-0.005-0.762,0.004-1.139-0.032c-2.258-0.213-3.16-1.181-3.159-3.474c0.004-11.237,0.024-22.474,0.034-33.711
			c0.005-5.152,0.001-10.305,0.001-15.538c-1.635,0.056-2.55,0.637-2.253,2.358c0.459,2.664-0.459,4.596-2.708,6.197
			c-2.001,1.424-3.7,3.271-5.778,5.154c0-2.237-0.054-4.167,0.041-6.09c0.022-0.443,0.494-0.929,0.868-1.278
			c1.385-1.29,2.816-2.53,4.324-3.873c-5.234,0.461-15.803,10.237-23.038,20.731c-6.239,9.05-8.011,19.218-8.161,29.989
			c-0.613,0.039-1.14,0.1-1.667,0.103c-10.205,0.06-20.41,0.119-30.615,0.155c-0.804,0.003-1.626-0.093-2.41-0.274
			c-1.346-0.31-2.139-1.139-2.283-2.594c-0.557-5.625,0.028-11.151,1.396-16.607c3.993-15.925,9.977-30.967,20.24-43.976
			c3.349-4.245,7.238-8.063,10.884-12.073c0.244-0.268,0.525-0.503,0.987-0.943c-1.091-0.048-1.924-0.084-3.074-0.135
			c0.558-0.728,0.924-1.369,1.438-1.851c3.563-3.339,7.15-6.651,10.75-9.949c0.344-0.315,0.829-0.657,1.258-0.669
			C61.731,130.729,63.987,130.764,66.706,130.764z"/>
		<path fill="#27AAE1" d="M156.559,17.874c-1.309,3.877-1.955,7.987-5.476,10.903c-3.082,2.552-5.826,5.51-8.767,8.238
			c-0.524,0.486-1.249,0.932-1.934,1.033c-1.541,0.227-2.046-0.694-1.509-2.138c1.225-3.298,3.36-5.844,5.999-8.114
			c3.41-2.933,6.667-6.044,9.995-9.072c0.429-0.391,0.892-0.746,1.339-1.117C156.324,17.696,156.442,17.785,156.559,17.874z"/>
		<path fill="#27AAE1" d="M143.325,25.901c0.485-2.766,0.917-5.254,1.369-7.738c0.035-0.194,0.193-0.391,0.344-0.535
			c4.352-4.137,8.71-8.268,13.248-12.3c-0.493,3.351,0.194,6.832-3.113,9.491c-3.662,2.944-6.822,6.512-10.215,9.794
			C144.513,25.044,143.982,25.387,143.325,25.901z"/>
		<path fill="#27AAE1" d="M31.689,161.823c-0.421,0.66-0.838,1.323-1.263,1.98c-0.264,0.409-0.575,0.792-0.805,1.219
			c-3.154,5.828-7.734,10.332-13.021,14.219c-1.856,1.364-3.544,2.957-5.537,4.25c2.425-4.483,4.138-9.413,8.237-12.72
			c3.944-3.183,8.052-6.164,12.088-9.233C31.489,161.633,31.589,161.728,31.689,161.823z"/>
		<path fill="#27AAE1" d="M25.556,143.653c0.739-1.081,1.12-1.92,1.742-2.501c3.492-3.258,7.036-6.46,10.581-9.661
			c0.306-0.276,0.735-0.576,1.114-0.586c2.15-0.056,4.302-0.027,6.832-0.027c-0.66,0.625-1.059,1.022-1.479,1.396
			c-3.686,3.287-7.425,6.518-11.037,9.885c-1.159,1.08-2.293,1.669-3.876,1.515C28.362,143.568,27.273,143.653,25.556,143.653z"/>
		<path fill="#27AAE1" d="M34.45,130.88c-2.536,2.295-4.751,4.263-6.924,6.275c-2.069,1.917-4.095,3.881-6.14,5.825
			c-0.725,0.689-3.963,1.343-4.736,0.814c-0.352-0.241-0.68-0.974-0.565-1.342c0.246-0.79,0.647-1.629,1.229-2.199
			c2.984-2.922,6.033-5.779,9.097-8.617c0.402-0.373,1.015-0.699,1.544-0.722C29.955,130.829,31.96,130.88,34.45,130.88z"/>
		<path fill="#27AAE1" d="M37.234,142.955c0.593-0.97,1.02-2.112,1.81-2.879c2.998-2.907,6.108-5.7,9.195-8.514
			c0.346-0.316,0.81-0.69,1.231-0.704c2.145-0.071,4.294-0.033,6.82-0.033c-1.524,1.375-2.763,2.482-3.991,3.601
			c-2.486,2.266-5.165,4.361-7.391,6.859C42.807,143.644,40.358,143.549,37.234,142.955z"/>
		<path fill="#27AAE1" d="M132.123,192.409c4.217-4.442,8.346-8.793,12.707-13.388c1.184,1.409,2.153,2.562,2.944,3.504
			c-3.9,4.106-7.95,8.369-12.055,12.691C134.359,194.155,133.175,193.231,132.123,192.409z"/>
		<path fill="#27AAE1" d="M0.902,219.705c0.667-3.231,0.063-6.75,3.358-9.271c3.344-2.559,6.343-5.569,9.499-8.375
			c0.225-0.2,0.499-0.346,0.848-0.583c-0.239,2.074-0.378,4.018-0.725,5.924c-0.13,0.718-0.616,1.475-1.151,1.998
			c-3.288,3.215-6.629,6.375-9.973,9.531c-0.439,0.414-1.002,0.697-1.507,1.041C1.134,219.882,1.018,219.794,0.902,219.705z"/>
		<path fill="#27AAE1" d="M13.101,212.122c0,2.341,0.04,4.273-0.032,6.2c-0.015,0.41-0.367,0.88-0.688,1.194
			c-3.136,3.072-6.256,6.164-9.496,9.125c-0.542,0.495-1.633,0.46-2.474,0.477c-0.123,0.002-0.342-1.068-0.39-1.653
			c-0.166-2.036,0.671-3.54,2.207-4.933C5.836,219.259,9.279,215.804,13.101,212.122z"/>
		<path fill="#27AAE1" d="M1.964,24.219c-0.172-0.362-0.221-0.452-0.259-0.546c-1.468-3.693-0.523-6.536,2.482-9.216
			c2.919-2.603,5.338-5.767,8.179-8.908c0.247,2.151,0.484,4.005,0.653,5.865c0.03,0.329-0.136,0.764-0.362,1.015
			C9.151,16.324,5.62,20.197,1.964,24.219z"/>
		<path fill="#27AAE1" d="M141.176,200.827c-0.825-0.907-1.832-2.014-3.019-3.32c4.035-4.045,8.051-8.072,12.247-12.279
			c1.008,1.54,1.853,2.832,2.558,3.909C148.976,193.091,145.112,196.923,141.176,200.827z"/>
		<path fill="#27AAE1" d="M23.747,131.065c-4.414,3.913-8.659,7.698-12.933,11.451c-1.129,0.992-2.429,0.949-3.367,0.016
			c-0.896-0.891-1.038-2.394,0.001-3.37c3.039-2.855,6.191-5.589,9.307-8.361c0.15-0.133,0.394-0.248,0.585-0.234
			C19.419,130.713,21.495,130.886,23.747,131.065z"/>
		<path fill="#27AAE1" d="M3.061,207.018c0.568-2.244,1.113-4.494,1.722-6.726c0.121-0.443,0.403-0.915,0.749-1.214
			c3.81-3.296,7.647-6.561,11.482-9.829c0.117-0.1,0.287-0.138,0.532-0.251c-0.648,2.53-1.265,4.982-1.918,7.425
			c-0.078,0.292-0.302,0.587-0.537,0.79c-3.887,3.352-7.786,6.689-11.682,10.029C3.293,207.168,3.177,207.093,3.061,207.018z"/>
		<path fill="#27AAE1" d="M175.408,140.887c2.067-1.709,3.93-3.253,5.798-4.792c1.256-1.035,2.718-1.897,3.74-3.125
			c2.748-3.302,6.333-2.85,10.308-2.59c-1.176,1.094-2.111,2.032-3.117,2.886c-2.605,2.212-5.199,4.443-7.893,6.542
			c-0.747,0.582-1.813,0.952-2.765,1.032C179.596,140.999,177.69,140.887,175.408,140.887z"/>
		<path fill="#27AAE1" d="M13.425,14.69c0.392,2.132,0.716,3.765,0.976,5.409c0.053,0.334-0.021,0.805-0.229,1.045
			c-3.366,3.884-6.763,7.74-10.353,11.831c-0.426-1.867-0.866-3.661-1.22-5.473c-0.059-0.3,0.185-0.739,0.416-1.003
			C6.369,22.669,9.745,18.857,13.425,14.69z"/>
		<path fill="#27AAE1" d="M21.911,177.648c-1.194,3.017-2.196,5.574-3.225,8.119c-0.137,0.338-0.352,0.694-0.63,0.917
			c-3.92,3.138-7.858,6.255-12.143,9.657c0.703-2.094,1.379-3.851,1.877-5.657c0.588-2.133,1.79-3.686,3.59-4.985
			C14.842,183.2,18.174,180.522,21.911,177.648z"/>
		<path fill="#27AAE1" d="M15.463,24.508c0.483,1.58,0.987,2.993,1.318,4.445c0.108,0.474-0.09,1.163-0.396,1.563
			c-2.498,3.265-5.025,6.508-7.623,9.693c-0.429,0.526-1.22,0.901-1.896,1.004c-0.243,0.037-0.66-0.924-0.96-1.451
			c-1.091-1.914-0.617-3.531,0.788-5.132c2.715-3.092,5.321-6.28,7.981-9.421C14.871,24.977,15.132,24.799,15.463,24.508z"/>
		<path fill="#27AAE1" d="M21.052,40.756c0.737,1.682,1.379,2.991,1.866,4.355c0.141,0.394-0.018,1.058-0.286,1.41
			C19.975,50,17.275,53.447,14.557,56.88c-0.35,0.442-0.873,0.749-1.52,1.289c-0.652-1.51-1.272-2.81-1.757-4.159
			c-0.132-0.367,0.007-0.99,0.258-1.31C14.609,48.792,17.724,44.918,21.052,40.756z"/>
		<path fill="#27AAE1" d="M18.077,32.784c0.619,1.658,1.187,3.048,1.636,4.476c0.12,0.381,0.024,1.004-0.227,1.302
			c-3.206,3.805-6.458,7.571-9.829,11.499c-0.611-1.594-1.213-3.078-1.732-4.591c-0.101-0.296,0.001-0.799,0.206-1.041
			C11.382,40.585,14.664,36.769,18.077,32.784z"/>
		<path fill="#27AAE1" d="M16.264,64.795c-0.656-1.286-1.284-2.364-1.747-3.508c-0.161-0.397-0.09-1.114,0.177-1.424
			c3.214-3.728,6.486-7.408,9.878-11.254c0.803,1.426,1.558,2.703,2.229,4.022c0.12,0.236,0,0.744-0.194,0.966
			c-3.102,3.549-6.229,7.075-9.367,10.592C17.04,64.414,16.71,64.524,16.264,64.795z"/>
		<path fill="#27AAE1" d="M164.007,140.694c3.642-3.308,7.28-6.621,10.937-9.912c0.26-0.234,0.664-0.429,1.004-0.435
			c2.088-0.04,4.178-0.02,6.708-0.02c-0.762,0.71-1.209,1.139-1.669,1.553c-3.104,2.788-6.189,5.598-9.337,8.335
			c-0.517,0.45-1.301,0.775-1.983,0.817c-1.819,0.112-3.649,0.038-5.474,0.038C164.13,140.945,164.068,140.82,164.007,140.694z"/>
		<path fill="#27AAE1" d="M145.174,206.521c-0.774-1.147-1.57-2.228-2.236-3.384c-0.164-0.285-0.06-0.976,0.182-1.206
			c3.643-3.454,7.329-6.862,11.194-10.457c0.696,1.484,1.322,2.723,1.844,4.005c0.121,0.299,0.021,0.886-0.205,1.098
			C152.403,199.896,148.817,203.174,145.174,206.521z"/>
		<path fill="#27AAE1" d="M26.147,77.735c-0.966-1.123-1.982-2.304-3.216-3.738c3.45-3.872,6.857-7.696,10.405-11.678
			c1.147,1.372,2.133,2.551,3.114,3.724C32.993,69.965,29.607,73.809,26.147,77.735z"/>
		<path fill="#27AAE1" d="M31.643,83.212c-1.147-1.026-2.236-2-3.293-2.945c3.666-3.67,7.207-7.214,10.867-10.877
			c0.984,1.032,2.053,2.152,2.996,3.141C38.606,76.176,35.104,79.715,31.643,83.212z"/>
		<path fill="#27AAE1" d="M28.644,55.639c1.083,1.618,1.92,2.869,2.837,4.238c-1.293,1.424-2.576,2.804-3.822,4.217
			c-1.575,1.786-3.103,3.613-4.683,5.394c-0.827,0.933-1.853,1.402-3.012,0.632c-1.328-0.883-1.736-2.351-0.785-3.493
			C22.214,62.98,25.364,59.43,28.644,55.639z"/>
		<path fill="#27AAE1" d="M33.943,85.768c3.593-3.717,7.055-7.297,10.707-11.076c1.039,1.256,2.003,2.421,2.912,3.52
			c-3.233,3.327-6.69,6.885-10.262,10.561C36.115,87.712,34.997,86.712,33.943,85.768z"/>
		<path fill="#27AAE1" d="M15.102,123.642c0.296,2.022,0.566,3.608,0.733,5.206c0.035,0.338-0.215,0.812-0.484,1.059
			c-3.623,3.319-7.273,6.608-11.034,10.012c0-2.144-0.008-4.258,0.015-6.371c0.002-0.179,0.184-0.391,0.336-0.528
			C8.073,129.95,11.485,126.89,15.102,123.642z"/>
		<path fill="#27AAE1" d="M157.534,198.755c0.489,1.738,0.942,3.12,1.237,4.535c0.087,0.416-0.139,1.067-0.453,1.371
			c-3.16,3.049-6.369,6.048-9.721,9.21c-0.638-1.446-1.297-2.828-1.834-4.256c-0.101-0.268,0.196-0.816,0.464-1.073
			C150.551,205.352,153.903,202.193,157.534,198.755z"/>
		<path fill="#27AAE1" d="M14.54,115.066c1.095,4.136,0.29,7.125-3.218,9.473c-2.474,1.656-4.516,3.957-6.912,6.114
			c0-2.15-0.022-4.024,0.02-5.896c0.008-0.342,0.189-0.774,0.439-1.002C8.025,120.888,11.208,118.051,14.54,115.066z"/>
		<path fill="#27AAE1" d="M150.688,221.707c-0.19-0.82-0.225-1.505-0.502-2.072c-1.232-2.522-0.338-4.262,1.696-5.943
			c2.571-2.126,4.92-4.521,7.675-7.091c0.209,2.076,0.406,3.762,0.527,5.453c0.024,0.329-0.157,0.773-0.397,1.006
			C156.749,215.916,153.782,218.743,150.688,221.707z"/>
		<path fill="#27AAE1" d="M4.612,120.491c0-2.232-0.012-4.154,0.015-6.076c0.003-0.24,0.146-0.544,0.326-0.705
			c2.92-2.626,5.857-5.235,9.048-8.077c0.149,2.069,0.288,3.77,0.379,5.475c0.016,0.292-0.082,0.696-0.282,0.878
			C11.027,114.768,7.931,117.524,4.612,120.491z"/>
		<path fill="#27AAE1" d="M77.36,21.236c0-2.145-0.035-3.863,0.024-5.578c0.015-0.447,0.198-1.021,0.512-1.306
			c2.764-2.498,5.575-4.944,8.726-7.716c0,2.256,0.026,4.119-0.025,5.979c-0.009,0.322-0.282,0.708-0.543,0.941
			C83.272,16.04,80.467,18.498,77.36,21.236z"/>
		<path fill="#27AAE1" d="M77.379,30.993c0-1.819-0.033-3.551,0.022-5.28c0.014-0.447,0.177-1.022,0.486-1.305
			c2.783-2.553,5.613-5.054,8.789-7.892c0,2.283,0.023,4.098-0.021,5.911c-0.008,0.331-0.208,0.743-0.455,0.971
			c-2.708,2.506-5.441,4.984-8.176,7.46C77.931,30.942,77.743,30.921,77.379,30.993z"/>
		<path fill="#27AAE1" d="M77.572,42.484c0-1.776-0.022-3.552,0.019-5.326c0.008-0.338,0.175-0.763,0.416-0.992
			c2.786-2.639,5.602-5.249,8.685-8.123c0,2.272,0.017,4.241-0.019,6.209c-0.005,0.282-0.198,0.628-0.412,0.828
			c-2.731,2.544-5.482,5.067-8.228,7.596C77.879,42.611,77.726,42.548,77.572,42.484z"/>
		<path fill="#27AAE1" d="M89.963,222.012c-2.635,2.418-5.19,4.935-7.959,7.19c-0.774,0.63-2.179,0.485-3.389,0.713
			c-0.317-2.374-0.327-4.18,1.538-5.711c2.421-1.988,4.616-4.251,6.702-6.203c0.632,0.984,1.462,2.278,2.293,3.572
			C89.419,221.72,89.691,221.866,89.963,222.012z"/>
		<path fill="#27AAE1" d="M156.021,229.679c2.579-2.586,4.939-5.037,7.394-7.387c2.068-1.978,4.612-0.733,7.295-1.014
			c-0.43,0.586-0.628,0.928-0.894,1.206c-1.347,1.409-2.927,2.65-4.025,4.229C163.357,230.216,159.986,230.26,156.021,229.679z"/>
		<path fill="#27AAE1" d="M78.493,221.777c0-2.583-0.014-4.839,0.017-7.095c0.004-0.292,0.163-0.652,0.371-0.859
			c2.599-2.59,5.22-5.158,8.177-8.068c0,2.396,0.051,4.32-0.037,6.238c-0.021,0.456-0.44,0.958-0.794,1.324
			c-1.89,1.947-3.844,3.832-5.72,5.792C79.84,219.805,79.332,220.652,78.493,221.777z"/>
		<path fill="#27AAE1" d="M167.303,229.909c2.569-2.735,5.102-5.447,7.664-8.132c0.191-0.2,0.583-0.285,0.883-0.289
			c1.88-0.026,3.76-0.013,6.098-0.013c-0.599,0.705-0.861,1.066-1.176,1.373c-2.047,2.006-4.054,4.059-6.192,5.964
			c-0.651,0.58-1.651,0.959-2.531,1.05C170.45,230.027,168.821,229.909,167.303,229.909z"/>
		<path fill="#27AAE1" d="M78.503,199.47c0-1.883-0.026-3.768,0.021-5.65c0.01-0.39,0.192-0.861,0.454-1.147
			c2.446-2.661,4.927-5.291,7.397-7.929c0.216,0.133,0.433,0.266,0.649,0.399c0,2.016,0.018,4.032-0.021,6.048
			c-0.005,0.275-0.255,0.588-0.468,0.811c-2.491,2.615-4.996,5.215-7.498,7.82C78.86,199.705,78.682,199.587,78.503,199.47z"/>
		<path fill="#27AAE1" d="M78.533,189.337c0-2.354-0.017-4.334,0.019-6.313c0.005-0.282,0.211-0.621,0.425-0.829
			c2.564-2.486,5.148-4.952,8.029-7.714c0,2.362,0.007,4.381-0.012,6.399c-0.002,0.191-0.131,0.424-0.274,0.563
			C84.089,183.994,81.447,186.532,78.533,189.337z"/>
		<path fill="#27AAE1" d="M159.344,216.377c0.424,2.196,0.748,3.87,1.155,5.976c-1.629,1.66-3.666,3.811-5.796,5.865
			c-0.698,0.672-1.64,1.091-2.471,1.626c-0.243-0.939-0.438-1.894-0.739-2.813c-0.563-1.719,0.295-2.774,1.459-3.908
			C155.126,221.004,157.14,218.723,159.344,216.377z"/>
		<path fill="#27AAE1" d="M4.883,109.276c0-2.148-0.017-4.123,0.019-6.097c0.005-0.284,0.199-0.635,0.417-0.832
			c2.55-2.31,5.121-4.597,7.966-7.14c0.156,2.117,0.297,3.863,0.397,5.611c0.013,0.234-0.121,0.55-0.295,0.711
			C10.582,104.105,7.759,106.662,4.883,109.276z"/>
		<path fill="#27AAE1" d="M78.492,210.089c0-2.299-0.025-4.086,0.019-5.871c0.01-0.395,0.154-0.897,0.422-1.158
			c2.589-2.514,5.219-4.986,8.107-7.727c0,2.326,0.011,4.305-0.015,6.282c-0.003,0.24-0.147,0.538-0.324,0.707
			C84.088,204.814,81.458,207.289,78.492,210.089z"/>
		<path fill="#27AAE1" d="M178.108,229.839c1.777-1.874,3.427-3.355,4.76-5.081c1.951-2.524,4.342-3.523,7.459-2.95
			c0.617,0.113,1.273,0.016,2.44,0.016c-0.917,0.922-1.493,1.511-2.08,2.09c-1.119,1.103-2.463,2.052-3.323,3.328
			C185.078,230.637,181.79,229.956,178.108,229.839z"/>
		<path fill="#27AAE1" d="M97.317,229.316c2.396-2.53,4.777-5.074,7.208-7.569c0.251-0.258,0.792-0.313,1.201-0.321
			c1.759-0.034,3.519-0.014,5.754-0.014c-2.078,2.165-4.116,3.829-5.566,5.904c-2.277,3.259-5.359,2.353-8.32,2.401
			C97.502,229.583,97.41,229.449,97.317,229.316z"/>
		<path fill="#27AAE1" d="M109.724,229.325c2.13-2.511,4.22-4.999,6.35-7.452c0.256-0.295,0.726-0.555,1.105-0.567
			c1.824-0.058,3.65-0.026,5.86-0.026c-1.484,1.675-2.753,3.108-4.021,4.542c-0.323,0.366-0.734,0.688-0.95,1.11
			c-1.753,3.422-4.843,3.021-7.874,2.791C110.078,229.714,109.973,229.542,109.724,229.325z"/>
		<path fill="#27AAE1" d="M87.255,229.327c2.276-2.504,4.545-5.015,6.842-7.5c0.19-0.206,0.569-0.328,0.863-0.333
			c1.823-0.03,3.647-0.015,5.938-0.015c-2.618,2.86-4.938,5.456-7.352,7.962c-0.322,0.335-1.112,0.282-1.689,0.297
			c-1.455,0.038-2.911,0.013-4.367,0.013C87.412,229.609,87.334,229.468,87.255,229.327z"/>
		<path fill="#27AAE1" d="M132.642,49.461c3.504-7.435,10.105-11.177,16.14-15.504C144.849,40.453,140.183,46.193,132.642,49.461z"
			/>
		<path fill="#27AAE1" d="M5.388,229.602c2.844-2.856,5.575-5.598,8.178-8.212c1.545,0.476,3.14,0.968,4.946,1.524
			c-0.938,0.953-2.118,1.889-2.964,3.065c-2.289,3.18-5.319,4.292-9.098,3.678C6.138,229.606,5.815,229.622,5.388,229.602z"/>
		<path fill="#27AAE1" d="M28.498,223.023c-2.105,2.143-4.184,4.314-6.346,6.399c-0.308,0.297-1.018,0.231-1.544,0.24
			c-1.66,0.027-3.321,0.01-5.499,0.01c2.504-2.491,4.649-4.665,6.856-6.773c0.292-0.279,0.903-0.3,1.368-0.31
			c1.66-0.035,3.321-0.014,4.982-0.014C28.377,222.724,28.438,222.874,28.498,223.023z"/>
		<path fill="#27AAE1" d="M37.119,229.609c2.175-2.226,4.229-4.352,6.322-6.439c0.232-0.232,0.68-0.338,1.031-0.345
			c1.885-0.033,3.771-0.016,6.026-0.016c-1.513,1.55-2.964,2.699-3.984,4.151C44.063,230.449,40.611,229.734,37.119,229.609z"/>
		<path fill="#27AAE1" d="M38.924,223.106c-2.096,2.086-4.184,4.18-6.299,6.245c-0.204,0.199-0.579,0.309-0.877,0.313
			c-1.929,0.027-3.859,0.014-5.99,0.014c2.294-2.366,4.382-4.587,6.569-6.706c0.335-0.325,1.126-0.23,1.708-0.241
			c1.565-0.029,3.131-0.01,4.697-0.01C38.796,222.85,38.86,222.978,38.924,223.106z"/>
	</g>
	<g>
	</g>
	<g>
	</g>
	<g>
	</g>
	<g>
	</g>
	<g>
	</g>
	<g>
	</g>
</g>
</svg>
