<?xml version="1.0" encoding="utf-8"?>
<!-- Generator: Adobe Illustrator 17.0.0, SVG Export Plug-In . SVG Version: 6.00 Build 0)  -->
<!DOCTYPE svg PUBLIC "-//W3C//DTD SVG 1.1//EN" "http://www.w3.org/Graphics/SVG/1.1/DTD/svg11.dtd">
<svg version="1.1" xmlns="http://www.w3.org/2000/svg" xmlns:xlink="http://www.w3.org/1999/xlink" x="0px" y="0px"
	 width="553.133px" height="230.551px" viewBox="0 0 553.133 230.551" enable-background="new 0 0 553.133 230.551"
	 xml:space="preserve">
<g id="Layer_1" display="none">
	<rect x="-24.752" y="-61.61" display="inline" fill="#2571B5" stroke="#000000" stroke-miterlimit="10" width="800" height="600"/>
</g>
<g id="Layer_2">
	<g>
		<path fill="#414042" d="M220.84,8.744c0.625,0.937,0.937,1.823,0.937,2.654v0.625l-10.93,10.773v-3.903L220.84,8.744z
			 M222.244,16.863v4.06l-9.993,9.993h-0.781V27.48L222.244,16.863z M222.244,25.451c0.52,0.104,0.781,0.39,0.781,0.858
			c0,0.469,0,0.859,0,1.171c0,0.522-0.027,0.963-0.078,1.327c-0.053,0.366-0.288,0.756-0.703,1.171
			c-0.312,0.312-0.834,0.886-1.561,1.717c-0.729,0.834-1.51,1.667-2.342,2.499c-0.834,0.834-1.639,1.639-2.42,2.42
			s-1.327,1.327-1.64,1.64c-0.209,0.105-0.546,0.339-1.015,0.703c-0.469,0.366-0.808,0.546-1.015,0.546v-4.06L222.244,25.451z
			 M222.869,34.038v4.216l-9.993,9.993v-4.06L222.869,34.038z M212.876,52.774l9.993-9.993h0.78v3.435l-10.149,9.993
			c-0.312-0.415-0.495-0.805-0.546-1.171c-0.054-0.363-0.078-0.805-0.078-1.327V52.774z M224.274,50.901v3.903l-9.993,9.993v-3.904
			L224.274,50.901z M224.274,59.645h1.093c0,0.417-0.054,1.147-0.156,2.186c-0.105,1.042-0.417,1.822-0.937,2.342l-9.993,9.993
			v-4.528L224.274,59.645z M224.899,68.232v4.06l-9.993,9.993v-4.06L224.899,68.232z M224.899,76.976
			c0.415,0.417,0.649,0.808,0.703,1.171c0.051,0.366,0.078,0.808,0.078,1.327v0.781l-10.773,10.773v-4.06L224.899,76.976z
			 M215.53,95.556l10.149-9.993h0.625v3.435l-9.993,9.993c-0.522-0.103-0.781-0.441-0.781-1.015c0-0.571,0-0.961,0-1.171V95.556z
			 M226.929,93.058c0.52,0.834,0.78,1.667,0.78,2.498c0,0.625-0.104,1.12-0.312,1.483c-0.21,0.366-0.573,0.808-1.093,1.327
			c-0.625,0.625-1.405,1.432-2.342,2.42c-0.937,0.99-1.874,1.952-2.811,2.888c-0.937,0.937-2.135,2.03-3.591,3.279h-0.625v-3.904
			L226.929,93.058z M217.56,111.639l10.774-10.618c0.207,0.522,0.39,0.991,0.546,1.405c0.156,0.417,0.234,0.886,0.234,1.405
			c0,0.105-0.027,0.156-0.078,0.156c-0.053,0-0.078,0.054-0.078,0.156v0.312l-10.618,10.461c-0.522-0.727-0.781-1.613-0.781-2.654
			V111.639z M219.434,118.353l10.93-10.773c0.52,0.834,0.78,1.717,0.78,2.654c0,0.105-0.027,0.183-0.078,0.234
			c-0.053,0.054-0.078,0.132-0.078,0.234c-0.105,0.105-0.156,0.21-0.156,0.313l-9.993,9.993l-0.313,0.156l-0.156-0.156
			c-0.209,0-0.366-0.259-0.468-0.781c-0.105-0.52-0.261-0.937-0.468-1.249v-0.313V118.353z M222.244,124.91l10.618-10.461
			c0.415,0.209,0.754,0.546,1.015,1.015c0.259,0.468,0.391,0.913,0.391,1.327v0.156l-10.618,10.773
			c-0.937-0.52-1.405-1.3-1.405-2.342V124.91z M224.274,2.654c0.52-1.144,1.196-2.03,2.03-2.654h2.342h2.186
			c0.103,0,0.441,0.027,1.015,0.078c0.571,0.054,1.145,0.132,1.718,0.234c0.571,0.104,1.117,0.183,1.639,0.234
			c0.52,0.054,0.883,0.078,1.093,0.078c0.625,0.105,1.69,0.183,3.201,0.234c1.508,0.054,3.096,0.078,4.762,0.078
			c1.664,0,3.252-0.024,4.762-0.078c1.508-0.051,2.576-0.129,3.201-0.234c0.727,0.522,1.249,1.303,1.562,2.342
			c0.313,1.042,0.468,1.927,0.468,2.654c0,3.333-0.105,6.663-0.312,9.993c-0.21,3.333-0.313,6.663-0.313,9.993
			c0,10.305,0.598,20.352,1.796,30.135c1.195,9.786,2.834,19.727,4.918,29.822c0.103,0.522,0.286,1.303,0.547,2.342
			c0.258,1.042,0.52,2.134,0.78,3.279c0.259,1.146,0.52,2.213,0.781,3.201c0.259,0.991,0.442,1.64,0.546,1.952
			c0.625,1.771,1.718,3.567,3.279,5.387c1.561,1.823,3.381,2.732,5.465,2.732c1.456,0,2.654-0.312,3.591-0.937
			c0.937-0.625,1.976-1.457,3.123-2.499c2.498-2.288,4.396-4.918,5.699-7.885c1.3-2.967,2.237-6.063,2.811-9.29
			c0.571-3.226,0.859-6.531,0.859-9.915c0-3.381,0-6.636,0-9.758c0-4.685-0.027-9.342-0.078-13.975
			c-0.054-4.63-0.288-9.29-0.703-13.974c0-0.625-0.132-2.186-0.39-4.684c-0.261-2.499-0.547-5.177-0.859-8.042
			c-0.313-2.861-0.6-5.567-0.859-8.119c-0.261-2.549-0.444-4.137-0.546-4.762c0-0.207-0.027-0.961-0.078-2.264
			c-0.054-1.3-0.078-2.264-0.078-2.889c0-0.415,0.024-1.039,0.078-1.874c0.051-0.832,0.078-1.352,0.078-1.562l1.405-0.625h24.045
			c0.102,0,0.598,0.156,1.483,0.468c0.883,0.313,1.535,0.573,1.952,0.781c0,0.105,0.103,0.234,0.313,0.391
			c0.208,0.156,0.313,0.288,0.313,0.39c0.102,0.417,0.207,1.276,0.312,2.576c0.103,1.303,0.156,2.213,0.156,2.732
			c0.103,0.522,0.181,1.615,0.234,3.279c0.051,1.667,0.129,3.462,0.234,5.387c0.103,1.928,0.181,3.801,0.234,5.621
			c0.051,1.822,0.129,3.099,0.234,3.825v5.465c0,6.663-0.209,13.326-0.625,19.986c-0.417,6.663-0.885,13.325-1.405,19.986
			c-0.104,0.625-0.261,2.134-0.468,4.528c-0.21,2.396-0.417,4.972-0.625,7.729c-0.21,2.759-0.417,5.362-0.625,7.807
			c-0.21,2.447-0.313,3.981-0.313,4.606c-0.729,7.392-2.966,13.611-6.714,18.659c-3.747,5.05-8.9,9.083-15.458,12.101
			c-3.333,1.562-6.636,2.732-9.915,3.513s-6.792,1.171-10.54,1.171c-4.894,0-9.422-0.832-13.584-2.498
			c-4.165-1.664-7.86-3.981-11.085-6.948c-3.228-2.967-5.96-6.426-8.197-10.383c-2.24-3.955-3.879-8.275-4.918-12.959
			c0-0.207-0.078-0.832-0.234-1.874c-0.156-1.039-0.288-2.186-0.39-3.435c-0.105-1.249-0.21-2.393-0.313-3.435
			c-0.105-1.039-0.156-1.664-0.156-1.874c-0.104-0.103-0.183-0.337-0.234-0.703c-0.054-0.363-0.132-0.781-0.234-1.249
			c-0.105-0.468-0.183-0.91-0.234-1.327c-0.053-0.415-0.078-0.676-0.078-0.781c0-0.313-0.027-0.805-0.078-1.483
			c-0.054-0.676-0.132-1.352-0.234-2.03c-0.105-0.676-0.183-1.327-0.234-1.952c-0.054-0.625-0.078-1.039-0.078-1.249
			c-0.105-0.727-0.21-2.576-0.313-5.543c-0.105-2.967-0.234-6.114-0.39-9.446c-0.156-3.33-0.313-6.48-0.469-9.446
			c-0.156-2.967-0.234-4.813-0.234-5.543c0-0.208-0.027-0.625-0.078-1.249c-0.054-0.625-0.132-1.327-0.234-2.108
			c-0.105-0.781-0.183-1.508-0.234-2.186c-0.054-0.676-0.078-1.117-0.078-1.327c0-0.625-0.078-2.003-0.234-4.138
			c-0.156-2.132-0.313-4.474-0.468-7.026c-0.156-2.55-0.313-5.021-0.469-7.417c-0.156-2.393-0.234-4.162-0.234-5.309
			c-0.105-1.769-0.234-3.513-0.391-5.23s-0.234-3.459-0.234-5.23V2.654z M236.297,119.758h0.156l0.312-0.156
			c0.52,0,0.91,0.234,1.171,0.703c0.259,0.468,0.391,0.963,0.391,1.483v0.625c-0.313,0.312-0.886,0.885-1.718,1.717
			c-0.834,0.834-1.717,1.718-2.654,2.654c-0.937,0.937-1.795,1.796-2.576,2.577c-0.781,0.78-1.327,1.327-1.64,1.639
			c-0.209,0.105-0.546,0.339-1.015,0.703c-0.468,0.364-0.808,0.598-1.015,0.703h-0.468h-0.312c-0.21-0.312-0.496-0.727-0.859-1.249
			c-0.366-0.52-0.495-0.781-0.391-0.781L236.297,119.758z M230.364,134.903l10.773-10.461c0-0.208,0.258-0.103,0.781,0.312
			c0.52,0.417,0.883,0.781,1.093,1.093v0.156v0.312l-10.773,10.93h-0.313h-0.156c-0.209-0.21-0.468-0.468-0.78-0.781
			c-0.313-0.312-0.522-0.522-0.625-0.625v-0.468V134.903z M234.892,139.119l10.773-10.773l0.625,0.313
			c0.415,0.209,0.676,0.312,0.781,0.312c0,0.105,0.103,0.234,0.312,0.391c0.208,0.156,0.313,0.288,0.313,0.39v0.156v0.468
			l-9.993,9.993c-0.105,0.103-0.21,0.156-0.313,0.156h-0.312c-0.417,0-0.886-0.054-1.405-0.156
			c-0.522-0.104-0.781-0.417-0.781-0.937V139.119z M241.137,142.397l10.617-10.617l2.498,1.249l-10.617,10.773h-0.625
			c-0.21,0-0.625-0.054-1.249-0.156c-0.625-0.105-0.937-0.417-0.937-0.937L241.137,142.397z M257.688,134.435h4.06
			c0,0.208-0.183,0.546-0.546,1.015c-0.366,0.468-0.651,0.753-0.859,0.858c-0.312,0.313-0.885,0.91-1.717,1.796
			c-0.834,0.883-1.693,1.795-2.576,2.732c-0.886,0.937-1.745,1.82-2.577,2.654c-0.834,0.832-1.405,1.405-1.717,1.717h-1.405
			c-0.522,0-0.99-0.027-1.405-0.078c-0.417-0.054-0.834-0.288-1.249-0.703L257.688,134.435z M270.491,134.903l-10.149,10.305
			c-0.522,0.415-1.015,0.625-1.483,0.625c-0.469,0-1.015,0-1.64,0h-1.562l10.773-10.93H270.491z M279.703,134.435l-8.587,8.744
			c-0.522,0.52-1.225,0.883-2.108,1.093c-0.886,0.207-1.64,0.312-2.264,0.312h-0.468h-0.469c-0.105,0-0.156-0.054-0.156-0.156
			l9.368-9.524c0.415-0.209,0.961-0.339,1.639-0.39c0.676-0.054,1.273-0.078,1.796-0.078H279.703z M280.484,5.465h0.625v2.03
			l-9.993,9.993v-2.811L280.484,5.465z M271.116,22.016l10.773-10.618v4.06l-10.149,9.993c-0.313-0.415-0.496-0.805-0.547-1.171
			c-0.054-0.363-0.078-0.754-0.078-1.171V22.016z M282.514,19.517c0.103,0.21,0.207,0.625,0.312,1.249
			c0.103,0.625,0.156,1.042,0.156,1.25v0.468v0.312l-10.461,10.618V29.51L282.514,19.517z M272.833,38.722
			c0-0.103,0.051-0.259,0.156-0.468l9.993-10.149h0.937v3.279l-10.305,9.993c-0.417-0.103-0.651-0.415-0.703-0.937
			c-0.054-0.52-0.078-0.937-0.078-1.249V38.722z M280.484,93.683c-0.105,0.21-0.339,0.651-0.703,1.327
			c-0.366,0.678-0.6,1.12-0.703,1.327c-0.625,0.729-1.51,1.693-2.654,2.889c-1.147,1.198-1.823,1.795-2.03,1.795h-1.405
			L280.484,93.683z M273.614,46.217l10.305-9.993h0.468v4.06l-9.993,9.993c-0.417-0.415-0.651-0.883-0.703-1.405
			c-0.054-0.52-0.078-1.039-0.078-1.562V46.217z M284.387,44.812c0.52,0.105,0.805,0.444,0.859,1.015
			c0.051,0.573,0.078,0.963,0.078,1.171c0,0.21-0.027,0.339-0.078,0.39c-0.054,0.054-0.078,0.183-0.078,0.391
			c-0.105,0.209-0.156,0.366-0.156,0.468l-9.993,9.993h-0.625v-3.435L284.387,44.812z M274.395,64.173
			c0-0.103,0.078-0.313,0.234-0.625c0.156-0.312,0.286-0.571,0.391-0.78l9.993-9.993v4.06l-9.993,9.993
			c-0.105-0.208-0.234-0.649-0.391-1.327C274.473,64.824,274.395,64.382,274.395,64.173z M284.387,81.036v1.249
			c0,0.522-0.027,1.093-0.078,1.717c-0.054,0.625-0.183,1.147-0.39,1.562l-9.524,9.368v-3.903L284.387,81.036z M285.793,61.674
			v3.903l-10.773,10.618v-3.903L285.793,61.674z M285.012,70.887c0,0.209,0.051,0.546,0.156,1.015
			c0.103,0.468,0.156,0.756,0.156,0.859c0,0.625-0.027,1.225-0.078,1.795c-0.054,0.573-0.339,1.12-0.859,1.64l-8.744,8.744h-0.625
			v-3.903L285.012,70.887z M291.101,130.375c-1.771,1.874-3.411,3.564-4.918,5.075c-1.51,1.507-3.411,2.732-5.699,3.669l7.963-8.119
			c0.208-0.103,0.468-0.208,0.781-0.312c0.208-0.103,0.415-0.156,0.625-0.156c0.208,0,0.415-0.051,0.625-0.156h0.313H291.101z"/>
		<path fill="#414042" d="M336.382,6.089c0,0.105,0.051,0.156,0.156,0.156l0.156,0.156l-0.312,0.312
			c-0.105,0.313-0.391,0.808-0.859,1.483c-0.468,0.678-0.808,1.12-1.015,1.327c-0.312,0.21-0.78,0.651-1.405,1.327
			c-0.625,0.678-1.303,1.354-2.03,2.03c-0.729,0.678-1.405,1.327-2.03,1.952c-0.625,0.625-1.042,1.042-1.249,1.249
			c-0.105,0.105-0.312,0.234-0.625,0.391c-0.312,0.156-0.573,0.288-0.781,0.39v-0.781L336.382,6.089z M336.382,12.022v4.06
			l-9.993,9.993v-4.06L336.382,12.022z M336.382,20.922v3.904l-9.993,9.993v-3.903L336.382,20.922z M327.013,39.503l10.305-9.993
			c0.937,0.522,1.405,1.146,1.405,1.874c0,0.105-0.027,0.183-0.078,0.234c-0.054,0.053-0.078,0.131-0.078,0.234l-0.156,0.156
			l-10.618,10.773c-0.522-0.103-0.781-0.441-0.781-1.015c0-0.571,0-0.961,0-1.171V39.503z M346.374,32.789v0.625l-8.587,8.9
			c-0.522,0.417-1.069,0.6-1.64,0.546c-0.573-0.051-1.12-0.078-1.64-0.078h-2.03l9.993-9.993H346.374z M366.36,114.917
			c0-3.018,0.156-5.958,0.469-8.822c0.312-2.862,0.468-5.802,0.468-8.822v-1.718c-0.105-0.415-0.21-1.273-0.312-2.576
			c-0.105-1.3-0.21-2.654-0.313-4.06c-0.105-1.405-0.21-2.732-0.313-3.981c-0.104-1.249-0.156-2.132-0.156-2.654v-2.03
			c0-0.937,0-2.42,0-4.45s-0.027-4.137-0.078-6.323c-0.054-2.186-0.105-4.216-0.156-6.089c-0.054-1.874-0.078-3.123-0.078-3.748
			c0-0.727-0.054-2.054-0.156-3.981c-0.104-1.925-0.234-3.981-0.39-6.167s-0.313-4.294-0.468-6.324
			c-0.156-2.03-0.234-3.459-0.234-4.293c-0.105-0.727-0.261-1.562-0.468-2.499c-0.21-0.937-0.469-1.874-0.781-2.81
			c-0.313-0.937-0.756-1.742-1.327-2.42c-0.573-0.676-1.327-1.066-2.264-1.171c-0.417,0-1.146-0.024-2.186-0.078
			c-1.042-0.051-2.135-0.103-3.279-0.156c-1.146-0.051-2.213-0.103-3.201-0.156c-0.991-0.051-1.64-0.078-1.952-0.078
			c-0.105,0-0.417,0.027-0.937,0.078c-0.522,0.054-1.068,0.105-1.639,0.156c-0.574,0.054-1.147,0.105-1.718,0.156
			c-0.573,0.054-0.913,0.078-1.015,0.078h-0.469c-2.396,0-3.591-1.3-3.591-3.903V2.654l0.625-0.625
			c3.642-0.103,6.921-0.208,9.836-0.312c2.913-0.103,6.219-0.208,9.915-0.313c3.693-0.103,7.417-0.181,11.164-0.234
			c3.748-0.051,7.363-0.129,10.852-0.234c3.486-0.103,6.479-0.208,8.978-0.313h11.398h11.397c0.832,0.313,1.43,1.381,1.796,3.201
			c0.363,1.823,0.624,3.826,0.78,6.012c0.156,2.186,0.234,4.293,0.234,6.323s0,3.411,0,4.138c0,0.625,0,1.381,0,2.264
			c0,0.886-0.078,1.744-0.234,2.576c-0.156,0.834-0.495,1.537-1.015,2.108c-0.522,0.573-1.249,0.859-2.186,0.859
			c-0.522,0-1.381,0.054-2.576,0.156c-1.198,0.105-2.475,0.183-3.826,0.234c-1.354,0.054-2.63,0.132-3.825,0.234
			c-1.197,0.105-2.057,0.156-2.576,0.156c-0.313,0-1.068,0.053-2.264,0.156c-1.198,0.105-1.952,0.261-2.265,0.469
			c-0.104,0-0.339,0.078-0.702,0.234c-0.366,0.156-0.601,0.234-0.703,0.234c0,0.625,0,1.666,0,3.123
			c0,1.459-0.026,2.967-0.078,4.528c-0.053,1.561-0.077,3.071-0.077,4.528c0,1.459,0,2.498,0,3.123
			c0,11.242,0.492,22.433,1.482,33.57c0.988,11.14,1.483,22.381,1.483,33.726v9.837c0,0.625-0.054,1.405-0.156,2.342
			c-0.104,0.937-0.183,1.874-0.233,2.811c-0.054,0.937-0.184,2.083-0.391,3.435l-0.625,0.781c-2.396,0.103-4.398,0.181-6.011,0.234
			c-1.615,0.051-3.306,0.129-5.074,0.234c-1.771,0.103-3.229,0.156-4.372,0.156h-7.339h-4.528L367.297,131
			c-0.105,0-0.183-0.415-0.234-1.249c-0.053-0.832-0.104-1.82-0.156-2.967c-0.054-1.144-0.105-2.315-0.156-3.513
			c-0.054-1.196-0.078-2.159-0.078-2.889c0-0.103-0.054-0.859-0.156-2.264C366.411,116.713,366.36,115.647,366.36,114.917z
			 M355.899,32.789l-9.993,9.993h-4.06l10.617-10.773L355.899,32.789z M349.185,44.187l10.617-10.773
			c0.103,0,0.234,0.105,0.391,0.312c0.156,0.21,0.285,0.313,0.39,0.313c0.208,0.312,0.363,0.729,0.468,1.249
			c0.103,0.522,0.156,0.834,0.156,0.937l-10.773,10.617c-0.313-0.208-0.625-0.546-0.937-1.015c-0.312-0.469-0.468-0.91-0.468-1.327
			L349.185,44.187z M361.832,40.908v3.903l-9.993,9.993l-0.625-3.435L361.832,40.908z M351.683,60.113
			c0-0.103,0.051-0.259,0.156-0.469l9.993-10.149h0.937c0,0.522,0,1.303,0,2.342c0,1.042-0.313,1.822-0.937,2.342l-7.963,8.119
			c-0.105,0.105-0.339,0.21-0.703,0.313c-0.366,0.105-0.6,0.156-0.703,0.156c-0.417,0-0.651-0.313-0.703-0.937
			c-0.054-0.625-0.078-1.039-0.078-1.249V60.113z M363.237,57.615v4.06l-9.993,9.993h-0.781v-3.435L363.237,57.615z
			 M363.237,111.639c0.103,0.209,0.234,0.678,0.39,1.405c0.156,0.729,0.234,1.198,0.234,1.405v0.312v0.156l-10.617,10.93
			c0-0.208-0.027-0.469-0.078-0.781c-0.054-0.313-0.078-0.52-0.078-0.625c0-0.52,0.024-1.118,0.078-1.796
			c0.051-0.676,0.285-1.222,0.703-1.639L363.237,111.639z M353.088,130.843c0-0.207,0.051-0.363,0.156-0.468l9.993-9.993
			c0.415,0.417,0.649,0.781,0.703,1.093c0.051,0.313,0.078,0.729,0.078,1.249c0,0.105-0.027,0.21-0.078,0.313
			c-0.054,0.105-0.078,0.21-0.078,0.312v0.469c0,0.105-0.261,0.495-0.781,1.171c-0.522,0.678-0.937,1.12-1.249,1.327
			c-0.21,0.313-0.703,0.859-1.483,1.64c-0.781,0.78-1.588,1.588-2.42,2.42c-0.834,0.834-1.64,1.64-2.42,2.42
			c-0.78,0.78-1.327,1.327-1.639,1.639c-0.522-0.21-0.781-0.651-0.781-1.327c0-0.678,0-1.12,0-1.327V130.843z M363.237,66.203v4.06
			l-9.993,9.993v-4.06L363.237,66.203z M363.237,75.571v4.06l-9.993,9.993v-4.06L363.237,75.571z M353.244,94.151l10.617-10.461
			v4.528l-9.993,10.149c-0.105-0.312-0.234-0.91-0.391-1.795c-0.156-0.883-0.234-1.43-0.234-1.64V94.62V94.151z M364.642,92.277
			v4.06l-10.149,9.993h-0.625v-3.279L364.642,92.277z M364.642,101.646c0,0.522-0.078,1.25-0.234,2.186
			c-0.156,0.937-0.339,1.51-0.546,1.718l-9.993,9.993v-1.093c0-0.52,0.024-1.118,0.078-1.796c0.051-0.676,0.234-1.222,0.546-1.639
			l9.368-9.369H364.642z M363.862,128.97v4.06l-9.993,10.149v-4.06L363.862,128.97z M369.795,135.84l-9.993,9.993h-3.903
			l10.773-10.93L369.795,135.84z M379.163,134.903v0.937l-9.369,9.368c-0.417,0.415-0.858,0.625-1.327,0.625
			c-0.468,0-1.015,0-1.639,0h-1.562l10.617-10.93H379.163z M384.628,134.903h4.527l-9.992,10.305l-4.528,0.625v-0.625
			L384.628,134.903z M396.651,33.882c0-1.249,0.493-1.976,1.483-2.186c0.988-0.207,1.951-0.312,2.889-0.312h0.937l-4.528,4.84
			c-0.104-0.208-0.233-0.571-0.39-1.093c-0.156-0.52-0.288-0.883-0.391-1.093V33.882z M411.952,30.916l-9.993,9.993
			c-0.417,0.417-0.886,0.651-1.405,0.703c-0.522,0.054-1.042,0.078-1.562,0.078c-0.104,0-0.366-0.051-0.78-0.156
			c-0.417-0.103-0.679-0.156-0.781-0.156l10.618-10.461H411.952z"/>
		<path fill="#414042" d="M439.277,29.666l-9.993,9.993V39.19v-0.156c0.208-0.727,0.363-1.586,0.469-2.577
			c0.103-0.988,0.156-1.534,0.156-1.639l10.148-9.993L439.277,29.666z M439.277,79.787h0.78v3.279l-10.148,9.993h-0.625v-3.279
			L439.277,79.787z M440.057,7.495v3.435l-10.148,9.993v-3.435L440.057,7.495z M440.057,15.458c0.415,1.147,0.625,2.083,0.625,2.811
			c0,0.625-0.444,1.51-1.327,2.654c-0.886,1.147-1.928,2.318-3.123,3.513c-1.198,1.198-2.396,2.291-3.591,3.279
			c-1.198,0.991-2.108,1.64-2.732,1.952v-4.06L440.057,15.458z M440.057,33.726v3.904l-10.148,9.993v-3.903L440.057,33.726z
			 M440.057,43.094v3.903l-10.148,9.993v-3.903L440.057,43.094z M440.057,51.682v2.03c0,0.937-0.026,1.615-0.078,2.03
			c-0.054,0.417-0.495,1.042-1.327,1.874c-0.21,0.313-0.624,0.808-1.249,1.483c-0.624,0.678-1.303,1.354-2.029,2.03
			c-0.729,0.678-1.405,1.327-2.03,1.952c-0.624,0.625-1.093,1.093-1.405,1.405c-0.104,0.105-0.417,0.313-0.937,0.625
			c-0.522,0.313-0.886,0.468-1.093,0.468v-3.903L440.057,51.682z M440.057,61.05v3.903l-10.148,9.993v-3.904L440.057,61.05z
			 M440.057,69.638v4.06l-10.148,10.149v-4.06L440.057,69.638z M440.057,87.75v2.03c0,1.042-0.026,1.744-0.078,2.108
			c-0.054,0.366-0.495,1.015-1.327,1.952c-0.21,0.21-0.624,0.651-1.249,1.327c-0.624,0.678-1.303,1.354-2.029,2.03
			c-0.729,0.678-1.405,1.327-2.03,1.952c-0.624,0.625-1.093,1.042-1.405,1.249c-0.104,0.21-0.417,0.469-0.937,0.781
			c-0.522,0.313-0.886,0.522-1.093,0.625v-4.06L440.057,87.75z M429.908,107.267l10.773-10.93v4.06l-9.993,9.993
			c-0.521-0.103-0.78-0.415-0.78-0.937c0-0.52,0-0.937,0-1.249V107.267z M430.532,134.747c0-0.417,0.024-0.808,0.078-1.171
			c0.052-0.366,0.285-0.703,0.703-1.015l9.992-9.993c0,0.104,0.024,0.417,0.078,0.937c0.052,0.522,0.078,0.886,0.078,1.093
			c0,0.522,0,1.068,0,1.639c0,0.573-0.261,1.069-0.78,1.483l-8.744,8.9h-0.156c-0.521,0-0.858-0.21-1.015-0.625
			C430.611,135.579,430.532,135.162,430.532,134.747z M440.682,105.237v3.903l-9.993,9.993v-3.904L440.682,105.237z
			 M440.682,114.449v3.903l-9.993,10.305v-4.06L440.682,114.449z M441.306,131.78v4.06l-9.992,10.149v-4.06L441.306,131.78z
			 M444.116,137.713h4.06l-10.93,10.93h-0.78c-0.522,0-0.964-0.027-1.327-0.078c-0.366-0.054-0.757-0.234-1.171-0.546
			L444.116,137.713z M444.741,134.591c-0.105-1.354-0.21-3.459-0.313-6.324c-0.104-2.862-0.234-6.063-0.391-9.603
			c-0.156-3.537-0.312-7.26-0.468-11.164s-0.288-7.624-0.391-11.164c-0.104-3.538-0.21-6.738-0.313-9.603
			c-0.104-2.861-0.156-4.969-0.156-6.323c0-0.313,0-1.613,0-3.904c0-2.288-0.026-4.891-0.078-7.807
			c-0.054-2.913-0.078-5.829-0.078-8.744c0-2.913,0-5.204,0-6.87c0-1.04,0-2.862,0-5.465c0-2.601,0.024-5.36,0.078-8.275
			c0.052-2.913,0.078-5.672,0.078-8.275c0-2.601,0-4.423,0-5.465c0.103-0.415,0.234-1.3,0.391-2.654
			c0.156-1.352,0.234-2.237,0.234-2.654c0-0.625,0.024-1.69,0.078-3.201c0.051-1.508,0.078-3.123,0.078-4.84s-0.027-3.33-0.078-4.84
			c-0.054-1.508-0.078-2.576-0.078-3.201c1.039-0.415,1.873-0.649,2.498-0.703c0.625-0.051,1.405-0.078,2.342-0.078h2.498
			c0.728,0.105,2.03,0.183,3.904,0.234c1.873,0.054,3.825,0.131,5.854,0.234c2.03,0.105,3.955,0.183,5.777,0.234
			c1.82,0.054,3.096,0.078,3.825,0.078c1.352,1.146,2.628,2.576,3.825,4.294c1.195,1.717,2.289,3.54,3.279,5.464
			c0.988,1.928,1.951,3.853,2.889,5.777c0.937,1.927,1.873,3.618,2.811,5.075c0.103,0.312,0.468,0.963,1.093,1.952
			c0.624,0.99,1.273,2.03,1.952,3.123c0.676,1.093,1.3,2.135,1.873,3.123c0.571,0.991,0.961,1.588,1.171,1.796
			c0.103,0.209,0.337,0.678,0.703,1.405c0.363,0.729,0.754,1.537,1.171,2.42c0.415,0.886,0.805,1.693,1.171,2.42
			c0.363,0.729,0.649,1.146,0.858,1.249l3.279,3.279c0.103,0.21,0.313,0.678,0.625,1.405c0.312,0.729,0.57,1.146,0.78,1.249
			c0.103,0.21,0.363,0.6,0.78,1.171c0.415,0.573,0.91,1.198,1.483,1.874c0.571,0.678,1.093,1.303,1.562,1.874
			c0.469,0.573,0.754,0.912,0.858,1.015c0.208,0.21,0.442,0.573,0.703,1.093c0.259,0.522,0.441,0.834,0.547,0.937
			c0.102,0.21,0.39,0.729,0.858,1.562c0.469,0.834,0.988,1.717,1.562,2.654c0.57,0.937,1.065,1.795,1.483,2.576
			c0.414,0.781,0.727,1.276,0.937,1.483c0.103,0.105,0.415,0.495,0.937,1.171c0.52,0.678,0.884,1.12,1.094,1.327
			c0.52,0.625,0.961,0.991,1.327,1.093c0.363,0.105,0.753,0.417,1.171,0.937c0.207,0.21,0.57,0.781,1.093,1.718
			c0.52,0.937,0.832,1.51,0.937,1.717c0.103,0.105,0.52,0.522,1.249,1.25c0.728,0.729,1.195,1.146,1.405,1.249
			c0.103,0.209,0.363,0.573,0.781,1.093c0.414,0.522,0.858,1.069,1.327,1.64c0.468,0.573,0.909,1.146,1.327,1.717
			c0.414,0.573,0.676,0.913,0.78,1.015c0.103,0.104,0.285,0.339,0.547,0.703c0.259,0.366,0.441,0.6,0.546,0.703
			c0.208-0.415,0.364-1.301,0.469-2.655c0.103-1.352,0.207-2.288,0.313-2.81v-1.874c0-3.955-0.184-7.885-0.547-11.788
			c-0.366-3.904-0.808-7.78-1.327-11.632V6.87c0-0.313,0.078-0.781,0.234-1.405s0.441-1.039,0.858-1.249c0.313,0,0.781,0,1.405,0
			c0.625,0,1.301-0.024,2.03-0.078c0.727-0.051,1.405-0.078,2.029-0.078c0.625,0,1.093,0,1.405,0c0.415,0,0.962,0,1.64,0
			c0.676,0,1.352,0.027,2.03,0.078c0.676,0.054,1.3,0.078,1.873,0.078c0.571,0,0.91,0,1.015,0c0.415,0,1.118,0.027,2.108,0.078
			c0.988,0.054,2.081,0.105,3.278,0.156c1.196,0.053,2.289,0.131,3.279,0.234c0.988,0.105,1.69,0.156,2.107,0.156
			c0.728,0.522,1.301,1.146,1.718,1.874c0.415,0.729,0.728,1.537,0.938,2.42c0.207,0.885,0.336,1.771,0.39,2.654
			c0.052,0.885,0.13,1.693,0.234,2.42c0.103,1.562,0.234,3.852,0.391,6.87c0.156,3.021,0.313,6.143,0.468,9.368
			c0.156,3.228,0.286,6.143,0.391,8.744c0.103,2.604,0.156,4.27,0.156,4.997c0,1.249,0.024,3.176,0.078,5.777
			c0.051,2.604,0.078,5.519,0.078,8.744c0,3.228,0,6.663,0,10.305c0,3.645,0,7.08,0,10.305c0,3.228-0.027,6.143-0.078,8.744
			c-0.054,2.604-0.078,4.528-0.078,5.777c0.415,2.916,0.649,5.519,0.703,7.807c0.051,2.291,0.077,4.945,0.077,7.963
			c0,0.522-0.026,1.225-0.077,2.108c-0.054,0.885-0.078,1.744-0.078,2.576c0,0.834-0.027,1.588-0.078,2.264
			c-0.054,0.678-0.078,1.069-0.078,1.171c0,0.522-0.027,1.459-0.078,2.811c-0.054,1.354-0.105,2.786-0.156,4.293
			c-0.054,1.51-0.105,2.916-0.156,4.216c-0.054,1.303-0.078,2.213-0.078,2.732c-0.624,0.103-1.796,0.234-3.513,0.39
			c-1.718,0.156-3.567,0.313-5.543,0.469c-1.979,0.156-3.825,0.285-5.543,0.39c-1.718,0.103-2.889,0.156-3.514,0.156h-4.371h-4.372
			c-1.042-0.313-1.928-0.937-2.654-1.874c-0.729-0.937-1.354-1.82-1.874-2.654c-3.435-5.621-6.87-11.215-10.305-16.785
			c-3.436-5.567-7.132-10.903-11.086-16.004c-0.313-0.313-0.886-0.988-1.718-2.03c-0.834-1.04-1.405-1.718-1.718-2.03
			c-0.209-0.208-0.624-0.676-1.249-1.405c-0.624-0.727-1.303-1.483-2.029-2.264c-0.729-0.781-1.433-1.534-2.108-2.264
			c-0.678-0.727-1.068-1.196-1.171-1.405c-0.21-0.208-0.573-0.727-1.093-1.562c-0.522-0.832-1.068-1.742-1.64-2.732
			c-0.573-0.988-1.146-1.925-1.717-2.811c-0.574-0.883-0.913-1.483-1.016-1.795c-0.104-0.208-0.521-0.859-1.249-1.952
			c-0.729-1.093-1.197-1.742-1.405-1.952c-0.21-0.313-0.651-1.066-1.327-2.264c-0.678-1.195-1.381-2.445-2.107-3.748
			c-0.729-1.3-1.433-2.549-2.108-3.747c-0.678-1.195-1.068-1.952-1.171-2.264c-0.104-0.103-0.339-0.441-0.702-1.015
			c-0.366-0.571-0.601-0.91-0.703-1.015c0,0.105-0.104,0.444-0.313,1.015c-0.209,0.573-0.312,0.912-0.312,1.015v0.625v0.781
			c0.312,7.183,0.52,14.313,0.624,21.391c0.103,7.08,0.363,14.208,0.781,21.391c0,0.21,0.024,0.703,0.078,1.483
			c0.051,0.781,0.129,1.615,0.233,2.498c0.103,0.886,0.181,1.718,0.234,2.499c0.052,0.78,0.078,1.276,0.078,1.483v17.332
			c0.52,1.042,0.781,2.186,0.781,3.435c0,0.208-0.027,0.336-0.078,0.39c-0.054,0.051-0.078,0.181-0.078,0.391v0.468
			c0,0.103-0.184,0.234-0.547,0.39c-0.366,0.156-0.6,0.286-0.702,0.391c-2.499,0.52-4.867,0.754-7.104,0.703
			c-2.239-0.054-4.66-0.078-7.261-0.078h-9.837c-0.312,0-1.068-0.078-2.264-0.234C445.808,134.825,445.054,134.693,444.741,134.591z
			 M456.764,138.65l-9.993,9.993h-4.06l9.993-9.993H456.764z M466.132,138.65c-0.313,0.312-0.886,0.883-1.718,1.717
			c-0.834,0.832-1.717,1.691-2.654,2.577c-0.937,0.883-1.849,1.742-2.732,2.576c-0.886,0.832-1.483,1.405-1.795,1.717
			c-0.835,0.832-1.405,1.3-1.718,1.405c-0.313,0.103-1.042,0.156-2.187,0.156c-0.104,0-0.417-0.027-0.937-0.078
			c-0.521-0.054-0.886-0.078-1.093-0.078l10.148-9.993H466.132z M471.441,137.713c-0.313,0.52-0.886,1.249-1.718,2.186
			c-0.834,0.937-1.771,1.898-2.811,2.889c-1.041,0.988-2.005,1.898-2.888,2.732c-0.886,0.832-1.537,1.405-1.952,1.717
			c-0.417,0.313-0.104-0.105,0.937-1.249c1.04-1.146,2.237-2.396,3.592-3.747c1.352-1.354,2.576-2.552,3.669-3.591
			C471.362,137.608,471.753,137.296,471.441,137.713z M476.125,69.638c0.103,0.209,0.312,0.546,0.624,1.015s0.571,0.808,0.781,1.015
			v0.312v0.468c-0.21,0.105-0.573,0.417-1.094,0.937c-0.521,0.522-0.834,0.886-0.937,1.093c0-0.207-0.026-0.571-0.078-1.093
			c-0.054-0.52-0.078-0.832-0.078-0.937c0-0.102-0.026-0.571-0.078-1.405C475.212,70.211,475.5,69.742,476.125,69.638z
			 M475.344,80.099c0-0.103,0.052-0.208,0.156-0.312l4.06-4.216c0.832,0.522,1.249,1.249,1.249,2.186v0.625l-4.684,4.684
			c-0.522-0.625-0.781-1.457-0.781-2.499V80.099z M476.125,96.961l10.773-10.617c0.937,0.625,1.405,1.303,1.405,2.03
			c0,0.105-0.027,0.183-0.078,0.234c-0.054,0.053-0.078,0.131-0.078,0.234v0.156L477.53,99.772
			c-0.522-0.312-0.938-0.598-1.249-0.859c-0.313-0.258-0.469-0.703-0.469-1.327L476.125,96.961z M482.839,81.036h0.313
			c0.52,0,0.831,0.261,0.937,0.781c0.103,0.522,0.156,0.937,0.156,1.249c0,0.834-0.262,1.459-0.781,1.874
			c-0.417,0.522-0.99,1.171-1.717,1.952c-0.729,0.781-1.459,1.537-2.187,2.264c-0.729,0.729-1.666,1.615-2.811,2.654h-0.624v-4.06
			L482.839,81.036z M480.029,101.802l10.773-10.773h0.313h0.312c0.208,0.21,0.521,0.625,0.938,1.249
			c0.207,0.313,0.363,0.573,0.468,0.781l-10.773,10.773h-0.156h-0.468l-1.405-1.405v-0.156V101.802z M494.862,96.337h0.156h0.468
			c0.103,0.21,0.337,0.444,0.703,0.703c0.363,0.261,0.598,0.495,0.702,0.703v0.313v0.312l-10.773,10.773l-2.029-1.874
			L494.862,96.337z M488.148,111.794l10.773-10.617c0.937,0.417,1.405,1.093,1.405,2.03c0,0.729-0.469,1.615-1.405,2.654
			c-0.313,0.313-0.912,0.886-1.796,1.718c-0.886,0.834-1.795,1.717-2.732,2.654c-0.937,0.937-1.822,1.795-2.654,2.576
			c-0.834,0.781-1.405,1.327-1.718,1.64c-0.104-0.208-0.39-0.547-0.858-1.015s-0.808-0.805-1.015-1.015v-0.156V111.794z
			 M492.051,117.259l10.773-10.93c0.207,0.21,0.469,0.574,0.78,1.093c0.313,0.522,0.521,0.834,0.625,0.937v0.469v0.312
			l-10.773,10.618c-0.937-0.313-1.405-0.988-1.405-2.03V117.259z M495.486,122.568l10.773-10.774
			c0.313,0.21,0.625,0.547,0.938,1.015s0.468,0.913,0.468,1.327l-0.155,0.313l-10.618,10.773c-0.937-0.52-1.405-1.352-1.405-2.499
			V122.568z M499.545,127.721l9.993-9.993h0.313c0.52,0,0.805,0.261,0.858,0.781c0.052,0.522,0.078,0.99,0.078,1.405v0.625
			l-9.992,9.993h-0.313c-0.417,0-0.679-0.259-0.781-0.781c-0.104-0.52-0.156-0.988-0.156-1.405V127.721z M502.824,133.186
			l9.993-9.993h0.468c0.313,0,0.649,0.261,1.016,0.78c0.363,0.522,0.546,0.937,0.546,1.25c0,0.105-0.054,0.312-0.156,0.625
			c-0.104,0.312-0.261,0.573-0.468,0.781l-8.744,8.587c-0.104,0.103-0.261,0.208-0.469,0.312c-0.417,0.208-0.678,0.313-0.78,0.313
			l-0.313,0.156c-0.521,0-0.834-0.288-0.937-0.859c-0.105-0.573-0.156-1.015-0.156-1.327V133.186z M506.104,139.431
			c0-0.105,0.051-0.21,0.155-0.313l10.618-10.461l1.405,2.498l-10.773,10.773h-0.313c-0.522,0-0.835-0.261-0.938-0.781
			c-0.104-0.522-0.155-0.99-0.155-1.405V139.431z M518.282,11.398c0,0.625,0,1.225,0,1.796c0,0.573-0.262,1.12-0.781,1.639
			l-7.963,7.963l-1.249,0.937c0-0.208-0.026-0.52-0.078-0.937c-0.054-0.415-0.078-0.727-0.078-0.937c0-0.52,0.024-1.015,0.078-1.483
			c0.052-0.468,0.285-0.961,0.703-1.483l9.368-9.368V11.398z M508.133,56.054c0-0.208,0.052-0.364,0.156-0.469l9.993-9.993v2.03
			c0,0.625,0,1.225,0,1.795c0,0.573-0.262,1.12-0.781,1.64l-7.963,7.963h-0.313c-0.521,0-0.834-0.258-0.937-0.781
			c-0.104-0.52-0.156-0.988-0.156-1.405V56.054z M518.282,18.893v3.903l-9.993,9.993v-3.903L518.282,18.893z M518.282,27.636v4.06
			l-9.993,9.993v-4.06L518.282,27.636z M518.282,36.849v4.216l-9.993,9.993v-4.06L518.282,36.849z M509.538,144.583l10.773-10.773
			c0.207,0.103,0.469,0.259,0.781,0.468c0.624,0.415,0.987,0.727,1.093,0.937v0.312v0.313l-10.773,10.773
			c-0.105-0.105-0.262-0.21-0.469-0.312l-0.624-0.313c-0.21-0.105-0.366-0.234-0.469-0.39c-0.105-0.156-0.21-0.288-0.313-0.391
			v-0.312V144.583z M510.787,62.455l8.119-8.275c0.415,0.417,0.649,0.834,0.703,1.249c0.051,0.417,0.078,0.886,0.078,1.405v0.781
			l-7.495,7.338c-0.21-0.102-0.444-0.39-0.702-0.858c-0.262-0.469-0.495-0.805-0.703-1.015v-0.468V62.455z M515.472,66.358
			l4.216-3.903h0.624v3.123l-4.06,4.06c-0.104-0.208-0.234-0.649-0.391-1.328c-0.155-0.676-0.287-1.117-0.39-1.327v-0.312V66.358z
			 M526.869,136.621h3.903l-9.992,9.993l-3.279,0.625l-0.624-0.625L526.869,136.621z M519.531,71.979
			c0-0.103,0.051-0.208,0.156-0.312c0-0.208,0.155-0.469,0.468-0.781c0.313-0.313,0.52-0.469,0.625-0.469v4.06
			c-0.21-0.312-0.469-0.703-0.781-1.171C519.688,72.838,519.531,72.396,519.531,71.979z M540.297,135.84v0.781l-8.587,8.587
			c-0.522,0.52-1.068,0.781-1.64,0.781c-0.573,0-1.171,0-1.796,0h-2.029l9.992-10.149H540.297z M549.041,135.215l-10.149,9.993
			h-2.654l9.993-9.993H549.041z"/>
	</g>
	<g>
		<path fill="#8DC63F" d="M215.53,200.375v1.538l-5.054,4.98v-0.732c0-0.293-0.013-0.549-0.037-0.77
			c-0.025-0.219,0.061-0.427,0.256-0.622l4.468-4.395H215.53z M215.53,197.812l-4.834,4.688v-0.732c0-0.244,0.011-0.487,0.037-0.732
			c0.024-0.244,0.158-0.464,0.403-0.659l4.395-4.468V197.812z M215.53,204.404c0,0.099,0.048,0.318,0.146,0.659
			c0.097,0.342,0.146,0.562,0.146,0.659v0.146v0.073l-5.127,5.127v-1.904L215.53,204.404z M211.135,212.9l4.688-4.688l0.146-0.073
			l0.073,0.073c0.097,0,0.17,0.122,0.22,0.366c0.048,0.245,0.097,0.439,0.146,0.586v0.073v0.22
			c-0.049,0.099-0.146,0.257-0.293,0.476c-0.146,0.221-0.245,0.379-0.293,0.477c-0.293,0.245-0.648,0.574-1.062,0.988
			c-0.416,0.416-0.818,0.831-1.208,1.246c-0.392,0.415-0.732,0.769-1.025,1.062s-0.465,0.439-0.513,0.439l-0.659,0.293
			c-0.099-0.244-0.183-0.464-0.256-0.659c-0.073-0.194-0.11-0.414-0.11-0.659L211.135,212.9z M216.702,190.341
			c-0.049,0.195-0.146,0.562-0.293,1.099c-0.146,0.538-0.269,0.879-0.366,1.025c-0.049,0.099-0.073,0.195-0.073,0.293
			c0,0.099-0.025,0.195-0.073,0.293c-0.049,0.146-0.073,0.269-0.073,0.366l-3.809,3.809h-0.366c0.048-0.098,0.158-0.414,0.33-0.952
			c0.17-0.537,0.28-0.854,0.33-0.952c0.048-0.146,0.158-0.378,0.33-0.695c0.17-0.317,0.28-0.501,0.33-0.55L216.702,190.341z
			 M211.941,216.489c0-0.048,0.024-0.073,0.073-0.073l4.98-5.127c0.244,0.439,0.366,0.879,0.366,1.318v0.293l-4.761,4.688h-0.073
			c-0.245,0-0.403-0.121-0.476-0.366c-0.073-0.244-0.11-0.439-0.11-0.586V216.489z M218.313,214.145h0.073h0.22
			c0.048,0.049,0.158,0.146,0.33,0.293c0.17,0.146,0.28,0.269,0.33,0.366v0.073v0.22l-5.054,5.054l-0.952-0.952L218.313,214.145z
			 M215.383,221.616l0.073-0.146c0-0.048,0.024-0.098,0.073-0.146l4.98-4.907c0.39,0.146,0.586,0.439,0.586,0.879v0.293l-5.054,4.98
			C215.603,222.374,215.383,222.055,215.383,221.616z M251.785,222.568c0-0.048-0.037-0.317-0.11-0.806
			c-0.073-0.487-0.135-0.854-0.183-1.099v-0.073v-0.146c0-0.098,0.048-0.317,0.146-0.659c0.097-0.341,0.146-0.537,0.146-0.586
			v-0.366h-0.293c-1.71,1.124-3.418,2.039-5.127,2.747c-1.71,0.708-3.589,1.062-5.64,1.062c-1.563,0-3.102-0.121-4.614-0.366
			c-1.514-0.244-3.076-0.464-4.688-0.659c-0.245-0.098-0.696-0.305-1.355-0.622s-1.344-0.66-2.051-1.025
			c-0.708-0.367-1.392-0.708-2.051-1.025s-1.111-0.55-1.355-0.696c-0.586-0.293-1.124-0.684-1.611-1.172
			c-0.489-0.487-0.928-0.927-1.318-1.318c-1.025-1.22-1.868-2.404-2.527-3.552s-1.172-2.332-1.538-3.553
			c-0.366-1.22-0.611-2.502-0.732-3.846c-0.123-1.342-0.183-2.819-0.183-4.431c0-2.978,0.33-5.737,0.989-8.276
			c0.659-2.538,1.672-5.127,3.04-7.764c0.537-0.977,1.282-1.929,2.234-2.856c0.952-0.927,1.978-1.794,3.076-2.601
			c1.099-0.805,2.221-1.525,3.369-2.16c1.146-0.634,2.234-1.123,3.259-1.465c0.146-0.098,0.427-0.171,0.842-0.22
			c0.414-0.048,0.67-0.073,0.769-0.073h8.423c0.048,0,0.39,0.086,1.025,0.256c0.634,0.172,1.123,0.306,1.465,0.403
			c1.172,0.245,2.221,0.647,3.149,1.208c0.927,0.563,1.879,1.185,2.856,1.868c0-0.194,0.048-0.61,0.146-1.245
			c0.097-0.634,0.146-1.073,0.146-1.318c0.048-0.341,0.158-0.623,0.33-0.842c0.17-0.221,0.476-0.33,0.916-0.33
			c1.855,0,3.82,0.013,5.896,0.037c2.075,0.024,4.113,0.231,6.116,0.622c0.146,0,0.304,0.062,0.476,0.183
			c0.17,0.123,0.304,0.232,0.403,0.33v3.223c0,1.318-0.013,2.466-0.037,3.442c-0.025,0.978-0.135,2.1-0.33,3.369v35.962
			l-0.879,0.439c-0.099,0.048-0.379,0.109-0.842,0.184c-0.465,0.072-0.989,0.146-1.575,0.219c-0.586,0.074-1.185,0.135-1.794,0.184
			c-0.611,0.048-1.087,0.073-1.428,0.073c-0.245,0-0.685-0.013-1.318-0.036c-0.635-0.025-1.307-0.05-2.014-0.074
			c-0.708-0.024-1.368-0.062-1.978-0.109c-0.611-0.049-1.038-0.073-1.282-0.073L251.785,222.568z M217.361,223.52l4.98-4.98h0.22
			c0.487,0,0.732,0.318,0.732,0.952v0.293c-0.146,0.146-0.416,0.415-0.806,0.806c-0.392,0.392-0.794,0.806-1.208,1.245
			c-0.416,0.439-0.818,0.854-1.208,1.245c-0.392,0.391-0.659,0.659-0.806,0.806c-0.099,0.098-0.269,0.22-0.513,0.366
			c-0.245,0.146-0.392,0.22-0.439,0.22c-0.049,0-0.196-0.073-0.439-0.22c-0.245-0.146-0.416-0.269-0.513-0.366l-0.073-0.22
			L217.361,223.52z M220.217,225.131l4.98-4.98l1.245,0.513l-5.054,5.127h-0.293c-0.099,0-0.293-0.025-0.586-0.073
			c-0.293-0.049-0.439-0.195-0.439-0.439L220.217,225.131z M227.688,221.616h0.293c0.146,0,0.354,0.025,0.623,0.073
			c0.268,0.049,0.403,0.195,0.403,0.439c0,0.049-0.025,0.099-0.073,0.146l-4.98,5.054l-1.318-0.659L227.688,221.616z
			 M230.764,222.934l1.611,0.293l-4.688,4.688c-0.196,0.194-0.366,0.305-0.513,0.329s-0.342,0.037-0.586,0.037
			c-0.146,0-0.293-0.013-0.439-0.037s-0.269-0.135-0.366-0.329L230.764,222.934z M234.28,223.52h0.439c0.537,0,1,0.121,1.392,0.366
			c-0.146,0.146-0.403,0.414-0.769,0.806c-0.366,0.391-0.769,0.793-1.208,1.208s-0.855,0.817-1.245,1.209
			c-0.392,0.391-0.659,0.659-0.806,0.806c-0.392,0.391-0.769,0.622-1.135,0.696c-0.366,0.072-0.818,0.109-1.355,0.109v-0.439
			L234.28,223.52z M230.764,198.471c0,0.685,0.048,1.367,0.146,2.051c0.097,0.685,0.268,1.344,0.513,1.978
			c0.097,0.245,0.231,0.538,0.403,0.879c0.17,0.342,0.341,0.672,0.513,0.988c0.17,0.318,0.33,0.611,0.476,0.879
			c0.146,0.27,0.22,0.429,0.22,0.477c0.048,0.049,0.22,0.208,0.513,0.477s0.623,0.586,0.989,0.951
			c0.366,0.367,0.732,0.745,1.099,1.136c0.366,0.392,0.646,0.685,0.842,0.879c0.683,0.635,1.513,1.111,2.49,1.429
			c0.976,0.317,1.904,0.476,2.783,0.476c1.123,0,2.271-0.207,3.442-0.622s2.245-0.964,3.223-1.648
			c0.879-0.586,1.575-1.33,2.087-2.234c0.513-0.902,0.916-1.854,1.208-2.855s0.487-2.039,0.586-3.113
			c0.097-1.073,0.146-2.099,0.146-3.076v-3.149c-0.099-0.146-0.232-0.403-0.403-0.769c-0.172-0.367-0.355-0.744-0.549-1.136
			c-0.196-0.391-0.392-0.757-0.586-1.099c-0.196-0.341-0.318-0.586-0.366-0.732c-0.049-0.098-0.146-0.268-0.293-0.513
			c-0.146-0.244-0.269-0.391-0.366-0.439c-1.124-1.27-2.406-2.318-3.845-3.149c-1.441-0.83-3.016-1.245-4.724-1.245
			c-0.928,0-1.831,0.062-2.71,0.183c-0.879,0.123-1.71,0.477-2.49,1.063c-0.099,0.099-0.416,0.428-0.952,0.988
			c-0.538,0.563-0.928,0.965-1.172,1.209c-1.318,1.417-2.186,2.93-2.6,4.541C230.971,194.882,230.764,196.616,230.764,198.471z
			 M240.286,223.886l-5.127,4.98h-1.831l5.054-4.98H240.286z M239.334,186.826L235.159,191c-0.099,0.099-0.355,0.208-0.769,0.329
			c-0.416,0.123-0.672,0.184-0.769,0.184v-0.073v-0.22c0.048-0.098,0.146-0.256,0.293-0.477c0.146-0.219,0.268-0.354,0.366-0.402
			c0.146-0.146,0.354-0.366,0.623-0.659c0.268-0.293,0.549-0.586,0.842-0.879s0.561-0.561,0.806-0.806
			c0.244-0.244,0.414-0.414,0.513-0.513c0.586-0.439,1.172-0.659,1.758-0.659H239.334z M241.751,186.533l1.611,0.439l-4.98,4.907
			h-0.586c-0.099,0-0.269,0-0.513,0c-0.245,0-0.416-0.121-0.513-0.366L241.751,186.533z M243.508,223.813
			c0.097,0,0.231,0.012,0.403,0.036c0.17,0.024,0.304,0.037,0.403,0.037l-3.809,3.735c-0.245,0.244-0.635,0.464-1.172,0.659
			c-0.538,0.194-0.978,0.293-1.318,0.293h-0.293l4.395-4.395c0.194-0.195,0.414-0.306,0.659-0.33
			C243.02,223.825,243.263,223.813,243.508,223.813z M244.973,187.485h0.146h0.073c0.097,0.099,0.268,0.208,0.513,0.329
			c0.244,0.123,0.39,0.232,0.439,0.33l-4.98,4.98l-0.22,0.073c-0.439,0-0.806-0.244-1.099-0.732L244.973,187.485z M247.464,189.389
			h0.073c0.586,0,0.879,0.22,0.879,0.659v0.293l-5.054,4.98l-0.952-0.952L247.464,189.389z M249.368,191.513
			c0.439,0.245,0.659,0.562,0.659,0.952c0,0.293-0.123,0.611-0.366,0.952c-0.146,0.146-0.403,0.415-0.769,0.806
			c-0.366,0.392-0.745,0.781-1.135,1.172c-0.392,0.392-0.769,0.758-1.135,1.099c-0.366,0.342-0.623,0.586-0.769,0.732
			c-0.049,0.099-0.183,0.22-0.403,0.366s-0.379,0.22-0.476,0.22l-0.659-1.245L249.368,191.513z M250.32,222.275l-4.688,4.688h-0.439
			c0-1.025,0.341-1.904,1.025-2.637c0.683-0.732,1.416-1.417,2.197-2.051c0.048-0.048,0.28-0.194,0.696-0.439
			c0.414-0.244,0.67-0.414,0.769-0.513c0.097,0,0.17-0.012,0.22-0.036c0.048-0.024,0.121-0.037,0.22-0.037V222.275z
			 M245.852,199.423l4.98-5.054c0.244,0.049,0.366,0.208,0.366,0.476c0,0.27,0,0.452,0,0.55v0.513l-4.688,4.688
			c-0.439-0.194-0.659-0.561-0.659-1.099V199.423z M250.833,223.886l1.538,0.659l-4.321,4.321c-0.245,0.244-0.611,0.378-1.099,0.402
			c-0.489,0.024-0.855,0.037-1.099,0.037v-0.439L250.833,223.886z M250.32,203.452v0.146v0.22c-0.439,0.978-0.965,1.93-1.575,2.856
			c-0.611,0.928-1.478,1.538-2.6,1.831v-0.952L250.32,203.452z M251.199,200.083l-4.688,4.688c0-0.098-0.013-0.244-0.037-0.439
			c-0.025-0.194-0.037-0.341-0.037-0.439c0-0.244,0.011-0.476,0.037-0.696c0.024-0.219,0.134-0.45,0.33-0.695l4.395-4.321V200.083z
			 M256.546,224.472l-4.761,4.761c-0.196,0.194-0.403,0.293-0.623,0.293s-0.476,0-0.769,0h-0.732l5.054-5.054H256.546z
			 M260.574,224.472l-4.688,4.761h-1.831l4.395-4.395c0.194-0.245,0.403-0.366,0.623-0.366s0.476,0,0.769,0H260.574z"/>
		<path fill="#8DC63F" d="M274.666,215.756l-4.688,4.688v-0.806c0-0.244,0-0.487,0-0.732c0-0.244,0.097-0.464,0.293-0.659
			l4.395-4.395V215.756z M269.978,222.934l5.127-5.054v1.904l-4.834,4.688c-0.146-0.245-0.232-0.439-0.256-0.586
			c-0.025-0.146-0.037-0.342-0.037-0.586V222.934z M275.105,205.942c0,0.538-0.013,0.892-0.037,1.062
			c-0.025,0.172-0.232,0.452-0.623,0.843c-0.146,0.146-0.366,0.379-0.659,0.696s-0.599,0.635-0.916,0.951
			c-0.318,0.318-0.635,0.623-0.952,0.916c-0.318,0.293-0.549,0.513-0.696,0.659c-0.049,0.049-0.196,0.146-0.439,0.293
			c-0.245,0.146-0.416,0.22-0.513,0.22v-0.732c0-0.244,0-0.487,0-0.732c0-0.244,0.121-0.464,0.366-0.659l4.468-4.395V205.942z
			 M275.105,209.458v1.831l-4.834,4.688v-1.831L275.105,209.458z M270.271,226.669l5.054-5.054c0.097,0.099,0.22,0.318,0.366,0.659
			s0.244,0.561,0.293,0.659v0.073v0.22l-4.761,4.688c0,0.048-0.099,0.073-0.293,0.073c-0.245,0-0.416-0.135-0.513-0.402
			c-0.099-0.27-0.146-0.525-0.146-0.77V226.669z M275.325,198.178l-4.688,4.688c0-0.098-0.013-0.231-0.037-0.403
			c-0.025-0.17-0.037-0.304-0.037-0.402c0-0.244,0.011-0.487,0.037-0.732c0.024-0.244,0.134-0.487,0.33-0.732l4.395-4.395V198.178z
			 M275.325,200.595v0.879c0,0.245,0.011,0.477,0.037,0.695c0.024,0.221-0.062,0.452-0.256,0.696l-4.468,4.395v-1.978
			L275.325,200.595z M275.984,179.062v1.538l-4.761,4.688h-0.366c0-0.244,0.011-0.561,0.037-0.952
			c0.024-0.391,0.134-0.707,0.33-0.952l4.395-4.321H275.984z M275.618,163.022v0.952l-4.688,4.688v-0.952L275.618,163.022z
			 M275.618,166.538v1.831l-4.688,4.688v-1.831L275.618,166.538z M275.618,170.566c0,0.099,0.011,0.256,0.037,0.476
			c0.024,0.22,0.037,0.355,0.037,0.403c0,0.293,0,0.575,0,0.842c0,0.269-0.123,0.525-0.366,0.769l-4.102,4.028h-0.293v-1.831
			L275.618,170.566z M275.618,174.96v1.831l-4.688,4.688v-1.831L275.618,174.96z M275.984,183.09v1.904l-5.054,5.054v-1.904
			L275.984,183.09z M275.618,187.485h0.586c0,0.586-0.049,1.051-0.146,1.392c-0.099,0.342-0.342,0.732-0.732,1.172
			c-0.293,0.293-0.672,0.672-1.135,1.135c-0.465,0.465-0.916,0.904-1.355,1.318c-0.439,0.416-0.978,0.941-1.611,1.575h-0.293v-1.904
			L275.618,187.485z M275.618,191.879c0,0.099,0.011,0.232,0.037,0.403c0.024,0.171,0.037,0.305,0.037,0.402
			c0,0.245-0.013,0.488-0.037,0.732c-0.025,0.245-0.135,0.465-0.33,0.659l-4.395,4.395v-1.904L275.618,191.879z M277.522,223.886
			l1.611,0.293l-5.127,5.054h-0.366c-0.245,0-0.439-0.013-0.586-0.036c-0.146-0.025-0.318-0.136-0.513-0.33L277.522,223.886z
			 M276.277,214.511c0-4.395,0.061-8.801,0.183-13.221c0.121-4.418,0.256-8.85,0.403-13.293c0.146-4.442,0.268-8.874,0.366-13.293
			c0.097-4.419,0.097-8.85,0-13.294c1.904-0.097,3.809-0.268,5.713-0.513c1.904-0.244,3.809-0.366,5.713-0.366h3.003
			c0.537,0.342,0.854,0.855,0.952,1.538v4.028c0,2.296-0.062,4.53-0.183,6.702c-0.123,2.173-0.501,4.358-1.135,6.555
			c0.146-0.098,0.403-0.305,0.769-0.623c0.366-0.316,0.756-0.646,1.172-0.988c0.414-0.341,0.793-0.659,1.135-0.952
			c0.341-0.293,0.586-0.513,0.732-0.659c1.269-0.977,2.868-1.636,4.797-1.978c1.928-0.341,3.673-0.513,5.237-0.513
			c1.758,0,3.369,0.245,4.834,0.732c1.465,0.488,2.978,1.074,4.541,1.758c0.244,0.099,0.61,0.269,1.099,0.513
			c0.487,0.245,0.756,0.392,0.806,0.439c2.49,1.856,4.625,3.834,6.409,5.933c1.782,2.1,3.087,4.64,3.918,7.617
			c0.048,0.195,0.121,0.477,0.22,0.842c0.097,0.367,0.146,0.599,0.146,0.696v3.369c0,3.125-0.452,6.312-1.355,9.558
			c-0.904,3.248-2.247,6.189-4.028,8.826c-1.783,2.637-4.004,4.797-6.665,6.482c-2.662,1.684-5.75,2.526-9.265,2.526
			c-0.293,0-0.648,0-1.062,0c-0.416,0-0.855-0.013-1.318-0.036c-0.465-0.025-0.904-0.063-1.318-0.11
			c-0.416-0.049-0.769-0.122-1.062-0.22c-1.271-0.487-2.49-1.086-3.662-1.795c-1.172-0.707-2.223-1.549-3.149-2.526
			c-0.099,0.049-0.172,0.146-0.22,0.293c-0.049,0.146-0.099,0.245-0.146,0.293c-0.049,0.146-0.086,0.379-0.11,0.696
			c-0.025,0.317-0.049,0.658-0.073,1.025c-0.025,0.365-0.049,0.708-0.073,1.025c-0.025,0.317-0.037,0.549-0.037,0.695
			c-0.099,0.245-0.366,0.414-0.806,0.513c-0.439,0.098-0.708,0.146-0.806,0.146c-1.025,0.048-1.893,0.085-2.6,0.11
			c-0.708,0.023-1.428,0.061-2.161,0.109c-0.732,0.048-1.344,0.073-1.831,0.073h-0.146h-0.146c-0.099,0-0.33-0.013-0.696-0.036
			c-0.366-0.025-0.769-0.063-1.208-0.11c-0.439-0.049-0.842-0.086-1.208-0.11s-0.599-0.036-0.696-0.036h-1.904
			c-0.732-0.099-1.307-0.306-1.721-0.622c-0.416-0.317-0.721-0.721-0.916-1.209c-0.196-0.487-0.318-1.025-0.366-1.611
			c-0.049-0.586-0.073-1.22-0.073-1.904V214.511z M281.624,224.179c0.097,0,0.304,0.024,0.623,0.073
			c0.317,0.048,0.524,0.121,0.623,0.22l-4.688,4.761h-1.904l4.688-4.761c0.048-0.099,0.158-0.172,0.33-0.22
			C281.465,224.204,281.574,224.179,281.624,224.179z M287.263,224.472l-4.688,4.761c-0.293,0-0.538,0.024-0.732,0.073
			c-0.245,0.048-0.465,0.085-0.659,0.109c-0.196,0.024-0.366,0.062-0.513,0.11h-0.146h-0.22l5.054-5.054H287.263z M291.658,224.179
			c-0.049,0.048-0.11,0.146-0.183,0.293s-0.135,0.268-0.183,0.366c-0.099,0.098-0.293,0.293-0.586,0.586s-0.599,0.61-0.916,0.952
			c-0.318,0.341-0.623,0.659-0.916,0.952s-0.513,0.487-0.659,0.586c-0.196,0.194-0.489,0.451-0.879,0.769
			c-0.392,0.317-0.635,0.501-0.732,0.55h-0.952H284.7l4.688-4.761c0.097,0,0.33-0.037,0.696-0.109
			c0.366-0.074,0.67-0.136,0.916-0.184h0.293H291.658z M296.345,221.982l0.073-0.073c0.244,0,0.476,0.073,0.696,0.22
			s0.377,0.293,0.476,0.439l-4.98,5.054h-0.22c-0.392,0-0.758-0.22-1.099-0.659L296.345,221.982z M292.903,199.79
			c0,1.271,0.293,2.516,0.879,3.735c0.586,1.221,1.355,2.319,2.307,3.296c0.952,0.978,2.025,1.771,3.223,2.38
			c1.196,0.611,2.428,0.916,3.699,0.916c1.172,0,2.258-0.268,3.259-0.806c1-0.537,1.904-1.22,2.71-2.051
			c0.806-0.83,1.489-1.782,2.051-2.856c0.561-1.073,1.013-2.124,1.355-3.149c0-0.048,0.048-0.268,0.146-0.659
			c0.048-0.194,0.097-0.366,0.146-0.513v-2.856v-2.856c-0.099-0.537-0.208-0.866-0.33-0.989c-0.123-0.121-0.33-0.427-0.623-0.915
			c-0.538-0.83-1.025-1.525-1.465-2.087s-1.099-1.11-1.978-1.648c-0.978-0.537-1.868-0.988-2.673-1.355
			c-0.806-0.365-1.771-0.549-2.893-0.549c-1.856,0-3.406,0.379-4.651,1.135c-1.245,0.758-2.247,1.747-3.003,2.967
			c-0.758,1.221-1.307,2.6-1.648,4.139C293.073,196.603,292.903,198.178,292.903,199.79z M294.221,228.281l4.688-4.761h0.146
			c0.487,0,0.927,0.121,1.318,0.366l-4.98,4.98c0,0.048-0.025,0.073-0.073,0.073h-0.22c-0.099,0-0.293-0.036-0.586-0.11
			c-0.293-0.072-0.439-0.231-0.439-0.476L294.221,228.281z M295.1,220.444c0.146,0,0.22,0.11,0.22,0.329
			c0,0.221-0.073,0.33-0.22,0.33c-0.196,0-0.293-0.109-0.293-0.33C294.807,220.554,294.904,220.444,295.1,220.444z M299.788,188.73
			l0.293-0.146l0.293-0.146c0.097,0,0.341-0.048,0.732-0.146c0.39-0.098,0.683-0.146,0.879-0.146h0.146h0.146l-4.98,4.98h-1.611
			v-0.293L299.788,188.73z M304.256,224.179v0.293l-4.834,4.761h-1.831l5.054-5.054H304.256z M304.475,188.437h0.146
			c0.537,0,0.903,0.22,1.099,0.659l-4.98,4.98h-0.146c-0.439,0-0.831-0.22-1.172-0.659L304.475,188.437z M308.504,224.179
			c0,0.048-0.025,0.146-0.073,0.293c-0.049,0.146-0.099,0.268-0.146,0.366c-0.439,0.439-0.879,0.915-1.318,1.429
			c-0.439,0.512-0.916,0.988-1.428,1.428s-1.062,0.806-1.648,1.099s-1.221,0.439-1.904,0.439h-0.293l4.688-4.761
			c0.244-0.049,0.487-0.099,0.732-0.146c0.194-0.049,0.403-0.073,0.623-0.073s0.403-0.025,0.549-0.073h0.146H308.504z
			 M302.278,194.736l4.761-4.688h0.146c0.048,0,0.073-0.012,0.073-0.037c0-0.023,0.024-0.036,0.073-0.036
			c0.194,0,0.414,0.036,0.659,0.11c0.244,0.072,0.366,0.256,0.366,0.549c0,0.049-0.013,0.099-0.037,0.146
			c-0.025,0.049-0.037,0.122-0.037,0.22c-0.146,0.146-0.416,0.403-0.806,0.769c-0.392,0.367-0.806,0.77-1.245,1.209
			s-0.842,0.854-1.208,1.245c-0.366,0.392-0.623,0.659-0.769,0.806c-0.099,0.099-0.269,0.208-0.513,0.33
			c-0.245,0.122-0.392,0.231-0.439,0.329c-0.049,0-0.159-0.048-0.33-0.146c-0.172-0.098-0.282-0.171-0.33-0.22
			c-0.049,0-0.11-0.037-0.183-0.109c-0.073-0.074-0.135-0.135-0.183-0.184v-0.22V194.736z M309.456,191.879h0.073
			c0.048,0,0.073-0.012,0.073-0.036s0.024-0.037,0.073-0.037c0.244,0,0.377,0.109,0.403,0.33c0.024,0.219,0.037,0.428,0.037,0.622
			v0.366l-4.688,4.688l-0.146,0.073l-0.146-0.073c-0.099-0.098-0.245-0.256-0.439-0.477c-0.196-0.219-0.269-0.377-0.22-0.476
			L309.456,191.879z M311.067,194.37h0.293v1.538l-4.688,4.688c-0.049,0-0.099-0.024-0.146-0.073l-0.146-0.146
			c-0.049-0.146-0.123-0.341-0.22-0.586c-0.099-0.244-0.123-0.366-0.073-0.366L311.067,194.37z M309.163,204.77
			c-0.245,0.488-0.635,1.038-1.172,1.647c-0.538,0.611-1.075,0.989-1.611,1.136L309.163,204.77z M311.36,198.471
			c0,0.049,0.011,0.172,0.037,0.366c0.024,0.195,0.037,0.318,0.037,0.366c0,0.293-0.013,0.55-0.037,0.769
			c-0.025,0.221-0.135,0.429-0.33,0.623l-4.395,4.468v-1.904L311.36,198.471z M313.85,222.568c-0.685,0.83-1.575,1.732-2.673,2.71
			c-1.099,0.977-2.161,1.659-3.186,2.051l3.735-3.809c0.048-0.049,0.121-0.099,0.22-0.146c0.097-0.049,0.17-0.073,0.22-0.073
			c0.048,0,0.121-0.025,0.22-0.073c0.097-0.049,0.341-0.159,0.732-0.329C313.508,222.726,313.752,222.616,313.85,222.568z"/>
		<path fill="#8DC63F" d="M334.973,166.098l-4.688,4.834v-0.513c0-0.83,0.293-1.611,0.879-2.344c0.146-0.146,0.39-0.403,0.732-0.769
			c0.341-0.366,0.707-0.756,1.099-1.172c0.391-0.414,0.78-0.793,1.172-1.135c0.391-0.341,0.659-0.586,0.806-0.732V166.098z
			 M334.973,168.369c0.194,0.196,0.305,0.379,0.329,0.549c0.024,0.172,0.037,0.379,0.037,0.623v0.439l-5.054,4.98v-1.904
			L334.973,168.369z M335.633,186.533l-4.688,4.688v-0.146V191c0-0.146,0.011-0.317,0.037-0.513c0.024-0.194,0.061-0.414,0.11-0.659
			c0.048-0.194,0.073-0.439,0.073-0.732l4.468-4.395V186.533z M335.852,188.73v1.904l-4.907,5.054v-1.904L335.852,188.73z
			 M331.165,176.572l5.054-5.127l0.952,0.952l-5.054,5.054c0,0.049-0.025,0.073-0.073,0.073c-0.049,0.049-0.123,0.073-0.22,0.073
			c-0.245,0-0.416-0.098-0.513-0.293c-0.099-0.194-0.146-0.414-0.146-0.659V176.572z M335.852,180.307v1.831l-4.688,4.688v-1.831
			L335.852,180.307z M335.852,192.832v2.197l-4.688,4.688v-2.197L335.852,192.832z M335.852,197.226v1.904l-4.688,4.688v-1.904
			L335.852,197.226z M335.852,201.254v1.904l-4.688,4.688v-1.904L335.852,201.254z M336.218,205.429v1.831l-4.761,4.688h-0.293
			v-1.538L336.218,205.429z M336.218,209.458v0.952c0,0.245,0,0.501,0,0.77s-0.122,0.524-0.366,0.769l-4.028,4.028h-0.366v-1.831
			L336.218,209.458z M336.218,213.852v1.904l-4.761,4.688v-1.904L336.218,213.852z M336.218,217.88h0.293v1.611l-4.688,4.688h-0.366
			v-1.611L336.218,217.88z M331.751,226.816c0-0.049,0.023-0.099,0.073-0.146l4.688-4.688h0.073c0.048,0,0.073-0.012,0.073-0.037
			c0-0.023,0.024-0.036,0.073-0.036l0.073,0.073c0.146,0.099,0.293,0.269,0.439,0.513s0.22,0.391,0.22,0.439l-5.054,4.98
			l-0.073,0.073c-0.245,0-0.402-0.099-0.477-0.293c-0.072-0.195-0.109-0.415-0.109-0.659V226.816z M333.362,178.403l4.761-4.688
			h0.146c0.048,0,0.073-0.011,0.073-0.037c0-0.024,0.024-0.037,0.073-0.037c0.244,0,0.451,0.037,0.623,0.11
			c0.17,0.073,0.377,0.159,0.622,0.256l-0.293,0.659l-4.028,4.028c-0.245,0.245-0.586,0.366-1.025,0.366
			c-0.146,0-0.342-0.024-0.586-0.073c-0.245-0.048-0.366-0.171-0.366-0.366V178.403z M339.075,223.52h1.831v0.366
			c-0.635,0.634-1.172,1.172-1.611,1.611s-0.892,0.879-1.355,1.318s-0.842,0.806-1.135,1.099c-0.392,0.391-0.758,0.622-1.099,0.696
			c-0.342,0.072-0.806,0.109-1.392,0.109v-0.439L339.075,223.52z M340.906,158.994c0.146,0,0.487-0.011,1.025-0.037
			c0.537-0.024,0.854-0.037,0.952-0.037c0.146,0,0.329,0.013,0.55,0.037c0.219,0.025,0.45,0.037,0.695,0.037h0.879
			c0.244,0,0.634,0.135,1.172,0.403c0.537,0.269,0.879,0.452,1.025,0.549c0.586,0.342,1.073,0.696,1.465,1.062
			c0.391,0.366,0.854,0.818,1.392,1.355c0.537,0.685,0.866,1.38,0.989,2.087c0.121,0.708,0.183,1.478,0.183,2.307v1.904
			c0,0.439-0.195,0.941-0.586,1.501c-0.392,0.562-0.854,1.099-1.392,1.611c-0.538,0.513-1.111,0.952-1.721,1.318
			c-0.611,0.366-1.161,0.575-1.648,0.623h-1.685c-1.318,0-2.649-0.268-3.991-0.806c-1.344-0.537-2.356-1.416-3.04-2.637
			c-0.099-0.146-0.232-0.403-0.403-0.769s-0.256-0.646-0.256-0.842v-4.98c0-0.097,0.121-0.377,0.366-0.842
			c0.244-0.463,0.439-0.793,0.586-0.989c0.391-0.537,0.915-1.099,1.575-1.685C339.697,159.58,340.32,159.189,340.906,158.994z
			 M337.757,217.88c0-0.048-0.013-0.598-0.036-1.648c-0.025-1.049-0.05-2.392-0.074-4.027s-0.062-3.479-0.109-5.53
			c-0.049-2.051-0.099-4.113-0.146-6.188c-0.049-2.075-0.099-4.053-0.146-5.934c-0.049-1.879-0.073-3.503-0.073-4.87v-2.563v-2.417
			c0-0.487,0.012-1.086,0.036-1.794s0.062-1.403,0.11-2.088c0.048-0.78,0.098-1.586,0.146-2.417l0.659-0.293h11.938
			c0.048,0,0.146,0.073,0.293,0.22s0.22,0.269,0.22,0.366c0.098,0.146,0.171,0.501,0.22,1.062c0.048,0.563,0.098,0.965,0.146,1.209
			l1.904,39.185v0.293c0,0.392-0.073,0.745-0.22,1.062c-0.146,0.318-0.392,0.575-0.732,0.77h-2.051h-2.051
			c-0.685,0-1.526-0.024-2.527-0.073c-1.001-0.048-1.989-0.085-2.966-0.11c-0.978-0.023-2.173-0.061-3.589-0.109l-0.586-0.659
			L337.757,217.88z M345.374,223.52l-4.834,4.761c-0.195,0.194-0.403,0.293-0.622,0.293c-0.221,0-0.477,0-0.77,0h-0.732l4.98-5.054
			H345.374z M341.785,174.96c0.098,0,0.28-0.012,0.549-0.037c0.269-0.023,0.428,0.086,0.477,0.33
			c-0.049,0.099-0.245,0.318-0.586,0.659c-0.342,0.342-0.586,0.562-0.732,0.659c-0.099,0.049-0.22,0.073-0.366,0.073h-0.586
			c-0.049,0-0.183-0.012-0.403-0.036c-0.219-0.024-0.378-0.037-0.476-0.037c0.098-0.244,0.341-0.549,0.732-0.916
			c0.391-0.365,0.659-0.597,0.806-0.695H341.785z M349.402,223.52l-4.98,5.054h-1.978l4.761-4.688
			c0.194-0.245,0.414-0.366,0.659-0.366c0.244,0,0.487,0,0.732,0H349.402z M346.546,174.96c-0.099,0.146-0.329,0.428-0.696,0.842
			c-0.365,0.416-0.647,0.672-0.842,0.77h-0.586h-0.659C344.396,175.352,345.325,174.814,346.546,174.96z"/>
		<path fill="#8DC63F" d="M361.297,199.13v1.904l-4.688,4.688v-1.904L361.297,199.13z M361.663,202.866
			c0.048,0.099,0.109,0.354,0.184,0.769c0.072,0.416,0.109,0.672,0.109,0.77c0,0.049-0.086,0.184-0.256,0.402
			c-0.172,0.221-0.306,0.379-0.403,0.477c-0.293,0.342-0.672,0.745-1.136,1.209s-0.915,0.915-1.354,1.354
			c-0.538,0.538-1.051,1.074-1.538,1.611h-0.439v-1.904L361.663,202.866z M357.122,211.875l0.073-0.146
			c0-0.048,0.024-0.098,0.073-0.146l4.907-4.98v1.904l-4.688,4.688c-0.099-0.244-0.183-0.464-0.257-0.659
			C357.159,212.339,357.122,212.12,357.122,211.875z M362.175,193.857v0.22c0,0.099-0.025,0.306-0.073,0.622
			c-0.049,0.318-0.099,0.525-0.146,0.623c-0.099,0.195-0.172,0.366-0.22,0.513c-0.049,0.146-0.073,0.269-0.073,0.366l-4.175,4.175
			v-0.22c0-0.341,0.098-0.806,0.293-1.392c0.194-0.586,0.414-1,0.659-1.245l3.735-3.735V193.857z M358.074,214.877
			c0-0.048,0.024-0.073,0.073-0.073l4.688-4.688l0.073-0.073c0.048,0,0.073-0.012,0.073-0.036s0.024-0.037,0.073-0.037
			c0.194,0,0.317,0.146,0.366,0.439c0.048,0.293,0.073,0.513,0.073,0.659v0.22l-4.761,4.688h-0.073
			c-0.245,0-0.403-0.121-0.476-0.366c-0.074-0.244-0.11-0.414-0.11-0.513V214.877z M364.08,187.778
			c-0.049,0.195-0.135,0.574-0.257,1.136s-0.231,0.94-0.329,1.135c-0.049,0.049-0.11,0.159-0.183,0.33
			c-0.074,0.171-0.136,0.256-0.184,0.256l-4.028,4.102c0.146-0.586,0.329-1.196,0.55-1.831c0.219-0.634,0.549-1.196,0.988-1.685
			c0.146-0.146,0.378-0.378,0.695-0.695s0.66-0.66,1.025-1.025c0.367-0.367,0.721-0.708,1.063-1.025
			C363.761,188.157,363.981,187.924,364.08,187.778z M364.446,212.9l0.073-0.073c0.048,0,0.073,0.013,0.073,0.036
			c0,0.025,0.024,0.037,0.073,0.037h0.073l0.146,0.146l0.146,0.146c0.098,0.099,0.184,0.22,0.256,0.366
			c0.074,0.146,0.11,0.245,0.11,0.293l-5.054,4.98c0,0.049-0.025,0.073-0.073,0.073h-0.146l-0.073-0.073
			c-0.049,0-0.109-0.036-0.184-0.11c-0.072-0.072-0.135-0.134-0.183-0.183c-0.049-0.098-0.11-0.22-0.183-0.366
			c-0.074-0.146-0.11-0.244-0.11-0.293L364.446,212.9z M361.297,220.151l5.054-5.054c0.439,0.245,0.659,0.635,0.659,1.172
			c0,0.049-0.013,0.086-0.036,0.109c-0.025,0.025-0.037,0.063-0.037,0.11c-0.049,0.049-0.073,0.099-0.073,0.146
			c-0.146,0.146-0.403,0.415-0.769,0.806c-0.367,0.392-0.77,0.806-1.209,1.245s-0.854,0.843-1.245,1.208
			c-0.392,0.367-0.659,0.623-0.806,0.77c-0.049,0.099-0.184,0.22-0.402,0.366c-0.221,0.146-0.379,0.245-0.477,0.293
			c-0.245-0.098-0.415-0.257-0.513-0.476c-0.099-0.221-0.146-0.428-0.146-0.623V220.151z M362.835,199.497
			c0-1.709,0.184-3.234,0.549-4.577c0.367-1.343,0.817-2.868,1.355-4.578c0.048-0.146,0.121-0.391,0.22-0.732
			c0.098-0.341,0.22-0.707,0.366-1.099c0.146-0.391,0.28-0.78,0.402-1.172c0.122-0.391,0.208-0.659,0.257-0.806
			c0.341-0.879,0.903-1.77,1.685-2.674c0.78-0.902,1.465-1.695,2.051-2.38c1.513-1.563,3.149-2.819,4.907-3.772
			c1.758-0.951,3.687-1.769,5.787-2.453c1.22-0.391,2.404-0.598,3.553-0.623c1.146-0.023,2.354-0.036,3.625-0.036
			c0.146,0,0.414,0,0.806,0c0.391,0,0.806,0.013,1.245,0.036c0.439,0.025,0.866,0.037,1.281,0.037s0.696,0,0.843,0
			c1.563,0.245,3.137,0.708,4.724,1.392c1.587,0.685,3.101,1.514,4.541,2.49c1.44,0.978,2.759,2.1,3.955,3.369
			c1.196,1.271,2.186,2.612,2.967,4.028c1.952,3.418,2.93,7.031,2.93,10.84c0,0.831-0.025,1.6-0.073,2.307
			c-0.049,0.709-0.195,1.355-0.439,1.941c-0.245,0.586-0.622,1.063-1.136,1.428c-0.512,0.367-1.257,0.599-2.233,0.696
			c-0.245,0-0.635,0.025-1.172,0.073c-0.538,0.049-1.099,0.086-1.685,0.109c-0.586,0.025-1.147,0.05-1.685,0.074
			c-0.538,0.024-0.904,0.036-1.099,0.036c-0.635,0-1.624,0.013-2.967,0.036c-1.343,0.025-2.855,0.037-4.541,0.037
			c-1.684,0-3.454,0-5.31,0c-1.856,0-3.626,0-5.31,0c-1.686,0-3.199-0.012-4.541-0.037c-1.344-0.023-2.333-0.036-2.967-0.036
			c-0.195,0.099-0.293,0.22-0.293,0.366v0.073v0.22c0.487,2.197,1.356,4.028,2.6,5.493c1.246,1.465,2.967,2.442,5.164,2.93
			c0.098,0,0.305,0,0.623,0c0.316,0,0.646,0.013,0.988,0.036c0.341,0.025,0.659,0.037,0.952,0.037s0.513,0,0.659,0
			c1.709,0,3.332-0.146,4.871-0.439c1.537-0.293,3.039-0.879,4.504-1.758c0.098-0.048,0.341-0.22,0.732-0.513
			c0.391-0.293,0.817-0.598,1.281-0.915s0.903-0.61,1.318-0.879s0.671-0.451,0.77-0.55c0.244-0.194,0.414-0.305,0.513-0.329
			c0.098-0.024,0.268-0.037,0.513-0.037c0.293,0,0.487,0.013,0.586,0.037c0.098,0.024,0.268,0.135,0.513,0.329
			c0.098,0.099,0.305,0.257,0.622,0.476c0.317,0.221,0.66,0.465,1.025,0.732c0.367,0.27,0.732,0.525,1.1,0.77
			c0.365,0.245,0.622,0.439,0.769,0.586c0.537,0.392,1.146,0.842,1.831,1.355c0.684,0.512,1.025,1.11,1.025,1.794
			c0,0.392-0.037,0.732-0.109,1.025c-0.074,0.293-0.282,0.562-0.623,0.806c-0.195,0.195-0.538,0.549-1.025,1.063
			c-0.488,0.512-1.014,1.05-1.574,1.611c-0.563,0.562-1.111,1.098-1.648,1.611c-0.538,0.512-0.904,0.867-1.099,1.062
			c-0.538,0.538-1.197,1.025-1.978,1.465c-0.781,0.439-1.587,0.78-2.417,1.025c-0.245,0.098-0.55,0.194-0.915,0.293
			c-0.367,0.098-0.745,0.194-1.136,0.293c-0.439,0.146-0.879,0.268-1.318,0.366h-10.986c-0.099,0-0.379-0.049-0.843-0.146
			c-0.464-0.099-0.794-0.172-0.988-0.22c-0.685-0.146-1.44-0.329-2.271-0.55c-0.831-0.219-1.563-0.45-2.197-0.695
			c-0.635-0.244-1.234-0.561-1.794-0.952c-0.563-0.391-1.111-0.78-1.648-1.172c-1.904-1.563-3.553-3.04-4.943-4.431
			c-1.393-1.393-2.54-2.857-3.443-4.395c-0.903-1.539-1.563-3.247-1.977-5.127C363.042,204.319,362.835,202.085,362.835,199.497z
			 M368.181,217.587h0.146h0.146c0.048,0.049,0.158,0.146,0.329,0.293s0.281,0.269,0.33,0.366v0.073v0.22l-4.688,4.688h-0.293
			c-0.392,0-0.732-0.22-1.025-0.659L368.181,217.587z M370.379,219.492l0.073-0.073c0.048,0,0.085-0.012,0.109-0.036
			s0.062-0.037,0.11-0.037c0.391,0,0.732,0.269,1.025,0.806l-5.054,4.98h-0.146c-0.538,0-0.904-0.22-1.099-0.659L370.379,219.492z
			 M372.869,221.323h0.22h0.073c0.098,0.099,0.22,0.208,0.366,0.329c0.146,0.123,0.244,0.232,0.293,0.33v0.146v0.146l-4.688,4.688
			l-0.293,0.073c-0.439,0-0.781-0.22-1.025-0.659L372.869,221.323z M370.379,227.915l5.054-4.98l1.172,0.586v0.366
			c-0.489,0.537-1.001,1.073-1.539,1.611c-0.439,0.439-0.892,0.891-1.354,1.355c-0.465,0.463-0.843,0.816-1.136,1.062
			c-0.245,0.293-0.439,0.476-0.586,0.55c-0.146,0.072-0.342,0.109-0.586,0.109c-0.195,0-0.415-0.013-0.659-0.037
			c-0.245-0.024-0.366-0.158-0.366-0.402V227.915z M378.509,224.179l1.538,0.366l-4.981,4.98c-0.099,0.048-0.172,0.073-0.22,0.073
			h-0.293c-0.146,0-0.33-0.013-0.549-0.037c-0.221-0.024-0.379-0.135-0.477-0.329L378.509,224.179z M378.509,204.77
			c-0.049,0.245-0.208,0.476-0.477,0.696c-0.269,0.219-0.524,0.378-0.769,0.476c-0.245-0.391-0.366-0.78-0.366-1.172H378.509z
			 M381.732,225.131h1.831l-5.054,5.054h-1.611v-0.366L381.732,225.131z M380.779,205.063h1.831l-3.442,3.442l-0.952-0.952
			L380.779,205.063z M388.983,186.533c-0.978,0-1.99,0.122-3.04,0.366c-1.05,0.245-2.063,0.611-3.039,1.099
			c-0.978,0.488-1.856,1.111-2.637,1.867c-0.781,0.758-1.367,1.624-1.758,2.601v0.22v0.146c0.194-0.048,0.623-0.121,1.281-0.22
			c0.66-0.098,1.087-0.146,1.282-0.146h8.423c0.341,0,0.927-0.012,1.758-0.036c0.83-0.024,1.709-0.049,2.637-0.074
			c0.927-0.023,1.806-0.048,2.637-0.072c0.83-0.024,1.416-0.062,1.758-0.11v-0.293c0-0.391-0.122-0.684-0.366-0.879
			c-1.271-1.465-2.576-2.575-3.919-3.333C392.656,186.912,390.985,186.533,388.983,186.533z M386.639,205.063l-4.688,4.688h-1.831
			l4.688-4.688H386.639z M385.76,225.351h1.831l-4.688,4.834c-0.245,0.194-0.549,0.305-0.916,0.33
			c-0.365,0.023-0.671,0.036-0.915,0.036v-0.366L385.76,225.351z M386.639,188.071l-3.076,3.149h-1.611V191
			c0-0.048,0.073-0.158,0.22-0.329s0.317-0.354,0.513-0.55c0.194-0.194,0.403-0.391,0.622-0.586c0.221-0.194,0.403-0.341,0.55-0.439
			c0.293-0.244,0.707-0.476,1.245-0.696c0.537-0.219,1-0.329,1.392-0.329H386.639z M391.107,204.77v0.293l-4.468,4.395
			c-0.195,0.195-0.415,0.306-0.659,0.329c-0.245,0.025-0.488,0.037-0.732,0.037c-0.049,0-0.172-0.012-0.366-0.037
			c-0.195-0.023-0.318-0.036-0.366-0.036l4.98-4.98H391.107z M391.986,225.351c-0.146,0.146-0.402,0.427-0.77,0.842
			c-0.365,0.415-0.769,0.843-1.208,1.282s-0.867,0.854-1.282,1.245c-0.415,0.391-0.695,0.659-0.842,0.806
			c-0.392,0.391-0.672,0.598-0.842,0.622c-0.172,0.024-0.525,0.037-1.063,0.037h-0.879l4.761-4.834H391.986z M389.862,187.778
			c0.098,0,0.305,0.049,0.622,0.146c0.317,0.099,0.524,0.146,0.623,0.146l-3.223,3.149h-1.904l3.516-3.442h0.146H389.862z
			 M393.597,204.77h0.22c0.048,0,0.098-0.012,0.146-0.036c0.048-0.024,0.098-0.037,0.146-0.037c0.194,0,0.427,0.025,0.696,0.073
			c0.268,0.049,0.402,0.195,0.402,0.439l-0.073,0.073l-4.028,4.175c-0.245,0.195-0.439,0.306-0.586,0.329
			c-0.146,0.025-0.342,0.037-0.586,0.037c-0.195,0-0.379-0.012-0.549-0.037c-0.172-0.023-0.355-0.134-0.55-0.329L393.597,204.77z
			 M396.673,224.838l-4.028,4.028c-0.049,0.048-0.146,0.109-0.293,0.184c-0.146,0.072-0.269,0.134-0.366,0.183
			c-0.099,0.048-0.439,0.134-1.025,0.257c-0.586,0.121-0.952,0.23-1.099,0.329l4.321-4.468c0.048,0,0.158-0.037,0.33-0.109
			c0.17-0.074,0.28-0.11,0.329-0.11c0.048,0,0.268-0.049,0.659-0.146c0.391-0.099,0.707-0.146,0.952-0.146h0.073H396.673z
			 M392.645,188.73h0.293c0.146,0,0.341,0.025,0.586,0.073c0.244,0.049,0.366,0.172,0.366,0.366c0,0.439-0.122,0.794-0.366,1.063
			c-0.245,0.269-0.55,0.488-0.915,0.658c-0.367,0.172-0.745,0.282-1.136,0.33c-0.392,0.049-0.732,0.049-1.025,0V191L392.645,188.73z
			 M399.896,204.77c-0.146,0.146-0.402,0.392-0.77,0.732c-0.365,0.342-0.744,0.708-1.135,1.099c-0.392,0.392-0.781,0.77-1.172,1.135
			c-0.392,0.367-0.659,0.623-0.806,0.77c-0.342,0.293-0.758,0.586-1.245,0.879c-0.488,0.293-0.928,0.439-1.318,0.439
			c-0.099,0-0.195-0.012-0.293-0.037c-0.099-0.023-0.172-0.036-0.22-0.036l4.98-4.98H399.896z M395.794,190.341
			c0.048,0.049,0.146,0.146,0.293,0.293s0.268,0.269,0.366,0.366h-1.611c0.098-0.341,0.317-0.561,0.659-0.659h0.073H395.794z
			 M401.141,205.722c0.048-0.146,0.183-0.341,0.403-0.586c0.219-0.244,0.377-0.366,0.476-0.366c0-0.048,0.121-0.073,0.366-0.073
			c0.244,0,0.439,0,0.586,0c0.098,0,0.268,0,0.513,0c0.244,0,0.391,0.025,0.439,0.073c-0.099,0.099-0.306,0.293-0.622,0.586
			c-0.318,0.293-0.525,0.488-0.623,0.586h-0.146h-0.22c-0.099,0-0.293-0.036-0.586-0.11
			C401.434,205.759,401.238,205.722,401.141,205.722z M406.707,204.404h0.952v0.366l-2.783,2.783h-0.146h-0.146
			c-0.049,0-0.159-0.048-0.33-0.146c-0.171-0.098-0.281-0.146-0.329-0.146L406.707,204.404z"/>
		<path fill="#8DC63F" d="M414.427,186.167c0-0.048,0.024-0.121,0.073-0.22l5.127-4.98v1.831l-4.834,4.688
			c-0.195-0.048-0.306-0.207-0.33-0.476s-0.036-0.451-0.036-0.55V186.167z M419.188,185.288c0.146,0.245,0.256,0.452,0.33,0.622
			c0.072,0.172,0.109,0.379,0.109,0.623c0,0.293-0.049,0.501-0.146,0.623c-0.099,0.122-0.269,0.329-0.513,0.622
			c-0.293,0.293-0.647,0.647-1.062,1.062c-0.416,0.416-0.818,0.818-1.209,1.209c-0.392,0.392-0.732,0.732-1.025,1.025
			s-0.465,0.439-0.513,0.439l-0.659,0.366v-0.366v-0.293c0.098-0.244,0.171-0.549,0.22-0.916c0.048-0.365,0.073-0.573,0.073-0.622
			L419.188,185.288z M414.793,194.077l5.054-4.98V191l-4.688,4.688c-0.049-0.098-0.099-0.317-0.146-0.659
			c-0.049-0.341-0.122-0.561-0.22-0.659v-0.22V194.077z M415.159,198.178c0-0.098,0.036-0.207,0.11-0.329
			c0.072-0.122,0.134-0.231,0.183-0.33l4.395-4.395h0.293v1.611l-4.688,4.688c-0.049-0.048-0.11-0.194-0.183-0.439
			c-0.074-0.244-0.11-0.414-0.11-0.513v-0.22V198.178z M420.14,197.226v1.904l-4.688,4.688v-1.904L420.14,197.226z M420.14,201.254
			c0.194,0.245,0.305,0.439,0.329,0.586s0.037,0.342,0.037,0.586c0,0.342-0.037,0.574-0.109,0.696
			c-0.074,0.122-0.257,0.354-0.55,0.695c-0.293,0.293-0.672,0.672-1.136,1.135c-0.464,0.465-0.915,0.916-1.354,1.355
			s-0.978,0.952-1.611,1.538h-0.293v-1.904L420.14,201.254z M420.506,205.283v1.978l-4.761,4.688v-1.831L420.506,205.283z
			 M420.506,209.458v1.831l-4.761,4.688v-1.831L420.506,209.458z M415.745,218.54l5.054-5.054v1.831l-4.688,4.834
			c-0.245-0.098-0.366-0.268-0.366-0.513c0-0.244,0-0.414,0-0.513V218.54z M420.799,221.982c0.194,0.099,0.305,0.22,0.33,0.366
			c0.023,0.146,0.036,0.293,0.036,0.439c0,0.194-0.013,0.378-0.036,0.55c-0.025,0.17-0.136,0.354-0.33,0.549l-4.688,4.688
			l-0.366-1.611L420.799,221.982z M420.799,217.587v0.659c0,0.978-0.318,1.783-0.952,2.417c-0.099,0.146-0.306,0.379-0.622,0.695
			c-0.318,0.318-0.636,0.648-0.953,0.989s-0.635,0.659-0.951,0.952c-0.318,0.293-0.525,0.487-0.623,0.586
			c-0.049,0-0.146,0.048-0.293,0.146c-0.146,0.098-0.245,0.146-0.293,0.146v-1.904L420.799,217.587z M422.703,224.472
			c0.098,0,0.293,0.037,0.586,0.109c0.293,0.074,0.487,0.158,0.586,0.257l-4.688,4.688h-1.831l4.688-4.688
			c0.048-0.099,0.146-0.183,0.293-0.257C422.484,224.509,422.605,224.472,422.703,224.472z M420.506,179.355
			c0-0.146,0.037-0.464,0.109-0.952c0.074-0.487,0.135-0.806,0.184-0.952c0-0.048,0.048-0.109,0.146-0.184
			c0.098-0.072,0.146-0.134,0.146-0.183c0.977-0.341,1.952-0.537,2.93-0.586c0.977-0.048,1.929-0.073,2.856-0.073
			c0.194,0,0.464,0.013,0.806,0.037c0.341,0.024,0.671,0.036,0.988,0.036s0.721,0.025,1.209,0.073c0.146,0,0.549,0.025,1.209,0.073
			c0.658,0.049,1.109,0.099,1.354,0.146c0.83,0.146,1.22,0.465,1.172,0.952c-0.049,0.488-0.073,1.124-0.073,1.904h0.366
			c0.244-0.098,0.659-0.28,1.245-0.549s1.22-0.562,1.904-0.879c0.684-0.317,1.318-0.61,1.904-0.879s1-0.451,1.245-0.55
			c0.977-0.391,1.929-0.634,2.856-0.732c0.927-0.098,1.879-0.146,2.856-0.146c1.073,0,2.209,0.122,3.405,0.366
			c1.196,0.245,2.355,0.611,3.479,1.099c1.123,0.488,2.148,1.099,3.076,1.831c0.927,0.732,1.685,1.611,2.271,2.637
			c0.244,0.392,0.414,0.659,0.513,0.806c0.098,0.146,0.146,0.392,0.146,0.732c0,0.538-0.245,1.038-0.732,1.501
			c-0.488,0.465-0.879,0.818-1.172,1.063c-0.099,0.099-0.354,0.306-0.769,0.623c-0.416,0.317-0.879,0.671-1.393,1.062
			c-0.512,0.392-1.014,0.781-1.501,1.172c-0.488,0.392-0.854,0.685-1.099,0.879c-0.538,0.392-1.051,0.708-1.538,0.952
			c-0.488,0.245-1.074,0.366-1.758,0.366c-0.685,0-1.318-0.098-1.904-0.293c-0.586-0.194-1.172-0.427-1.758-0.696
			c-0.586-0.268-1.185-0.5-1.794-0.695c-0.611-0.194-1.258-0.293-1.941-0.293c-0.293,0-0.562,0-0.806,0
			c-0.245,0-0.488,0.122-0.732,0.366c-1.367,1.172-2.417,2.344-3.149,3.516s-1.271,2.405-1.611,3.698
			c-0.342,1.295-0.538,2.662-0.586,4.102c-0.049,1.441-0.073,3.04-0.073,4.798c0,0.293,0,0.659,0,1.099s0.012,0.892,0.036,1.355
			s0.037,0.867,0.037,1.208c0,0.342,0,0.538,0,0.586c0.048,0.293,0.134,1.038,0.256,2.233c0.122,1.197,0.257,2.49,0.403,3.883
			c0.146,1.391,0.28,2.686,0.403,3.881c0.121,1.197,0.183,1.941,0.183,2.234v0.513c0,0.098,0,0.244,0,0.439
			c0,0.194-0.099,0.293-0.293,0.293h-12.817c-0.195,0-0.293-0.099-0.293-0.293c-0.049-0.195-0.122-0.561-0.22-1.099
			c-0.099-0.537-0.146-0.927-0.146-1.172v-6.812c0-0.341-0.013-1.073-0.036-2.197c-0.025-1.123-0.063-2.417-0.11-3.882
			c-0.049-1.465-0.099-3.039-0.146-4.725c-0.049-1.684-0.099-3.271-0.146-4.76c-0.049-1.489-0.086-2.783-0.11-3.883
			c-0.024-1.098-0.036-1.842-0.036-2.233V191c0-0.146-0.036-0.487-0.11-1.025c-0.072-0.537-0.146-1.11-0.219-1.722
			c-0.074-0.609-0.146-1.172-0.221-1.684c-0.072-0.514-0.109-0.817-0.109-0.916v-4.395c0-0.048-0.013-0.171-0.037-0.366
			c-0.024-0.194-0.062-0.403-0.109-0.622c-0.049-0.221-0.086-0.415-0.109-0.586C420.518,179.514,420.506,179.404,420.506,179.355z
			 M428.343,224.838l-4.688,4.688h-1.904l4.688-4.688H428.343z M430.833,224.472h1.904v0.366l-4.028,4.028
			c-0.342,0.244-0.77,0.427-1.281,0.549c-0.514,0.122-0.941,0.184-1.282,0.184v-0.366L430.833,224.472z M441.527,190.341
			l-4.102,4.028c0.098-0.146,0.317-0.464,0.659-0.952c0.341-0.487,0.561-0.806,0.659-0.952c0.244-0.293,0.573-0.72,0.989-1.282
			c0.414-0.561,0.89-0.842,1.428-0.842H441.527z M438.743,195.688l4.688-4.688c0.048,0,0.098-0.024,0.146-0.073
			c0.048,0,0.085-0.012,0.11-0.037c0.023-0.023,0.061-0.036,0.109-0.036c0.341,0,0.707,0.122,1.099,0.366l-4.98,4.98
			c0,0.049-0.025,0.073-0.073,0.073c-0.049,0.049-0.122,0.073-0.22,0.073c-0.099,0-0.293-0.037-0.586-0.109
			c-0.293-0.074-0.439-0.231-0.439-0.477L438.743,195.688z M446.214,192.172h0.366c0.293,0,0.549,0.013,0.77,0.036
			c0.219,0.025,0.476,0.11,0.769,0.257l-4.688,4.761h-1.904v-0.366L446.214,192.172z"/>
		<path fill="#8DC63F" d="M465.653,179.721c0,0.049,0.012,0.086,0.037,0.11c0.023,0.024,0.036,0.062,0.036,0.109
			c0,0.245-0.073,0.439-0.22,0.586s-0.342,0.342-0.586,0.586c-0.099,0.146-0.293,0.379-0.586,0.695
			c-0.293,0.318-0.599,0.636-0.916,0.953s-0.622,0.622-0.915,0.915s-0.513,0.513-0.659,0.659c-0.049,0.049-0.195,0.146-0.439,0.293
			c-0.245,0.146-0.415,0.22-0.513,0.22v-0.073v-0.146c0.098-0.098,0.171-0.22,0.22-0.366c0.048-0.146,0.073-0.244,0.073-0.293
			l4.395-4.321L465.653,179.721z M466.019,182.431v1.904l-4.834,4.688v-1.904L466.019,182.431z M461.185,191.147l4.834-4.688h0.22
			v1.611l-4.688,4.688c-0.245-0.048-0.366-0.207-0.366-0.476s0-0.451,0-0.55V191.147z M461.844,194.882l5.054-4.907l1.245,0.659
			l-5.054,4.907h-0.073h-0.22c-0.099-0.048-0.257-0.098-0.476-0.146c-0.221-0.048-0.379-0.073-0.477-0.073v-0.22V194.882z
			 M472.171,190.854c-0.146,0.146-0.403,0.415-0.769,0.806c-0.367,0.392-0.77,0.806-1.209,1.245s-0.854,0.843-1.245,1.208
			c-0.392,0.367-0.659,0.623-0.806,0.77c-0.392,0.392-0.685,0.623-0.879,0.695c-0.195,0.074-0.538,0.11-1.025,0.11
			c-0.099,0-0.256-0.024-0.477-0.073c-0.219-0.048-0.354-0.073-0.402-0.073l4.688-4.688H472.171z M474.735,222.202
			c0.098-5.42,0.109-10.84,0.037-16.26c-0.074-5.42-0.306-10.84-0.696-16.26c-0.146-0.048-0.439-0.085-0.879-0.11
			c-0.439-0.023-0.915-0.061-1.429-0.109c-0.512-0.048-0.988-0.085-1.428-0.109s-0.758-0.037-0.952-0.037
			c-0.099,0-0.354-0.037-0.769-0.109c-0.416-0.074-0.672-0.231-0.77-0.477c-0.293-1.563-0.477-3.124-0.549-4.688
			c-0.074-1.563-0.11-3.124-0.11-4.688c0-0.537,0.048-0.964,0.146-1.281c0.098-0.317,0.366-0.647,0.806-0.989
			c1.025-0.098,2.111-0.194,3.26-0.293c1.146-0.098,2.258-0.22,3.332-0.366v-1.611c0-1.465-0.073-2.966-0.22-4.504
			s-0.22-3.087-0.22-4.651c0-0.537,0.012-1.146,0.037-1.831c0.023-0.683,0.157-1.293,0.402-1.831
			c1.513-0.194,2.941-0.293,4.285-0.293c1.342,0,2.771,0,4.284,0h3.003l0.659,0.293c0,0.049,0.048,0.392,0.146,1.025
			c0.098,0.635,0.146,1.148,0.146,1.538c0,0.439,0.036,1.234,0.11,2.38c0.072,1.148,0.146,2.38,0.219,3.699
			c0.074,1.318,0.146,2.552,0.221,3.699c0.072,1.148,0.109,1.941,0.109,2.38h7.251v12.012l-0.146,0.146
			c-0.049,0.049-0.099,0.073-0.146,0.073c-0.049,0-0.073,0.025-0.073,0.073c-0.879,0.392-1.88,0.623-3.003,0.695
			c-1.124,0.074-2.1,0.159-2.93,0.257v26.294c0,0.488-0.025,1.087-0.073,1.795c-0.049,0.708-0.086,1.391-0.109,2.051
			c-0.025,0.658-0.086,1.477-0.184,2.453l-0.586,0.293h-10.986c-0.146,0-0.452-0.037-0.916-0.109
			c-0.464-0.074-0.769-0.136-0.915-0.184C474.856,222.47,474.735,222.348,474.735,222.202z M473.123,166.684
			c0,0.099,0.012,0.245,0.037,0.439c0.023,0.196,0.036,0.342,0.036,0.439c0,0.245-0.013,0.489-0.036,0.732
			c-0.025,0.245-0.136,0.465-0.33,0.659l-4.688,4.688v-1.904L473.123,166.684z M472.83,192.465v1.904l-4.688,4.688v-1.904
			L472.83,192.465z M472.83,196.494c0.244,0.049,0.366,0.208,0.366,0.477s0,0.451,0,0.549c0,0.099-0.013,0.159-0.036,0.184
			c-0.025,0.024-0.037,0.085-0.037,0.183v0.22l-4.98,4.98v-1.904L472.83,196.494z M473.123,163.608v0.659l-4.688,4.688v-0.659
			L473.123,163.608z M473.123,170.786c0.048,0.099,0.121,0.355,0.22,0.769c0.098,0.416,0.146,0.696,0.146,0.842
			c0,0.049-0.049,0.146-0.146,0.293c-0.099,0.146-0.172,0.245-0.22,0.293c-0.099,0.099-0.256,0.269-0.477,0.513
			c-0.219,0.245-0.451,0.501-0.695,0.769c-0.245,0.269-0.488,0.512-0.732,0.733c-0.245,0.219-0.415,0.378-0.513,0.476
			c-0.099,0.099-0.269,0.172-0.513,0.22c-0.245,0.049-0.392,0.073-0.439,0.073h-0.22h-0.146c-0.099,0-0.257-0.024-0.476-0.073
			c-0.221-0.048-0.379-0.121-0.477-0.22L473.123,170.786z M473.123,200.595v1.904l-4.688,4.688v-1.904L473.123,200.595z
			 M473.123,204.697c0.244,0.049,0.366,0.172,0.366,0.366c0,0.195,0,0.366,0,0.513c0,0.245-0.013,0.477-0.036,0.695
			c-0.025,0.221-0.136,0.429-0.33,0.623l-4.028,4.028h-0.659v-1.538L473.123,204.697z M473.123,221.616
			c0.048,0.099,0.121,0.354,0.22,0.769c0.098,0.415,0.146,0.671,0.146,0.77c0,0.048-0.049,0.146-0.146,0.293
			c-0.099,0.146-0.172,0.268-0.22,0.366l-4.028,4.102l-0.659,0.293v-0.732c0-0.293,0-0.562,0-0.806c0-0.245,0.121-0.465,0.366-0.659
			L473.123,221.616z M473.489,208.798v1.831l-4.688,4.688v-1.831L473.489,208.798z M473.489,212.827v1.831l-4.688,4.688v-1.831
			L473.489,212.827z M473.489,217.221v1.904l-4.688,4.688v-1.904L473.489,217.221z M475.101,224.033h1.465v0.439l-4.688,4.688
			h-1.611v-0.293L475.101,224.033z M473.489,175.473h-0.659l0.659-0.659V175.473z M480.74,224.472l-4.688,4.688h-1.978l4.761-4.688
			H480.74z M485.135,224.472l-4.834,4.688h-1.831l4.688-4.688H485.135z"/>
		<path fill="#8DC63F" d="M503.035,200.375v1.538l-5.054,4.98v-0.732c0-0.293-0.013-0.549-0.036-0.77
			c-0.025-0.219,0.061-0.427,0.256-0.622l4.468-4.395H503.035z M503.035,197.812l-4.834,4.688v-0.732
			c0-0.244,0.012-0.487,0.037-0.732c0.023-0.244,0.157-0.464,0.402-0.659l4.395-4.468V197.812z M503.035,204.404
			c0,0.099,0.048,0.318,0.146,0.659c0.098,0.342,0.146,0.562,0.146,0.659v0.146v0.073l-5.127,5.127v-1.904L503.035,204.404z
			 M498.641,212.9l4.688-4.688l0.146-0.073l0.073,0.073c0.098,0,0.171,0.122,0.22,0.366c0.048,0.245,0.098,0.439,0.146,0.586v0.073
			v0.22c-0.049,0.099-0.146,0.257-0.293,0.476c-0.146,0.221-0.245,0.379-0.293,0.477c-0.293,0.245-0.647,0.574-1.063,0.988
			c-0.415,0.416-0.817,0.831-1.208,1.246c-0.392,0.415-0.732,0.769-1.025,1.062s-0.465,0.439-0.513,0.439l-0.659,0.293
			c-0.099-0.244-0.183-0.464-0.257-0.659c-0.072-0.194-0.109-0.414-0.109-0.659L498.641,212.9z M504.207,190.341
			c-0.049,0.195-0.146,0.562-0.293,1.099c-0.146,0.538-0.269,0.879-0.366,1.025c-0.049,0.099-0.073,0.195-0.073,0.293
			c0,0.099-0.025,0.195-0.073,0.293c-0.049,0.146-0.073,0.269-0.073,0.366l-3.809,3.809h-0.366c0.048-0.098,0.158-0.414,0.329-0.952
			c0.171-0.537,0.281-0.854,0.33-0.952c0.048-0.146,0.158-0.378,0.33-0.695c0.17-0.317,0.28-0.501,0.329-0.55L504.207,190.341z
			 M499.446,216.489c0-0.048,0.024-0.073,0.073-0.073l4.98-5.127c0.244,0.439,0.366,0.879,0.366,1.318v0.293l-4.761,4.688h-0.073
			c-0.245,0-0.403-0.121-0.476-0.366c-0.074-0.244-0.11-0.439-0.11-0.586V216.489z M505.819,214.145h0.073h0.22
			c0.048,0.049,0.158,0.146,0.33,0.293c0.17,0.146,0.28,0.269,0.329,0.366v0.073v0.22l-5.054,5.054l-0.952-0.952L505.819,214.145z
			 M502.889,221.616l0.073-0.146c0-0.048,0.024-0.098,0.073-0.146l4.98-4.907c0.391,0.146,0.586,0.439,0.586,0.879v0.293
			l-5.054,4.98C503.109,222.374,502.889,222.055,502.889,221.616z M539.29,222.568c0-0.048-0.036-0.317-0.11-0.806
			c-0.072-0.487-0.135-0.854-0.183-1.099v-0.073v-0.146c0-0.098,0.048-0.317,0.146-0.659c0.098-0.341,0.146-0.537,0.146-0.586
			v-0.366h-0.293c-1.71,1.124-3.418,2.039-5.127,2.747c-1.71,0.708-3.589,1.062-5.64,1.062c-1.563,0-3.102-0.121-4.614-0.366
			c-1.514-0.244-3.076-0.464-4.688-0.659c-0.245-0.098-0.696-0.305-1.354-0.622c-0.66-0.317-1.344-0.66-2.051-1.025
			c-0.709-0.367-1.393-0.708-2.051-1.025c-0.66-0.317-1.111-0.55-1.355-0.696c-0.586-0.293-1.124-0.684-1.611-1.172
			c-0.488-0.487-0.928-0.927-1.318-1.318c-1.025-1.22-1.867-2.404-2.527-3.552c-0.658-1.147-1.172-2.332-1.537-3.553
			c-0.367-1.22-0.611-2.502-0.732-3.846c-0.123-1.342-0.184-2.819-0.184-4.431c0-2.978,0.33-5.737,0.988-8.276
			c0.66-2.538,1.673-5.127,3.04-7.764c0.537-0.977,1.282-1.929,2.233-2.856c0.953-0.927,1.979-1.794,3.076-2.601
			c1.1-0.805,2.222-1.525,3.369-2.16c1.147-0.634,2.234-1.123,3.26-1.465c0.146-0.098,0.427-0.171,0.842-0.22
			c0.415-0.048,0.671-0.073,0.77-0.073h8.423c0.048,0,0.391,0.086,1.025,0.256c0.634,0.172,1.123,0.306,1.465,0.403
			c1.172,0.245,2.222,0.647,3.149,1.208c0.927,0.563,1.879,1.185,2.856,1.868c0-0.194,0.048-0.61,0.146-1.245
			c0.098-0.634,0.146-1.073,0.146-1.318c0.048-0.341,0.158-0.623,0.329-0.842c0.171-0.221,0.477-0.33,0.916-0.33
			c1.855,0,3.82,0.013,5.896,0.037c2.074,0.024,4.112,0.231,6.115,0.622c0.146,0,0.305,0.062,0.477,0.183
			c0.17,0.123,0.304,0.232,0.402,0.33v3.223c0,1.318-0.013,2.466-0.037,3.442c-0.024,0.978-0.135,2.1-0.329,3.369v35.962
			l-0.879,0.439c-0.099,0.048-0.379,0.109-0.843,0.184c-0.464,0.072-0.988,0.146-1.574,0.219c-0.586,0.074-1.185,0.135-1.795,0.184
			c-0.61,0.048-1.087,0.073-1.428,0.073c-0.245,0-0.685-0.013-1.318-0.036c-0.635-0.025-1.307-0.05-2.014-0.074
			c-0.709-0.024-1.368-0.062-1.979-0.109c-0.61-0.049-1.037-0.073-1.281-0.073L539.29,222.568z M504.866,223.52l4.98-4.98h0.22
			c0.487,0,0.732,0.318,0.732,0.952v0.293c-0.146,0.146-0.415,0.415-0.806,0.806c-0.392,0.392-0.794,0.806-1.208,1.245
			c-0.416,0.439-0.818,0.854-1.209,1.245c-0.392,0.391-0.659,0.659-0.806,0.806c-0.099,0.098-0.269,0.22-0.513,0.366
			c-0.245,0.146-0.392,0.22-0.439,0.22c-0.049,0-0.195-0.073-0.439-0.22c-0.245-0.146-0.415-0.269-0.513-0.366l-0.073-0.22
			L504.866,223.52z M507.723,225.131l4.98-4.98l1.245,0.513l-5.054,5.127h-0.293c-0.099,0-0.293-0.025-0.586-0.073
			c-0.293-0.049-0.439-0.195-0.439-0.439L507.723,225.131z M515.194,221.616h0.293c0.146,0,0.354,0.025,0.623,0.073
			c0.268,0.049,0.402,0.195,0.402,0.439c0,0.049-0.025,0.099-0.073,0.146l-4.98,5.054l-1.318-0.659L515.194,221.616z
			 M518.27,222.934l1.611,0.293l-4.688,4.688c-0.195,0.194-0.366,0.305-0.513,0.329s-0.342,0.037-0.586,0.037
			c-0.146,0-0.293-0.013-0.439-0.037s-0.269-0.135-0.366-0.329L518.27,222.934z M521.785,223.52h0.439c0.537,0,1,0.121,1.392,0.366
			c-0.146,0.146-0.403,0.414-0.769,0.806c-0.367,0.391-0.77,0.793-1.209,1.208s-0.854,0.817-1.245,1.209
			c-0.392,0.391-0.659,0.659-0.806,0.806c-0.392,0.391-0.77,0.622-1.135,0.696c-0.367,0.072-0.818,0.109-1.355,0.109v-0.439
			L521.785,223.52z M518.27,198.471c0,0.685,0.048,1.367,0.146,2.051c0.098,0.685,0.268,1.344,0.513,1.978
			c0.098,0.245,0.231,0.538,0.403,0.879c0.17,0.342,0.341,0.672,0.512,0.988c0.171,0.318,0.33,0.611,0.477,0.879
			c0.146,0.27,0.22,0.429,0.22,0.477c0.048,0.049,0.22,0.208,0.513,0.477s0.623,0.586,0.988,0.951
			c0.367,0.367,0.732,0.745,1.1,1.136c0.365,0.392,0.646,0.685,0.842,0.879c0.684,0.635,1.513,1.111,2.49,1.429
			c0.977,0.317,1.904,0.476,2.783,0.476c1.123,0,2.271-0.207,3.442-0.622s2.245-0.964,3.223-1.648
			c0.879-0.586,1.575-1.33,2.087-2.234c0.514-0.902,0.916-1.854,1.209-2.855s0.487-2.039,0.586-3.113
			c0.098-1.073,0.146-2.099,0.146-3.076v-3.149c-0.099-0.146-0.232-0.403-0.402-0.769c-0.172-0.367-0.355-0.744-0.55-1.136
			c-0.195-0.391-0.392-0.757-0.586-1.099c-0.195-0.341-0.318-0.586-0.366-0.732c-0.049-0.098-0.146-0.268-0.293-0.513
			c-0.146-0.244-0.269-0.391-0.366-0.439c-1.124-1.27-2.405-2.318-3.845-3.149c-1.441-0.83-3.016-1.245-4.725-1.245
			c-0.928,0-1.831,0.062-2.71,0.183c-0.879,0.123-1.71,0.477-2.49,1.063c-0.099,0.099-0.415,0.428-0.952,0.988
			c-0.538,0.563-0.928,0.965-1.172,1.209c-1.318,1.417-2.186,2.93-2.6,4.541C518.477,194.882,518.27,196.616,518.27,198.471z
			 M527.791,223.886l-5.127,4.98h-1.831l5.054-4.98H527.791z M526.839,186.826L522.664,191c-0.099,0.099-0.354,0.208-0.77,0.329
			c-0.415,0.123-0.671,0.184-0.769,0.184v-0.073v-0.22c0.048-0.098,0.146-0.256,0.293-0.477c0.146-0.219,0.268-0.354,0.366-0.402
			c0.146-0.146,0.354-0.366,0.623-0.659c0.268-0.293,0.549-0.586,0.842-0.879s0.561-0.561,0.806-0.806
			c0.244-0.244,0.414-0.414,0.513-0.513c0.586-0.439,1.172-0.659,1.758-0.659H526.839z M529.256,186.533l1.611,0.439l-4.98,4.907
			h-0.586c-0.099,0-0.269,0-0.513,0c-0.245,0-0.415-0.121-0.513-0.366L529.256,186.533z M531.014,223.813
			c0.098,0,0.231,0.012,0.402,0.036s0.305,0.037,0.403,0.037l-3.809,3.735c-0.245,0.244-0.635,0.464-1.172,0.659
			c-0.538,0.194-0.978,0.293-1.318,0.293h-0.293l4.395-4.395c0.194-0.195,0.414-0.306,0.659-0.33
			C530.526,223.825,530.769,223.813,531.014,223.813z M532.479,187.485h0.146h0.073c0.098,0.099,0.268,0.208,0.513,0.329
			c0.244,0.123,0.391,0.232,0.439,0.33l-4.98,4.98l-0.22,0.073c-0.439,0-0.806-0.244-1.099-0.732L532.479,187.485z M534.969,189.389
			h0.073c0.586,0,0.879,0.22,0.879,0.659v0.293l-5.054,4.98l-0.952-0.952L534.969,189.389z M536.873,191.513
			c0.439,0.245,0.659,0.562,0.659,0.952c0,0.293-0.122,0.611-0.366,0.952c-0.146,0.146-0.402,0.415-0.77,0.806
			c-0.365,0.392-0.744,0.781-1.135,1.172c-0.392,0.392-0.77,0.758-1.135,1.099c-0.367,0.342-0.623,0.586-0.77,0.732
			c-0.049,0.099-0.184,0.22-0.402,0.366c-0.221,0.146-0.379,0.22-0.477,0.22l-0.659-1.245L536.873,191.513z M537.825,222.275
			l-4.688,4.688h-0.439c0-1.025,0.341-1.904,1.025-2.637c0.684-0.732,1.416-1.417,2.197-2.051c0.048-0.048,0.28-0.194,0.696-0.439
			c0.414-0.244,0.67-0.414,0.769-0.513c0.098,0,0.171-0.012,0.22-0.036c0.048-0.024,0.121-0.037,0.22-0.037V222.275z
			 M533.358,199.423l4.98-5.054c0.244,0.049,0.366,0.208,0.366,0.476c0,0.27,0,0.452,0,0.55v0.513l-4.688,4.688
			c-0.439-0.194-0.659-0.561-0.659-1.099V199.423z M538.338,223.886l1.538,0.659l-4.321,4.321c-0.245,0.244-0.611,0.378-1.099,0.402
			c-0.488,0.024-0.854,0.037-1.099,0.037v-0.439L538.338,223.886z M537.825,203.452v0.146v0.22c-0.439,0.978-0.965,1.93-1.575,2.856
			c-0.61,0.928-1.477,1.538-2.6,1.831v-0.952L537.825,203.452z M538.704,200.083l-4.688,4.688c0-0.098-0.013-0.244-0.036-0.439
			c-0.025-0.194-0.037-0.341-0.037-0.439c0-0.244,0.012-0.476,0.037-0.696c0.023-0.219,0.134-0.45,0.329-0.695l4.395-4.321V200.083z
			 M544.051,224.472l-4.761,4.761c-0.195,0.194-0.403,0.293-0.622,0.293c-0.221,0-0.477,0-0.77,0h-0.732l5.054-5.054H544.051z
			 M548.079,224.472l-4.688,4.761h-1.831l4.395-4.395c0.194-0.245,0.402-0.366,0.623-0.366c0.219,0,0.476,0,0.769,0H548.079z"/>
	</g>
</g>
<g id="Layer_3">
	<g>
		<path fill="#27AAE1" d="M66.706,130.764c-1.679,1.368-3.016,2.457-4.352,3.546c0.093,0.152,0.187,0.304,0.28,0.456
			c2.05-1.127,4.093-2.267,6.156-3.37c0.549-0.294,1.142-0.583,1.746-0.684c3.225-0.543,6.461-1.026,9.693-1.53
			c-0.009-0.196-0.019-0.393-0.028-0.589c-0.368-0.039-0.737-0.111-1.105-0.111c-19.271,0.013-38.543,0.026-57.814,0.054
			c-4.511,0.006-4.678-0.084-4.806-4.572c-0.276-9.712-0.506-19.426-0.739-29.139c-0.065-2.732,1.655-4.224,4.442-4.09
			c4.22,0.203,8.444,0.331,12.668,0.44c2.277,0.059,4.556,0.01,7.02,0.01c-0.261-0.431-0.455-0.753-0.873-1.444
			c3.54-3.238,7.137-6.53,10.826-9.904c0.792,0.719,1.908,1.732,3.299,2.994c-2.864,2.612-5.651,5.152-8.437,7.693
			c0.161,0.194,0.322,0.389,0.482,0.583c2.544,0.188,5.101,0.742,7-1.959c1.01-1.437,2.445-2.575,3.715-3.874
			c1.337,0.98,2.556,1.874,3.899,2.859c-0.92,0.987-1.785,1.916-2.752,2.954c2.048,0.626,3.602,0.18,4.867-1.64
			c2.216,1.874,4.731,2.347,7.845,1.841c-0.765-0.456-1.279-0.769-1.799-1.071c-10.689-6.199-20.664-13.39-28.294-23.19
			C27.558,51.501,18.991,34.199,15.515,14.68c-0.636-3.569-0.264-7.343-0.125-11.013c0.082-2.173,1.249-3.059,3.41-3.078
			c10.639-0.095,21.279-0.17,31.918-0.251c0.108-0.001,0.217,0.007,0.325,0.012c3.349,0.148,3.387,0.221,3.566,3.56
			c0.953,17.707,8.081,32.396,21.548,43.973c0.435,0.374,0.897,0.717,1.598,1.093c-0.713-2.633,1.19-3.706,2.634-5.022
			c1.989-1.812,4.005-3.595,6.316-5.664c0,2.273,0.056,4.148-0.041,6.015c-0.023,0.44-0.497,0.919-0.868,1.267
			c-1.854,1.741-3.743,3.445-5.78,5.309c0.98,0.696,1.832,1.301,2.779,1.974c1.229-1.341,2.393-2.611,3.948-4.308
			c0,1.861,0.132,3.284-0.032,4.671c-0.228,1.924,0.599,2.935,2.629,3.435c0-0.66-0.001-1.275,0-1.89
			c0.016-15.689,0.032-31.377,0.049-47.066c0-0.38-0.004-0.76,0.002-1.14c0.065-3.813,0.759-4.575,4.529-4.693
			c9.765-0.306,19.531-0.579,29.298-0.848c1.893-0.052,2.842,0.988,2.873,3.122c0.117,7.925,0.213,15.849,0.326,23.774
			c0.121,8.522,0.25,17.043,0.379,25.564c0.004,0.265,0.041,0.53,0.082,1.026c0.778-0.318,1.507-0.511,2.126-0.884
			c8.729-5.268,16.947-11.176,23.377-19.23c4.624-5.793,6.326-12.757,7.564-19.838c0.493-2.818,0.5-5.72,0.745-8.582
			c0.064-0.754,0.128-1.518,0.3-2.252c0.485-2.068,1.27-2.688,3.444-2.651c5.644,0.097,11.288,0.231,16.932,0.35
			c4.396,0.093,8.792,0.186,13.187,0.276c0.379,0.008,0.766,0.04,1.138-0.015c2.676-0.395,3.61,0.246,3.729,3.021
			c0.109,2.542,0.198,5.138-0.184,7.637c-1.635,10.699-4.468,21.088-8.737,31.048c-3.976,9.276-10.413,16.84-17.116,24.202
			c-10.459,11.486-23.371,19.034-38.07,23.716c-0.297,0.095-0.579,0.237-1.22,0.503c0.804,0.062,1.247,0.122,1.691,0.127
			c20.573,0.191,41.146,0.378,61.719,0.563c2.631,0.024,3.5,0.911,3.423,3.547c-0.287,9.82-0.577,19.64-0.868,29.46
			c-0.063,2.116-0.957,2.88-3.417,2.883c-17.86,0.017-35.72,0.027-53.58,0.04c-0.573,0-1.146,0-1.875,0
			c2.627,2.401,5.707,2.038,9.032,1.991c-0.589,0.699-0.977,1.158-1.428,1.694c1.105,1.02,2.128,1.487,3.311,0.049
			c1.183-1.439,2.72-1.993,4.617-1.798c1.434,0.148,2.896,0.029,4.863,0.029c-2.377,2.042-4.395,3.776-6.553,5.63
			c0.643,0.456,1.188,0.841,1.86,1.317c1.933-1.951,3.832-3.805,5.651-5.733c0.842-0.892,1.724-1.358,2.99-1.273
			c1.55,0.104,3.111,0.025,5.058,0.025c-3.421,3.316-6.577,6.375-9.426,9.136c3.455,3.662,6.806,6.847,9.729,10.385
			c7.824,9.472,14.79,19.541,20.329,30.549c3.197,6.353,4.533,13.198,5.189,20.181c0.517,5.505,0.686,11.041,1.069,16.559
			c0.105,1.514-0.537,2.016-1.952,2.006c-8.14-0.058-16.279-0.086-24.419-0.118c-2.856-0.011-5.713-0.002-8.579-0.002
			c-0.318-3.166-0.561-6.068-0.91-8.958c-0.913-7.55-3.028-14.754-6.575-21.487c-3.391-6.439-8.484-11.379-14.419-15.436
			c-3.126-2.137-6.465-3.973-9.771-5.832c-1.198-0.674-2.581-1.02-4.015-1.567c0,3.138,0,5.987,0,9.198
			c1.797-1.883,3.381-3.543,5.048-5.289c1.354,0.906,2.648,1.771,4.041,2.703c-2.476,2.664-4.723,5.321-7.233,7.699
			c-1.784,1.69-2.264,3.543-1.799,5.983c3.668-4.082,7.268-8.089,10.979-12.22c1.33,1.009,2.555,1.938,3.846,2.917
			c-4.119,4.638-8.144,9.171-12.225,13.766c-0.81-0.461-1.637-0.933-2.736-1.559c0,0.821,0,1.386,0,1.951
			c-0.001,8.36,0.001,16.72-0.004,25.08c-0.002,2.812-0.774,3.574-3.574,3.541c-9.879-0.118-19.758-0.24-29.637-0.361
			c-0.38-0.005-0.762,0.004-1.139-0.032c-2.258-0.213-3.16-1.181-3.159-3.474c0.004-11.237,0.024-22.474,0.034-33.711
			c0.005-5.152,0.001-10.305,0.001-15.538c-1.635,0.056-2.55,0.637-2.253,2.358c0.459,2.664-0.459,4.596-2.708,6.197
			c-2.001,1.424-3.7,3.271-5.778,5.154c0-2.237-0.054-4.167,0.041-6.09c0.022-0.443,0.494-0.929,0.868-1.278
			c1.385-1.29,2.816-2.53,4.324-3.873c-5.234,0.461-15.803,10.237-23.038,20.731c-6.239,9.05-8.011,19.218-8.161,29.989
			c-0.613,0.039-1.14,0.1-1.667,0.103c-10.205,0.06-20.41,0.119-30.615,0.155c-0.804,0.003-1.626-0.093-2.41-0.274
			c-1.346-0.31-2.139-1.139-2.283-2.594c-0.557-5.625,0.028-11.151,1.396-16.607c3.993-15.925,9.977-30.967,20.24-43.976
			c3.349-4.245,7.238-8.063,10.884-12.073c0.244-0.268,0.525-0.503,0.987-0.943c-1.091-0.048-1.924-0.084-3.074-0.135
			c0.558-0.728,0.924-1.369,1.438-1.851c3.563-3.339,7.15-6.651,10.75-9.949c0.344-0.315,0.829-0.657,1.258-0.669
			C61.731,130.729,63.987,130.764,66.706,130.764z"/>
		<path fill="#27AAE1" d="M156.559,17.874c-1.309,3.877-1.955,7.987-5.476,10.903c-3.082,2.552-5.826,5.51-8.767,8.238
			c-0.524,0.486-1.249,0.932-1.934,1.033c-1.541,0.227-2.046-0.694-1.509-2.138c1.225-3.298,3.36-5.844,5.999-8.114
			c3.41-2.933,6.667-6.044,9.995-9.072c0.429-0.391,0.892-0.746,1.339-1.117C156.324,17.696,156.442,17.785,156.559,17.874z"/>
		<path fill="#27AAE1" d="M143.325,25.901c0.485-2.766,0.917-5.254,1.369-7.738c0.035-0.194,0.193-0.391,0.344-0.535
			c4.352-4.137,8.71-8.268,13.248-12.3c-0.493,3.351,0.194,6.832-3.113,9.491c-3.662,2.944-6.822,6.512-10.215,9.794
			C144.513,25.044,143.982,25.387,143.325,25.901z"/>
		<path fill="#27AAE1" d="M31.689,161.823c-0.421,0.66-0.838,1.323-1.263,1.98c-0.264,0.409-0.575,0.792-0.805,1.219
			c-3.154,5.828-7.734,10.332-13.021,14.219c-1.856,1.364-3.544,2.957-5.537,4.25c2.425-4.483,4.138-9.413,8.237-12.72
			c3.944-3.183,8.052-6.164,12.088-9.233C31.489,161.633,31.589,161.728,31.689,161.823z"/>
		<path fill="#27AAE1" d="M25.556,143.653c0.739-1.081,1.12-1.92,1.742-2.501c3.492-3.258,7.036-6.46,10.581-9.661
			c0.306-0.276,0.735-0.576,1.114-0.586c2.15-0.056,4.302-0.027,6.832-0.027c-0.66,0.625-1.059,1.022-1.479,1.396
			c-3.686,3.287-7.425,6.518-11.037,9.885c-1.159,1.08-2.293,1.669-3.876,1.515C28.362,143.568,27.273,143.653,25.556,143.653z"/>
		<path fill="#27AAE1" d="M34.45,130.88c-2.536,2.295-4.751,4.263-6.924,6.275c-2.069,1.917-4.095,3.881-6.14,5.825
			c-0.725,0.689-3.963,1.343-4.736,0.814c-0.352-0.241-0.68-0.974-0.565-1.342c0.246-0.79,0.647-1.629,1.229-2.199
			c2.984-2.922,6.033-5.779,9.097-8.617c0.402-0.373,1.015-0.699,1.544-0.722C29.955,130.829,31.96,130.88,34.45,130.88z"/>
		<path fill="#27AAE1" d="M37.234,142.955c0.593-0.97,1.02-2.112,1.81-2.879c2.998-2.907,6.108-5.7,9.195-8.514
			c0.346-0.316,0.81-0.69,1.231-0.704c2.145-0.071,4.294-0.033,6.82-0.033c-1.524,1.375-2.763,2.482-3.991,3.601
			c-2.486,2.266-5.165,4.361-7.391,6.859C42.807,143.644,40.358,143.549,37.234,142.955z"/>
		<path fill="#27AAE1" d="M132.123,192.409c4.217-4.442,8.346-8.793,12.707-13.388c1.184,1.409,2.153,2.562,2.944,3.504
			c-3.9,4.106-7.95,8.369-12.055,12.691C134.359,194.155,133.175,193.231,132.123,192.409z"/>
		<path fill="#27AAE1" d="M0.902,219.705c0.667-3.231,0.063-6.75,3.358-9.271c3.344-2.559,6.343-5.569,9.499-8.375
			c0.225-0.2,0.499-0.346,0.848-0.583c-0.239,2.074-0.378,4.018-0.725,5.924c-0.13,0.718-0.616,1.475-1.151,1.998
			c-3.288,3.215-6.629,6.375-9.973,9.531c-0.439,0.414-1.002,0.697-1.507,1.041C1.134,219.882,1.018,219.794,0.902,219.705z"/>
		<path fill="#27AAE1" d="M13.101,212.122c0,2.341,0.04,4.273-0.032,6.2c-0.015,0.41-0.367,0.88-0.688,1.194
			c-3.136,3.072-6.256,6.164-9.496,9.125c-0.542,0.495-1.633,0.46-2.474,0.477c-0.123,0.002-0.342-1.068-0.39-1.653
			c-0.166-2.036,0.671-3.54,2.207-4.933C5.836,219.259,9.279,215.804,13.101,212.122z"/>
		<path fill="#27AAE1" d="M1.964,24.219c-0.172-0.362-0.221-0.452-0.259-0.546c-1.468-3.693-0.523-6.536,2.482-9.216
			c2.919-2.603,5.338-5.767,8.179-8.908c0.247,2.151,0.484,4.005,0.653,5.865c0.03,0.329-0.136,0.764-0.362,1.015
			C9.151,16.324,5.62,20.197,1.964,24.219z"/>
		<path fill="#27AAE1" d="M141.176,200.827c-0.825-0.907-1.832-2.014-3.019-3.32c4.035-4.045,8.051-8.072,12.247-12.279
			c1.008,1.54,1.853,2.832,2.558,3.909C148.976,193.091,145.112,196.923,141.176,200.827z"/>
		<path fill="#27AAE1" d="M23.747,131.065c-4.414,3.913-8.659,7.698-12.933,11.451c-1.129,0.992-2.429,0.949-3.367,0.016
			c-0.896-0.891-1.038-2.394,0.001-3.37c3.039-2.855,6.191-5.589,9.307-8.361c0.15-0.133,0.394-0.248,0.585-0.234
			C19.419,130.713,21.495,130.886,23.747,131.065z"/>
		<path fill="#27AAE1" d="M3.061,207.018c0.568-2.244,1.113-4.494,1.722-6.726c0.121-0.443,0.403-0.915,0.749-1.214
			c3.81-3.296,7.647-6.561,11.482-9.829c0.117-0.1,0.287-0.138,0.532-0.251c-0.648,2.53-1.265,4.982-1.918,7.425
			c-0.078,0.292-0.302,0.587-0.537,0.79c-3.887,3.352-7.786,6.689-11.682,10.029C3.293,207.168,3.177,207.093,3.061,207.018z"/>
		<path fill="#27AAE1" d="M175.408,140.887c2.067-1.709,3.93-3.253,5.798-4.792c1.256-1.035,2.718-1.897,3.74-3.125
			c2.748-3.302,6.333-2.85,10.308-2.59c-1.176,1.094-2.111,2.032-3.117,2.886c-2.605,2.212-5.199,4.443-7.893,6.542
			c-0.747,0.582-1.813,0.952-2.765,1.032C179.596,140.999,177.69,140.887,175.408,140.887z"/>
		<path fill="#27AAE1" d="M13.425,14.69c0.392,2.132,0.716,3.765,0.976,5.409c0.053,0.334-0.021,0.805-0.229,1.045
			c-3.366,3.884-6.763,7.74-10.353,11.831c-0.426-1.867-0.866-3.661-1.22-5.473c-0.059-0.3,0.185-0.739,0.416-1.003
			C6.369,22.669,9.745,18.857,13.425,14.69z"/>
		<path fill="#27AAE1" d="M21.911,177.648c-1.194,3.017-2.196,5.574-3.225,8.119c-0.137,0.338-0.352,0.694-0.63,0.917
			c-3.92,3.138-7.858,6.255-12.143,9.657c0.703-2.094,1.379-3.851,1.877-5.657c0.588-2.133,1.79-3.686,3.59-4.985
			C14.842,183.2,18.174,180.522,21.911,177.648z"/>
		<path fill="#27AAE1" d="M15.463,24.508c0.483,1.58,0.987,2.993,1.318,4.445c0.108,0.474-0.09,1.163-0.396,1.563
			c-2.498,3.265-5.025,6.508-7.623,9.693c-0.429,0.526-1.22,0.901-1.896,1.004c-0.243,0.037-0.66-0.924-0.96-1.451
			c-1.091-1.914-0.617-3.531,0.788-5.132c2.715-3.092,5.321-6.28,7.981-9.421C14.871,24.977,15.132,24.799,15.463,24.508z"/>
		<path fill="#27AAE1" d="M21.052,40.756c0.737,1.682,1.379,2.991,1.866,4.355c0.141,0.394-0.018,1.058-0.286,1.41
			C19.975,50,17.275,53.447,14.557,56.88c-0.35,0.442-0.873,0.749-1.52,1.289c-0.652-1.51-1.272-2.81-1.757-4.159
			c-0.132-0.367,0.007-0.99,0.258-1.31C14.609,48.792,17.724,44.918,21.052,40.756z"/>
		<path fill="#27AAE1" d="M18.077,32.784c0.619,1.658,1.187,3.048,1.636,4.476c0.12,0.381,0.024,1.004-0.227,1.302
			c-3.206,3.805-6.458,7.571-9.829,11.499c-0.611-1.594-1.213-3.078-1.732-4.591c-0.101-0.296,0.001-0.799,0.206-1.041
			C11.382,40.585,14.664,36.769,18.077,32.784z"/>
		<path fill="#27AAE1" d="M16.264,64.795c-0.656-1.286-1.284-2.364-1.747-3.508c-0.161-0.397-0.09-1.114,0.177-1.424
			c3.214-3.728,6.486-7.408,9.878-11.254c0.803,1.426,1.558,2.703,2.229,4.022c0.12,0.236,0,0.744-0.194,0.966
			c-3.102,3.549-6.229,7.075-9.367,10.592C17.04,64.414,16.71,64.524,16.264,64.795z"/>
		<path fill="#27AAE1" d="M164.007,140.694c3.642-3.308,7.28-6.621,10.937-9.912c0.26-0.234,0.664-0.429,1.004-0.435
			c2.088-0.04,4.178-0.02,6.708-0.02c-0.762,0.71-1.209,1.139-1.669,1.553c-3.104,2.788-6.189,5.598-9.337,8.335
			c-0.517,0.45-1.301,0.775-1.983,0.817c-1.819,0.112-3.649,0.038-5.474,0.038C164.13,140.945,164.068,140.82,164.007,140.694z"/>
		<path fill="#27AAE1" d="M145.174,206.521c-0.774-1.147-1.57-2.228-2.236-3.384c-0.164-0.285-0.06-0.976,0.182-1.206
			c3.643-3.454,7.329-6.862,11.194-10.457c0.696,1.484,1.322,2.723,1.844,4.005c0.121,0.299,0.021,0.886-0.205,1.098
			C152.403,199.896,148.817,203.174,145.174,206.521z"/>
		<path fill="#27AAE1" d="M26.147,77.735c-0.966-1.123-1.982-2.304-3.216-3.738c3.45-3.872,6.857-7.696,10.405-11.678
			c1.147,1.372,2.133,2.551,3.114,3.724C32.993,69.965,29.607,73.809,26.147,77.735z"/>
		<path fill="#27AAE1" d="M31.643,83.212c-1.147-1.026-2.236-2-3.293-2.945c3.666-3.67,7.207-7.214,10.867-10.877
			c0.984,1.032,2.053,2.152,2.996,3.141C38.606,76.176,35.104,79.715,31.643,83.212z"/>
		<path fill="#27AAE1" d="M28.644,55.639c1.083,1.618,1.92,2.869,2.837,4.238c-1.293,1.424-2.576,2.804-3.822,4.217
			c-1.575,1.786-3.103,3.613-4.683,5.394c-0.827,0.933-1.853,1.402-3.012,0.632c-1.328-0.883-1.736-2.351-0.785-3.493
			C22.214,62.98,25.364,59.43,28.644,55.639z"/>
		<path fill="#27AAE1" d="M33.943,85.768c3.593-3.717,7.055-7.297,10.707-11.076c1.039,1.256,2.003,2.421,2.912,3.52
			c-3.233,3.327-6.69,6.885-10.262,10.561C36.115,87.712,34.997,86.712,33.943,85.768z"/>
		<path fill="#27AAE1" d="M15.102,123.642c0.296,2.022,0.566,3.608,0.733,5.206c0.035,0.338-0.215,0.812-0.484,1.059
			c-3.623,3.319-7.273,6.608-11.034,10.012c0-2.144-0.008-4.258,0.015-6.371c0.002-0.179,0.184-0.391,0.336-0.528
			C8.073,129.95,11.485,126.89,15.102,123.642z"/>
		<path fill="#27AAE1" d="M157.534,198.755c0.489,1.738,0.942,3.12,1.237,4.535c0.087,0.416-0.139,1.067-0.453,1.371
			c-3.16,3.049-6.369,6.048-9.721,9.21c-0.638-1.446-1.297-2.828-1.834-4.256c-0.101-0.268,0.196-0.816,0.464-1.073
			C150.551,205.352,153.903,202.193,157.534,198.755z"/>
		<path fill="#27AAE1" d="M14.54,115.066c1.095,4.136,0.29,7.125-3.218,9.473c-2.474,1.656-4.516,3.957-6.912,6.114
			c0-2.15-0.022-4.024,0.02-5.896c0.008-0.342,0.189-0.774,0.439-1.002C8.025,120.888,11.208,118.051,14.54,115.066z"/>
		<path fill="#27AAE1" d="M150.688,221.707c-0.19-0.82-0.225-1.505-0.502-2.072c-1.232-2.522-0.338-4.262,1.696-5.943
			c2.571-2.126,4.92-4.521,7.675-7.091c0.209,2.076,0.406,3.762,0.527,5.453c0.024,0.329-0.157,0.773-0.397,1.006
			C156.749,215.916,153.782,218.743,150.688,221.707z"/>
		<path fill="#27AAE1" d="M4.612,120.491c0-2.232-0.012-4.154,0.015-6.076c0.003-0.24,0.146-0.544,0.326-0.705
			c2.92-2.626,5.857-5.235,9.048-8.077c0.149,2.069,0.288,3.77,0.379,5.475c0.016,0.292-0.082,0.696-0.282,0.878
			C11.027,114.768,7.931,117.524,4.612,120.491z"/>
		<path fill="#27AAE1" d="M77.36,21.236c0-2.145-0.035-3.863,0.024-5.578c0.015-0.447,0.198-1.021,0.512-1.306
			c2.764-2.498,5.575-4.944,8.726-7.716c0,2.256,0.026,4.119-0.025,5.979c-0.009,0.322-0.282,0.708-0.543,0.941
			C83.272,16.04,80.467,18.498,77.36,21.236z"/>
		<path fill="#27AAE1" d="M77.379,30.993c0-1.819-0.033-3.551,0.022-5.28c0.014-0.447,0.177-1.022,0.486-1.305
			c2.783-2.553,5.613-5.054,8.789-7.892c0,2.283,0.023,4.098-0.021,5.911c-0.008,0.331-0.208,0.743-0.455,0.971
			c-2.708,2.506-5.441,4.984-8.176,7.46C77.931,30.942,77.743,30.921,77.379,30.993z"/>
		<path fill="#27AAE1" d="M77.572,42.484c0-1.776-0.022-3.552,0.019-5.326c0.008-0.338,0.175-0.763,0.416-0.992
			c2.786-2.639,5.602-5.249,8.685-8.123c0,2.272,0.017,4.241-0.019,6.209c-0.005,0.282-0.198,0.628-0.412,0.828
			c-2.731,2.544-5.482,5.067-8.228,7.596C77.879,42.611,77.726,42.548,77.572,42.484z"/>
		<path fill="#27AAE1" d="M89.963,222.012c-2.635,2.418-5.19,4.935-7.959,7.19c-0.774,0.63-2.179,0.485-3.389,0.713
			c-0.317-2.374-0.327-4.18,1.538-5.711c2.421-1.988,4.616-4.251,6.702-6.203c0.632,0.984,1.462,2.278,2.293,3.572
			C89.419,221.72,89.691,221.866,89.963,222.012z"/>
		<path fill="#27AAE1" d="M156.021,229.679c2.579-2.586,4.939-5.037,7.394-7.387c2.068-1.978,4.612-0.733,7.295-1.014
			c-0.43,0.586-0.628,0.928-0.894,1.206c-1.347,1.409-2.927,2.65-4.025,4.229C163.357,230.216,159.986,230.26,156.021,229.679z"/>
		<path fill="#27AAE1" d="M78.493,221.777c0-2.583-0.014-4.839,0.017-7.095c0.004-0.292,0.163-0.652,0.371-0.859
			c2.599-2.59,5.22-5.158,8.177-8.068c0,2.396,0.051,4.32-0.037,6.238c-0.021,0.456-0.44,0.958-0.794,1.324
			c-1.89,1.947-3.844,3.832-5.72,5.792C79.84,219.805,79.332,220.652,78.493,221.777z"/>
		<path fill="#27AAE1" d="M167.303,229.909c2.569-2.735,5.102-5.447,7.664-8.132c0.191-0.2,0.583-0.285,0.883-0.289
			c1.88-0.026,3.76-0.013,6.098-0.013c-0.599,0.705-0.861,1.066-1.176,1.373c-2.047,2.006-4.054,4.059-6.192,5.964
			c-0.651,0.58-1.651,0.959-2.531,1.05C170.45,230.027,168.821,229.909,167.303,229.909z"/>
		<path fill="#27AAE1" d="M78.503,199.47c0-1.883-0.026-3.768,0.021-5.65c0.01-0.39,0.192-0.861,0.454-1.147
			c2.446-2.661,4.927-5.291,7.397-7.929c0.216,0.133,0.433,0.266,0.649,0.399c0,2.016,0.018,4.032-0.021,6.048
			c-0.005,0.275-0.255,0.588-0.468,0.811c-2.491,2.615-4.996,5.215-7.498,7.82C78.86,199.705,78.682,199.587,78.503,199.47z"/>
		<path fill="#27AAE1" d="M78.533,189.337c0-2.354-0.017-4.334,0.019-6.313c0.005-0.282,0.211-0.621,0.425-0.829
			c2.564-2.486,5.148-4.952,8.029-7.714c0,2.362,0.007,4.381-0.012,6.399c-0.002,0.191-0.131,0.424-0.274,0.563
			C84.089,183.994,81.447,186.532,78.533,189.337z"/>
		<path fill="#27AAE1" d="M159.344,216.377c0.424,2.196,0.748,3.87,1.155,5.976c-1.629,1.66-3.666,3.811-5.796,5.865
			c-0.698,0.672-1.64,1.091-2.471,1.626c-0.243-0.939-0.438-1.894-0.739-2.813c-0.563-1.719,0.295-2.774,1.459-3.908
			C155.126,221.004,157.14,218.723,159.344,216.377z"/>
		<path fill="#27AAE1" d="M4.883,109.276c0-2.148-0.017-4.123,0.019-6.097c0.005-0.284,0.199-0.635,0.417-0.832
			c2.55-2.31,5.121-4.597,7.966-7.14c0.156,2.117,0.297,3.863,0.397,5.611c0.013,0.234-0.121,0.55-0.295,0.711
			C10.582,104.105,7.759,106.662,4.883,109.276z"/>
		<path fill="#27AAE1" d="M78.492,210.089c0-2.299-0.025-4.086,0.019-5.871c0.01-0.395,0.154-0.897,0.422-1.158
			c2.589-2.514,5.219-4.986,8.107-7.727c0,2.326,0.011,4.305-0.015,6.282c-0.003,0.24-0.147,0.538-0.324,0.707
			C84.088,204.814,81.458,207.289,78.492,210.089z"/>
		<path fill="#27AAE1" d="M178.108,229.839c1.777-1.874,3.427-3.355,4.76-5.081c1.951-2.524,4.342-3.523,7.459-2.95
			c0.617,0.113,1.273,0.016,2.44,0.016c-0.917,0.922-1.493,1.511-2.08,2.09c-1.119,1.103-2.463,2.052-3.323,3.328
			C185.078,230.637,181.79,229.956,178.108,229.839z"/>
		<path fill="#27AAE1" d="M97.317,229.316c2.396-2.53,4.777-5.074,7.208-7.569c0.251-0.258,0.792-0.313,1.201-0.321
			c1.759-0.034,3.519-0.014,5.754-0.014c-2.078,2.165-4.116,3.829-5.566,5.904c-2.277,3.259-5.359,2.353-8.32,2.401
			C97.502,229.583,97.41,229.449,97.317,229.316z"/>
		<path fill="#27AAE1" d="M109.724,229.325c2.13-2.511,4.22-4.999,6.35-7.452c0.256-0.295,0.726-0.555,1.105-0.567
			c1.824-0.058,3.65-0.026,5.86-0.026c-1.484,1.675-2.753,3.108-4.021,4.542c-0.323,0.366-0.734,0.688-0.95,1.11
			c-1.753,3.422-4.843,3.021-7.874,2.791C110.078,229.714,109.973,229.542,109.724,229.325z"/>
		<path fill="#27AAE1" d="M87.255,229.327c2.276-2.504,4.545-5.015,6.842-7.5c0.19-0.206,0.569-0.328,0.863-0.333
			c1.823-0.03,3.647-0.015,5.938-0.015c-2.618,2.86-4.938,5.456-7.352,7.962c-0.322,0.335-1.112,0.282-1.689,0.297
			c-1.455,0.038-2.911,0.013-4.367,0.013C87.412,229.609,87.334,229.468,87.255,229.327z"/>
		<path fill="#27AAE1" d="M132.642,49.461c3.504-7.435,10.105-11.177,16.14-15.504C144.849,40.453,140.183,46.193,132.642,49.461z"
			/>
		<path fill="#27AAE1" d="M5.388,229.602c2.844-2.856,5.575-5.598,8.178-8.212c1.545,0.476,3.14,0.968,4.946,1.524
			c-0.938,0.953-2.118,1.889-2.964,3.065c-2.289,3.18-5.319,4.292-9.098,3.678C6.138,229.606,5.815,229.622,5.388,229.602z"/>
		<path fill="#27AAE1" d="M28.498,223.023c-2.105,2.143-4.184,4.314-6.346,6.399c-0.308,0.297-1.018,0.231-1.544,0.24
			c-1.66,0.027-3.321,0.01-5.499,0.01c2.504-2.491,4.649-4.665,6.856-6.773c0.292-0.279,0.903-0.3,1.368-0.31
			c1.66-0.035,3.321-0.014,4.982-0.014C28.377,222.724,28.438,222.874,28.498,223.023z"/>
		<path fill="#27AAE1" d="M37.119,229.609c2.175-2.226,4.229-4.352,6.322-6.439c0.232-0.232,0.68-0.338,1.031-0.345
			c1.885-0.033,3.771-0.016,6.026-0.016c-1.513,1.55-2.964,2.699-3.984,4.151C44.063,230.449,40.611,229.734,37.119,229.609z"/>
		<path fill="#27AAE1" d="M38.924,223.106c-2.096,2.086-4.184,4.18-6.299,6.245c-0.204,0.199-0.579,0.309-0.877,0.313
			c-1.929,0.027-3.859,0.014-5.99,0.014c2.294-2.366,4.382-4.587,6.569-6.706c0.335-0.325,1.126-0.23,1.708-0.241
			c1.565-0.029,3.131-0.01,4.697-0.01C38.796,222.85,38.86,222.978,38.924,223.106z"/>
	</g>
	<g>
	</g>
	<g>
	</g>
	<g>
	</g>
	<g>
	</g>
	<g>
	</g>
	<g>
	</g>
</g>
</svg>
