<svg x="0" y="0" width="700" height="350" viewBox="0 0 700 350" xmlns="http://www.w3.org/2000/svg" xmlns:xlink="http://www.w3.org/1999/xlink" xmlns:fi="http://pattern.flaticon.com/"><rect x="0px" y="0px" width="100%" height="100%" opacity="0.26" fill="#ffffff"/><defs><g transform="matrix(0.9781864285469055 0 0 0.9781864285469055 242 197)" id="L1_18"><path d="M61.029,33.276c0.032-0.268-0.119-0.556-0.472-0.555c-1.868,0.005-3.736-0.004-5.604-0.013   c-0.013-0.036-0.018-0.07-0.04-0.106c-0.598-0.997-0.993-2.076-0.967-3.253c0.026-1.179,0.668-1.977,0.972-3.052   c0.044-0.156,0.023-0.306-0.037-0.439c0.046-0.187,0.016-0.398-0.161-0.595c-0.895-0.999-1.44-2.287-1.561-3.627   c-0.114-1.269,0.367-2.273,0.611-3.467c0.004-0.017,0-0.034,0.002-0.051c1.946,0.113,3.892,0.268,5.835,0.482   c0.185,0.02,0.302-0.062,0.367-0.179c0.399,0.421,1.214,0.049,1.032-0.579c-0.353-1.22-0.575-2.483-0.559-3.756   c0.014-1.081,0.433-2.109,0.266-3.171c-0.071-0.45-0.671-0.515-0.955-0.252c-0.071,0.066-0.128,0.143-0.19,0.217   c-0.007,0-0.012-0.003-0.019-0.003c-18.949,0.595-37.76-0.425-56.689-0.809c-0.225-0.005-0.361,0.108-0.42,0.256   c-0.531-0.024-1.097,0.269-1.5,0.627c-0.855,0.758-1.128,1.879-0.816,2.967c0.731,2.551,3.372,3.011,5.634,2.598   c0.922,0.4,2.043,0.352,3.031,0.451c0.248,0.025,0.503,0.057,0.756,0.088c-0.497,0.797-0.671,1.976-0.618,2.758   c0.119,1.763,0.781,3.586,1.979,4.911c-0.004,0-0.009,0.001-0.013,0.001c-0.493,0.044-0.477,0.694,0,0.756   c0.003,0,0.007,0.001,0.01,0.001c-0.837,0.657-1.125,2.14-1.102,3.098c0.015,0.629,0.132,1.263,0.4,1.834   c0.145,0.309,0.298,0.518,0.466,0.701c-2.793-0.13-5.58-0.202-8.35-0.134c-0.02-0.002-0.039,0-0.06,0.001   c-0.46,0.012-0.922,0.009-1.38,0.028c-0.276,0.011-0.36,0.436-0.068,0.501c0.192,0.043,0.39,0.072,0.583,0.113   c-0.697,0.877-0.953,2.248-1.105,3.263c-0.235,1.571-0.169,3.189,0.36,4.696c0.103,0.293,0.42,0.408,0.681,0.353   C1.396,39.968,1.473,39.992,1.56,40c1.729,0.154,3.528,0.386,5.333,0.549c-1.684,3.15-2.305,7.182,1.079,9.36   c-0.027,0.002-0.053,0.002-0.08,0.004c-0.557,0.035-0.55,0.814,0,0.861c7.281,0.626,14.693,0.175,22.001,0.318   c7.324,0.143,14.681,0.317,22.001,0.007c0.264-0.011,0.305-0.308,0.146-0.441c0.018-0.064,0.026-0.132,0.011-0.203   c-0.328-1.52-0.809-2.94-0.874-4.513c-0.058-1.418,0.341-2.739,0.358-4.129c0-0.026-0.012-0.045-0.02-0.066   c2.503,0.1,5.015,0.063,7.482-0.283c0.002,0,0.002-0.002,0.004-0.003c0.218,0.382,0.73,0.591,1.089,0.17   c0.793-0.931,0.565-1.813,0.151-2.886c-0.624-1.614-0.41-2.93,0.849-4.155C61.488,34.203,61.36,33.621,61.029,33.276z    M53.446,32.704c-7.587-0.051-15.175-0.207-22.757-0.414c-1.818-0.05-3.644-0.142-5.474-0.249   c-0.009-0.021-0.012-0.043-0.024-0.064c-0.991-1.668-1.314-3.613-0.24-5.323c0.018-0.029,0.026-0.062,0.04-0.093   c9.367,0.349,18.877,0.06,28.03-0.197c-0.367,0.511-0.583,1.129-0.679,1.786c-1.586-0.102-3.194-0.025-4.781,0.01   c-0.339,0.007-0.34,0.52,0,0.527c1.569,0.034,3.16,0.11,4.728,0.013c-0.027,0.593,0.032,1.204,0.171,1.792   c-1.407-0.008-2.844,0.232-4.231,0.413c-0.26,0.034-0.279,0.434,0,0.422c1.442-0.064,2.946-0.079,4.372-0.351   C52.804,31.616,53.085,32.215,53.446,32.704z M9.325,15.63c-1.228-0.148-2.678-0.583-3.863-0.147   c-0.03,0.011-0.045,0.035-0.071,0.05c-1.264-0.136-2.68-0.514-3.433-1.566c-0.42-0.587-0.521-1.354-0.141-1.99   c0.31-0.519,0.837-0.596,1.275-0.935c18.422,2.273,37.362,1.929,55.874,1.072c-0.059,0.22-0.099,0.447-0.132,0.675   c-1.42,0.03-2.871,0.264-4.272,0.398c-0.297,0.028-0.307,0.488,0,0.471c1.38-0.076,2.819-0.065,4.207-0.233   c-0.02,0.31-0.028,0.615-0.024,0.896c0.005,0.334,0.035,0.659,0.08,0.979c-1.648,0.213-3.195,0.273-4.876-0.071   c-0.308-0.063-0.439,0.388-0.131,0.475c1.644,0.461,3.448,0.627,5.133,0.265c0.14,0.595,0.345,1.169,0.617,1.728   c-15.781-1.971-31.674-1.049-47.523-1.574C11.194,15.785,10.238,15.74,9.325,15.63z M10.897,21.048   c-0.133-0.664-0.258-1.562-0.056-2.231c0.171-0.568,0.552-0.853,0.907-1.289c0.007-0.008,0.007-0.018,0.013-0.027   c13.367,1.22,26.784-0.063,40.155,0.527c-0.103,0.16-0.168,0.336-0.248,0.505c-2.138,0.244-4.219,0.358-6.385,0.046   c-0.315-0.045-0.459,0.43-0.135,0.488c2.057,0.368,4.182,0.501,6.251,0.181c-0.584,2.123,0.283,4.696,1.737,6.311   c-13.251-0.909-27.266-1.962-40.577-0.95C11.854,23.476,11.168,22.396,10.897,21.048z M23.682,31.943   c-0.814-0.052-1.626-0.099-2.441-0.155c-0.246-0.48-0.5-1.283-0.518-1.364c-0.101-0.456-0.142-0.918-0.144-1.385   c-0.003-0.911,0.374-1.781,0.319-2.674c0.72,0.043,1.445,0.07,2.167,0.104C22.204,28.246,22.339,30.516,23.682,31.943z    M18.217,26.212c-1.262,0.035-1.934,1.518-2.094,2.6c-0.142,0.96,0.025,1.88,0.521,2.656c-1.594-0.109-3.188-0.211-4.781-0.295   c-0.366-0.76-0.574-1.815-0.511-2.593c0.085-1.05,0.863-1.755,0.973-2.74c0.006-0.051-0.012-0.094-0.026-0.138   c0.05-0.012,0.099-0.027,0.144-0.053c2.361,0.277,4.753,0.472,7.155,0.632c-0.903,1.366-0.551,3.649,0.028,5.032   c0.044,0.105,0.112,0.236,0.197,0.378c-0.645-0.045-1.291-0.09-1.936-0.135c-0.462-0.78-0.624-1.739-0.359-2.615   c0.241-0.798,0.91-1.307,1.198-2.059C18.848,26.56,18.534,26.204,18.217,26.212z M5.843,38.855   c-1.416,0.01-2.821,0.046-4.176,0.037c-0.083-1.291-0.108-2.562,0.153-3.85c0.213-1.05,0.861-2.097,0.946-3.155   c1.436,0.272,2.892,0.486,4.356,0.676C5.51,34.058,5.037,36.813,5.843,38.855z M8.787,32.768c2.691,0.301,5.412,0.492,8.135,0.631   c-1.825,1.391-1.725,4.441-0.719,6.423c-0.823,0.003-1.648,0.004-2.469,0.008c-0.057-0.165-0.177-0.305-0.355-0.349   c-1.981-0.479-4.1-0.604-6.224-0.623C6.571,36.478,7.317,34.636,8.787,32.768z M45.895,43.968c1.332,0.07,2.682,0.085,4.018,0.055   c-0.101,0.388-0.179,0.787-0.215,1.199c-0.053-0.035-0.122-0.053-0.202-0.037c-1.325,0.256-2.584,0.401-3.933,0.362   c-0.22-0.007-0.28,0.358-0.053,0.394c1.357,0.215,2.811,0.163,4.125-0.254c0.017-0.005,0.02-0.021,0.035-0.028   c-0.025,0.831,0.07,1.68,0.282,2.475c-1.043,0.024-2.1,0.228-3.123,0.368c-0.273,0.037-0.21,0.503,0.065,0.483   c1.063-0.076,2.165-0.097,3.217-0.307c0.241,0.698,0.562,1.345,0.974,1.869c-7.046-0.425-14.134-0.43-21.19-0.453   c-7.101-0.023-14.281-0.601-21.372-0.211c0.049-0.101,0.058-0.222-0.038-0.32c-2.544-2.582-1.405-6.112,0.132-8.865   c13.521,1.41,28.059,2.558,41.611,1.505c0.339-0.026,0.514-0.25,0.546-0.493c0.128,0.007,0.256,0.014,0.384,0.02   c-0.491,0.479-0.837,1.09-1.079,1.763c-1.389-0.036-2.795-0.019-4.182,0.054C45.623,43.561,45.623,43.954,45.895,43.968z    M58.198,35.784c-1.21-0.045-2.449-0.006-3.636,0.089c-0.28,0.022-0.281,0.413,0,0.436c1.15,0.092,2.347,0.133,3.521,0.095   c-0.006,0.047-0.021,0.09-0.026,0.137c-0.06,0.568-0.025,1.149,0.118,1.704c-1.319,0.059-2.68,0.327-3.959,0.468   c-0.282,0.031-0.294,0.469,0,0.45c1.36-0.089,2.83-0.063,4.208-0.268c0.303,0.581,0.777,1.311,0.565,1.821   c-3.976-0.556-8.074-0.313-12.057,0.02c-9.767-0.849-19.836-0.94-29.733-0.918c-0.373-0.992-0.483-2.099-0.242-3.132   c0.248-1.063,0.927-1.782,1.382-2.729c0.083-0.172,0.087-0.341,0.045-0.491c3.818,0.171,7.627,0.258,11.344,0.408   c9.875,0.397,19.722,0.292,29.592-0.109C58.786,34.34,58.402,35.022,58.198,35.784z" fill="#1d1d1b"/><path d="M17.076,13.071c-1.674-0.315-3.41-0.108-5.11-0.134c-1.909-0.03-3.829-0.205-5.734-0.079   c-0.59,0.039-0.744,0.878-0.143,1.053c3.146,0.918,7.821,1.384,10.987,0.482C17.69,14.218,17.767,13.201,17.076,13.071z" fill="#1d1d1b"/><path d="M20.855,18.997c-0.07-0.23-0.254-0.444-0.498-0.498c-1.684-0.374-3.644-0.445-5.019,0.743   c-1.017,0.879-1.792,2.524-0.862,3.74c0.29,0.379,0.896,0.392,1.216,0.133c0.797,0.141,1.593,0.284,2.395,0.4   c0.735,0.107,1.737,0.44,2.439,0.065C21.935,22.829,21.206,20.158,20.855,18.997z M18.858,22.462   c-1.009-0.043-2.015-0.059-3.023-0.074c-1.018-2.571,1.951-2.591,3.794-2.512c0.137,0.459,0.242,0.922,0.277,1.407   C19.974,22.235,19.866,22.504,18.858,22.462z" fill="#1d1d1b"/><path d="M50.115,34.32c-0.82-0.237-1.835,0.061-2.656,0.166c-1.251,0.16-2.496,0.369-3.739,0.584   c-0.412,0.071-0.596,0.553-0.52,0.915c0.138,0.649,0.268,1.299,0.436,1.941l0.001,0.002c-0.132-0.009-0.265-0.014-0.397-0.024   c-0.503-0.036-0.611,0.771-0.119,0.881c2.552,0.569,5.154,0.746,7.764,0.644c0.386-0.015,0.705-0.312,0.708-0.708   C51.605,37.419,51.737,34.79,50.115,34.32z M44.912,38.004c0.065-0.13,0.105-0.278,0.079-0.452   c-0.056-0.383-0.135-0.762-0.208-1.142c1.284-0.194,2.57-0.381,3.859-0.544c0.622-0.079,0.853-0.268,1.241,0.247   c0.308,0.408,0.318,1.236,0.304,1.925C48.425,38.114,46.67,38.094,44.912,38.004z" fill="#1d1d1b"/><path d="M44.125,48.269c-0.143-0.476-0.222-0.947-0.213-1.445c0.01-0.516,0.169-0.926-0.088-1.406   c-0.004-0.007-0.012-0.01-0.017-0.018c0.075-0.338-0.11-0.731-0.578-0.76c-5.211-0.323-10.456-0.052-15.677-0.301   c-5.153-0.245-10.422-1.064-15.573-0.73c-0.14-0.114-0.301-0.192-0.49-0.17c-0.391,0.046-0.685,0.232-0.811,0.618   c-0.274,0.835-0.547,1.671-0.821,2.506c-0.144,0.438,0.203,0.798,0.587,0.894c-0.036,0.222,0.057,0.462,0.318,0.499   c10.627,1.523,21.659,1.854,32.355,0.856C43.466,49.261,44.303,48.862,44.125,48.269z M11.212,47.077   c0.335-0.791,0.67-1.581,1.004-2.371c0.06-0.141,0.086-0.28,0.091-0.416c4.61,1.119,9.551,1.161,14.267,1.342   c5.259,0.202,10.605,0.622,15.867,0.301c-0.124,0.565,0.014,1.248,0.224,1.857C32.134,47.951,21.73,47.745,11.212,47.077z" fill="#1d1d1b"/><path d="M51.557,23.454c-1.444-0.024-2.896,0.195-4.331,0.337c-0.345,0.034-0.356,0.572,0,0.549   c1.463-0.097,2.954-0.124,4.399-0.388C51.912,23.899,51.834,23.459,51.557,23.454z" fill="#1d1d1b"/><path d="M50.896,20.854c-1.557,0.072-3.112,0.283-4.662,0.443c-0.247,0.025-0.256,0.41,0,0.394   c1.552-0.1,3.118-0.15,4.662-0.338C51.205,21.315,51.224,20.839,50.896,20.854z" fill="#1d1d1b"/></g><path d="M68.758,54.681c-1.157-2.716-3.196-4.943-4.688-7.453c-1.031-1.735-1.898-3.584-2.739-5.443   c0.025-0.119-0.023-0.233-0.134-0.296c-0.464-1.03-0.924-2.061-1.396-3.078c0.589-0.548,0.913-1.242,1.188-2.295   c0.932-3.568,0.036-8.733-0.026-12.457c-0.074-4.431,0.005-8.85,0.01-13.28c0.002-1.697,0.56-4.737-0.778-6.244   c-1.48-1.668-4.884-1.03-6.687-1.061C49,2.996,44.486,2.946,39.976,3.023c-8.923,0.153-18.182,0.23-27.039,1.405   C7.41,5.162,7.645,8.121,7.721,13.271c0.125,8.413,0.588,16.996,2.074,25.292C6.727,43.609,4.167,49.517,2.06,55.02   c-0.337,0.881-0.704,1.852-0.83,2.804c-0.37-0.234-0.912-0.178-1.013,0.365c-0.238,1.282-0.28,2.565-0.127,3.862   c0.125,1.058,0.19,2.477,1.065,3.177c0.136,0.109,0.29,0.152,0.442,0.165c0.053,0.125,0.148,0.225,0.298,0.245   c6.408,0.863,13.125,0.393,19.585,0.381c7.459-0.013,14.917-0.091,22.375-0.12c6.805-0.027,14.521,0.959,21.216-0.17   c4.758-0.802,3.512-3.894,4.08-7.777c0.021-0.141,0-0.261-0.035-0.37C69.391,56.764,69.235,55.799,68.758,54.681z M64.055,49.58   c-0.164,0.02-0.329,0.043-0.494,0.065c-0.521,0.069-1.055,0.109-1.566,0.233c-0.274,0.067-0.208,0.478,0.065,0.483   c0.537,0.012,1.081-0.067,1.616-0.112c0.214-0.018,0.431-0.033,0.647-0.058c0.264,0.6,0.532,1.19,0.791,1.806   c0.073,0.173,0.158,0.351,0.246,0.532c-0.68,0.081-1.356,0.229-2.029,0.345c-0.258,0.045-0.201,0.497,0.063,0.463   c0.733-0.095,1.484-0.161,2.212-0.308c0.394,0.798,0.781,1.647,0.704,2.485c-1.108,0.208-2.2,0.304-3.367,0.158   c0.023-0.114,0.019-0.237-0.027-0.356c0.057-0.089,0.084-0.197,0.051-0.318c-0.724-2.644-1.772-5.311-3.129-7.792   c1.046,0.052,2.118,0.123,3.168,0.094C63.36,48.054,63.711,48.81,64.055,49.58z M41.604,52.243c0.978-0.019,1.955-0.03,2.933-0.054   c0.243,0.885,0.512,1.76,0.84,2.613c-1.168,0.062-2.312,0.119-3.47,0.181c0.062-0.123,0.098-0.264,0.07-0.429   C41.847,53.788,41.726,53.016,41.604,52.243z M37.783,52.313c0.759-0.01,1.518-0.03,2.278-0.042   c0.213,0.882,0.426,1.761,0.628,2.636c0.013,0.054,0.04,0.09,0.06,0.134c-0.982,0.051-1.978,0.108-2.952,0.154   c0.008-0.044,0.023-0.082,0.022-0.133C37.797,54.147,37.796,53.23,37.783,52.313z M37.787,47.357   c0.388-0.008,0.779-0.015,1.168-0.022c0.184,0.944,0.388,1.885,0.605,2.824c-0.602,0.01-1.203,0.017-1.805,0.027   c-0.001-0.29-0.011-0.579-0.011-0.869C37.744,48.673,37.774,48.015,37.787,47.357z M37.739,45.552   c-0.031-0.328-0.084-0.651-0.154-0.97c0.304-0.009,0.608-0.022,0.912-0.032c0.042,0.32,0.087,0.64,0.137,0.96   C38.336,45.524,38.036,45.538,37.739,45.552z M40.09,44.494c0.841-0.029,1.683-0.053,2.523-0.089   c0.044,0.305,0.096,0.608,0.159,0.91c-0.817,0.038-1.629,0.076-2.444,0.115C40.254,45.116,40.173,44.805,40.09,44.494z    M40.742,47.3c0.834-0.015,1.665-0.032,2.502-0.048c0.148,0.539,0.299,1.077,0.438,1.614c0.106,0.407,0.207,0.816,0.31,1.226   c-0.911,0.008-1.822,0.027-2.733,0.041C41.102,49.185,40.929,48.241,40.742,47.3z M44.379,44.33   c1.074-0.048,2.151-0.084,3.224-0.138c0.033,0.31,0.062,0.618,0.111,0.935c-1.021,0.026-2.043,0.064-3.065,0.106   C44.563,44.93,44.481,44.627,44.379,44.33z M45.152,47.213c0.989-0.024,1.978-0.051,2.966-0.089   c0.237,0.982,0.537,1.963,0.898,2.922c-1.059,0.008-2.119,0.02-3.179,0.029c-0.104-0.415-0.209-0.831-0.311-1.246   C45.395,48.294,45.274,47.754,45.152,47.213z M49.882,52.055c0.439,0.893,0.933,1.729,1.477,2.49   c-1.52,0.039-3.044,0.105-4.568,0.181c-0.107-0.869-0.273-1.728-0.462-2.582C47.513,52.112,48.699,52.089,49.882,52.055z    M49.356,44.106c0.867-0.046,1.739-0.078,2.605-0.128c0.118,0.371,0.239,0.742,0.364,1.113c-0.905-0.012-1.815,0.01-2.723,0.021   C49.523,44.776,49.439,44.441,49.356,44.106z M50.99,50.031c-0.124-0.324-0.249-0.647-0.36-0.976   c-0.225-0.672-0.405-1.352-0.574-2.035c0.961-0.051,1.925-0.093,2.881-0.171c0.389,1.058,0.798,2.111,1.23,3.157   C53.109,50.013,52.048,50.023,50.99,50.031z M53.958,43.859c0.524-0.032,1.05-0.06,1.573-0.093   c0.306,0.491,0.608,0.981,0.912,1.471c-0.651-0.043-1.306-0.065-1.96-0.091C54.316,44.711,54.132,44.289,53.958,43.859z    M54.969,51.897c0.385,0.883,0.778,1.752,1.178,2.616c-1.127-0.02-2.26-0.013-3.397,0.004c-0.006-0.049-0.005-0.096-0.024-0.15   c-0.282-0.803-0.611-1.587-0.941-2.371C52.847,51.963,53.909,51.932,54.969,51.897z M55.033,46.656   c0.713-0.076,1.426-0.153,2.135-0.251c0.728,1.182,1.441,2.37,2.137,3.569c-1.046,0.006-2.095,0.013-3.142,0.02   C55.808,48.872,55.431,47.761,55.033,46.656z M59.39,51.749c0.335-0.012,0.56-0.178,0.699-0.397c0.64,1.141,1.264,2.295,1.852,3.48   c-1.459-0.15-2.942-0.229-4.434-0.281c-0.246-0.901-0.496-1.805-0.765-2.713C57.624,51.808,58.508,51.78,59.39,51.749z    M9.776,19.156c-0.105-2.738-0.763-6.166-0.164-8.828c1.102-4.898,6.186-4.157,10.077-4.352c6.115-0.306,12.231-0.461,18.353-0.527   c3.222-0.035,6.444-0.078,9.667-0.078c2.004,0,7.902-0.929,9.666,0.119c0.516,0.306,0.853,0.773,1.075,1.332   C54.22,6.609,49.947,6.759,45.72,6.813c-0.308,0.004-0.308,0.474,0,0.478c4.279,0.055,8.606,0.209,12.888-0.015   c0.205,0.761,0.243,1.647,0.222,2.538c-0.036-0.019-0.061-0.048-0.109-0.054c-0.85-0.114-1.757-0.061-2.65,0   c-0.102-0.354-0.388-0.562-0.717-0.626c-0.182-0.311-0.503-0.539-0.969-0.545c-6.646-0.085-13.292-0.068-19.937,0.127   c-3.164,0.093-6.328,0.212-9.489,0.387c-2.868,0.159-7.803-0.361-10.425,0.836c-2.364,1.079-1.907,2.624-2.082,5.422   c-0.382,6.125,0.101,12.132,1.157,18.165c0.021,0.121,0.081,0.21,0.153,0.285c-0.266,0.238-0.169,0.75,0.29,0.792   C27.091,35.81,41.588,34.98,54.43,32.05c0.209,0.153,0.484,0.197,0.737,0.144c-0.105,0.156-0.033,0.441,0.221,0.473   c1.058,0.137,2.161,0.089,3.132-0.385c0.276-0.135,0.072-0.521-0.198-0.469c-0.973,0.187-1.896,0.363-2.891,0.279   c0.224-0.131,0.393-0.361,0.407-0.705c0.002-0.047,0.002-0.093,0.004-0.14c0.039-0.154,0.043-0.314,0.013-0.471   c0.018-0.487,0.023-0.974,0.038-1.461c0.698-0.129,1.389-0.251,2.1-0.277c0.275-0.01,0.553,0.004,0.83,0.008   c0.008,1.05,0.015,2.1,0.025,3.149c0.012,1.201,0.136,2.166-0.065,3.017c-5.031,0.387-10.13,0.905-15.096,1.803   c-0.211,0.038-0.162,0.382,0.05,0.373c4.931-0.207,9.909-0.804,14.799-1.509c-0.361,0.697-1.06,1.33-2.409,1.977   c-1.003,0.481-2.634,0.492-3.734,0.666c-13.437,2.123-27.831,1.951-41.186-0.681c-0.04-0.008-0.074,0.002-0.111,0.001   C10.644,31.61,10.015,25.408,9.776,19.156z M58.405,12.869c-0.798,0.038-1.543,0.194-2.315,0.241   c0.008-0.921,0.013-1.842,0.024-2.763c0.879,0.059,1.77,0.109,2.605-0.003c0.041-0.005,0.061-0.032,0.093-0.047   c-0.048,1.07-0.153,2.117-0.132,2.927c0.034,1.314,0.039,2.627,0.059,3.94c-0.004,0-0.005-0.003-0.009-0.003   c-0.616,0.032-1.208,0.204-1.822,0.259c-0.286,0.025-0.571,0.032-0.856,0.028c0.009-1.23,0.023-2.46,0.033-3.69   c0.853,0.065,1.738-0.008,2.441-0.444C58.718,13.195,58.651,12.857,58.405,12.869z M58.747,17.697   c0.014,1.072,0.044,2.144,0.048,3.216c-0.936,0.133-1.799,0.207-2.774-0.059c0.008-0.917,0.018-1.834,0.024-2.751   C56.974,18.157,57.943,18.088,58.747,17.697z M58.799,21.692c0,0.339,0.007,0.678,0.006,1.018c-0.002,0.533,0.003,1.067,0.003,1.6   c-0.938,0.252-1.825,0.461-2.822,0.432c0.017-1.106,0.021-2.213,0.031-3.319C56.878,21.716,57.886,21.868,58.799,21.692z    M58.809,25.052c0.002,1.074-0.001,2.147,0.006,3.221c-0.957-0.079-2.05,0.15-2.907,0.398c0.03-1.101,0.047-2.201,0.065-3.301   C56.905,25.443,57.92,25.384,58.809,25.052z M54.082,30.166c-6.508,0.689-12.953,1.828-19.491,2.342   c-6.561,0.515-13.137,0.695-19.701,1.132c0.038-0.085,0.061-0.18,0.047-0.292c-0.61-4.773-0.915-9.565-0.939-14.378   c-0.014-2.829-0.833-6.082,2.43-7.524c1.822-0.805,5.575-0.225,7.583-0.3c10.046-0.376,20.081-0.497,30.131-0.189   C54.118,17.363,53.968,23.761,54.082,30.166z M4.582,54.361c0.748-1.694,1.524-3.377,2.28-5.068   c1.497-3.349,3.148-6.668,4.247-10.173c8.136,1.374,16.206,2.48,24.487,2.408c4.428-0.039,8.865-0.296,13.27-0.755   c2.849-0.297,6.611-0.279,9.29-1.383c0.244-0.101,0.462-0.202,0.663-0.307c0.418,0.766,0.823,1.526,1.22,2.284   c-0.814,0.02-1.64,0.197-2.386,0.448c-0.276,0.093-0.165,0.519,0.122,0.441c0.888-0.244,1.721-0.265,2.596-0.246   c0.307,0.593,0.613,1.185,0.912,1.777c-0.317,0.015-0.634,0.033-0.951,0.019c-0.644-0.029-1.266-0.138-1.888-0.299   c-0.303-0.079-0.427,0.377-0.129,0.468c0.976,0.297,2.202,0.575,3.269,0.421c0.399,0.799,0.803,1.594,1.187,2.402   c-1.014-0.013-2.047,0.058-3.052,0.106c-0.015,0.001-0.021,0.011-0.033,0.015c-0.881-1.573-1.888-3.067-3.027-4.423   c-0.031-0.048-0.066-0.091-0.109-0.13c-0.171-0.201-0.334-0.412-0.511-0.607c-0.441-0.485-1.16-0.118-1.275,0.407   c-0.502-0.003-1.008,0.007-1.511,0.005c-0.318-0.612-1.12-0.467-1.485,0.005c-13.08-0.005-26.328,0.421-39.334,1.368   c-0.204-0.532-0.982-0.797-1.28-0.152c-1.567,3.392-3.089,6.799-4.237,10.361c-0.198,0.613-0.734,2.141-0.332,2.821   c-0.247,0.361-0.099,0.964,0.473,0.967c9.545,0.051,19.106-0.283,28.648-0.506c8.745-0.204,18.202,0.429,26.832-0.996   c0.077-0.013,0.132-0.044,0.188-0.075c1.126,0.219,2.314,0.29,3.454,0.102c-0.192,0.524-0.6,1.037-1.356,1.524   c-0.776,0.5-4.921,0.256-5.871,0.312c-8.477,0.498-16.957,0.73-25.441,1.078c-3.915,0.16-7.829,0.339-11.743,0.506   c-4.164,0.178-9.599,1.24-13.7,0.527c-0.652,0.017-1.305,0.035-1.957,0.052C3.179,58.538,2.67,56.636,4.582,54.361z M36.137,50.21   c-1.197,0.021-2.395,0.031-3.592,0.054c0.043-0.913,0.078-1.835,0.075-2.752c0.805-0.029,1.611-0.062,2.415-0.089   c0.351-0.012,0.707-0.016,1.06-0.026C36.047,48.317,36.068,49.262,36.137,50.21z M34.049,45.702c-0.499,0.016-1,0.028-1.5,0.043   c-0.029-0.348-0.068-0.693-0.119-1.035c1.376-0.029,2.751-0.064,4.127-0.102c-0.102,0.326-0.196,0.656-0.263,1.003   C35.545,45.642,34.793,45.678,34.049,45.702z M32.454,52.39c0-0.006,0-0.012,0.001-0.018c1.295-0.01,2.591-0.028,3.887-0.043   c0.115,0.962,0.245,1.889,0.352,2.734c0.008,0.068,0.033,0.124,0.058,0.179c-0.676,0.029-1.363,0.069-2.031,0.09   c-1.114,0.035-2.229,0.067-3.343,0.101C32.521,54.841,32.417,53.646,32.454,52.39z M30.737,55.452   c-1.382,0.042-2.764,0.084-4.147,0.125c0.003-0.012,0.01-0.019,0.012-0.031c0.166-1.041,0.297-2.087,0.394-3.136   c1.392-0.003,2.786-0.02,4.179-0.029c0.054,1.074,0.004,2.05-0.376,2.276C30.501,54.834,30.533,55.247,30.737,55.452z    M30.913,45.791c-1.296,0.036-2.59,0.075-3.887,0.11c-0.034-0.363-0.078-0.726-0.126-1.088c1.37-0.018,2.742-0.051,4.113-0.077   C30.968,45.086,30.933,45.438,30.913,45.791z M30.994,50.295c-1.288,0.026-2.576,0.048-3.863,0.077   c0.036-0.886,0.04-1.773,0.009-2.659c1.248-0.048,2.492-0.09,3.739-0.137c0.009,0.582,0.023,1.164,0.034,1.743   C30.917,49.534,30.952,49.882,30.994,50.295z M25.371,55.614c-1.158,0.035-2.315,0.069-3.473,0.105   c0.048-1.091,0.138-2.19,0.239-3.293c1.135,0.005,2.272-0.011,3.408-0.011c-0.041,0.984-0.103,1.97-0.202,2.961   C25.333,55.464,25.345,55.543,25.371,55.614z M22.319,50.479c0.082-0.866,0.158-1.732,0.22-2.597   c1.013-0.033,2.025-0.074,3.038-0.112c0.018,0.879,0.023,1.758,0.014,2.636C24.5,50.433,23.409,50.45,22.319,50.479z M22.64,46.024   c0.014-0.385,0.02-0.768,0.022-1.151c0.942-0.005,1.886-0.031,2.829-0.04c0.014,0.371,0.026,0.74,0.038,1.11   C24.565,45.97,23.602,45.994,22.64,46.024z M20.745,50.518c-1.141,0.032-2.284,0.049-3.424,0.085   c0.075-0.862,0.129-1.725,0.173-2.585c1.134-0.021,2.269-0.054,3.404-0.088C20.814,48.787,20.767,49.652,20.745,50.518z    M20.834,55.753c-1.376,0.044-2.751,0.082-4.126,0.133c0.161-1.154,0.303-2.322,0.429-3.497c1.197,0.015,2.397,0.018,3.595,0.026   c0.012,1.125,0.05,2.236,0.095,3.303C20.826,55.732,20.832,55.741,20.834,55.753z M17.548,46.211c0.01-0.444,0.029-0.89,0.028-1.33   c1.27,0.006,2.543-0.002,3.815-0.005c-0.092,0.394-0.172,0.793-0.241,1.198C19.948,46.114,18.748,46.158,17.548,46.211z    M11.256,56.112c-1.142,0.054-2.285,0.099-3.426,0.163c-0.016-0.023-0.032-0.046-0.052-0.066c0.289-1.344,0.713-2.716,1.212-4.086   c0.105,0.078,0.23,0.138,0.398,0.143c0.703,0.02,1.409,0.023,2.113,0.04c-0.124,1.255-0.226,2.512-0.252,3.763   C11.248,56.085,11.256,56.097,11.256,56.112z M9.476,50.874c0.374-0.949,0.766-1.894,1.174-2.822   c0.425,0.007,0.85,0.005,1.275,0.008c-0.025,0.347-0.049,0.694-0.085,1.035c-0.059,0.565-0.122,1.131-0.183,1.699   C10.931,50.823,10.202,50.843,9.476,50.874z M11.323,46.542c0.261-0.577,0.52-1.149,0.772-1.706   c0.021,0.002,0.035,0.011,0.057,0.011c0.194,0.003,0.39,0.002,0.584,0.005c-0.33,0.499-0.517,1.056-0.629,1.643   C11.847,46.513,11.584,46.522,11.323,46.542z M13.107,52.337c0.823,0.017,1.648,0.019,2.472,0.032   c-0.088,1.197-0.16,2.389-0.207,3.57c-0.96,0.038-1.921,0.071-2.88,0.114C12.75,54.829,12.939,53.585,13.107,52.337z    M13.318,50.733c0.061-0.472,0.121-0.944,0.185-1.413c0.057-0.414,0.132-0.831,0.201-1.249c0.768-0.001,1.537-0.022,2.305-0.032   c-0.112,0.869-0.213,1.741-0.295,2.617C14.916,50.683,14.116,50.704,13.318,50.733z M13.872,46.391   c-0.001-0.523-0.083-1.036-0.283-1.532c0.967,0.013,1.938,0.009,2.907,0.016c-0.084,0.462-0.153,0.931-0.226,1.399   C15.47,46.313,14.67,46.343,13.872,46.391z M66.267,61.493c-3.734,0.165-7.498,0.533-11.213,0.838   c-0.108,0.009-0.109,0.161,0,0.169c3.495,0.235,7.18,0.211,10.703-0.274c-0.565,0.697-1.32,1.255-2.443,1.581   c-2.415,0.701-6.188,0.057-8.756,0.074c-6.161,0.041-12.323,0.133-18.484,0.121c-11.01-0.022-22.784-0.889-33.708,0.643   c0.15-0.866-0.254-1.744-0.403-2.614c-0.096-0.557-0.161-1.116-0.217-1.676c0.128,0.184,0.275,0.363,0.457,0.534   c2.593,2.432,8.648,0.791,11.738,0.686c6.524-0.221,13.048-0.416,19.571-0.646c6.197-0.219,12.395-0.627,18.592-0.779   c3.261-0.08,6.524-0.103,9.785-0.189c1.645-0.044,3.683,0.165,5.267-0.515C66.895,60.174,66.626,60.87,66.267,61.493z" transform="matrix(0.866400957107544 0 0 0.866400957107544 301 33.000003814697266)" fill="#1d1d1b" id="L1_19"/><g transform="matrix(0.9337068200111389 0 0 0.9337068200111389 87 87)" id="L1_20"><path d="M20.042,32.417c-1.456-0.284-2.93-0.233-4.409-0.222c-1.042,0.008-2.878-0.221-4.033,0.07   c0.319-3.636,0.056-7.264-0.452-10.877c-0.046-0.326-0.322-0.465-0.608-0.463c-0.034-0.345-0.295-0.688-0.709-0.727   c-0.752-0.072-5.895,0.621-7.504,0.317c-0.409-2.354-0.777-4.915-0.788-7.36c2.969,0.103,6.046,0.001,8.973-0.503   c0.212-0.036,0.345-0.194,0.397-0.38c0.005-0.013,0.018-0.017,0.022-0.03c0.606-1.697,0.26-3.759,0.237-5.543   c-0.02-1.574,0.223-3.336-0.65-4.711c-0.078-0.122-0.25-0.122-0.328,0c-0.872,1.375-0.629,3.137-0.65,4.711   C9.523,8.192,9.285,9.877,9.56,11.383c-2.701-0.384-5.498-0.47-8.205-0.369c-0.968,0.036-1.241,1.047-0.845,1.665   c-0.28,1.192-0.527,2.317-0.509,3.637c0.018,1.389,0.184,2.809,0.478,4.178c0.011,0.223,0.06,0.417,0.133,0.593   c0.016,0.065,0.027,0.131,0.044,0.196c0.112,0.434,0.42,0.625,0.747,0.638c0.382,0.197,0.843,0.3,1.323,0.321   c2.239,0.094,4.935-0.058,7.132-0.574c0.325,3.805,0.275,7.598,0.236,11.412c-0.005,0.448,0.296,0.665,0.623,0.682   c0.062,0.043,0.13,0.085,0.221,0.117c0.084,0.03,0.202-0.002,0.261-0.069c0.029-0.033,0.059-0.067,0.088-0.1   c0.454,0.113,1.086,0.139,0.83,0.118c0.933,0.078,1.878,0.092,2.814,0.115c1.705,0.042,3.43,0.144,5.112-0.168   C20.716,33.648,20.71,32.547,20.042,32.417z" fill="#1d1d1b"/><path d="M29.308,12.066c-0.042-0.369-0.284-0.604-0.566-0.703c0.34-0.367,0.188-1.129-0.42-1.062   c-2.92,0.321-5.766,0.1-8.657,0.18c0.014-1.413-0.038-2.823-0.124-4.235c-0.067-1.097-0.033-2.273-0.263-3.362   c0.305-0.244,0.293-0.839-0.077-1.027c-0.104-0.053-0.223-0.086-0.332-0.131c-0.183-0.217-0.483-0.321-0.733-0.256   c-2.099-0.561-4.808-0.194-6.775,0.042c-0.77,0.093-0.81,1.29,0,1.237c1.355-0.088,2.708-0.105,4.063-0.005   c0.728,0.054,1.445,0.183,2.163,0.249c-0.017,0.356-0.004,0.716,0.021,1.077c-1.285-0.069-2.594,0.172-3.811,0.551   c-0.261,0.081-0.152,0.487,0.113,0.411c1.249-0.356,2.473-0.434,3.74-0.476c0.069,0.685,0.17,1.37,0.237,2.035   c0.015,0.147,0.041,0.292,0.057,0.439c-1.222-0.003-2.462,0.157-3.649,0.338c-0.299,0.046-0.169,0.492,0.125,0.452   c1.205-0.164,2.398-0.184,3.599-0.219c0.085,0.701,0.165,1.402,0.273,2.099c-1.48,0.146-2.94,0.404-4.436,0.458   c-0.225,0.008-0.227,0.355,0,0.352c1.466-0.02,3.045-0.062,4.5-0.394c0.028,0.172,0.049,0.345,0.079,0.517   c-0.565,0.338-0.607,1.285,0.168,1.504c1.399,0.395,2.946,0.487,4.501,0.387c-3.341,0.227-6.684,0.562-10.005,0.819   c-0.173,0.013-0.176,0.281,0,0.272c4.88-0.257,9.83-0.346,14.693-0.881c0.074,0.713,0.149,1.425,0.233,2.134   c-5.203,0.101-10.498,0.554-15.668,1.112c-0.152,0.016-0.16,0.248,0,0.244c5.21-0.129,10.53-0.384,15.712-0.973   c0.119,0.985,0.247,1.968,0.383,2.95c-4.899-0.318-9.989,0.22-14.854,0.68c-0.133,0.012-0.137,0.219,0,0.211   c4.942-0.278,9.966-0.17,14.894-0.605c0.087,0.615,0.161,1.23,0.259,1.844c-5.371-0.049-10.79,0.267-16.146,0.595   c-0.149,0.009-0.152,0.234,0,0.234c5.387,0.002,10.837-0.012,16.215-0.392c0.031,0.191,0.058,0.383,0.09,0.574   c-0.128-0.131-0.313-0.215-0.564-0.204c-2.84,0.125-5.671,0.401-8.493,0.746c-0.458,0.056-0.667,0.465-0.619,0.815   c-0.019,0.038-0.035,0.08-0.051,0.122c-1.852,0.021-3.743,0.36-5.577,0.559c-0.262,0.028-0.27,0.439,0,0.417   c1.806-0.149,3.691-0.183,5.487-0.492c-0.141,0.783-0.205,1.583-0.208,2.389c-1.509,0.02-3.084,0.303-4.569,0.52   c-0.19,0.028-0.146,0.349,0.045,0.336c1.482-0.101,3.059-0.162,4.525-0.453c0.007,0.548,0.024,1.095,0.05,1.634   c-1.527,0.198-3.015,0.384-4.594,0.374c-0.148-0.001-0.192,0.246-0.036,0.267c1.469,0.198,3.134,0.216,4.651-0.096   c0.019,0.541,0.03,1.113,0.085,1.685c-1.651,0.05-3.363,0.428-4.987,0.658c-0.181,0.026-0.14,0.344,0.044,0.322   c1.634-0.189,3.373-0.256,4.984-0.625c0.099,0.718,0.292,1.404,0.709,1.951c0.132,0.173,0.427,0.234,0.546,0   c0.619-1.216,0.346-2.637,0.335-3.975c-0.014-1.688,0.157-3.437-0.031-5.114c2.572-0.065,5.143-0.184,7.703-0.437   c0.471-0.047,0.722-0.411,0.757-0.781c0.302,0.304,0.991,0.121,0.971-0.398C29.955,18.378,29.665,15.236,29.308,12.066z    M27.746,12.313c-1.503,0.031-3.008,0.104-4.515,0.205c1.55-0.11,3.104-0.406,4.523-0.787c-0.034,0.095-0.048,0.207-0.035,0.335   C27.727,12.149,27.738,12.231,27.746,12.313z" fill="#1d1d1b"/><path d="M60.19,19.198c0.046-1.538,0.056-3.077,0.072-4.615c0.006-0.559-0.414-0.843-0.85-0.867   c0.218-0.381,0.111-0.989-0.402-1.124c-7.746-2.042-16.203-2.425-24.158-1.876c-0.622,0.043-0.626,0.931,0,0.97   c0.088,0.005,0.175,0.015,0.263,0.02c-1.03,2.881-1.464,7.573,0.037,10.228c0.014,0.025,0.036,0.043,0.053,0.065   c-0.04,0.364,0.171,0.757,0.652,0.772c7.806,0.234,15.699,0.548,23.5,0.084c0.673-0.04,0.88-0.702,0.642-1.148   C60.324,20.972,60.166,20.02,60.19,19.198z M36.388,21.377c0.17-1.453-0.175-2.944-0.251-4.408   c-0.089-1.728,0.041-3.466-0.066-5.189c7.572,0.523,15.043,1.483,22.592,2.231c-0.127,0.142-0.218,0.325-0.215,0.571   c0.002,0.241,0.008,0.482,0.011,0.724c-4.035,0.006-8.07,0.063-12.104,0.117c-0.205,0.003-0.205,0.316,0,0.319   c4.037,0.054,8.075,0.111,12.113,0.117c0.009,0.553,0.017,1.107,0.026,1.66c-6.143-0.635-12.47-0.551-18.638-0.416   c-0.166,0.004-0.166,0.255,0,0.258c6.211,0.093,12.436,0.486,18.643,0.496c0.008,0.423,0.008,0.846,0.02,1.269   c-5.501-0.876-11.667-0.045-17.162,0.146c-0.168,0.006-0.17,0.262,0,0.262c5.702,0.015,11.467-0.335,17.161,0.065   c-0.012,0.558-0.055,1.146,0.053,1.673C51.203,20.882,43.759,21.154,36.388,21.377z" fill="#1d1d1b"/><path d="M63.252,54.139c-0.882-1.031-1.677-2.071-2.643-3.048c-0.973-0.985-2.933-2.273-3.521-3.479   c-0.974-1.995,3.822-5.109,5.584-6.759c0.765,0.235,1.58-0.77,0.894-1.48c-1.629-1.686-3.403-3.294-5.19-4.81   c-0.168-0.143-0.348-0.177-0.51-0.15c-0.21-0.315-0.601-0.484-1.051-0.212c-1.361,0.825-2.673,1.707-3.982,2.611   c-1.139,0.786-3.227,2.819-4.555,2.635c-1.264-0.175-2.375-2.239-3.201-3.228c-1.117-1.337-2.238-2.669-3.369-3.994   c-0.15-0.175-0.349-0.212-0.539-0.175c0.019-0.621-0.85-1.218-1.509-0.683c-1.639,1.332-3.371,2.628-4.841,4.149   c-0.525,0.542,0.152,1.484,0.823,1.066c1.751-1.09,3.35-2.46,4.955-3.759c0.017,0.065,0.039,0.131,0.084,0.194   c1.469,2.041,2.941,4.083,4.457,6.089c0.667,0.882,1.382,2.304,2.574,2.585c1.183,0.279,2.217-0.649,3.117-1.239   c2.323-1.523,4.638-3.098,6.838-4.793c0.014-0.011,0.019-0.025,0.032-0.036c0.569,0.674,1.155,1.339,1.753,1.996   c-1.111-0.041-2.243,0.03-3.346,0.069c-0.187,0.007-0.187,0.284,0,0.291c1.23,0.043,2.498,0.129,3.731,0.051   c0.427,0.462,0.854,0.925,1.29,1.377c-2.63-0.518-5.461-0.429-8.074-0.057c-0.184,0.026-0.142,0.342,0.044,0.327   c2.947-0.233,5.707,0.025,8.616,0.344c0.06,0.06,0.116,0.124,0.176,0.184c-0.701,0.427-1.396,0.888-2.087,1.354   c-2.893-0.005-5.81,0.18-8.696,0.312c-0.234,0.011-0.237,0.368,0,0.366c2.622-0.026,5.272-0.01,7.9-0.129   c-0.711,0.501-1.417,1.013-2.09,1.551c-3.182,0.076-6.402,0.48-9.559,0.79c-0.171,0.017-0.178,0.278,0,0.272   c2.894-0.103,5.85-0.138,8.751-0.405c-0.028,0.024-0.059,0.047-0.087,0.071c-0.572,0.489-1.182,1.04-1.422,1.748   c-2.329,0.056-4.656,0.31-6.992,0.332c-0.229,0.002-0.229,0.351,0,0.356c2.261,0.049,4.637,0.083,6.893-0.253   c-0.013,0.136-0.014,0.278,0.003,0.425c0.096,0.833,0.739,1.54,1.402,2.16c-0.018-0.006-0.027-0.021-0.048-0.023   c-1.977-0.161-4.017,0-6,0.037c-0.211,0.004-0.211,0.324,0,0.328c1.982,0.038,4.023,0.198,6,0.037   c0.162-0.013,0.211-0.156,0.17-0.269c0.325,0.298,0.648,0.577,0.906,0.837c1.399,1.408,2.829,2.715,4.295,4.01   c-2.299,0.056-4.573,0.241-6.878,0.186c-0.21-0.005-0.206,0.308,0,0.323c2.322,0.168,4.745,0.23,7.045-0.186   c0.055-0.01,0.084-0.045,0.101-0.086c0.241,0.212,0.479,0.424,0.722,0.636c-0.275,0.331-0.551,0.656-0.828,0.98   c-2.007,0.168-4.024,0.573-6.034,0.734c-0.175,0.014-0.181,0.275,0,0.277c1.722,0.013,3.682-0.008,5.467-0.359   c-0.977,1.114-1.991,2.182-3.137,3.163c-0.037-0.121-0.099-0.241-0.205-0.355c-2.742-2.929-5.723-5.648-8.607-8.435   c-0.432-0.417-1.024-0.271-1.352,0.174c-1.743,2.367-3.486,4.734-5.229,7.102c-0.046,0.062-0.06,0.122-0.084,0.183   c-2.183-1.422-4.434-2.805-6.734-4.024c2.352-3.021,4.384-6.109,7.161-8.844c0.355-0.349,0.342-0.939,0-1.291   c-2.667-2.744-5.455-5.366-8.521-7.662c-0.513-0.384-1.111,0.439-0.673,0.872c2.456,2.435,4.917,4.847,7.261,7.389   c-2.832,2.647-5.698,5.894-7.113,9.476c-0.249,0.629,0.57,1.206,1.108,0.947c2.28,1.831,4.715,3.528,7.155,5.131   c0.782,0.514,1.51-0.341,1.336-1.059c0.181-0.04,0.355-0.13,0.49-0.309c1.558-2.057,3.116-4.114,4.673-6.172   c2.606,2.608,5.176,5.273,7.917,7.735c0.286,0.257,0.61,0.277,0.882,0.17c0.143,0.462,0.68,0.845,1.142,0.502   c2.181-1.617,4.325-3.501,5.834-5.781C64.552,54.881,63.889,54.12,63.252,54.139z" fill="#1d1d1b"/><path d="M26.724,48.313c0.188-0.131,0.163-0.472-0.115-0.45c-0.16,0.012-0.319,0.019-0.478,0.031   c-0.062-0.032-0.118-0.069-0.186-0.098c0.108,0.005,0.216,0.015,0.324,0.02c0.653,0.028,0.8-1.001,0.155-1.146   c-7.122-1.61-14.746-1.691-22.011-1.505c-0.45,0.012-0.833,0.372-0.833,0.833c0,2.168,0.286,4.119,0.784,6.223   c0.099,0.421,0.516,0.443,0.773,0.238c0.061,0.029,0.131,0.048,0.212,0.053c4.109,0.236,8.213,0.408,12.329,0.489   c2.296,0.045,5.399,0.654,7.554-0.304C26.996,51.913,28.009,49.591,26.724,48.313z M24.808,49.585   c-3.988,0.202-7.978,0.441-11.958,0.745c-0.199,0.015-0.204,0.32,0,0.314c3.853-0.119,7.707-0.301,11.557-0.515   c-0.771,0.904-1.727,1.3-2.877,1.165c-0.771-0.013-1.541-0.018-2.312-0.017c-1.541-0.009-3.083-0.022-4.623-0.016   c-3.085,0.012-6.164,0.105-9.247,0.21c-0.03,0.001-0.051,0.013-0.079,0.018c-0.486-3.181-0.745-4.247,2.514-4.683   c1.871-0.25,4.011,0.06,5.898,0.13c3.931,0.146,7.837,0.62,11.759,0.829c-0.078,0.042-0.142,0.107-0.191,0.185   c-4.047,0.29-8.082,0.503-12.144,0.584c-0.157,0.003-0.157,0.239,0,0.244c4.011,0.131,8.051,0.033,12.056-0.291   c0.021,0.086,0.058,0.169,0.118,0.238C25.136,49.045,24.976,49.324,24.808,49.585z" fill="#1d1d1b"/><path d="M20.53,38.666c-0.648-2.13-3.759-4.596-5.948-2.991c-0.125,0.092-0.17,0.22-0.177,0.346   c-1.883,0.758-2.999,2.921-2.527,4.977c0.559,2.431,3.162,3.468,5.428,2.907C19.668,43.319,21.268,41.09,20.53,38.666z    M14.605,40.516c1.488-0.073,2.982-0.12,4.469-0.218c-0.09,0.385-0.27,0.739-0.525,1.043c-1.327-0.017-2.761,0.062-3.971,0.351   c-0.082,0.02-0.092,0.164,0,0.176c1.048,0.143,2.236,0.116,3.379,0.019c-0.317,0.214-0.682,0.377-1.076,0.475   c-1.414,0.351-2.983-0.138-3.462-1.627c-0.509-1.579,0.407-3.522,1.899-4.225c1.289,0.141,2.505,0.518,3.241,1.578   c-1.317-0.019-2.644,0.046-3.955,0.069c-0.226,0.004-0.227,0.347,0,0.352c1.402,0.025,2.823,0.095,4.231,0.061   c0.053,0.113,0.112,0.22,0.156,0.346c0.12,0.343,0.144,0.668,0.126,0.983c-1.504,0.057-3.01,0.169-4.512,0.253   C14.372,40.163,14.37,40.528,14.605,40.516z" fill="#1d1d1b"/><path d="M21.816,54.623c-1.721-1.71-5.685-1.863-6.894,0.563c-1.81,0.977-2.631,3.387-1.44,5.412   c1.542,2.625,5.378,3.271,7.772,1.46C23.528,60.338,23.864,56.658,21.816,54.623z M20.713,60.241   c-1.197,1.464-3.679,1.512-5.079,0.327c-1.427-1.208-1.322-3.107-0.195-4.247c0.108-0.001,0.222-0.028,0.339-0.115   c0.352-0.261,0.715-0.504,1.086-0.707c0.04-0.011,0.077-0.027,0.118-0.037c0.057-0.014,0.081-0.053,0.119-0.083   c0.925-0.453,1.91-0.605,2.973,0.024c0.383,0.227,0.668,0.544,0.888,0.902c-1.032,0.112-2.05,0.191-3.105,0.126   c-0.188-0.012-0.184,0.275,0,0.291c1.082,0.092,2.2,0.098,3.28-0.084c0.168,0.374,0.278,0.778,0.303,1.196   c-1.434-0.073-2.92,0.042-4.334,0.077c-0.223,0.006-0.224,0.341,0,0.347c1.415,0.035,2.904,0.15,4.34,0.076   C21.393,59.028,21.146,59.711,20.713,60.241z" fill="#1d1d1b"/><path d="M20.849,59.383c-1.421,0.049-2.842,0.301-4.25,0.482c-0.205,0.026-0.212,0.35,0,0.328   c1.427-0.151,2.882-0.236,4.289-0.52C21.052,59.64,21.015,59.377,20.849,59.383z" fill="#1d1d1b"/><path d="M58.354,51.618c-1.825-0.056-3.677,0.166-5.499,0.279c-0.215,0.013-0.219,0.346,0,0.338   c1.823-0.067,3.688-0.03,5.499-0.265C58.572,51.942,58.587,51.625,58.354,51.618z" fill="#1d1d1b"/></g><path d="M54.058,15.709c-3.164-0.19-6.334,0.187-8.292-2.958c-1.13-1.814-1.593-3.927-2.547-5.824   c-1.304-2.594-3.296-4.448-6.314-4.629c-8.107-0.484-10.881,8.361-11.759,14.738c-0.023,0.166,0,0.315,0.043,0.453   C13.9,15.717,6.708,27.494,2.479,36.609c-3.673,7.915-4.594,21.497,6.74,23.464c10.93,1.896,17.174-9.076,20.691-17.483   c2.293-5.481,6.4-12.517,4.283-18.623c-1.144-3.298-4.177-5.677-7.584-5.399c-0.009-0.047-0.026-0.089-0.043-0.132   c0.119,0.008,0.235,0.007,0.355,0.017c0.338,0.03,0.392-0.493,0.079-0.58c-0.057-0.016-0.112-0.025-0.168-0.04   c0.052-0.086,0.103-0.176,0.131-0.295c1.089-4.62,2.281-11.007,7.612-12.543c6.146-1.77,6.837,5.346,9.105,8.977   c1.096,1.754,2.611,3.494,4.587,4.256c3.522,1.358,7.059-1.173,10.109,1.81c11.699,11.442-23.723,19.664-11.613,31.348   c0.811,0.782,2.329-0.264,1.623-1.253c-4.714-6.604,3.562-10.904,7.717-14.272c2.565-2.079,4.949-4.726,5.963-7.943   C63.961,21.903,60.306,16.084,54.058,15.709z M24.704,18.416c-0.026,0.045-0.062,0.075-0.082,0.126   c-1.723,4.238-3.317,8.656-4.64,13.036c-3.247-1.287-6.405-2.794-9.483-4.604C14.066,22.36,18.698,18.703,24.704,18.416z    M29.886,37.836c-4.288-0.668-8.781-0.572-13.089-0.364c-0.228,0.011-0.23,0.362,0,0.356c4.332-0.102,8.581,0.293,12.886,0.52   c-0.368,0.913-0.741,1.806-1.112,2.644c-3.547-0.666-7.31-0.481-10.823,0.202c-0.201,0.039-0.112,0.331,0.083,0.303   c3.605-0.526,6.946-0.386,10.491,0.05c-0.341,0.757-0.675,1.485-0.985,2.138c-2.245-0.066-4.556,0.179-6.789,0.325   c-0.212,0.014-0.216,0.336,0,0.333c2.162-0.029,4.404,0.022,6.568-0.191c-0.342,0.717-0.653,1.356-0.905,1.879   c-0.209,0.435-0.446,0.881-0.695,1.333c-2.905-0.036-5.832,0.143-8.718,0.373c-0.208,0.017-0.213,0.338,0,0.328   c2.806-0.129,5.606-0.127,8.41-0.163c-0.533,0.917-1.132,1.85-1.804,2.767c-4.031,0.01-8.082,0.175-12.106,0.371   c-0.171,0.008-0.173,0.266,0,0.267c3.907,0.017,7.839,0.002,11.747-0.152c-0.743,0.972-1.555,1.915-2.43,2.783   c-4.417-0.135-8.912,0.226-13.317,0.413c-0.111,0.005-0.112,0.174,0,0.173c4.251-0.011,8.594,0.137,12.849-0.15   c-0.626,0.587-1.271,1.147-1.949,1.637c-3.683-0.327-7.457-0.285-11.15-0.302c-0.203-0.001-0.201,0.304,0,0.314   c3.517,0.185,7.105,0.421,10.636,0.342c-3.44,2.299-7.446,3.099-11.492,0.444c-8.593-5.638-3.063-17.663,0.701-24.334   c0.844-1.495,1.776-2.984,2.798-4.408c6.202,4.126,13.004,7.336,20.302,8.943c0.079,0.018,0.146,0.003,0.22,0.005   C30.106,37.295,29.994,37.561,29.886,37.836z M30.881,35.151c-0.096-0.065-0.198-0.126-0.332-0.161   c-0.791-0.206-1.577-0.42-2.357-0.643c0.963,0.068,1.926,0.132,2.892,0.175C31.016,34.731,30.952,34.941,30.881,35.151z    M30.282,21.324c-0.993-0.111-2-0.134-2.986-0.1c-0.204,0.007-0.206,0.317,0,0.319c1.229,0.008,2.42,0.158,3.619,0.336   c0.563,0.591,0.966,1.305,1.226,2.121c-1.494-0.299-3.127-0.321-4.594-0.306c-0.231,0.003-0.228,0.343,0,0.356   c1.592,0.094,3.17,0.382,4.751,0.522c0.165,0.715,0.244,1.488,0.243,2.311c-1.897-0.173-3.845-0.12-5.744-0.16   c-0.219-0.005-0.216,0.325,0,0.338c1.895,0.111,3.835,0.321,5.74,0.3c-0.035,0.963-0.163,1.98-0.365,3.027   c-2.435-0.161-4.941,0.019-7.375,0.068c-0.232,0.005-0.233,0.356,0,0.361c2.399,0.048,4.868,0.222,7.27,0.073   c-0.213,1.002-0.479,2.023-0.795,3.047c-1.853-0.345-3.815-0.435-5.754-0.403c-1.415-0.45-2.815-0.929-4.198-1.448   c1.79-3.883,3.422-7.94,4.877-11.974C27.978,20.167,29.307,20.605,30.282,21.324z" transform="matrix(0.9589719772338867 0 0 0.9589719772338867 168 153)" fill="#1d1d1b" id="L1_21"/><g transform="matrix(0.922381579875946 0 0 0.922381579875946 141 -9.000000953674316)" id="L1_22"><path d="M54.647,54.888c-1.957-0.3-3.855-0.511-5.689-0.884c0.846-0.553,1.673-1.145,2.505-1.679   c0.899-0.578,2.193-1.207,2.034-2.479c-0.134-1.072-1.179-1.514-2.137-1.641c-1.773-0.236-3.622-0.229-5.409-0.316   c-0.463-0.022-0.745,0.384-0.792,0.792c-0.179,1.555-0.059,2.963,0.399,4.354c-1.093-0.423-2.161-0.966-3.201-1.701   c-1.428-1.009-2.654-2.19-3.699-3.5c1.551,0.306,3.217,0.393,4.638,0.288c0.596-0.044,0.941-0.616,0.665-1.159   c-0.615-1.21-1.358-2.335-2.255-3.356c-0.676-0.769-1.696-2.008-2.709-2.345c-0.663-0.22-1.165,0.152-1.455,0.725   c-0.406,0.805-0.694,1.7-0.956,2.6c-0.615-1.206-1.125-2.473-1.51-3.8c0.167-0.207,0.277-0.465,0.298-0.711   c0.866-10.286,3.096-20.24,6.595-29.944c0.006-0.017,0.006-0.036,0.01-0.053c0.337-0.167,0.676-0.328,1.009-0.508   c0.595-0.321,1.103-0.592,1.37-1.243c0.214-0.523-0.314-0.956-0.763-1.001c-0.621-0.063-1.147,0.365-1.636,0.692   c-0.35,0.233-0.687,0.482-1.026,0.729c-0.007,0.001-0.014-0.002-0.02-0.001c-12.252,1.346-24.079-0.88-35.413-5.575   C5.343,3.107,5.199,3.12,5.075,3.175C4.852,2.914,4.617,2.663,4.377,2.422c-0.543-0.545-1.074-0.986-1.86-1.06   c-0.49-0.046-0.773,0.489-0.686,0.901C1.98,2.975,2.528,3.44,3.075,3.871c0.35,0.275,0.717,0.534,1.096,0.771   c0.169,11.041,0.825,21.222-1.922,32.112c-0.01,0.041-0.008,0.079-0.014,0.119c-0.826,0.189-1.633,0.576-2.077,1.219   c-0.57,0.826,0.531,1.802,1.332,1.332c0.403-0.236,0.649-0.636,1.033-0.896c0.237-0.161,0.5-0.294,0.767-0.412   c0.098,0.005,0.199-0.002,0.301-0.022c10.287-1.967,20.489-0.929,30.197,2.952c0.377,1.838,1.007,3.578,1.862,5.188   c-1.261-0.536-2.582-1.035-3.874-1.26c-1.021-0.178-1.95,0.313-2.033,1.407c-0.093,1.224,0.976,2.345,1.698,3.213   c1.051,1.264,2.26,2.357,3.567,3.35c0.392,0.297,0.914-0.039,1.047-0.426c0.455-1.328,1.015-2.999,0.727-4.426   c1.378,1.996,3.143,3.735,5.265,5.122c0.735,0.48,1.544,0.865,2.399,1.189c-1.37,0.374-2.704,0.927-3.989,1.488   c-0.606,0.265-0.613,1.16-0.203,1.574c1.023,1.031,2.124,1.975,3.306,2.82c0.928,0.663,2.223,1.749,3.438,1.207   c1.014-0.453,1.077-1.51,0.945-2.484c-0.153-1.13-0.183-2.59-0.595-3.752c6.524,1.487,14.359,1.191,16.457,7.992   c0.202,0.655,1.289,0.571,1.243-0.168C64.71,57.597,59.354,55.61,54.647,54.888z M27.884,28.991   c2.221,0.126,4.478,0.357,6.711,0.334c-0.171,0.984-0.332,1.97-0.478,2.96c-2.081,0.049-4.143,0.201-6.233,0.09   c-0.386-0.021-0.38,0.568,0,0.598c2.032,0.157,4.119,0.229,6.145-0.072c-0.13,0.912-0.254,1.826-0.363,2.743   c-1.153-0.017-2.322,0.038-3.451,0.109c-0.371,0.023-0.371,0.553,0,0.577c1.101,0.07,2.239,0.122,3.364,0.109   c-0.079,0.707-0.165,1.413-0.232,2.123c-9.22-3.464-18.882-4.407-28.592-2.868c2.357-9.814,3.618-20.983,0.786-30.738   c0.075-0.048,0.139-0.107,0.19-0.177c10.451,5.223,21.996,7.095,33.604,6.279c-0.078,0.221-0.145,0.444-0.22,0.666   c-1.828-0.223-3.73-0.044-5.567-0.006c-0.416,0.009-0.417,0.638,0,0.647c1.765,0.036,3.589,0.196,5.351,0.011   c-0.21,0.631-0.427,1.26-0.626,1.893c-3.339-0.422-7.063-0.433-10.389-0.193c-0.234,0.017-0.327,0.404-0.06,0.442   c3.247,0.466,6.893,0.732,10.2,0.565c-0.696,2.269-1.324,4.553-1.876,6.853c-3.383-0.298-6.882-0.217-10.265-0.21   c-0.374,0.001-0.368,0.554,0,0.577c3.319,0.209,6.747,0.496,10.088,0.418c-0.194,0.833-0.39,1.665-0.566,2.502   c-0.03-0.038-0.068-0.071-0.122-0.092c-0.506-0.191-1.073-0.114-1.606-0.103c-0.599,0.012-1.197,0.028-1.795,0.056   c-0.375,0.017-0.376,0.566,0,0.583c0.598,0.028,1.196,0.044,1.795,0.056c0.535,0.011,1.097,0.088,1.606-0.104   c0.022-0.008,0.032-0.026,0.05-0.038c-0.21,1.013-0.425,2.025-0.608,3.044c-2.263-0.243-4.573-0.229-6.839-0.315   C27.444,28.293,27.448,28.967,27.884,28.991z M35.829,47.772c-0.439,1.038-0.582,2.195-0.847,3.314   c-1.232-1.06-2.365-2.25-3.265-3.601c-0.104-0.143-0.198-0.292-0.282-0.447c-0.302-0.409-0.201-0.564,0.303-0.464   c0.352-0.081,1.167,0.324,1.496,0.415c0.909,0.252,1.809,0.467,2.723,0.651C35.91,47.679,35.857,47.707,35.829,47.772z    M37.767,44.434c0.362-0.865,0.678-2.251,1.748-1.212c0.99,0.962,1.802,2.053,2.469,3.242c-0.709-0.062-1.417-0.13-2.122-0.254   c-0.885-0.156-1.748-0.407-2.624-0.594C37.417,45.222,37.601,44.832,37.767,44.434z M45.895,59.531   c-0.203-0.009-0.858-0.569-1.022-0.685c-0.378-0.268-0.747-0.55-1.105-0.843c-0.397-0.325-0.778-0.667-1.15-1.019   c1.042-0.548,2.105-1.051,3.143-1.602c-0.028,0.606,0.075,1.226,0.151,1.828c0.066,0.528,0.137,1.056,0.199,1.585   C46.155,59.181,46.399,59.553,45.895,59.531z M46.818,53.095c-0.211-1.174-0.276-2.384-0.163-3.566   c0.868,0.068,1.736,0.133,2.605,0.198c0.472,0.035,1.366-0.074,1.781,0.134c0.543,0.272,0.531,0.188-0.046,0.677   C49.762,51.582,48.203,52.225,46.818,53.095z" fill="#1d1d1b"/><path d="M36.548,17.731c-2.742-0.271-5.581-0.041-8.333-0.003c-0.403,0.006-0.403,0.62,0,0.626   c2.752,0.037,5.592,0.268,8.333-0.003C36.946,18.31,36.947,17.77,36.548,17.731z" fill="#1d1d1b"/></g><path d="M39.273,32.766c7.94-1.661,17.495-9.129,14.079-18.115C49.768,5.22,39.629-0.523,29.774,0.038   C20.24,0.58,9.935,6.823,8.725,16.981C7.68,25.756,14.043,34.595,23.02,35.064c0.474,2.459,0.665,4.912,0.536,7.419   c-0.011,0.224,0.085,0.398,0.227,0.522c-0.087,0.244-0.036,0.529,0.249,0.676c4.202,2.164,10.239,2.481,14.325-0.217   c0.286,0.014,0.576-0.1,0.781-0.313c0.557,3.015-0.188,4.524-2.242,4.519c-0.662,0.125-1.33,0.18-2.004,0.165   c-1.171,0.056-2.355,0.013-3.526-0.013c-1.174-0.026-2.351-0.063-3.523-0.146l-1.407-0.098c-2.699,0.252-3.808-1.325-3.327-4.731   c0.502-0.119,0.353-0.82-0.116-0.856c-2.252-0.172-3.532,2.203-2.784,4.234c0.149,0.404,0.369,0.749,0.623,1.064   c-1.534,0.807-2.065,2.518-1.342,4.259c0.07,0.169,0.155,0.325,0.243,0.477c-1.24,1.246-1.598,3.063-1.138,4.746   c0.351,1.284,1.492,3.192,3,3.174c4.975,2.64,12.167,3.701,17.233,1.668c3.528-1.416,5.384-5.431,2.738-8.176   c1.63-1.77,2.004-4.281,0.614-6.383c-0.093-0.141-0.21-0.227-0.333-0.29c0.046-0.094,0.099-0.18,0.139-0.279   c0.901-2.263-0.352-4.655-2.678-5.004c-0.409-2.939-0.657-5.768-0.301-8.712C39.095,32.771,39.177,32.786,39.273,32.766z    M37.888,60.353c-1.789,0.563-3.843,0.286-5.677,0.177c-3.243-0.193-6.727-0.4-9.893-1.403c-0.01-0.028-0.01-0.059-0.024-0.084   c-0.263-0.461-0.655-0.647-1.037-0.99c-0.509-0.458-0.892-1.063-1.121-1.705c-0.419-1.173-0.313-2.389,0.267-3.459   c1.958,1.962,5.749,2.157,8.157,2.449c3.696,0.448,8.98,1.329,12.226-1.181c0.073-0.057,0.131-0.124,0.201-0.183   C42.863,56.311,40.304,59.593,37.888,60.353z M31.784,53.809c-2.064-0.139-4.158-0.329-6.188-0.719   c-1.474-0.283-7.756-1.605-4.08-5.122c2.634,2.049,7.91,1.623,10.557,1.672c2.526,0.047,6.564,0.337,8.753-1.533   C44.078,53.574,34.733,54.009,31.784,53.809z M25.004,42.722c0.004-0.016,0.014-0.025,0.017-0.042   c0.492-2.828,0.471-5.646-0.127-8.456c-0.145-0.682-0.767-0.825-1.271-0.625c-7.844-2.359-14.173-8.478-12.38-17.441   c1.73-8.65,11.125-13.587,19.319-13.896c3.501-0.132,6.937,0.597,10.028,2.044c-3.393-0.61-6.953-0.594-10.335-0.255   c-0.18,0.018-0.186,0.296,0,0.286c4.117-0.234,8.006,0.24,12.05,0.873c1.244,0.723,2.421,1.563,3.502,2.524   c-4.568-0.305-9.224-0.106-13.791-0.123c-0.154-0.001-0.153,0.234,0,0.239c4.74,0.155,9.569,0.547,14.314,0.361   c0.891,0.846,1.717,1.769,2.457,2.77c-5.129-0.541-10.377-0.592-15.518-0.851c-0.147-0.007-0.141,0.21,0,0.225   c2.768,0.283,5.583,0.596,8.401,0.818c-0.058,0.028-0.115,0.063-0.165,0.116c-2.956,3.159-5.258,6.922-6.867,10.982   c-1.14-0.153-2.314-0.351-3.526-0.428c-2.58-0.165-5.224,0.205-7.622,1.205c-0.826-1.351-1.742-2.633-2.75-3.823   c-0.521-0.614-1.414,0.169-1.071,0.826c0.695,1.332,1.339,2.641,1.958,3.944c-1.939,1.215-3.564,3.086-2.057,5.32   c0.306,0.453,1.144,0.185,0.938-0.396c-0.558-1.574,0.331-2.709,1.782-3.518c2.588,5.68,4.434,11.277,5.394,17.807   C26.817,43.108,25.933,42.958,25.004,42.722z M28.939,43.318c0.022-0.062,0.041-0.125,0.041-0.198   c0.008-6.245-1.558-12.914-4.628-18.571c2.358-0.734,5.061-0.967,6.036-0.952c1.198,0.019,2.396,0.24,3.597,0.44   c-2.093,6.15-2.635,12.863-1.466,19.144C31.331,43.324,30.152,43.382,28.939,43.318z M38.701,30.692   c-0.027,0.007-0.041,0.023-0.066,0.031c-0.288-0.113-0.625-0.075-0.851,0.17c-1.007-0.023-2.012-0.005-3.02,0.017   c-0.178,0.004-0.178,0.273,0,0.277c0.949,0.021,1.895,0.036,2.842,0.021c-0.004,0.011-0.012,0.017-0.015,0.028   c-0.26,0.852-0.472,1.725-0.632,2.608c-0.814-0.032-1.631,0.001-2.445,0.017c-0.241,0.005-0.242,0.37,0,0.375   c0.793,0.016,1.589,0.046,2.382,0.018c-0.112,0.694-0.2,1.393-0.24,2.095c-0.762,0.214-1.507,0.353-2.329,0.215   c-0.269-0.045-0.39,0.357-0.115,0.416c0.79,0.168,1.658,0.183,2.42-0.097c-0.022,0.748-0.005,1.497,0.067,2.24   c-0.662,0.089-1.248,0.233-1.933,0.175c-0.268-0.023-0.319,0.402-0.063,0.465c0.635,0.156,1.45,0.15,2.038-0.19   c0.112,0.892,0.295,1.775,0.568,2.638c-1.184,0.315-2.311,0.575-3.418,0.769c-0.567-6.729,0.186-12.846,2.198-18.659   c0.584,0.049,1.169,0.066,1.754,0.019c2.52-0.204,4.629-1.32,5.191-3.843c0.086-0.385-0.409-0.745-0.705-0.411   c-1.732,1.955-3.582,2.414-5.549,2.374c1.413-3.559,3.302-7.015,5.673-10.436c0.218-0.314,0.041-0.651-0.235-0.811   c2.311,0.172,4.621,0.274,6.911,0.25c0.21,0.302,0.42,0.605,0.615,0.92c0.343,0.553,0.628,1.095,0.88,1.633   c-2.644-0.386-5.475-0.248-8.11-0.091c-0.164,0.01-0.167,0.257,0,0.258c2.776,0.013,5.563,0.311,8.332,0.307   c0.28,0.661,0.493,1.311,0.634,1.953c-2.673-0.503-5.538-0.459-8.216-0.269c-0.167,0.012-0.171,0.265,0,0.262   c2.815-0.039,5.533,0.293,8.315,0.539c0.111,0.688,0.15,1.368,0.096,2.039c-2.35-0.17-4.851-0.063-7.161,0.137   c-0.19,0.016-0.19,0.279,0,0.295c2.289,0.198,4.766,0.305,7.098,0.141c-0.101,0.663-0.274,1.321-0.545,1.974   c-2.348-0.23-4.811,0.009-7.098,0.344c-0.205,0.03-0.159,0.382,0.049,0.364c2.279-0.206,4.52-0.126,6.782-0.113   c-0.342,0.688-0.778,1.372-1.317,2.055c-2.153,0.031-4.317,0.166-6.468,0.178c-0.177,0.001-0.173,0.258,0,0.272   c1.93,0.15,3.955,0.271,5.932,0.19c-0.102,0.116-0.197,0.232-0.305,0.348c-0.447,0.48-0.919,0.914-1.401,1.328   c-3.399-0.113-6.833,0.058-10.228,0.101c-0.22,0.003-0.221,0.339,0,0.342c3.169,0.04,6.373,0.19,9.55,0.119   c-0.796,0.615-1.632,1.155-2.508,1.623c-2.794-0.41-5.768-0.336-8.543-0.266c-0.232,0.006-0.233,0.356,0,0.361   c2.465,0.054,4.932,0.326,7.394,0.468C41.578,29.873,40.174,30.337,38.701,30.692z" transform="matrix(1.1633801460266113 -0.5311083793640137 0.5311083793640137 1.1633801460266113 -30.105438232421875 296.7256164550781)" fill="#1d1d1b" id="L1_23"/><g transform="matrix(1.0433522462844849 0.6707264184951782 -0.6707264184951782 1.0433522462844849 89.47148132324219 185.50543212890625)" id="L1_24"><path d="M22.032,47.007c-0.532-1.597-2.373-2.515-3.913-1.81c-0.059,0.027-0.108,0.064-0.146,0.107   c-0.001,0-0.002-0.001-0.003-0.001c-1.615-0.021-2.075,2.238-1.726,3.454c0.464,1.613,2.111,2.411,3.689,1.928   C21.482,50.211,22.567,48.613,22.032,47.007z M19.321,49.175c-0.763,0.173-1.43-0.243-1.57-1.021   c-0.149-0.83,0.327-1.289,0.65-1.962c0.898-0.081,1.865,0.417,2.101,1.342C20.708,48.34,20.078,49.004,19.321,49.175z" fill="#1d1d1b"/><path d="M25.066,18.763c-0.076-0.878-1.402-0.91-1.392,0c0.045,4.051,0.233,8.097,0.45,12.141   c-2.566,0.359-5.303,0.243-7.761,0.926c0.181-2.775-0.561-5.47,0.218-8.245c0.866-3.085,3.54-5.581,6.858-5.414   c0.427,0.021,0.476-0.595,0.097-0.718c-8.232-2.683-10.314,9.199-8.407,14.653c0.153,0.437,0.599,0.532,0.91,0.355   c0.05,0.111,0.127,0.209,0.262,0.252c2.724,0.867,6.141,0.17,8.917-0.291c0.344-0.057,0.628-0.469,0.614-0.806   C25.648,27.326,25.437,23.04,25.066,18.763z" fill="#1d1d1b"/><path d="M62.171,13.763c0.079-0.45-0.166-0.989-0.758-1.026c-0.092-0.006-0.184-0.01-0.276-0.016   c-0.102-0.038-0.209-0.037-0.313-0.018c-13.096-0.812-26.506-1.193-39.611-0.167c0.3-2.261-0.842-5.183-3.393-5.093   c-3.352,0.119-3.94,3.825-3.499,6.535c-0.758,0.445-1.428,1.034-1.917,1.872c-0.892,1.528-0.788,3.481-0.8,5.176   c-0.025,3.576,0.003,7.175,0.175,10.747c0.003,0.064,0.023,0.115,0.04,0.168c-3.625-1.04-8.61-1.418-10.891,2.27   c-1.066,1.723-0.951,3.811-0.892,5.761c0.092,2.997,0.405,6.047,1.093,8.968c0.122,0.517,0.975,0.417,0.939-0.127   c-0.234-3.503-0.732-7.037-0.586-10.556c1.145,0.94,2.968,0.967,4.089-0.094c1.425-1.348,1.117-3.752-0.39-4.876   c-0.053-0.04-0.109-0.055-0.163-0.074c1.992-0.562,4.52-0.265,6.767,0.022c0.524,0.067,0.72-0.501,0.55-0.903   c0.287,0.009,0.583-0.177,0.612-0.56c0.294-3.945-1.233-13.875,2.419-16.313c3.567-2.381,11.168-1.483,15.328-1.671   c10.063-0.456,20.177-0.114,30.224,0.549c0.126,0.243,0.236,0.497,0.339,0.757c-5.971-0.611-12.088-0.684-18.084-0.722   c-0.194-0.001-0.191,0.288,0,0.3c6.061,0.375,12.188,0.872,18.261,0.935c0.249,0.761,0.421,1.572,0.524,2.423   c-0.012-0.003-0.017-0.015-0.03-0.016c-7.179-0.886-14.788-1.105-22.003-0.547c-0.102,0.008-0.104,0.155,0,0.159   c7.316,0.339,14.681,0.575,22.003,0.79c0.031,0.001,0.046-0.017,0.069-0.026c0.105,1.064,0.126,2.171,0.094,3.283   c-1.094-0.036-2.188-0.07-3.282-0.106c0.001-0.602,0.012-1.205,0.009-1.807c-0.004-0.813-0.887-1.04-1.409-0.702   c-1.811-0.024-3.616,0.007-5.427-0.105c-1.77-0.11-3.529-0.433-5.292-0.194c-0.064,0.009-0.112,0.034-0.165,0.055   c-0.345-0.288-0.978-0.251-1.06,0.288c-0.107,0.7-0.191,1.403-0.276,2.106c-1.196-0.022-2.392-0.042-3.588-0.056   c0.031-0.73-0.035-1.437-0.36-1.997c-0.642-1.104-1.881-1.191-3.02-1.257c-2.335-0.136-4.73,0.028-7.073,0.057   c-0.228-0.375-0.938-0.27-0.993,0.287c-0.278,2.831-0.573,5.662-0.824,8.496c-0.138,1.56-1.002,4.415-0.053,5.837   c0.625,0.936,1.818,0.977,2.848,1.071c2.505,0.228,5.237,0.093,7.582-0.86c0.245-0.099,0.4-0.326,0.466-0.571   c0.183-0.086,0.336-0.251,0.367-0.503c0.261-2.145,0.451-4.299,0.632-6.453c1.192,0.038,2.385,0.076,3.575,0.124   c-0.062,0.676-0.121,1.352-0.183,2.027c-0.103,1.125-0.648,3.11-0.573,4.658c-0.939,0.026-1.879,0.046-2.817,0.079   c-0.195,0.007-0.197,0.306,0,0.305c0.952-0.008,1.903-0.002,2.854-0.003c0.057,0.439,0.166,0.838,0.382,1.142   c0.79,1.109,2.64,0.605,3.73,0.53c2.76-0.189,5.834-0.022,8.492-0.829c0.3-0.091,0.481-0.383,0.519-0.681   c0.046,0.001,0.091,0.002,0.137,0.003c0.262,0.46,0.967,0.469,1.25,0.028c1.002,0.023,2.004,0.045,3.006,0.068   c-0.033,1.211-0.064,2.421-0.095,3.632c-6.922-0.228-13.85-0.348-20.775-0.442c-0.16-0.002-0.159,0.241,0,0.248   c6.917,0.302,13.84,0.577,20.761,0.745c-0.021,0.844-0.046,1.689-0.062,2.533c-6.802-0.354-13.667-0.103-20.447,0.482   c-0.16,0.014-0.164,0.262,0,0.253c6.827-0.363,13.608-0.348,20.436-0.243c-0.023,1.287-0.039,2.574-0.043,3.86   c-1.208-0.137-2.42-0.259-3.635-0.364c-1.99-2.688-7.849-5.471-9.626-1.174c-0.019,0.046-0.024,0.092-0.028,0.137   c-0.265,0.128-0.505,0.288-0.746,0.445c-2.041-0.063-4.079-0.109-6.111-0.131c-0.131-0.001-0.129,0.194,0,0.202   c1.843,0.105,3.684,0.227,5.523,0.358c-0.823,0.669-1.494,1.497-1.961,2.439c-1.27,0.03-2.539,0.071-3.804,0.133   c-0.177,0.009-0.179,0.279,0,0.277c1.206-0.015,2.405,0.004,3.604,0.018c-0.254,0.602-0.439,1.234-0.535,1.886   c-0.029-0.004-0.051-0.02-0.082-0.021c-5.631-0.313-11.261-0.673-16.902-0.573c0.003-2.215-0.738-4.392-2.4-5.958   c-2.558-2.41-8.031-2.869-9.868,0.638c-1.697,1.373-2.652,3.29-2.826,5.302c-1.189-0.125-2.439-0.005-3.614,0.007   c-1.792,0.018-3.6-0.002-5.385,0.165c-0.894,0.084-0.896,1.308,0,1.392c1.783,0.167,3.594,0.148,5.385,0.165   c1.198,0.011,2.454,0.135,3.655,0.002c0.186,1.366,0.724,2.714,1.644,3.901c2.813,3.629,8.349,4.457,11.324,0.6   c1.14-1.478,1.854-3.355,2.037-5.265c5.625,0.737,11.289,1.026,16.951,1.353c0.006,0,0.01-0.003,0.016-0.002   c0.061,0.803,0.245,1.606,0.573,2.377c1.74,4.098,6.952,5.369,10.772,3.473c3.318-1.647,4.558-5.323,3.884-8.71   c0.402,0.032,0.803,0.062,1.206,0.096c-0.053,0.024-0.101,0.059-0.157,0.075c-0.825,0.247-0.676,1.503,0.204,1.51   c1.301,0.01,2.631-1.374,2.536-2.703c0.129-0.147,0.228-0.331,0.241-0.578c0.371-7.054,0.391-14.14,0.551-21.202   C63.823,20.483,64.383,16.62,62.171,13.763z M4.646,37.238c-0.829,0.867-2.257,0.564-3.007-0.232   c-0.003-0.004-0.008-0.004-0.011-0.008c0.361-1.896,1.353-2.971,2.682-3.537c-0.206,0.265-0.26,0.653,0.036,0.908   C5.16,35.07,5.448,36.398,4.646,37.238z M15.55,13.398c-0.053-1.855,0.075-4.167,2.211-4.406c1.984-0.222,1.895,2.155,1.926,3.657   C18.325,12.768,16.862,12.933,15.55,13.398z M36.416,21.365c1.156,0.061,2.313,0.106,3.47,0.158   c-0.023,0.097-0.029,0.186-0.073,0.292c0.117,0.976,0.116,2,0.065,3.041c-0.235,0.008-0.471,0.011-0.705,0.02   c-0.202,0.008-0.203,0.309,0,0.314c0.23,0.006,0.459,0.017,0.69,0.024c-0.124,2.055-0.435,4.168-0.502,6.13   c-1.703,0.227-3.381,0.608-5.107,0.646c-1.025,0.022-2.025,0.139-2.875-0.537c-1.033-0.821-0.704-1.215-0.629-2.591   c0.17-3.089,0.292-6.181,0.417-9.272c1.439-0.004,2.878-0.008,4.318-0.011c0.724-0.002,1.58-0.153,2.279-0.006   c0.529-0.093,0.958,0.115,1.286,0.625c0.575,0.185,0.854,0.505,0.881,0.941c-1.171-0.01-2.343-0.027-3.513-0.028   C36.252,21.111,36.254,21.356,36.416,21.365z M44.804,24.774c-1.201-0.001-2.399,0.016-3.594,0.045   c0.029-0.341,0.06-0.683,0.088-1.024c0.053-0.635,0.202-1.415,0.273-2.195c1.182,0.049,2.364,0.093,3.547,0.135   C45.001,22.746,44.898,23.759,44.804,24.774z M46.713,20.285c2.993,0.978,7.074,0.599,10.317,0.187   c-0.001,0.346,0.005,0.692,0.005,1.038c-3.452-0.108-6.906-0.201-10.36-0.273C46.688,20.92,46.705,20.603,46.713,20.285z    M46.654,21.786c3.461,0.113,6.923,0.206,10.384,0.282c0.002,1.083,0.003,2.165,0.015,3.248c-3.506-0.31-7.039-0.482-10.561-0.527   C46.556,23.789,46.61,22.788,46.654,21.786z M56.914,31.975c-0.077-0.057-0.166-0.103-0.283-0.121   c-1.649-0.253-3.284-0.055-4.94,0.081c-1.939,0.007-3.878,0.036-5.816,0.08c-0.17-1.16,0.51-5.55,0.555-6.232   c0.007-0.108,0.013-0.216,0.02-0.323c3.542,0.16,7.075,0.359,10.613,0.6c0.013,0.969,0.025,1.939,0.045,2.908   c-3.401-0.001-6.805,0.08-10.192,0.297c-0.134,0.009-0.137,0.21,0,0.211c3.402,0.012,6.803,0.016,10.204,0.032   c0.02,0.823,0.027,1.646,0.055,2.469C57.089,31.976,57.002,31.977,56.914,31.975z M23.982,51.646   c-2.131,3.612-6.53,3.195-8.935,0.113c-2.064-2.646-1.651-6.066,0.125-8.709c0.161,0.017,0.334-0.02,0.491-0.144   c2.271-1.801,5.387-2.412,7.712-0.213C25.762,44.95,25.538,49.009,23.982,51.646z M57.269,47.975   c-1.015-0.176-2.046-0.294-3.085-0.354c-0.027-0.153-0.066-0.306-0.129-0.46c-0.109-0.264-0.262-0.496-0.443-0.7   c1.13,0.069,2.261,0.137,3.393,0.22C57.126,47.106,57.219,47.539,57.269,47.975z M49.215,42.81c0.089-0.053,0.141-0.13,0.17-0.213   c2.124-1.211,4.088-0.708,5.532,0.61c-1.938-0.134-3.877-0.238-5.819-0.314C49.139,42.868,49.174,42.835,49.215,42.81z    M48.42,43.381c2.394,0.177,4.787,0.362,7.179,0.549c0.489,0.609,0.889,1.319,1.18,2.078c-1.408-0.116-2.819-0.199-4.232-0.256   c-0.427-0.147-0.891-0.185-1.344-0.081c-0.078-0.031-0.16-0.052-0.245-0.047c-0.125,0.007-0.243,0.029-0.355,0.063   c-1.32-0.031-2.641-0.04-3.961-0.028C47.086,44.787,47.686,44,48.42,43.381z M52.695,48.144c-0.112,0.364-0.481,0.644-0.863,0.719   c-0.524,0.103-0.942-0.186-1.01-0.723c-0.003-0.026,0.005-0.044,0.003-0.069C51.449,48.089,52.073,48.109,52.695,48.144z    M50.904,47.58c0.117-0.274,0.331-0.484,0.549-0.733c0.488-0.008,0.972,0.268,1.18,0.72C52.056,47.559,51.48,47.565,50.904,47.58z    M56.511,51.888c-2.766-0.207-5.571-0.247-8.338-0.061c-0.265,0.018-0.271,0.42,0,0.417c2.672-0.023,5.325,0.011,7.992,0.134   c-0.61,0.762-1.472,1.381-2.635,1.758c-2.914,0.945-6.441-0.202-7.425-3.301c-0.486-1.531-0.322-3.211,0.305-4.696   c1.133,0.027,2.264,0.075,3.395,0.123c-0.294,0.38-0.471,0.882-0.529,1.384c-0.54,0.031-1.078,0.066-1.611,0.109   c-0.208,0.017-0.213,0.338,0,0.328c0.535-0.025,1.062-0.019,1.592-0.021c0.004,0.241,0.028,0.476,0.09,0.684   c0.136,0.457,0.398,0.829,0.728,1.11c-0.728,0.021-1.45,0.054-2.158,0.098c-0.185,0.012-0.189,0.287,0,0.291   c1.144,0.02,2.282,0.083,3.418,0.157c0.086,0.01,0.172,0.016,0.26,0.017c1.808,0.12,3.612,0.266,5.425,0.36   C56.892,51.166,56.727,51.539,56.511,51.888z M57.153,50.318c-1.282-0.244-2.611-0.38-3.951-0.44   c0.54-0.403,0.914-0.986,0.997-1.631c1.034,0.075,2.071,0.155,3.115,0.237C57.342,49.107,57.295,49.726,57.153,50.318z    M61.31,44.754c-0.355,0.32-0.271,0.731-0.237,1.134c0.017,0.199-0.048,0.384-0.145,0.554c-0.64-0.082-1.281-0.161-1.924-0.229   c-0.2-0.73-0.511-1.428-0.89-2.092c1.066,0.081,2.132,0.161,3.199,0.238C61.313,44.491,61.31,44.623,61.31,44.754z M61.557,32.122   c-0.963-0.04-1.927-0.071-2.891-0.097c0.029-0.835,0.035-1.67,0.056-2.505c0.968,0.007,1.935,0.008,2.903,0.02   C61.603,30.4,61.58,31.261,61.557,32.122z M61.642,28.869c-0.001,0.049-0.003,0.098-0.004,0.146   c-0.968-0.021-1.936-0.037-2.905-0.045c0.02-0.929,0.03-1.857,0.043-2.786c1.002,0.072,2.005,0.147,3.008,0.224   C61.717,27.284,61.66,28.114,61.642,28.869z M61.83,25.83c-1.011-0.126-2.025-0.241-3.043-0.344   c0.014-1.126,0.012-2.253,0.016-3.379c1.089,0.023,2.178,0.047,3.266,0.07C62.019,23.42,61.923,24.66,61.83,25.83z" fill="#1d1d1b"/></g><g transform="matrix(0.5149638652801514 0.5149638652801514 -0.5149638652801514 0.5149638652801514 249.86293029785156 282.9849853515625)" id="L1_25"><path d="M58.343,50.533c-0.005-0.041-0.021-0.08-0.051-0.11c-1.67-3.719-5.745-7.322-8.009-9.848   c-5.174-5.773-10.885-11.049-16.84-16.002c0.724-5.822,0.18-11.957-0.226-17.796c2.718,0.111,8.64-1.415,5.71-5.077   c-1.126-1.407-3.051-1.488-4.706-1.582c-3.487-0.2-7.061-0.145-10.554,0.168c-1.058-0.264-2.6,0.129-3.459,0.672   c-1.184,0.748-1.581,2.149-1.147,3.458c0.446,1.346,1.61,2.312,2.912,2.786c1.084,0.394,2.071,0.355,3.011-0.047   c-0.756,5.743-0.425,11.931-0.587,17.672c0,0.003,0.001,0.004,0.001,0.007c-5.428,4.338-9.941,10.2-14.321,15.501   c-2.85,3.449-8.146,8.232-8.79,12.924c-0.489,3.567,1.523,5.806,4.924,6.229c7.762,0.965,16.036,0.46,23.858,0.525   c7.158,0.06,14.858,0.703,21.947-0.379c3.436-0.524,7.146-2.258,7.025-6.277C59.012,52.418,58.752,51.472,58.343,50.533z    M55.859,50.498c0.007,0.018,0.009,0.042,0.016,0.06c-1.038,0.154-2.076,0.368-3.077,0.53c-0.045,0.007-0.075,0.034-0.096,0.066   c-0.1-0.968-0.614-1.965-1.304-2.931c0.897-0.074,1.805-0.148,2.69-0.288C54.797,48.741,55.51,49.603,55.859,50.498z    M53.042,46.729c0.171,0.21,0.361,0.427,0.556,0.648c-0.832,0.124-1.664,0.292-2.487,0.457c-0.574-0.747-1.237-1.466-1.882-2.133   c0.88-0.049,1.764-0.176,2.596-0.42C52.231,45.763,52.643,46.241,53.042,46.729z M47.974,52.993   c-1.377,0.632-3.641,0.349-5.186,0.464c-3.496,0.262-6.995,0.477-10.499,0.614c-3.172,0.124-20.024,2.038-20.857-2.155   c-0.267-1.346,4.126-6.419,4.939-7.64c1.833-2.751,3.773-5.421,5.37-8.312c3.951-0.318,8.578-0.798,12.274-2.25   c4.684,3.971,9.845,8.258,13.461,13.268c0.365,0.444,0.73,0.888,1.095,1.332C50.687,51.607,50.488,53.167,47.974,52.993z    M51.449,44.833c-0.881,0.174-1.752,0.34-2.647,0.429c-0.605-0.614-1.172-1.175-1.602-1.649c-0.277-0.306-0.567-0.596-0.847-0.897   c0.94-0.276,1.875-0.386,2.819-0.498C49.941,43.081,50.701,43.952,51.449,44.833z M46.562,39.425   c0.708,0.751,1.428,1.491,2.119,2.257c-0.883,0.135-1.763,0.401-2.555,0.676c-0.031,0.011-0.041,0.035-0.061,0.054   c-0.893-0.953-1.804-1.884-2.729-2.8C44.39,39.548,45.492,39.538,46.562,39.425z M46.039,38.869   c-0.967,0.092-1.94,0.247-2.878,0.345c-0.069,0.007-0.117,0.042-0.149,0.088c-1.049-1.029-2.129-2.023-3.221-3.005   c0.022,0.009,0.045,0.016,0.076,0.006c1.039-0.358,2.06-0.499,3.101-0.565C44.005,36.768,45.031,37.81,46.039,38.869z    M55.893,53.954c-0.039-0.01-0.077-0.026-0.125-0.012c-0.772,0.214-1.5,0.536-2.284,0.718c-0.874,0.202-1.753,0.268-2.646,0.32   c-0.283,0.016-0.277,0.41,0,0.436c1.566,0.148,3.477-0.088,4.886-0.879c-0.35,1.038-0.917,1.936-1.65,2.339   c-2.068,1.138-5.276,0.775-7.561,0.799c-5.481,0.059-10.964,0.073-16.444,0.057c-5.158-0.015-10.319-0.062-15.476-0.203   c-2.086-0.057-5.834,0.534-7.735-0.274c-4.572-1.943-3.062-5.174-0.863-8.165c6.3-8.57,14.506-15.766,20.543-24.458   c0.24-0.346-0.038-0.795-0.394-0.899c0.852-5.77,1.468-12.464,0.11-18.03c-0.12-0.49-0.92-0.542-1.052-0.042   c-1.523,0.245-3.327-0.442-4.137-1.73c-0.925-1.471,0.115-1.985,1.284-2.345c0.035,0.005,0.062,0.019,0.101,0.019   c3.103,0.015,6.191-0.047,9.294,0.071c1.098,0.042,3.976-0.302,4.836,0.333c1.12,2.173,0.594,3.16-1.577,2.959   c-0.724,0.049-1.445,0.016-2.162-0.097c-0.919-0.093-1.122,0.962-0.647,1.533c-0.012,0.165-0.025,0.334-0.037,0.499   c-1.411-0.189-2.9-0.045-4.318-0.023c-0.403,0.006-0.403,0.62,0,0.626c1.404,0.022,2.876,0.16,4.274-0.02   c-0.061,0.806-0.122,1.612-0.182,2.427c-0.006-0.001-0.007-0.008-0.013-0.009c-1.428-0.258-2.968-0.084-4.413-0.06   c-0.448,0.007-0.449,0.689,0,0.696c1.437,0.024,2.967,0.194,4.388-0.057c-0.074,1.027-0.146,2.058-0.204,3.093   c-1.276-0.185-2.684,0.091-3.918,0.374c-0.342,0.079-0.195,0.586,0.144,0.522c1.248-0.234,2.495-0.198,3.741-0.343   c-0.049,0.952-0.089,1.905-0.109,2.858c-1.123,0.065-2.26,0.267-3.368,0.397c-0.263,0.031-0.275,0.442,0,0.422   c1.108-0.079,2.257-0.096,3.37-0.237c-0.014,0.964-0.022,1.927,0.008,2.884c-0.347,0.063-0.693,0.131-1.036,0.162   c-0.782,0.07-1.564,0.068-2.347,0.02c-0.275-0.017-0.264,0.393,0,0.422c1.002,0.111,2.27,0.237,3.4,0.075   c0.031,0.696,0.076,1.39,0.137,2.079c-1.241-0.085-2.525,0.319-3.642,0.807c-0.217,0.095-0.062,0.467,0.163,0.385   c1.178-0.425,2.328-0.486,3.538-0.597c0.029,0.276,0.046,0.556,0.081,0.831c-0.242,0.323-0.288,0.76,0.119,1.098   c0.538,0.447,1.067,0.906,1.599,1.361c-1.125,0.114-2.242,0.231-3.395,0.191c-0.302-0.011-0.293,0.437,0,0.464   c1.321,0.122,2.742,0.17,4.076-0.074c0.903,0.784,1.8,1.576,2.691,2.378c-1.166,0.152-2.347,0.432-3.473,0.684   c-0.194,0.043-0.156,0.374,0.048,0.352c1.297-0.137,2.669-0.26,3.952-0.555c0.763,0.693,1.532,1.378,2.283,2.085   c-0.972,0.06-1.948,0.208-2.906,0.322c-0.372,0.044-0.39,0.625,0,0.598c1.169-0.081,2.371-0.127,3.534-0.323   c0.738,0.703,1.474,1.409,2.199,2.126c-0.953,0.12-1.893,0.386-2.772,0.73c-0.085,0.034-0.092,0.125-0.056,0.185   c-1.459-1.311-2.947-2.59-4.493-3.812c-0.205-0.162-0.43-0.213-0.644-0.199c-0.114-0.082-0.255-0.142-0.442-0.147   c-3.908-0.106-8.362,1.057-12.165,2.177c-0.214-0.144-0.504-0.164-0.741,0.076c-3.445,3.5-6.095,7.769-8.771,11.867   c-1.233,1.888-4.917,5.72-3.492,8.301c1.336,2.418,5.9,1.571,7.997,1.608c5.734,0.102,11.471,0.057,17.202-0.146   c4.806-0.17,9.833-0.179,14.579-0.976c2.112-0.355,3.985-1.042,3.952-3.552c0-0.019-0.005-0.038-0.005-0.057   c0.029,0.03,0.07,0.049,0.121,0.043c1.032-0.108,2.116-0.174,3.181-0.304C56.185,51.972,56.133,52.99,55.893,53.954z" fill="#1d1d1b"/><path d="M25.708,38.929c-0.213-0.213-0.619-0.124-0.69,0.182c-0.096,0.413-0.258,0.807-0.624,1.073   c-0.228,0.166-0.55,0.271-0.802,0.132c-0.423-0.232-0.511-1.239-0.144-1.588c0.365-0.347-0.012-1.105-0.522-0.896   c-0.839,0.344-1.359,0.944-1.459,1.866c-0.099,0.914,0.415,1.949,1.241,2.373c0.954,0.489,2.099,0.219,2.802-0.566   C26.128,40.816,26.444,39.666,25.708,38.929z" fill="#1d1d1b"/><path d="M18.624,46.262c-0.285-0.054-0.537,0.287-0.299,0.514c0.434,0.415,0.764,0.932,0.573,1.546   c-0.146,0.466-0.488,0.703-0.973,0.724c-1.031,0.045-1.073-1.313-0.515-1.914c0.197-0.211,0.078-0.667-0.261-0.63   c-1.115,0.123-1.779,1.055-1.745,2.162c0.04,1.306,1.174,2.24,2.45,2.238c1.222-0.001,2.367-0.925,2.455-2.173   C20.38,47.711,19.677,46.462,18.624,46.262z" fill="#1d1d1b"/><path d="M27.664,46.077c-0.237-0.849-1.35-2.139-2.347-1.591c-0.172,0.095-0.236,0.391-0.068,0.525   c0.452,0.358,0.973,0.505,1.034,1.184c0.044,0.489-0.269,0.808-0.72,0.936c-1.111,0.314-1.614-1.153-1.004-1.931   c0.385-0.491-0.133-1.428-0.746-0.966c-0.998,0.752-1.397,2.009-0.917,3.188c0.502,1.232,1.883,1.773,3.136,1.411   C27.215,48.491,28.006,47.3,27.664,46.077z" fill="#1d1d1b"/><path d="M36.505,2.933c-3.49-0.275-7.172,0.204-10.665,0.413c-0.34,0.02-0.347,0.538,0,0.534   c3.527-0.037,7.256,0.175,10.747-0.346C36.948,3.48,36.825,2.958,36.505,2.933z" fill="#1d1d1b"/></g><g transform="matrix(0.9551706314086914 0 0 0.9551706314086914 237 79)" id="L1_26"><path d="M60.706,53.532c-18.987-0.637-37.979-1.142-56.97-1.673C3.119,38.064,3.072,24.019,1.364,10.321   c-0.1-0.804-1.27-0.857-1.294,0c-0.397,14.111,0.991,28.425,1.693,42.518c0.028,0.554,0.439,0.993,1.007,1.007   c19.312,0.483,38.623,0.996,57.936,1.374C61.794,55.241,61.79,53.569,60.706,53.532z" fill="#1d1d1b"/><path d="M62.456,52.289c-10.119-7.725-20.895-14.385-31.427-21.37c-0.031-0.028-0.065-0.046-0.101-0.067   c-1.952-1.295-3.894-2.604-5.823-3.931c0.054-0.105,0.009-0.266-0.148-0.279c-0.095-0.008-0.192-0.01-0.287-0.018   c-6.239-4.306-12.323-8.831-18.058-13.877c-0.043-0.223-0.24-0.415-0.46-0.406c-1.678-1.49-3.337-3.009-4.949-4.598   C0.749,7.295,0.086,7.97,0.507,8.439c1.485,1.651,3.038,3.228,4.62,4.773c-0.569,0.702-1.002,1.553-1.454,2.3   c-0.397,0.656,0.575,1.184,1.008,0.589c0.451-0.619,1.004-1.259,1.416-1.95c0.871,0.831,1.761,1.64,2.657,2.444L8.064,17.6   c-1.287-0.117-2.578-0.203-3.851-0.278c-0.207-0.012-0.261,0.339-0.05,0.368c1.165,0.163,2.346,0.317,3.53,0.449   c-0.112,0.163-0.224,0.326-0.335,0.489c-0.277,0.403,0.37,0.913,0.685,0.528c0.247-0.302,0.495-0.605,0.742-0.907   c0.688,0.066,1.375,0.12,2.061,0.161c0.624,0.532,1.243,1.071,1.875,1.594c-2.416-0.181-4.848-0.242-7.262-0.364   c-0.202-0.01-0.201,0.302,0,0.314c2.429,0.152,4.869,0.367,7.306,0.457c-0.317,0.341-0.634,0.682-0.95,1.023   c-0.327,0.352-0.068,0.8,0.288,0.876c-1.467-0.053-2.934-0.097-4.395-0.157c-0.221-0.009-0.219,0.329,0,0.342   c2.91,0.171,5.834,0.408,8.753,0.494c0.168,0.131,0.333,0.266,0.502,0.397c-0.272,0.363-0.544,0.727-0.816,1.09   c-0.01,0.013-0.01,0.027-0.018,0.04c-1.808-0.023-3.618-0.024-5.421-0.046c-0.157-0.002-0.156,0.238,0,0.244   c1.799,0.064,3.603,0.148,5.407,0.211c0.148,0.3,0.59,0.49,0.849,0.182c0.043-0.052,0.087-0.103,0.13-0.155   c0.677,0.02,1.353,0.035,2.03,0.044c0.442,0.322,0.881,0.648,1.322,0.972c-0.014,0.015-0.031,0.02-0.045,0.038   c-0.102,0.131-0.192,0.27-0.288,0.404c-2.304-0.046-4.613-0.019-6.905,0.044c-0.16,0.004-0.16,0.249,0,0.248   c2.204-0.004,4.402,0.06,6.6,0.135c-0.038,0.055-0.079,0.108-0.117,0.164c-0.302,0.445,0.374,0.954,0.74,0.571   c0.217-0.227,0.429-0.455,0.635-0.691c0.224,0.008,0.447,0.015,0.671,0.024c0.984,0.709,1.977,1.408,2.972,2.105   c-0.001,0.001-0.002,0.002-0.003,0.002c-2.665-0.06-5.338-0.041-7.997-0.067c-0.145-0.001-0.144,0.22,0,0.225   c2.536,0.085,5.082,0.21,7.626,0.27c-0.142,0.197-0.275,0.397-0.424,0.59c-0.334,0.432,0.164,0.931,0.597,0.597   c0.312-0.242,0.646-0.413,0.937-0.699c0.082-0.081,0.138-0.167,0.205-0.25c0.731,0.508,1.47,1.005,2.207,1.505   c-3.046-0.211-6.1-0.341-9.146-0.514c-0.157-0.009-0.156,0.233,0,0.244c3.238,0.224,6.479,0.492,9.723,0.663   c0.212,0.143,0.422,0.289,0.634,0.433c-0.025,0.023-0.049,0.049-0.076,0.071c-0.37,0.312-0.687,0.439-0.924,0.886   c-0.056,0.105-0.023,0.224,0.076,0.289c0.214,0.141,0.415,0.19,0.614,0.201c-2.017-0.076-4.035-0.138-6.051-0.211   c-0.154-0.006-0.153,0.231,0,0.239c3.076,0.154,6.155,0.337,9.234,0.45c0.551,0.364,1.099,0.731,1.651,1.094   c-0.347,0.327-0.645,0.707-0.855,1.027c-0.11,0.167-0.116,0.324-0.065,0.456c-1.737-0.034-3.475-0.061-5.212-0.094   c-0.178-0.003-0.178,0.272,0,0.277c1.876,0.05,3.752,0.105,5.629,0.152c0.081,0.018,0.165,0.02,0.249,0.005   c1.043,0.026,2.085,0.041,3.128,0.058c0.554,0.361,1.106,0.722,1.66,1.082c-0.164,0.122-0.317,0.258-0.448,0.42   c-0.081,0.1-0.197,0.225-0.254,0.338c-0.053,0.106-0.039,0.243-0.104,0.333c-0.097,0.135-0.069,0.288,0.015,0.406   c-1.877-0.103-3.756-0.184-5.626-0.296c-0.169-0.01-0.168,0.251,0,0.262c3.229,0.226,6.473,0.541,9.711,0.672   c0.394,0.256,0.789,0.511,1.183,0.767c-0.155,0.068-0.305,0.145-0.449,0.254c-0.264,0.202-0.528,0.403-0.792,0.605   c-0.231,0.177-0.286,0.435-0.232,0.661c-1.48,0.007-2.96,0.054-4.429,0.141c-0.182,0.011-0.185,0.292,0,0.286   c1.596-0.054,3.182-0.044,4.768-0.009c0.096,0.038,0.205,0.04,0.324,0.005c1.334,0.033,2.67,0.084,4.007,0.138   c0.486,0.318,0.974,0.634,1.46,0.952c-0.459,0.37-0.794,0.89-0.966,1.473c-2.529-0.095-5.061-0.158-7.585-0.248   c-0.206-0.007-0.204,0.309,0,0.319c2.498,0.114,5,0.255,7.502,0.365c0.031,0.519,0.785,0.699,0.963,0.127   c0.01-0.031,0.026-0.056,0.037-0.086c1.048,0.042,2.097,0.071,3.144,0.091c0.434,0.288,0.871,0.574,1.303,0.863   c-0.469,0.35-0.895,0.777-1.307,1.162c-0.487,0.456,0.157,1.327,0.724,0.939c0.578-0.396,1.245-0.791,1.746-1.314   c0.808,0.545,1.607,1.097,2.407,1.649c-11.994-0.657-24.013-0.974-36.018-1.327c-0.103-0.003-0.102,0.154,0,0.159   c12.18,0.62,24.373,1.283,36.567,1.584c-0.292,0.285-0.582,0.571-0.873,0.857c-0.23,0.226-0.197,0.483-0.05,0.662   c-14.963-1.737-30.444-2.076-45.4-1.09c-0.149,0.01-0.152,0.236,0,0.234c16.602-0.125,32.921,0.495,49.475,1.685   c0.072,0.005,0.11-0.03,0.134-0.075c0.847,0.602,1.702,1.195,2.536,1.808C62.487,54.412,63.311,52.941,62.456,52.289z    M12.256,22.316c0.103-0.011,0.207-0.046,0.304-0.135c0.443-0.407,0.887-0.814,1.33-1.221c0.637,0.517,1.287,1.02,1.933,1.527   C14.636,22.412,13.446,22.359,12.256,22.316z M17.438,24.542c0.136-0.162,0.272-0.324,0.408-0.485   c0.227,0.173,0.46,0.337,0.689,0.507C18.169,24.553,17.803,24.549,17.438,24.542z M28.958,33.462   c0.253-0.031,0.508-0.139,0.783-0.292c0.051-0.029,0.103-0.067,0.155-0.099c0.154-0.06,0.29-0.131,0.403-0.226   c0.36,0.241,0.723,0.479,1.084,0.718C30.575,33.525,29.767,33.493,28.958,33.462z M33.783,36.537   c0.232-0.281,0.505-0.531,0.813-0.723c0.034-0.021,0.068-0.039,0.102-0.059c0.43,0.281,0.861,0.561,1.291,0.841   C35.254,36.576,34.519,36.553,33.783,36.537z M38.045,39.529c0.449-0.111,0.841-0.501,1.077-0.895   c0.561,0.363,1.121,0.726,1.681,1.09C39.886,39.648,38.966,39.583,38.045,39.529z M42.518,42.418   c0.36-0.23,0.698-0.473,0.999-0.809c0.024-0.027,0.039-0.06,0.056-0.091c0.523,0.339,1.042,0.68,1.564,1.019   C44.266,42.474,43.393,42.435,42.518,42.418z M47.42,45.44c0.218-0.345,0.516-0.625,0.861-0.851   c0.49,0.322,0.977,0.647,1.465,0.971C48.971,45.515,48.196,45.473,47.42,45.44z M55.653,51.293   c0.002-0.001,0.004-0.001,0.006-0.003c0.381-0.296,0.763-0.59,1.142-0.887c0.014-0.011,0.028-0.022,0.042-0.034   c0.607,0.422,1.199,0.858,1.802,1.285C57.653,51.522,56.651,51.412,55.653,51.293z" fill="#1d1d1b"/><path d="M35.718,45.338c-0.256-0.022-0.515-0.036-0.771-0.057c-0.063-0.11-0.15-0.21-0.296-0.276   c-8.972-4.079-15.87-9.127-22.795-16.056c0.001-0.038,0.001-0.076,0.002-0.115c0.021-0.626-1.032-0.797-1.119-0.152   c-0.721,5.35-0.987,11.947,1.292,16.983c0.204,0.451,0.847,0.328,1.04-0.051c7.483,0.782,15.127,1.173,22.646,1.213   C36.69,46.834,36.66,45.419,35.718,45.338z M13.071,44.498c-0.215-2.453-0.831-4.879-1.04-7.342   c-0.193-2.276-0.242-4.553-0.204-6.833c4.152,6.328,10.823,11.606,17.927,14.584C24.199,44.57,18.602,44.421,13.071,44.498z" fill="#1d1d1b"/></g></defs><g fi:class="KUsePattern"><pattern id="pattern_L1_18" width="350" height="350" patternUnits="userSpaceOnUse"><use xlink:href="#L1_18" x="-350" y="-350"/><use xlink:href="#L1_18" x="0" y="-350"/><use xlink:href="#L1_18" x="350" y="-350"/><use xlink:href="#L1_18" x="-350" y="0"/><use xlink:href="#L1_18" x="0" y="0"/><use xlink:href="#L1_18" x="350" y="0"/><use xlink:href="#L1_18" x="-350" y="350"/><use xlink:href="#L1_18" x="0" y="350"/><use xlink:href="#L1_18" x="350" y="350"/></pattern><rect x="0" y="0" width="100%" height="100%" fill="url(#pattern_L1_18)"/></g><g fi:class="KUsePattern"><pattern id="pattern_L1_19" width="350" height="350" patternUnits="userSpaceOnUse"><use xlink:href="#L1_19" x="-350" y="-350"/><use xlink:href="#L1_19" x="0" y="-350"/><use xlink:href="#L1_19" x="350" y="-350"/><use xlink:href="#L1_19" x="-350" y="0"/><use xlink:href="#L1_19" x="0" y="0"/><use xlink:href="#L1_19" x="350" y="0"/><use xlink:href="#L1_19" x="-350" y="350"/><use xlink:href="#L1_19" x="0" y="350"/><use xlink:href="#L1_19" x="350" y="350"/></pattern><rect x="0" y="0" width="100%" height="100%" fill="url(#pattern_L1_19)"/></g><g fi:class="KUsePattern"><pattern id="pattern_L1_20" width="350" height="350" patternUnits="userSpaceOnUse"><use xlink:href="#L1_20" x="-350" y="-350"/><use xlink:href="#L1_20" x="0" y="-350"/><use xlink:href="#L1_20" x="350" y="-350"/><use xlink:href="#L1_20" x="-350" y="0"/><use xlink:href="#L1_20" x="0" y="0"/><use xlink:href="#L1_20" x="350" y="0"/><use xlink:href="#L1_20" x="-350" y="350"/><use xlink:href="#L1_20" x="0" y="350"/><use xlink:href="#L1_20" x="350" y="350"/></pattern><rect x="0" y="0" width="100%" height="100%" fill="url(#pattern_L1_20)"/></g><g fi:class="KUsePattern"><pattern id="pattern_L1_21" width="350" height="350" patternUnits="userSpaceOnUse"><use xlink:href="#L1_21" x="-350" y="-350"/><use xlink:href="#L1_21" x="0" y="-350"/><use xlink:href="#L1_21" x="350" y="-350"/><use xlink:href="#L1_21" x="-350" y="0"/><use xlink:href="#L1_21" x="0" y="0"/><use xlink:href="#L1_21" x="350" y="0"/><use xlink:href="#L1_21" x="-350" y="350"/><use xlink:href="#L1_21" x="0" y="350"/><use xlink:href="#L1_21" x="350" y="350"/></pattern><rect x="0" y="0" width="100%" height="100%" fill="url(#pattern_L1_21)"/></g><g fi:class="KUsePattern"><pattern id="pattern_L1_22" width="350" height="350" patternUnits="userSpaceOnUse"><use xlink:href="#L1_22" x="-350" y="-350"/><use xlink:href="#L1_22" x="0" y="-350"/><use xlink:href="#L1_22" x="350" y="-350"/><use xlink:href="#L1_22" x="-350" y="0"/><use xlink:href="#L1_22" x="0" y="0"/><use xlink:href="#L1_22" x="350" y="0"/><use xlink:href="#L1_22" x="-350" y="350"/><use xlink:href="#L1_22" x="0" y="350"/><use xlink:href="#L1_22" x="350" y="350"/></pattern><rect x="0" y="0" width="100%" height="100%" fill="url(#pattern_L1_22)"/></g><g fi:class="KUsePattern"><pattern id="pattern_L1_23" width="350" height="350" patternUnits="userSpaceOnUse"><use xlink:href="#L1_23" x="-350" y="-350"/><use xlink:href="#L1_23" x="0" y="-350"/><use xlink:href="#L1_23" x="350" y="-350"/><use xlink:href="#L1_23" x="-350" y="0"/><use xlink:href="#L1_23" x="0" y="0"/><use xlink:href="#L1_23" x="350" y="0"/><use xlink:href="#L1_23" x="-350" y="350"/><use xlink:href="#L1_23" x="0" y="350"/><use xlink:href="#L1_23" x="350" y="350"/></pattern><rect x="0" y="0" width="100%" height="100%" fill="url(#pattern_L1_23)"/></g><g fi:class="KUsePattern"><pattern id="pattern_L1_24" width="350" height="350" patternUnits="userSpaceOnUse"><use xlink:href="#L1_24" x="-350" y="-350"/><use xlink:href="#L1_24" x="0" y="-350"/><use xlink:href="#L1_24" x="350" y="-350"/><use xlink:href="#L1_24" x="-350" y="0"/><use xlink:href="#L1_24" x="0" y="0"/><use xlink:href="#L1_24" x="350" y="0"/><use xlink:href="#L1_24" x="-350" y="350"/><use xlink:href="#L1_24" x="0" y="350"/><use xlink:href="#L1_24" x="350" y="350"/></pattern><rect x="0" y="0" width="100%" height="100%" fill="url(#pattern_L1_24)"/></g><g fi:class="KUsePattern"><pattern id="pattern_L1_25" width="350" height="350" patternUnits="userSpaceOnUse"><use xlink:href="#L1_25" x="-350" y="-350"/><use xlink:href="#L1_25" x="0" y="-350"/><use xlink:href="#L1_25" x="350" y="-350"/><use xlink:href="#L1_25" x="-350" y="0"/><use xlink:href="#L1_25" x="0" y="0"/><use xlink:href="#L1_25" x="350" y="0"/><use xlink:href="#L1_25" x="-350" y="350"/><use xlink:href="#L1_25" x="0" y="350"/><use xlink:href="#L1_25" x="350" y="350"/></pattern><rect x="0" y="0" width="100%" height="100%" fill="url(#pattern_L1_25)"/></g><g fi:class="KUsePattern"><pattern id="pattern_L1_26" width="350" height="350" patternUnits="userSpaceOnUse"><use xlink:href="#L1_26" x="-350" y="-350"/><use xlink:href="#L1_26" x="0" y="-350"/><use xlink:href="#L1_26" x="350" y="-350"/><use xlink:href="#L1_26" x="-350" y="0"/><use xlink:href="#L1_26" x="0" y="0"/><use xlink:href="#L1_26" x="350" y="0"/><use xlink:href="#L1_26" x="-350" y="350"/><use xlink:href="#L1_26" x="0" y="350"/><use xlink:href="#L1_26" x="350" y="350"/></pattern><rect x="0" y="0" width="100%" height="100%" fill="url(#pattern_L1_26)"/></g></svg>
